<?xml version="1.0" encoding="UTF-8" standalone="no"?>
<!-- Created with Inkscape (http://www.inkscape.org/) -->

<svg
   xmlns:dc="http://purl.org/dc/elements/1.1/"
   xmlns:cc="http://creativecommons.org/ns#"
   xmlns:rdf="http://www.w3.org/1999/02/22-rdf-syntax-ns#"
   xmlns:svg="http://www.w3.org/2000/svg"
   xmlns="http://www.w3.org/2000/svg"
   version="1.1"
   width="79"
   height="85"
   id="svg2">
  <defs
     id="defs4" />
  <metadata
     id="metadata7">
    <rdf:RDF>
      <cc:Work
         rdf:about="">
        <dc:format>image/svg+xml</dc:format>
        <dc:type
           rdf:resource="http://purl.org/dc/dcmitype/StillImage" />
        <dc:title></dc:title>
      </cc:Work>
    </rdf:RDF>
  </metadata>
  <g
     id="layer2"
     style="display:none">
    <g
       transform="translate(-17.5,-8.59955)"
       id="g3664">
      <polyline
         id="polyline3596"
         points="  65.6,71.8 85.2,83.4 69.8,92.1 "
         stroke-miterlimit="10"
         style="fill:#ffffff;stroke:#424143;stroke-width:2.99909997;stroke-linecap:round;stroke-linejoin:round;stroke-miterlimit:10" />
      <polygon
         points="29.4,42 45.8,40.2 57.4,58.1 "
         id="polygon3598"
         style="fill:#ffffff;stroke:#424143;stroke-width:3;stroke-linejoin:round;stroke-miterlimit:10" />
      <polygon
         points="29.4,73.7 57.4,57.5 85.3,73.7 57.4,89.8 "
         id="polygon3600"
         style="fill:#b1ded8;stroke:#424143;stroke-width:3;stroke-linejoin:round;stroke-miterlimit:10" />
      <polygon
         points="29.4,41.4 57.4,25.3 85.3,41.4 57.4,57.5 "
         id="polygon3602"
         style="fill:#ffffff;stroke:#424143;stroke-width:3;stroke-linejoin:round;stroke-miterlimit:10" />
      <polygon
         points="57.4,25.3 57.4,57.5 29.4,73.7 29.4,41.4 "
         id="polygon3604"
         style="fill:#ffffff;stroke:#424143;stroke-width:3;stroke-linejoin:round;stroke-miterlimit:10" />
      <polygon
         points="57.4,25.3 57.4,57.5 85.3,73.7 85.3,41.4 "
         id="polygon3606"
         style="fill:#ffffff;stroke:#424143;stroke-width:3;stroke-linejoin:round;stroke-miterlimit:10" />
      <polygon
         points="85.3,41.4 85.3,73.7 57.4,89.8 57.4,57.5 "
         id="polygon3608"
         style="fill:none;stroke:#424143;stroke-width:3;stroke-linejoin:round;stroke-miterlimit:10" />
      <polygon
         points="29.4,41.4 57.4,57.5 85.3,41.4 57.4,25.3 "
         id="polygon3610"
         style="fill:#ffffff;stroke:#424143;stroke-width:3;stroke-linejoin:round;stroke-miterlimit:10" />
      <polygon
         points="29.4,41.4 57.4,57.5 57.4,89.8 29.4,73.7 "
         id="polygon3612"
         style="fill:none;stroke:#424143;stroke-width:3;stroke-linejoin:round;stroke-miterlimit:10" />
      <polygon
         points="85.3,41.4 85.3,73.7 57.4,89.8 57.4,57.5 "
         id="polygon3614"
         style="fill:#ffffff;stroke:#424143;stroke-width:3;stroke-linejoin:round;stroke-miterlimit:10" />
      <g
         id="g3616">
        <g
           id="g3618">
          <path
             d="M 20.2,63.7 C 26.1,63.5 32.5,62.1 39,58.6"
             id="path3620"
             style="fill:none;stroke:#424143;stroke-width:2.99909997;stroke-linecap:round;stroke-linejoin:round" />
          <g
             id="g3622">
            <polygon
               points="25,67.7 20.9,63.7 25,59.6 21.5,59.6 17.5,63.7 21.5,67.7 "
               id="polygon3624"
               style="fill:#424143" />
          </g>
          <g
             id="g3626">
            <polygon
               points="36.9,64.4 38.4,58.9 32.9,57.3 35.9,55.6 41.4,57.2 39.9,62.7 "
               id="polygon3628"
               style="fill:#424143" />
          </g>
        </g>
      </g>
      <circle
         cx="57.400002"
         cy="25.299999"
         r="6"
         id="circle3630"
         style="fill:#dbafb5;stroke:#424143;stroke-width:3;stroke-linejoin:round;stroke-miterlimit:10" />
      <line
         id="line3632"
         y2="14.5"
         x2="57.400002"
         y1="11.3"
         x1="57.400002"
         stroke-miterlimit="10"
         style="fill:none;stroke:#424143;stroke-width:2.99909997;stroke-linecap:round;stroke-linejoin:round;stroke-miterlimit:10" />
      <line
         id="line3634"
         y2="17.700001"
         x2="65"
         y1="15.4"
         x1="67.300003"
         stroke-miterlimit="10"
         style="fill:none;stroke:#424143;stroke-width:2.99909997;stroke-linecap:round;stroke-linejoin:round;stroke-miterlimit:10" />
      <line
         id="line3636"
         y2="25.299999"
         x2="68.099998"
         y1="25.299999"
         x1="71.400002"
         stroke-miterlimit="10"
         style="fill:none;stroke:#424143;stroke-width:2.99909997;stroke-linecap:round;stroke-linejoin:round;stroke-miterlimit:10" />
      <line
         id="line3638"
         y2="32.900002"
         x2="65"
         y1="35.200001"
         x1="67.300003"
         stroke-miterlimit="10"
         style="fill:none;stroke:#424143;stroke-width:2.99909997;stroke-linecap:round;stroke-linejoin:round;stroke-miterlimit:10" />
      <line
         id="line3640"
         y2="36"
         x2="57.400002"
         y1="39.299999"
         x1="57.400002"
         stroke-miterlimit="10"
         style="fill:none;stroke:#424143;stroke-width:2.99909997;stroke-linecap:round;stroke-linejoin:round;stroke-miterlimit:10" />
      <line
         id="line3642"
         y2="32.900002"
         x2="49.799999"
         y1="35.200001"
         x1="47.5"
         stroke-miterlimit="10"
         style="fill:none;stroke:#424143;stroke-width:2.99909997;stroke-linecap:round;stroke-linejoin:round;stroke-miterlimit:10" />
      <line
         id="line3644"
         y2="25.299999"
         x2="46.599998"
         y1="25.299999"
         x1="43.400002"
         stroke-miterlimit="10"
         style="fill:none;stroke:#424143;stroke-width:2.99909997;stroke-linecap:round;stroke-linejoin:round;stroke-miterlimit:10" />
      <line
         id="line3646"
         y2="17.700001"
         x2="49.799999"
         y1="15.4"
         x1="47.5"
         stroke-miterlimit="10"
         style="fill:none;stroke:#424143;stroke-width:2.99909997;stroke-linecap:round;stroke-linejoin:round;stroke-miterlimit:10" />
      <polygon
         points="73.8,24.3 57.9,24.5 29.4,41.3 45.9,39.5 "
         id="polygon3648"
         style="fill:#ffffff;stroke:#424143;stroke-width:3;stroke-linejoin:round;stroke-miterlimit:10" />
      <polygon
         points="45.8,39.8 74.2,24.3 85.3,41.5 57.4,57.6 "
         id="polygon3650"
         style="fill:#b1ded8;stroke:#424143;stroke-width:3;stroke-linejoin:round;stroke-miterlimit:10" />
      <line
         id="line3652"
         y2="53.700001"
         x2="65"
         y1="36"
         x1="53.099998"
         stroke-miterlimit="10"
         style="fill:none;stroke:#424143;stroke-width:3;stroke-linejoin:round;stroke-miterlimit:10" />
      <line
         id="line3654"
         y2="49.299999"
         x2="72.699997"
         y1="31.5"
         x1="60.799999"
         stroke-miterlimit="10"
         style="fill:none;stroke:#424143;stroke-width:3;stroke-linejoin:round;stroke-miterlimit:10" />
      <line
         id="line3656"
         y2="45.799999"
         x2="80.199997"
         y1="28.1"
         x1="68.300003"
         stroke-miterlimit="10"
         style="fill:none;stroke:#424143;stroke-width:3;stroke-linejoin:round;stroke-miterlimit:10" />
    </g>
  </g>
  <g
     transform="translate(0,-967.36218)"
     id="layer1"
     style="display:none">
    <g
       transform="translate(-210.23955,772.87235)"
       id="g3916">
      <g
         id="Layer_1">
        <g
           id="g3831">
          <polygon
             points="266.4,213 277.9,230.8 250,214.7 "
             id="polygon3833"
             style="fill:#ffffff" />
          <path
             d="m 277.9,232.3 c -0.3,0 -0.5,-0.1 -0.7,-0.2 l -28,-16.1 c -0.6,-0.3 -0.9,-1 -0.7,-1.6 0.1,-0.6 0.7,-1.1 1.3,-1.2 l 16.4,-1.7 c 0.6,-0.1 1.1,0.2 1.4,0.7 l 11.5,17.9 c 0.4,0.6 0.3,1.3 -0.2,1.8 -0.2,0.3 -0.6,0.4 -1,0.4 z m -23.2,-16.6 18.5,10.7 -7.7,-11.9 -10.8,1.2 z"
             id="path3835"
             style="fill:#414042" />
        </g>
        <g
           id="g3837">
          <polygon
             points="250,275.8 222.1,259.7 250,243.6 277.9,259.7 "
             id="polygon3839"
             style="fill:#ffffff" />
          <path
             d="m 250,277.3 c -0.3,0 -0.5,-0.1 -0.8,-0.2 L 221.3,261 c -0.5,-0.3 -0.8,-0.8 -0.8,-1.3 0,-0.5 0.3,-1 0.8,-1.3 l 27.9,-16.1 c 0.5,-0.3 1,-0.3 1.5,0 l 27.9,16.1 c 0.5,0.3 0.8,0.8 0.8,1.3 0,0.5 -0.3,1 -0.8,1.3 l -27.9,16.1 c -0.2,0.1 -0.4,0.2 -0.7,0.2 z m -24.9,-17.6 24.9,14.4 24.9,-14.4 -24.9,-14.4 -24.9,14.4 z"
             id="path3841"
             style="fill:#414042" />
        </g>
        <g
           id="g3843">
          <polygon
             points="250,243.6 222.1,227.4 250,211.3 277.9,227.4 "
             id="polygon3845"
             style="fill:#ffffff" />
          <path
             d="m 250,245.1 c -0.3,0 -0.5,-0.1 -0.8,-0.2 l -27.9,-16.1 c -0.5,-0.3 -0.8,-0.8 -0.8,-1.3 0,-0.5 0.3,-1 0.8,-1.3 l 27.9,-16.1 c 0.5,-0.3 1,-0.3 1.5,0 l 27.9,16.1 c 0.5,0.3 0.8,0.8 0.8,1.3 0,0.5 -0.3,1 -0.8,1.3 l -27.9,16.1 c -0.2,0.1 -0.4,0.2 -0.7,0.2 z M 225.1,227.4 250,241.8 274.9,227.4 250,213 225.1,227.4 z"
             id="path3847"
             style="fill:#414042" />
        </g>
        <g
           id="g3849">
          <polygon
             points="222.1,227.4 250,211.3 250,243.6 222.1,259.7 "
             id="polygon3851"
             style="fill:#ffffff" />
          <path
             d="m 222.1,261.2 c -0.3,0 -0.5,-0.1 -0.8,-0.2 -0.5,-0.3 -0.8,-0.8 -0.8,-1.3 v -32.3 c 0,-0.5 0.3,-1 0.8,-1.3 L 249.2,210 c 0.5,-0.3 1,-0.3 1.5,0 0.5,0.3 0.8,0.8 0.8,1.3 l 0,32.3 c 0,0.5 -0.3,1 -0.8,1.3 L 222.8,261 c -0.2,0.1 -0.5,0.2 -0.7,0.2 z m 1.5,-32.9 v 28.8 l 24.9,-14.4 0,-28.8 -24.9,14.4 z"
             id="path3853"
             style="fill:#414042" />
        </g>
        <g
           id="g3855">
          <polygon
             points="222.1,259.7 222.1,227.4 250,243.6 250,275.8 "
             id="polygon3857"
             style="fill:#ffffff" />
          <path
             d="m 250,277.3 c -0.3,0 -0.5,-0.1 -0.8,-0.2 L 221.3,261 c -0.5,-0.3 -0.8,-0.8 -0.8,-1.3 v -32.3 c 0,-0.5 0.3,-1 0.8,-1.3 0.5,-0.3 1,-0.3 1.5,0 l 27.9,16.1 c 0.5,0.3 0.8,0.8 0.8,1.3 v 32.3 c 0,0.5 -0.3,1 -0.8,1.3 -0.2,0.1 -0.4,0.2 -0.7,0.2 z m -26.4,-18.5 24.9,14.4 V 244.4 L 223.6,230 v 28.8 z"
             id="path3859"
             style="fill:#414042" />
        </g>
        <g
           id="g3861">
          <polygon
             points="277.9,227.4 250,211.3 250,243.6 277.9,259.7 "
             id="polygon3863"
             style="fill:#ffffff" />
          <path
             d="m 277.9,261.2 c -0.3,0 -0.5,-0.1 -0.8,-0.2 l -27.9,-16.1 c -0.5,-0.3 -0.8,-0.8 -0.8,-1.3 l 0,-32.3 c 0,-0.5 0.3,-1 0.8,-1.3 0.5,-0.3 1,-0.3 1.5,0 l 27.9,16.1 c 0.5,0.3 0.8,0.8 0.8,1.3 v 32.3 c 0,0.5 -0.3,1 -0.8,1.3 -0.1,0.1 -0.4,0.2 -0.7,0.2 z m -26.4,-18.5 24.9,14.4 v -28.8 l -24.9,-14.4 0,28.8 z"
             id="path3865"
             style="fill:#414042" />
        </g>
        <g
           id="g3867">
          <polygon
             points="250,211.3 222.1,227.4 250,243.6 277.9,227.4 "
             id="polygon3869"
             style="fill:#ffffff" />
          <path
             d="m 250,245.1 c -0.3,0 -0.5,-0.1 -0.8,-0.2 l -27.9,-16.1 c -0.5,-0.3 -0.8,-0.8 -0.8,-1.3 0,-0.5 0.3,-1 0.8,-1.3 l 27.9,-16.1 c 0.5,-0.3 1,-0.3 1.5,0 l 27.9,16.1 c 0.5,0.3 0.8,0.8 0.8,1.3 0,0.5 -0.3,1 -0.8,1.3 l -27.9,16.1 c -0.2,0.1 -0.4,0.2 -0.7,0.2 z M 225.1,227.4 250,241.8 274.9,227.4 250,213 225.1,227.4 z"
             id="path3871"
             style="fill:#414042" />
        </g>
        <g
           id="g3873">
          <polygon
             points="250,243.6 277.9,227.4 277.9,259.7 250,275.8 "
             id="polygon3875"
             style="fill:#ffffff" />
          <path
             d="m 250,277.3 c -0.3,0 -0.5,-0.1 -0.8,-0.2 -0.5,-0.3 -0.8,-0.8 -0.8,-1.3 v -32.3 c 0,-0.5 0.3,-1 0.8,-1.3 l 27.9,-16.1 c 0.5,-0.3 1,-0.3 1.5,0 0.5,0.3 0.8,0.8 0.8,1.3 v 32.3 c 0,0.5 -0.3,1 -0.8,1.3 l -27.9,16.1 c -0.2,0.1 -0.4,0.2 -0.7,0.2 z m 1.5,-32.9 v 28.8 l 24.9,-14.4 V 230 l -24.9,14.4 z"
             id="path3877"
             style="fill:#414042" />
        </g>
        <g
           id="g3879">
          <polygon
             points="262.6,250.3 271.3,245.2 271.3,262.9 262.5,268 "
             id="polygon3881"
             style="fill:#ffffff" />
          <path
             d="m 262.5,269.5 c -0.3,0 -0.5,-0.1 -0.8,-0.2 -0.5,-0.3 -0.7,-0.8 -0.7,-1.3 l 0,-17.7 c 0,-0.5 0.3,-1 0.8,-1.3 l 8.8,-5 c 0.5,-0.3 1,-0.3 1.5,0 0.5,0.3 0.7,0.8 0.7,1.3 l 0,17.7 c 0,0.5 -0.3,1 -0.8,1.3 l -8.8,5 c -0.2,0.1 -0.4,0.2 -0.7,0.2 z m 1.6,-18.4 0,14.3 5.8,-3.3 0,-14.3 -5.8,3.3 z"
             id="path3883"
             style="fill:#414042" />
        </g>
        <g
           id="g3885">
          <polygon
             points="238.5,225.7 250,243.6 222.1,227.4 "
             id="polygon3887"
             style="fill:#b0ddd8" />
          <path
             d="m 250,245.1 c -0.3,0 -0.5,-0.1 -0.7,-0.2 l -27.9,-16.1 c -0.6,-0.3 -0.9,-1 -0.7,-1.6 0.1,-0.6 0.7,-1.1 1.3,-1.2 l 16.4,-1.7 c 0.6,-0.1 1.1,0.2 1.4,0.7 l 11.5,17.9 c 0.4,0.6 0.3,1.3 -0.2,1.8 -0.3,0.2 -0.7,0.4 -1.1,0.4 z m -23.2,-16.7 18.5,10.7 -7.7,-11.9 -10.8,1.2 z"
             id="path3889"
             style="fill:#414042" />
        </g>
        <g
           id="g3891">
          <polygon
             points="265.9,210.2 277.9,227.4 250,211.3 "
             id="polygon3893"
             style="fill:#ffffff" />
          <path
             d="m 277.9,228.9 c -0.3,0 -0.5,-0.1 -0.7,-0.2 l -27.9,-16.1 c -0.6,-0.3 -0.9,-1 -0.7,-1.6 0.1,-0.6 0.7,-1.1 1.4,-1.2 l 15.9,-1.1 c 0.5,0 1,0.2 1.3,0.6 l 12,17.2 c 0.4,0.6 0.3,1.4 -0.1,1.9 -0.4,0.4 -0.8,0.5 -1.2,0.5 z m -22.9,-16.4 17.9,10.3 -7.7,-11 -10.2,0.7 z"
             id="path3895"
             style="fill:#414042" />
        </g>
        <g
           id="g3897">
          <polygon
             points="250,243.6 238.5,225.7 266.8,210.2 277.9,227.4 "
             id="polygon3899"
             style="fill:#b0ddd8" />
          <path
             d="m 250,245.1 c -0.5,0 -1,-0.2 -1.3,-0.7 l -11.5,-17.9 c -0.2,-0.4 -0.3,-0.8 -0.2,-1.2 0.1,-0.4 0.4,-0.7 0.7,-0.9 l 28.4,-15.5 c 0.7,-0.4 1.6,-0.2 2,0.5 l 11.1,17.2 c 0.2,0.3 0.3,0.8 0.2,1.2 -0.1,0.4 -0.4,0.7 -0.7,0.9 l -27.9,16.1 c -0.3,0.2 -0.5,0.3 -0.8,0.3 z m -9.4,-18.9 9.9,15.3 25.3,-14.6 -9.5,-14.7 -25.7,14 z"
             id="path3901"
             style="fill:#414042" />
        </g>
        <g
           id="g3903">
          <polygon
             points="238.5,225.7 266.5,210.4 250.5,210.6 222.1,227.4 "
             id="polygon3905"
             style="fill:#b0ddd8" />
          <path
             d="m 222.1,228.9 c -0.6,0 -1.2,-0.4 -1.4,-1 -0.2,-0.7 0.1,-1.4 0.7,-1.8 l 28.4,-16.8 c 0.2,-0.1 0.5,-0.2 0.7,-0.2 l 15.9,-0.2 c 0,0 0,0 0,0 0.7,0 1.3,0.5 1.5,1.1 0.2,0.7 -0.1,1.4 -0.7,1.7 l -28,15.3 c -0.2,0.1 -0.4,0.2 -0.6,0.2 l -16.5,1.8 c 0.1,-0.1 0,-0.1 0,-0.1 z m 28.8,-16.8 -22.1,13.1 9.3,-1 22.4,-12.2 -9.6,0.1 z"
             id="path3907"
             style="fill:#414042" />
        </g>
      </g>
      <g
         id="Layer_2" />
    </g>
  </g>
  <g
     id="layer3"
     style="display:none">
    <g
       transform="translate(-210.17857,-198.60521)"
       id="g4046">
      <g
         id="Layer_1-7">
        <g
           id="g3963">
          <polygon
             points="277.9,263.7 249.9,247.7 250,215.3 277.9,231.4 "
             id="polygon3965"
             style="fill:#ffffff" />
          <path
             d="m 277.9,265.2 c -0.3,0 -0.5,-0.1 -0.7,-0.2 l -28,-15.9 c -0.5,-0.3 -0.8,-0.8 -0.8,-1.3 l 0.1,-32.4 c 0,-0.5 0.3,-1 0.8,-1.3 0.5,-0.3 1,-0.3 1.5,0 l 27.9,16.1 c 0.5,0.3 0.8,0.8 0.8,1.3 l 0,32.2 c 0,0.5 -0.3,1 -0.7,1.3 -0.4,0.1 -0.6,0.2 -0.9,0.2 z m -26.5,-18.3 25,14.2 0,-28.8 -24.9,-14.4 -0.1,29 z"
             id="path3967"
             style="fill:#414042" />
        </g>
        <g
           id="g3969">
          <polygon
             points="277.9,263.7 250,279.8 222.1,263.7 250,247.8 "
             id="polygon3971"
             style="fill:#ffffff" />
          <path
             d="m 250,281.3 c -0.3,0 -0.5,-0.1 -0.8,-0.2 L 221.3,265 c -0.5,-0.3 -0.8,-0.8 -0.8,-1.3 0,-0.5 0.3,-1 0.8,-1.3 l 27.9,-15.9 c 0.5,-0.3 1,-0.3 1.5,0 l 27.9,15.9 c 0.5,0.3 0.8,0.8 0.8,1.3 0,0.5 -0.3,1 -0.7,1.3 l -27.9,16.1 c -0.3,0.2 -0.5,0.2 -0.8,0.2 z m -24.9,-17.6 24.9,14.4 24.9,-14.4 -24.9,-14.2 -24.9,14.2 z"
             id="path3973"
             style="fill:#414042" />
        </g>
        <g
           id="g3975">
          <polygon
             points="277.9,231.4 250,247.8 222.1,231.4 250,215.3 "
             id="polygon3977"
             style="fill:#ffffff" />
          <path
             d="m 250,249.3 c -0.3,0 -0.5,-0.1 -0.8,-0.2 l -27.9,-16.4 c -0.5,-0.3 -0.7,-0.8 -0.7,-1.3 0,-0.5 0.3,-1 0.8,-1.3 L 249.3,214 c 0.5,-0.3 1,-0.3 1.5,0 l 27.9,16.1 c 0.5,0.3 0.7,0.8 0.8,1.3 0,0.5 -0.3,1 -0.7,1.3 l -27.9,16.4 c -0.4,0.1 -0.6,0.2 -0.9,0.2 z M 225.1,231.4 250,246 274.9,231.4 250,217 225.1,231.4 z"
             id="path3979"
             style="fill:#414042" />
        </g>
        <g
           id="g3981">
          <polygon
             points="222.1,263.7 222.1,231.4 250,215.3 250,247.8 "
             id="polygon3983"
             style="fill:#ffffff" />
          <path
             d="m 222.1,265.2 c -0.3,0 -0.5,-0.1 -0.8,-0.2 -0.5,-0.3 -0.7,-0.8 -0.7,-1.3 l 0,-32.3 c 0,-0.5 0.3,-1 0.8,-1.3 L 249.3,214 c 0.5,-0.3 1,-0.3 1.5,0 0.5,0.3 0.8,0.8 0.8,1.3 l 0,32.5 c 0,0.5 -0.3,1 -0.8,1.3 l -28,15.9 c -0.2,0.1 -0.5,0.2 -0.7,0.2 z m 1.5,-32.9 0,28.8 24.9,-14.2 0,-29 -24.9,14.4 z"
             id="path3985"
             style="fill:#414042" />
        </g>
        <g
           id="g3987">
          <polygon
             points="250,279.8 222.1,263.7 222.1,231.4 250,247.8 "
             id="polygon3989"
             style="fill:#ffffff" />
          <path
             d="m 250,281.3 c -0.3,0 -0.5,-0.1 -0.8,-0.2 L 221.3,265 c -0.5,-0.3 -0.8,-0.8 -0.8,-1.3 l 0,-32.3 c 0,-0.5 0.3,-1 0.8,-1.3 0.5,-0.3 1,-0.3 1.5,0 l 27.9,16.4 c 0.5,0.3 0.7,0.8 0.7,1.3 l 0,32 c 0,0.5 -0.3,1 -0.8,1.3 -0.1,0.2 -0.3,0.2 -0.6,0.2 z m -26.4,-18.5 24.9,14.4 0,-28.6 -24.9,-14.6 0,28.8 z"
             id="path3991"
             style="fill:#414042" />
        </g>
        <g
           id="g3993">
          <polygon
             points="277.9,263.7 277.9,231.4 250,215.3 250,247.8 "
             id="polygon3995"
             style="fill:#ffffff" />
          <path
             d="m 277.9,265.2 c -0.3,0 -0.5,-0.1 -0.7,-0.2 l -27.9,-15.9 c -0.5,-0.3 -0.8,-0.8 -0.8,-1.3 l 0,-32.5 c 0,-0.5 0.3,-1 0.8,-1.3 0.5,-0.3 1,-0.3 1.5,0 l 27.9,16.1 c 0.5,0.3 0.8,0.8 0.8,1.3 l 0,32.2 c 0,0.5 -0.3,1 -0.7,1.3 -0.4,0.2 -0.6,0.3 -0.9,0.3 z m -26.4,-18.3 24.9,14.2 0,-28.8 -24.9,-14.4 0,29 z"
             id="path3997"
             style="fill:#414042" />
        </g>
        <g
           id="g3999">
          <polygon
             points="277.9,231.4 250,215.3 222.1,231.4 250,247.8 "
             id="polygon4001"
             style="fill:#b0ddd8" />
          <path
             d="m 250,249.3 c -0.3,0 -0.5,-0.1 -0.8,-0.2 l -27.9,-16.4 c -0.5,-0.3 -0.7,-0.8 -0.7,-1.3 0,-0.5 0.3,-1 0.8,-1.3 L 249.3,214 c 0.5,-0.3 1,-0.3 1.5,0 l 27.9,16.1 c 0.5,0.3 0.7,0.8 0.8,1.3 0,0.5 -0.3,1 -0.7,1.3 l -27.9,16.4 c -0.4,0.1 -0.6,0.2 -0.9,0.2 z M 225.1,231.4 250,246 274.9,231.4 250,217 225.1,231.4 z"
             id="path4003"
             style="fill:#414042" />
        </g>
        <g
           id="g4005">
          <polygon
             points="250,279.8 250,247.8 277.9,231.4 277.9,263.7 "
             id="polygon4007"
             style="fill:#ffffff" />
          <path
             d="m 250,281.3 c -0.3,0 -0.5,-0.1 -0.7,-0.2 -0.5,-0.3 -0.8,-0.8 -0.8,-1.3 l 0,-32 c 0,-0.5 0.3,-1 0.7,-1.3 l 27.9,-16.4 c 0.5,-0.3 1,-0.3 1.5,0 0.5,0.3 0.8,0.8 0.8,1.3 l 0,32.2 c 0,0.5 -0.3,1 -0.7,1.3 L 250.8,281 c -0.3,0.3 -0.5,0.3 -0.8,0.3 z m 1.5,-32.6 0,28.6 24.9,-14.4 0,-28.8 -24.9,14.6 z"
             id="path4009"
             style="fill:#414042" />
        </g>
        <g
           id="g4011">
          <polygon
             points="238,272.2 237.9,254.5 229.1,249.4 229.2,267.2 "
             id="polygon4013"
             style="fill:#ffffff" />
          <path
             d="m 238,273.7 c -0.3,0 -0.5,-0.1 -0.7,-0.2 l -8.8,-5 c -0.5,-0.3 -0.8,-0.8 -0.8,-1.3 l 0,-17.7 c 0,-0.5 0.3,-1 0.7,-1.3 0.4,-0.3 1,-0.3 1.5,0 l 8.8,5 c 0.5,0.3 0.8,0.8 0.8,1.3 l 0,17.7 c 0,0.5 -0.3,1 -0.7,1.3 -0.3,0.2 -0.6,0.2 -0.8,0.2 z m -7.3,-7.4 5.8,3.3 0,-14.3 -5.8,-3.3 0,14.3 z"
             id="path4015"
             style="fill:#414042" />
        </g>
        <g
           id="g4017">
          <polygon
             points="235.7,223.5 252.5,222.2 263.2,240 "
             id="polygon4019"
             style="fill:#b0ddd8" />
          <path
             d="m 263.2,241.5 c -0.3,0 -0.5,-0.1 -0.8,-0.2 L 235,224.8 c -0.6,-0.3 -0.8,-1 -0.7,-1.6 0.1,-0.6 0.7,-1.1 1.3,-1.2 l 16.7,-1.3 c 0.6,0 1.1,0.2 1.4,0.7 l 10.8,17.8 c 0.4,0.6 0.3,1.3 -0.2,1.8 -0.3,0.4 -0.7,0.5 -1.1,0.5 z m -22.6,-16.8 18.3,10.9 -7.2,-11.8 -11.1,0.9 z"
             id="path4021"
             style="fill:#414042" />
        </g>
        <g
           id="g4023">
          <polygon
             points="277.9,231.4 263.2,240 252.5,222.2 266.8,214.2 "
             id="polygon4025"
             style="fill:#b0ddd8" />
          <path
             d="m 263.3,241.5 c -0.5,0 -1,-0.3 -1.3,-0.7 L 251.2,223 c -0.2,-0.3 -0.3,-0.8 -0.2,-1.2 0.1,-0.4 0.4,-0.7 0.7,-0.9 l 14.4,-8 c 0.7,-0.4 1.6,-0.2 2,0.5 l 11.1,17.2 c 0.2,0.3 0.3,0.8 0.2,1.2 -0.1,0.4 -0.3,0.7 -0.7,0.9 l -14.7,8.6 c -0.2,0.2 -0.5,0.2 -0.7,0.2 z m -8.7,-18.7 9.2,15.2 12.1,-7.1 -9.5,-14.7 -11.8,6.6 z"
             id="path4027"
             style="fill:#414042" />
        </g>
        <g
           id="g4029">
          <polygon
             points="235.7,223.5 252.5,222.2 266.8,214.2 250,215.3 "
             id="polygon4031"
             style="fill:#b0ddd8" />
          <path
             d="m 235.7,225 c -0.7,0 -1.2,-0.4 -1.4,-1.1 -0.2,-0.7 0.1,-1.4 0.7,-1.7 l 14.3,-8.2 c 0.2,-0.1 0.4,-0.2 0.7,-0.2 l 16.8,-1.1 c 0.7,0 1.3,0.4 1.5,1.1 0.2,0.7 -0.1,1.4 -0.7,1.7 l -14.4,8 c -0.2,0.1 -0.4,0.2 -0.6,0.2 l -16.7,1.3 c -0.1,0 -0.1,0 -0.2,0 z m 14.8,-8.2 -8.2,4.8 9.8,-0.8 8.3,-4.6 -9.9,0.6 z"
             id="path4033"
             style="fill:#414042" />
        </g>
        <g
           id="g4035">
          <rect
             width="3"
             height="32.099998"
             x="261.79999"
             y="240"
             id="rect4037"
             style="fill:#414042" />
        </g>
      </g>
      <g
         id="Layer_2-7" />
    </g>
  </g>
  <g
     id="layer4"
     style="display:none">
    <g
       transform="translate(-210.17857,-194.42143)"
       id="g4115">
      <g
         id="Layer_1-6">
        <polygon
           points="277.9,259.5 250,275.6 222.1,259.5 250,243.4 "
           id="polygon4092"
           style="fill:#ffffff;stroke:#4d4d4d;stroke-width:3;stroke-linejoin:round;stroke-miterlimit:10" />
        <polygon
           points="277.9,227.2 250,243.4 222.1,227.2 250,211.1 "
           id="polygon4094"
           style="fill:#ffffff;stroke:#4d4d4d;stroke-width:3;stroke-linejoin:round;stroke-miterlimit:10" />
        <polygon
           points="222.1,259.5 222.1,227.2 250,211.1 250,243.4 "
           id="polygon4096"
           style="fill:#ffffff;stroke:#4d4d4d;stroke-width:3;stroke-linejoin:round;stroke-miterlimit:10" />
        <polygon
           points="250,275.6 222.1,259.5 222.1,227.2 250,243.4 "
           id="polygon4098"
           style="fill:#ffffff;stroke:#4d4d4d;stroke-width:3;stroke-linejoin:round;stroke-miterlimit:10" />
        <polygon
           points="277.9,259.5 277.9,227.2 250,211.1 250,243.4 "
           id="polygon4100"
           style="fill:#ffffff;stroke:#4d4d4d;stroke-width:3;stroke-linejoin:round;stroke-miterlimit:10" />
        <polygon
           points="277.9,227.2 250,211.1 222.1,227.2 250,243.4 "
           id="polygon4102"
           style="fill:#b0ddd8;stroke:#414042;stroke-width:3;stroke-linejoin:round;stroke-miterlimit:10" />
        <polygon
           points="250,275.6 250,243.4 277.9,227.2 277.9,259.5 "
           id="polygon4104"
           style="fill:#ffffff;stroke:#4d4d4d;stroke-width:3;stroke-linejoin:round;stroke-miterlimit:10" />
        <polygon
           points="262,267.8 262.1,250 270.9,245 270.8,262.7 "
           id="polygon4106"
           style="fill:#ffffff;stroke:#4d4d4d;stroke-width:3;stroke-linejoin:round;stroke-miterlimit:10" />
      </g>
      <g
         id="Layer_2-2" />
    </g>
  </g>
  <g
     id="layer5"
     style="display:none">
    <g
       transform="translate(-208.40589,-195.33378)"
       id="g4347">
      <g
         id="Layer_1-3">
        <g
           id="g4262">
          <polygon
             points="248.3,215.2 264.6,213.5 276.2,231.4 "
             id="polygon4264"
             style="fill:#ffffff" />
          <path
             d="m 276.2,232.9 c -0.3,0 -0.5,-0.1 -0.7,-0.2 l -27.9,-16.1 c -0.6,-0.3 -0.9,-1 -0.7,-1.6 0.1,-0.6 0.7,-1.1 1.3,-1.2 l 16.4,-1.7 c 0.6,-0.1 1.1,0.2 1.4,0.7 l 11.5,17.9 c 0.4,0.6 0.3,1.3 -0.2,1.8 -0.3,0.2 -0.7,0.4 -1.1,0.4 z M 253,216.2 271.5,226.9 263.8,215 253,216.2 z"
             id="path4266"
             style="fill:#4d4d4d" />
        </g>
        <g
           id="g4268">
          <polygon
             points="276.2,260.2 248.3,276.4 220.3,260.2 248.3,244.1 "
             id="polygon4270"
             style="fill:#ffffff" />
          <path
             d="m 248.3,277.9 c -0.3,0 -0.5,-0.1 -0.8,-0.2 l -27.9,-16.1 c -0.5,-0.3 -0.8,-0.8 -0.8,-1.3 0,-0.5 0.3,-1 0.8,-1.3 l 27.9,-16.1 c 0.5,-0.3 1,-0.3 1.5,0 l 27.9,16.1 c 0.5,0.3 0.8,0.8 0.8,1.3 0,0.5 -0.3,1 -0.8,1.3 L 249,277.7 c -0.2,0.1 -0.5,0.2 -0.7,0.2 z m -25,-17.7 24.9,14.4 24.9,-14.4 -24.9,-14.4 -24.9,14.4 z"
             id="path4272"
             style="fill:#4d4d4d" />
        </g>
        <g
           id="g4274">
          <polygon
             points="276.2,228 248.3,244.1 220.3,228 248.3,211.8 "
             id="polygon4276"
             style="fill:#ffffff" />
          <path
             d="m 248.3,245.6 c -0.3,0 -0.5,-0.1 -0.8,-0.2 l -27.9,-16.1 c -0.5,-0.3 -0.8,-0.8 -0.8,-1.3 0,-0.5 0.3,-1 0.8,-1.3 l 27.9,-16.1 c 0.5,-0.3 1,-0.3 1.5,0 l 27.9,16.1 c 0.5,0.3 0.8,0.8 0.8,1.3 0,0.5 -0.3,1 -0.8,1.3 L 249,245.4 c -0.2,0.1 -0.5,0.2 -0.7,0.2 z m -25,-17.6 24.9,14.4 24.9,-14.4 -24.9,-14.4 -24.9,14.4 z"
             id="path4278"
             style="fill:#4d4d4d" />
        </g>
        <g
           id="g4280">
          <polygon
             points="220.3,260.2 220.3,228 248.3,211.8 248.3,244.1 "
             id="polygon4282"
             style="fill:#ffffff" />
          <path
             d="m 220.3,261.7 c -0.3,0 -0.5,-0.1 -0.8,-0.2 -0.5,-0.3 -0.8,-0.8 -0.8,-1.3 V 228 c 0,-0.5 0.3,-1 0.8,-1.3 l 27.9,-16.1 c 0.5,-0.3 1,-0.3 1.5,0 0.5,0.3 0.8,0.8 0.8,1.3 l 0,32.3 c 0,0.5 -0.3,1 -0.8,1.3 L 221,261.6 c -0.2,0.1 -0.4,0.1 -0.7,0.1 z m 1.5,-32.9 v 28.8 l 24.9,-14.4 0,-28.8 -24.9,14.4 z"
             id="path4284"
             style="fill:#4d4d4d" />
        </g>
        <g
           id="g4286">
          <polygon
             points="248.3,276.4 220.3,260.2 220.3,228 248.3,244.1 "
             id="polygon4288"
             style="fill:#ffffff" />
          <path
             d="m 248.3,277.9 c -0.3,0 -0.5,-0.1 -0.8,-0.2 l -27.9,-16.1 c -0.5,-0.3 -0.8,-0.8 -0.8,-1.3 V 228 c 0,-0.5 0.3,-1 0.8,-1.3 0.5,-0.3 1,-0.3 1.5,0 l 27.9,16.1 c 0.5,0.3 0.8,0.8 0.8,1.3 v 32.3 c 0,0.5 -0.3,1 -0.8,1.3 -0.2,0.1 -0.5,0.2 -0.7,0.2 z m -26.5,-18.5 24.9,14.4 V 245 l -24.9,-14.4 v 28.8 z"
             id="path4290"
             style="fill:#4d4d4d" />
        </g>
        <g
           id="g4292">
          <polygon
             points="276.2,260.2 276.2,228 248.3,211.8 248.3,244.1 "
             id="polygon4294"
             style="fill:#ffffff" />
          <path
             d="m 276.2,261.7 c -0.3,0 -0.5,-0.1 -0.8,-0.2 l -27.9,-16.1 c -0.5,-0.3 -0.8,-0.8 -0.8,-1.3 l 0,-32.3 c 0,-0.5 0.3,-1 0.8,-1.3 0.5,-0.3 1,-0.3 1.5,0 l 27.9,16.1 c 0.5,0.3 0.8,0.8 0.8,1.3 v 32.3 c 0,0.5 -0.3,1 -0.8,1.3 -0.2,0.2 -0.4,0.2 -0.7,0.2 z m -26.4,-18.5 24.9,14.4 v -28.8 l -24.9,-14.4 0,28.8 z"
             id="path4296"
             style="fill:#4d4d4d" />
        </g>
        <g
           id="g4298">
          <polygon
             points="276.2,228 248.3,211.8 220.3,228 248.3,244.1 "
             id="polygon4300"
             style="fill:#ffffff" />
          <path
             d="m 248.3,245.6 c -0.3,0 -0.5,-0.1 -0.8,-0.2 l -27.9,-16.1 c -0.5,-0.3 -0.8,-0.8 -0.8,-1.3 0,-0.5 0.3,-1 0.8,-1.3 l 27.9,-16.1 c 0.5,-0.3 1,-0.3 1.5,0 l 27.9,16.1 c 0.5,0.3 0.8,0.8 0.8,1.3 0,0.5 -0.3,1 -0.8,1.3 L 249,245.4 c -0.2,0.1 -0.5,0.2 -0.7,0.2 z m -25,-17.6 24.9,14.4 24.9,-14.4 -24.9,-14.4 -24.9,14.4 z"
             id="path4302"
             style="fill:#4d4d4d" />
        </g>
        <g
           id="g4304">
          <polygon
             points="248.3,276.4 248.3,244.1 276.2,228 276.2,260.2 "
             id="polygon4306"
             style="fill:#ffffff" />
          <path
             d="m 248.3,277.9 c -0.3,0 -0.5,-0.1 -0.8,-0.2 -0.5,-0.3 -0.8,-0.8 -0.8,-1.3 v -32.3 c 0,-0.5 0.3,-1 0.8,-1.3 l 27.9,-16.1 c 0.5,-0.3 1,-0.3 1.5,0 0.5,0.3 0.8,0.8 0.8,1.3 v 32.3 c 0,0.5 -0.3,1 -0.8,1.3 L 249,277.7 c -0.2,0.1 -0.5,0.2 -0.7,0.2 z m 1.5,-32.9 v 28.8 l 24.9,-14.4 V 230.6 L 249.8,245 z"
             id="path4308"
             style="fill:#4d4d4d" />
        </g>
        <g
           id="g4310">
          <polygon
             points="260.3,268.5 260.3,250.8 269.1,245.8 269.1,263.5 "
             id="polygon4312"
             style="fill:#ffffff" />
          <path
             d="m 260.3,270 c -0.3,0 -0.5,-0.1 -0.8,-0.2 -0.5,-0.3 -0.7,-0.8 -0.7,-1.3 l 0,-17.7 c 0,-0.5 0.3,-1 0.8,-1.3 l 8.8,-5 c 0.5,-0.3 1,-0.3 1.5,0 0.5,0.3 0.7,0.8 0.7,1.3 l 0,17.7 c 0,0.5 -0.3,1 -0.8,1.3 l -8.8,5 c -0.2,0.2 -0.4,0.2 -0.7,0.2 z m 1.5,-18.3 0,14.3 5.8,-3.3 0,-14.3 -5.8,3.3 z"
             id="path4314"
             style="fill:#4d4d4d" />
        </g>
        <g
           id="g4316">
          <polygon
             points="220.3,228 236.7,226.2 248.3,244.1 "
             id="polygon4318"
             style="fill:#ffffff" />
          <path
             d="m 248.3,245.6 c -0.3,0 -0.5,-0.1 -0.7,-0.2 l -27.9,-16.1 c -0.6,-0.3 -0.9,-1 -0.7,-1.6 0.1,-0.6 0.7,-1.1 1.3,-1.2 l 16.4,-1.7 c 0.6,-0.1 1.1,0.2 1.4,0.7 l 11.5,17.9 c 0.4,0.6 0.3,1.3 -0.2,1.8 -0.4,0.2 -0.7,0.4 -1.1,0.4 z m -23.2,-16.6 18.5,10.7 -7.7,-11.9 -10.8,1.2 z"
             id="path4320"
             style="fill:#4d4d4d" />
        </g>
        <g
           id="g4322">
          <polygon
             points="248.3,211.8 264.2,210.7 276.2,228 "
             id="polygon4324"
             style="fill:#ffffff" />
          <path
             d="m 276.2,229.5 c -0.3,0 -0.5,-0.1 -0.7,-0.2 l -27.9,-16.1 c -0.6,-0.3 -0.9,-1 -0.7,-1.6 0.1,-0.6 0.7,-1.1 1.4,-1.2 l 15.9,-1.1 c 0.5,0 1,0.2 1.3,0.6 l 12,17.2 c 0.4,0.6 0.3,1.4 -0.1,1.9 -0.4,0.3 -0.8,0.5 -1.2,0.5 z m -22.9,-16.5 17.9,10.3 -7.7,-11 -10.2,0.7 z"
             id="path4326"
             style="fill:#4d4d4d" />
        </g>
        <g
           id="g4328">
          <polygon
             points="276.2,228 248.3,244.1 236.7,226.2 265.1,210.7 "
             id="polygon4330"
             style="fill:#b0ddd8" />
          <path
             d="m 248.3,245.6 c -0.5,0 -1,-0.2 -1.3,-0.7 L 235.5,227 c -0.2,-0.4 -0.3,-0.8 -0.2,-1.2 0.1,-0.4 0.4,-0.7 0.7,-0.9 l 28.4,-15.5 c 0.7,-0.4 1.6,-0.2 2,0.5 l 11.1,17.2 c 0.2,0.3 0.3,0.8 0.2,1.2 -0.1,0.4 -0.4,0.7 -0.7,0.9 l -28,16.2 c -0.2,0.1 -0.5,0.2 -0.7,0.2 z m -9.4,-18.8 9.9,15.3 25.3,-14.6 -9.5,-14.7 -25.7,14 z"
             id="path4332"
             style="fill:#414042" />
        </g>
        <g
           id="g4334">
          <polygon
             points="220.3,228 236.8,226.2 264.7,211 248.8,211.2 "
             id="polygon4336"
             style="fill:#ffffff" />
          <path
             d="m 220.3,229.5 c -0.6,0 -1.2,-0.4 -1.4,-1 -0.2,-0.7 0.1,-1.4 0.7,-1.8 L 248,209.9 c 0.2,-0.1 0.5,-0.2 0.7,-0.2 l 15.9,-0.2 c 0.7,0 1.3,0.5 1.5,1.1 0.2,0.7 -0.1,1.4 -0.7,1.7 l -27.9,15.3 c -0.2,0.1 -0.4,0.2 -0.6,0.2 l -16.5,1.8 c 0,-0.1 0,-0.1 -0.1,-0.1 z m 28.9,-16.8 -22.2,13 9.3,-1 22.4,-12.2 -9.5,0.2 z"
             id="path4338"
             style="fill:#4d4d4d" />
        </g>
      </g>
      <g
         id="Layer_2-9" />
    </g>
  </g>
  <g
     id="layer6"
     style="display:none">
    <g
       transform="translate(-210.06661,-193.34449)"
       id="g4697">
      <g
         id="Layer_1-4">
        <g
           id="g4612">
          <polygon
             points="277.9,229.5 250,213.3 266.4,211.6 "
             id="polygon4614"
             style="fill:#ffffff" />
          <path
             d="m 277.9,231 c -0.3,0 -0.5,-0.1 -0.7,-0.2 l -27.9,-16.1 c -0.6,-0.3 -0.9,-1 -0.7,-1.6 0.1,-0.6 0.7,-1.1 1.3,-1.2 l 16.4,-1.7 c 0.6,-0.1 1.1,0.2 1.4,0.7 l 11.5,17.9 c 0.4,0.6 0.3,1.3 -0.2,1.8 -0.3,0.2 -0.7,0.4 -1.1,0.4 z m -23.2,-16.7 18.5,10.7 -7.7,-11.9 -10.8,1.2 z"
             id="path4616"
             style="fill:#414042" />
        </g>
        <g
           id="g4618">
          <polygon
             points="250,274.5 222.1,258.3 250,242.2 277.9,258.3 "
             id="polygon4620"
             style="fill:#ffffff" />
          <path
             d="m 250,276 c -0.3,0 -0.5,-0.1 -0.8,-0.2 l -27.9,-16.1 c -0.5,-0.3 -0.8,-0.8 -0.8,-1.3 0,-0.5 0.3,-1 0.8,-1.3 L 249.2,241 c 0.5,-0.3 1,-0.3 1.5,0 l 27.9,16.1 c 0.5,0.3 0.8,0.8 0.8,1.3 0,0.5 -0.3,1 -0.8,1.3 l -27.9,16.1 c -0.2,0.1 -0.4,0.2 -0.7,0.2 z m -24.9,-17.7 24.9,14.4 24.9,-14.4 -24.9,-14.4 -24.9,14.4 z"
             id="path4622"
             style="fill:#414042" />
        </g>
        <g
           id="g4624">
          <polygon
             points="250,242.2 222.1,226.1 250,209.9 277.9,226.1 "
             id="polygon4626"
             style="fill:#ffffff" />
          <path
             d="m 250,243.7 c -0.3,0 -0.5,-0.1 -0.8,-0.2 l -27.9,-16.1 c -0.5,-0.3 -0.8,-0.8 -0.8,-1.3 0,-0.5 0.3,-1 0.8,-1.3 l 27.9,-16.1 c 0.5,-0.3 1,-0.3 1.5,0 l 27.9,16.1 c 0.5,0.3 0.8,0.8 0.8,1.3 0,0.5 -0.3,1 -0.8,1.3 l -27.9,16.1 c -0.2,0.1 -0.4,0.2 -0.7,0.2 z m -24.9,-17.6 24.9,14.4 24.9,-14.4 -24.9,-14.4 -24.9,14.4 z"
             id="path4628"
             style="fill:#414042" />
        </g>
        <g
           id="g4630">
          <polygon
             points="222.1,226.1 250,209.9 250,242.2 222.1,258.3 "
             id="polygon4632"
             style="fill:#ffffff" />
          <path
             d="m 222.1,259.8 c -0.3,0 -0.5,-0.1 -0.8,-0.2 -0.5,-0.3 -0.8,-0.8 -0.8,-1.3 V 226 c 0,-0.5 0.3,-1 0.8,-1.3 l 27.9,-16.1 c 0.5,-0.3 1,-0.3 1.5,0 0.5,0.3 0.8,0.8 0.8,1.3 l 0,32.3 c 0,0.5 -0.3,1 -0.8,1.3 l -27.9,16.1 c -0.2,0.2 -0.5,0.2 -0.7,0.2 z m 1.5,-32.9 v 28.8 l 24.9,-14.4 0,-28.8 -24.9,14.4 z"
             id="path4634"
             style="fill:#414042" />
        </g>
        <g
           id="g4636">
          <polygon
             points="222.1,258.3 222.1,226.1 250,242.2 250,274.5 "
             id="polygon4638"
             style="fill:#b0ddd8" />
          <path
             d="m 250,276 c -0.3,0 -0.5,-0.1 -0.8,-0.2 l -27.9,-16.1 c -0.5,-0.3 -0.8,-0.8 -0.8,-1.3 v -32.3 c 0,-0.5 0.3,-1 0.8,-1.3 0.5,-0.3 1,-0.3 1.5,0 l 27.9,16.1 c 0.5,0.3 0.8,0.8 0.8,1.3 v 32.3 c 0,0.5 -0.3,1 -0.8,1.3 -0.2,0.1 -0.4,0.2 -0.7,0.2 z m -26.4,-18.5 24.9,14.4 v -28.8 l -24.9,-14.4 v 28.8 z"
             id="path4640"
             style="fill:#414042" />
        </g>
        <g
           id="g4642">
          <polygon
             points="277.9,226.1 250,209.9 250,242.2 277.9,258.3 "
             id="polygon4644"
             style="fill:#ffffff" />
          <path
             d="m 277.9,259.8 c -0.3,0 -0.5,-0.1 -0.8,-0.2 l -27.9,-16.1 c -0.5,-0.3 -0.8,-0.8 -0.8,-1.3 l 0,-32.3 c 0,-0.5 0.3,-1 0.8,-1.3 0.5,-0.3 1,-0.3 1.5,0 l 27.9,16.1 c 0.5,0.3 0.8,0.8 0.8,1.3 v 32.3 c 0,0.5 -0.3,1 -0.8,1.3 -0.1,0.2 -0.4,0.2 -0.7,0.2 z m -26.4,-18.5 24.9,14.4 v -28.8 l -24.9,-14.4 0,28.8 z"
             id="path4646"
             style="fill:#414042" />
        </g>
        <g
           id="g4648">
          <polygon
             points="250,209.9 222.1,226.1 250,242.2 277.9,226.1 "
             id="polygon4650"
             style="fill:#ffffff" />
          <path
             d="m 250,243.7 c -0.3,0 -0.5,-0.1 -0.8,-0.2 l -27.9,-16.1 c -0.5,-0.3 -0.8,-0.8 -0.8,-1.3 0,-0.5 0.3,-1 0.8,-1.3 l 27.9,-16.1 c 0.5,-0.3 1,-0.3 1.5,0 l 27.9,16.1 c 0.5,0.3 0.8,0.8 0.8,1.3 0,0.5 -0.3,1 -0.8,1.3 l -27.9,16.1 c -0.2,0.1 -0.4,0.2 -0.7,0.2 z m -24.9,-17.6 24.9,14.4 24.9,-14.4 -24.9,-14.4 -24.9,14.4 z"
             id="path4652"
             style="fill:#414042" />
        </g>
        <g
           id="g4654">
          <polygon
             points="250,242.2 277.9,226.1 277.9,258.3 250,274.5 "
             id="polygon4656"
             style="fill:#b0ddd8" />
          <path
             d="m 250,276 c -0.3,0 -0.5,-0.1 -0.8,-0.2 -0.5,-0.3 -0.8,-0.8 -0.8,-1.3 v -32.3 c 0,-0.5 0.3,-1 0.8,-1.3 l 27.9,-16.1 c 0.5,-0.3 1,-0.3 1.5,0 0.5,0.3 0.8,0.8 0.8,1.3 v 32.3 c 0,0.5 -0.3,1 -0.8,1.3 l -27.9,16.1 c -0.2,0.1 -0.4,0.2 -0.7,0.2 z m 1.5,-32.9 v 28.8 l 24.9,-14.4 v -28.8 l -24.9,14.4 z"
             id="path4658"
             style="fill:#414042" />
        </g>
        <g
           id="g4660">
          <polygon
             points="262.6,248.9 271.3,243.8 271.3,261.6 262.5,266.6 "
             id="polygon4662"
             style="fill:#ffffff" />
          <path
             d="m 262.5,268.1 c -0.3,0 -0.5,-0.1 -0.8,-0.2 -0.5,-0.3 -0.7,-0.8 -0.7,-1.3 l 0,-17.7 c 0,-0.5 0.3,-1 0.8,-1.3 l 8.8,-5 c 0.5,-0.3 1,-0.3 1.5,0 0.5,0.3 0.7,0.8 0.7,1.3 l 0,17.7 c 0,0.5 -0.3,1 -0.8,1.3 l -8.8,5 c -0.2,0.2 -0.4,0.2 -0.7,0.2 z m 1.6,-18.3 0,14.3 5.8,-3.3 0,-14.3 -5.8,3.3 z"
             id="path4664"
             style="fill:#414042" />
        </g>
        <g
           id="g4666">
          <polygon
             points="250,242.2 222.1,226.1 238.5,224.3 "
             id="polygon4668"
             style="fill:#ffffff" />
          <path
             d="m 250,243.7 c -0.3,0 -0.5,-0.1 -0.7,-0.2 l -27.9,-16.1 c -0.6,-0.3 -0.9,-1 -0.7,-1.6 0.1,-0.6 0.7,-1.1 1.3,-1.2 l 16.4,-1.7 c 0.6,-0.1 1.1,0.2 1.4,0.7 l 11.5,17.9 c 0.4,0.6 0.3,1.3 -0.2,1.8 -0.3,0.2 -0.7,0.4 -1.1,0.4 z m -23.2,-16.6 18.5,10.7 -7.7,-11.9 -10.8,1.2 z"
             id="path4670"
             style="fill:#414042" />
        </g>
        <g
           id="g4672">
          <polygon
             points="277.9,226.1 250,209.9 265.9,208.8 "
             id="polygon4674"
             style="fill:#ffffff" />
          <path
             d="m 277.9,227.6 c -0.3,0 -0.5,-0.1 -0.7,-0.2 l -27.9,-16.1 c -0.6,-0.3 -0.9,-1 -0.7,-1.6 0.1,-0.6 0.7,-1.1 1.4,-1.2 l 15.9,-1.1 c 0.5,0 1,0.2 1.3,0.6 l 12,17.2 c 0.4,0.6 0.3,1.4 -0.1,1.9 -0.4,0.3 -0.8,0.5 -1.2,0.5 z m -22.9,-16.5 17.9,10.3 -7.7,-11 -10.2,0.7 z"
             id="path4676"
             style="fill:#414042" />
        </g>
        <g
           id="g4678">
          <polygon
             points="250,242.2 238.5,224.3 266.8,208.8 277.9,226.1 "
             id="polygon4680"
             style="fill:#ffffff" />
          <path
             d="m 250,243.7 c -0.5,0 -1,-0.2 -1.3,-0.7 l -11.5,-17.9 c -0.2,-0.4 -0.3,-0.8 -0.2,-1.2 0.1,-0.4 0.4,-0.7 0.7,-0.9 l 28.4,-15.5 c 0.7,-0.4 1.6,-0.2 2,0.5 l 11.1,17.2 c 0.2,0.3 0.3,0.8 0.2,1.2 -0.1,0.4 -0.4,0.7 -0.7,0.9 l -27.9,16.1 c -0.3,0.2 -0.5,0.3 -0.8,0.3 z m -9.4,-18.8 9.9,15.3 25.3,-14.6 -9.5,-14.7 -25.7,14 z"
             id="path4682"
             style="fill:#414042" />
        </g>
        <g
           id="g4684">
          <polygon
             points="238.5,224.3 266.5,209 250.5,209.3 222.1,226.1 "
             id="polygon4686"
             style="fill:#ffffff" />
          <path
             d="m 222.1,227.6 c -0.6,0 -1.2,-0.4 -1.4,-1 -0.2,-0.7 0.1,-1.4 0.7,-1.8 L 249.8,208 c 0.2,-0.1 0.5,-0.2 0.7,-0.2 l 15.9,-0.2 c 0,0 0,0 0,0 0.7,0 1.3,0.5 1.5,1.1 0.2,0.7 -0.1,1.4 -0.7,1.7 l -27.9,15.3 c -0.2,0.1 -0.4,0.2 -0.6,0.2 l -16.5,1.8 c 0,-0.1 -0.1,-0.1 -0.1,-0.1 z m 28.8,-16.8 -22.1,13.1 9.3,-1 22.4,-12.2 -9.6,0.1 z"
             id="path4688"
             style="fill:#414042" />
        </g>
      </g>
      <g
         id="Layer_2-5" />
    </g>
  </g>
  <g
     id="layer8"
     style="display:inline">
    <g
       transform="translate(-210.23747,-195.33378)"
       id="g4935">
      <g
         id="Layer_1-8">
        <g
           id="g4858">
          <polygon
             points="238.5,227 250,244.9 222.1,228.8 "
             id="polygon4860"
             style="fill:#ffffff" />
          <path
             d="m 250,246.4 c -0.3,0 -0.5,-0.1 -0.7,-0.2 l -27.9,-16.1 c -0.6,-0.3 -0.9,-1 -0.7,-1.6 0.1,-0.6 0.7,-1.1 1.3,-1.2 l 16.4,-1.7 c 0.6,-0.1 1.1,0.2 1.4,0.7 l 11.5,17.9 c 0.4,0.6 0.3,1.3 -0.2,1.8 -0.3,0.2 -0.7,0.4 -1.1,0.4 z m -23.2,-16.6 18.5,10.7 -7.7,-11.9 -10.8,1.2 z"
             id="path4862"
             style="fill:#414042" />
        </g>
        <g
           id="g4864">
          <polygon
             points="222.1,260.5 250,244.3 277.9,260.5 250,276.6 "
             id="polygon4866"
             style="fill:#b0ddd8" />
          <path
             d="m 250,278.1 c -0.3,0 -0.5,-0.1 -0.8,-0.2 l -27.9,-16.1 c -0.5,-0.3 -0.8,-0.8 -0.8,-1.3 0,-0.5 0.3,-1 0.8,-1.3 l 27.9,-16.1 c 0.5,-0.3 1,-0.3 1.5,0 l 27.9,16.1 c 0.5,0.3 0.8,0.8 0.8,1.3 0,0.5 -0.3,1 -0.8,1.3 l -27.9,16.1 c -0.2,0.1 -0.4,0.2 -0.7,0.2 z m -24.9,-17.6 24.9,14.4 24.9,-14.4 -24.9,-14.4 -24.9,14.4 z"
             id="path4868"
             style="fill:#414042" />
        </g>
        <g
           id="g4870">
          <polygon
             points="222.1,228.2 250,212.1 277.9,228.2 250,244.3 "
             id="polygon4872"
             style="fill:#ffffff" />
          <path
             d="m 250,245.8 c -0.3,0 -0.5,-0.1 -0.8,-0.2 l -27.9,-16.1 c -0.5,-0.3 -0.8,-0.8 -0.8,-1.3 0,-0.5 0.3,-1 0.8,-1.3 l 27.9,-16.1 c 0.5,-0.3 1,-0.3 1.5,0 l 27.9,16.1 c 0.5,0.3 0.8,0.8 0.8,1.3 0,0.5 -0.3,1 -0.8,1.3 l -27.9,16.1 c -0.2,0.2 -0.4,0.2 -0.7,0.2 z m -24.9,-17.6 24.9,14.4 24.9,-14.4 -24.9,-14.4 -24.9,14.4 z"
             id="path4874"
             style="fill:#414042" />
        </g>
        <g
           id="g4876">
          <polygon
             points="250,212.1 250,244.3 222.1,260.5 222.1,228.2 "
             id="polygon4878"
             style="fill:#ffffff" />
          <path
             d="m 222.1,262 c -0.3,0 -0.5,-0.1 -0.8,-0.2 -0.5,-0.3 -0.8,-0.8 -0.8,-1.3 v -32.3 c 0,-0.5 0.3,-1 0.8,-1.3 l 27.9,-16.1 c 0.5,-0.3 1,-0.3 1.5,0 0.5,0.3 0.8,0.8 0.8,1.3 l 0,32.3 c 0,0.5 -0.3,1 -0.8,1.3 l -27.9,16.1 c -0.2,0.1 -0.5,0.2 -0.7,0.2 z m 1.5,-32.9 v 28.8 l 24.9,-14.4 0,-28.8 -24.9,14.4 z"
             id="path4880"
             style="fill:#414042" />
        </g>
        <g
           id="g4882">
          <polygon
             points="250,212.1 250,244.3 277.9,260.5 277.9,228.2 "
             id="polygon4884"
             style="fill:#ffffff" />
          <path
             d="m 277.9,262 c -0.3,0 -0.5,-0.1 -0.8,-0.2 l -27.9,-16.1 c -0.5,-0.3 -0.8,-0.8 -0.8,-1.3 l 0,-32.3 c 0,-0.5 0.3,-1 0.8,-1.3 0.5,-0.3 1,-0.3 1.5,0 l 27.9,16.1 c 0.5,0.3 0.8,0.8 0.8,1.3 v 32.3 c 0,0.5 -0.3,1 -0.8,1.3 -0.1,0.1 -0.4,0.2 -0.7,0.2 z m -26.4,-18.5 24.9,14.4 v -28.8 l -24.9,-14.4 0,28.8 z"
             id="path4886"
             style="fill:#414042" />
        </g>
        <g
           id="g4888">
          <path
             d="m 250,278.1 c -0.3,0 -0.5,-0.1 -0.8,-0.2 -0.5,-0.3 -0.8,-0.8 -0.8,-1.3 v -32.3 c 0,-0.5 0.3,-1 0.8,-1.3 l 27.9,-16.1 c 0.5,-0.3 1,-0.3 1.5,0 0.5,0.3 0.8,0.8 0.8,1.3 v 32.3 c 0,0.5 -0.3,1 -0.8,1.3 l -27.9,16.1 c -0.2,0.1 -0.4,0.2 -0.7,0.2 z m 1.5,-32.9 V 274 l 24.9,-14.4 v -28.8 l -24.9,14.4 z"
             id="path4890"
             style="fill:#414042" />
        </g>
        <g
           id="g4892">
          <polygon
             points="222.1,228.2 250,244.3 277.9,228.2 250,212.1 "
             id="polygon4894"
             style="fill:#ffffff" />
          <path
             d="m 250,245.8 c -0.3,0 -0.5,-0.1 -0.8,-0.2 l -27.9,-16.1 c -0.5,-0.3 -0.8,-0.8 -0.8,-1.3 0,-0.5 0.3,-1 0.8,-1.3 l 27.9,-16.1 c 0.5,-0.3 1,-0.3 1.5,0 l 27.9,16.1 c 0.5,0.3 0.8,0.8 0.8,1.3 0,0.5 -0.3,1 -0.8,1.3 l -27.9,16.1 c -0.2,0.2 -0.4,0.2 -0.7,0.2 z m -24.9,-17.6 24.9,14.4 24.9,-14.4 -24.9,-14.4 -24.9,14.4 z"
             id="path4896"
             style="fill:#414042" />
        </g>
        <g
           id="g4898">
          <polygon
             points="222.1,228.2 250,244.3 250,276.6 222.1,260.5 "
             id="polygon4900"
             style="fill:#ffffff" />
          <path
             d="m 250,278.1 c -0.3,0 -0.5,-0.1 -0.8,-0.2 l -27.9,-16.1 c -0.5,-0.3 -0.8,-0.8 -0.8,-1.3 v -32.3 c 0,-0.5 0.3,-1 0.8,-1.3 0.5,-0.3 1,-0.3 1.5,0 l 27.9,16.1 c 0.5,0.3 0.8,0.8 0.8,1.3 v 32.3 c 0,0.5 -0.3,1 -0.8,1.3 -0.2,0.1 -0.4,0.2 -0.7,0.2 z m -26.4,-18.5 24.9,14.4 v -28.8 l -24.9,-14.4 v 28.8 z"
             id="path4902"
             style="fill:#414042" />
        </g>
        <g
           id="g4904">
          <polygon
             points="240.4,260.3 240.4,248.4 231.6,243.3 231.7,255.3 "
             id="polygon4906"
             style="fill:#b0ddd8" />
          <path
             d="m 240.4,261.8 c -0.3,0 -0.5,-0.1 -0.7,-0.2 l -8.8,-5 c -0.5,-0.3 -0.8,-0.8 -0.8,-1.3 l 0,-12 c 0,-0.5 0.3,-1 0.7,-1.3 0.5,-0.3 1,-0.3 1.5,0 l 8.8,5 c 0.5,0.3 0.8,0.8 0.8,1.3 l 0,12 c 0,0.5 -0.3,1 -0.7,1.3 -0.2,0.2 -0.5,0.2 -0.8,0.2 z m -7.2,-7.4 5.8,3.3 0,-8.5 -5.8,-3.3 0,8.5 z"
             id="path4908"
             style="fill:#414042" />
        </g>
        <g
           id="g4910">
          <polygon
             points="277.9,228.2 277.9,260.5 250,276.6 250,244.3 "
             id="polygon4912"
             style="fill:#ffffff" />
          <path
             d="m 250,278.1 c -0.3,0 -0.5,-0.1 -0.8,-0.2 -0.5,-0.3 -0.8,-0.8 -0.8,-1.3 v -32.3 c 0,-0.5 0.3,-1 0.8,-1.3 l 27.9,-16.1 c 0.5,-0.3 1,-0.3 1.5,0 0.5,0.3 0.8,0.8 0.8,1.3 v 32.3 c 0,0.5 -0.3,1 -0.8,1.3 l -27.9,16.1 c -0.2,0.1 -0.4,0.2 -0.7,0.2 z m 1.5,-32.9 V 274 l 24.9,-14.4 v -28.8 l -24.9,14.4 z"
             id="path4914"
             style="fill:#414042" />
        </g>
        <g
           id="g4916">
          <polygon
             points="266.5,210.7 250.5,211 222.1,227.8 238.5,226 "
             id="polygon4918"
             style="fill:#ffffff" />
          <path
             d="m 222.1,229.3 c -0.6,0 -1.2,-0.4 -1.4,-1 -0.2,-0.7 0.1,-1.4 0.7,-1.8 l 28.4,-16.8 c 0.2,-0.1 0.5,-0.2 0.7,-0.2 l 15.9,-0.2 c 0.7,0 1.3,0.5 1.5,1.1 0.2,0.7 -0.1,1.4 -0.7,1.7 l -27.9,15.3 c -0.2,0.1 -0.4,0.2 -0.6,0.2 l -16.5,1.8 c 0,-0.1 -0.1,-0.1 -0.1,-0.1 z m 28.8,-16.8 -22.1,13.1 9.3,-1 22.4,-12.2 -9.6,0.1 z"
             id="path4920"
             style="fill:#414042" />
        </g>
        <g
           id="g4922">
          <polygon
             points="238.5,226 266.8,210.5 277.9,227.8 250,243.9 "
             id="polygon4924"
             style="fill:#ffffff" />
          <path
             d="m 250,245.4 c -0.5,0 -1,-0.2 -1.3,-0.7 l -11.5,-17.9 c -0.2,-0.4 -0.3,-0.8 -0.2,-1.2 0.1,-0.4 0.4,-0.7 0.7,-0.9 l 28.4,-15.5 c 0.7,-0.4 1.6,-0.2 2,0.5 l 11.1,17.2 c 0.2,0.3 0.3,0.8 0.2,1.2 -0.1,0.4 -0.4,0.7 -0.7,0.9 l -27.9,16.1 c -0.3,0.2 -0.5,0.3 -0.8,0.3 z m -9.4,-18.8 9.9,15.3 25.3,-14.6 -9.5,-14.7 -25.7,14 z"
             id="path4926"
             style="fill:#414042" />
        </g>
      </g>
      <g
         id="Layer_2-8" />
    </g>
  </g>
  <g
     id="layer9"
     style="display:none">
    <g
       transform="translate(-210.19847,-195.03571)"
       id="g5089">
      <g
         id="Layer_1-5">
        <g
           id="g4978">
          <polygon
             points="266.5,213.3 278,231.2 250.1,215 "
             id="polygon4980"
             style="fill:#ffffff" />
          <path
             d="m 278,232.7 c -0.3,0 -0.5,-0.1 -0.7,-0.2 l -27.9,-16.1 c -0.6,-0.3 -0.9,-1 -0.7,-1.6 0.1,-0.6 0.7,-1.1 1.3,-1.2 l 16.4,-1.7 c 0.6,-0.1 1.1,0.2 1.4,0.7 l 11.5,17.9 c 0.4,0.6 0.3,1.3 -0.2,1.8 -0.3,0.2 -0.7,0.4 -1.1,0.4 z m -23.2,-16.7 18.5,10.7 -7.7,-11.9 -10.8,1.2 z"
             id="path4982"
             style="fill:#414042" />
        </g>
        <g
           id="g4984">
          <polygon
             points="250.1,243.9 278,260 250.1,276.2 222.2,260 "
             id="polygon4986"
             style="fill:#ffffff" />
          <path
             d="m 250.1,277.7 c -0.3,0 -0.5,-0.1 -0.8,-0.2 l -27.9,-16.1 c -0.5,-0.3 -0.8,-0.8 -0.8,-1.3 0,-0.5 0.3,-1 0.8,-1.3 l 27.9,-16.1 c 0.5,-0.3 1,-0.3 1.5,0 l 27.9,16.1 c 0.5,0.3 0.8,0.8 0.8,1.3 0,0.5 -0.3,1 -0.8,1.3 l -27.9,16.1 c -0.2,0.1 -0.4,0.2 -0.7,0.2 z M 225.2,260 250.1,274.4 275,260 250.1,245.6 225.2,260 z"
             id="path4988"
             style="fill:#414042" />
        </g>
        <g
           id="g4990">
          <polygon
             points="250.1,211.6 278,227.8 250.1,243.9 222.2,227.8 "
             id="polygon4992"
             style="fill:#ffffff" />
          <path
             d="m 250.1,245.4 c -0.3,0 -0.5,-0.1 -0.8,-0.2 l -27.9,-16.1 c -0.5,-0.3 -0.8,-0.8 -0.8,-1.3 0,-0.5 0.3,-1 0.8,-1.3 l 27.9,-16.1 c 0.5,-0.3 1,-0.3 1.5,0 l 27.9,16.1 c 0.5,0.3 0.8,0.8 0.8,1.3 0,0.5 -0.3,1 -0.8,1.3 l -27.9,16.1 c -0.2,0.1 -0.4,0.2 -0.7,0.2 z m -24.9,-17.6 24.9,14.4 24.9,-14.4 -24.9,-14.4 -24.9,14.4 z"
             id="path4994"
             style="fill:#414042" />
        </g>
        <g
           id="g4996">
          <polygon
             points="250.1,243.9 222.2,260 222.2,227.8 250.1,211.6 "
             id="polygon4998"
             style="fill:#ffffff" />
          <path
             d="m 222.2,261.5 c -0.3,0 -0.5,-0.1 -0.8,-0.2 -0.5,-0.3 -0.8,-0.8 -0.8,-1.3 v -32.3 c 0,-0.5 0.3,-1 0.8,-1.3 l 27.9,-16.1 c 0.5,-0.3 1,-0.3 1.5,0 0.5,0.3 0.8,0.8 0.8,1.3 l 0,32.3 c 0,0.5 -0.3,1 -0.8,1.3 l -27.9,16.1 c -0.2,0.2 -0.5,0.2 -0.7,0.2 z m 1.5,-32.9 v 28.8 l 24.9,-14.4 0,-28.8 -24.9,14.4 z"
             id="path5000"
             style="fill:#414042" />
        </g>
        <g
           id="g5002">
          <polygon
             points="250.1,243.9 250.1,276.2 222.2,260 222.2,227.8 "
             id="polygon5004"
             style="fill:#ffffff" />
          <path
             d="m 250.1,277.7 c -0.3,0 -0.5,-0.1 -0.8,-0.2 l -27.9,-16.1 c -0.5,-0.3 -0.8,-0.8 -0.8,-1.3 v -32.3 c 0,-0.5 0.3,-1 0.8,-1.3 0.5,-0.3 1,-0.3 1.5,0 l 27.9,16.1 c 0.5,0.3 0.8,0.8 0.8,1.3 v 32.3 c 0,0.5 -0.3,1 -0.8,1.3 -0.2,0.1 -0.4,0.2 -0.7,0.2 z m -26.4,-18.5 24.9,14.4 v -28.8 l -24.9,-14.4 v 28.8 z"
             id="path5006"
             style="fill:#414042" />
        </g>
        <g
           id="g5008">
          <polygon
             points="250.1,243.9 278,260 278,227.8 250.1,211.6 "
             id="polygon5010"
             style="fill:#ffffff" />
          <path
             d="m 278,261.5 c -0.3,0 -0.5,-0.1 -0.8,-0.2 l -27.9,-16.1 c -0.5,-0.3 -0.8,-0.8 -0.8,-1.3 l 0,-32.3 c 0,-0.5 0.3,-1 0.8,-1.3 0.5,-0.3 1,-0.3 1.5,0 l 27.9,16.1 c 0.5,0.3 0.8,0.8 0.8,1.3 V 260 c 0,0.5 -0.3,1 -0.8,1.3 -0.1,0.2 -0.4,0.2 -0.7,0.2 z m -26.4,-18.5 24.9,14.4 v -28.8 l -24.9,-14.4 0,28.8 z"
             id="path5012"
             style="fill:#414042" />
        </g>
        <g
           id="g5014">
          <polygon
             points="250.1,243.9 278,227.8 250.1,211.6 222.2,227.8 "
             id="polygon5016"
             style="fill:#ffffff" />
          <path
             d="m 250.1,245.4 c -0.3,0 -0.5,-0.1 -0.8,-0.2 l -27.9,-16.1 c -0.5,-0.3 -0.8,-0.8 -0.8,-1.3 0,-0.5 0.3,-1 0.8,-1.3 l 27.9,-16.1 c 0.5,-0.3 1,-0.3 1.5,0 l 27.9,16.1 c 0.5,0.3 0.8,0.8 0.8,1.3 0,0.5 -0.3,1 -0.8,1.3 l -27.9,16.1 c -0.2,0.1 -0.4,0.2 -0.7,0.2 z m -24.9,-17.6 24.9,14.4 24.9,-14.4 -24.9,-14.4 -24.9,14.4 z"
             id="path5018"
             style="fill:#414042" />
        </g>
        <g
           id="g5020">
          <polygon
             points="270.9,263.3 262.2,268.3 262.2,250.6 271,245.5 "
             id="polygon5022"
             style="fill:#ffffff" />
          <path
             d="m 262.2,269.8 c -0.3,0 -0.5,-0.1 -0.8,-0.2 -0.5,-0.3 -0.7,-0.8 -0.7,-1.3 l 0,-17.7 c 0,-0.5 0.3,-1 0.8,-1.3 l 8.8,-5 c 0.5,-0.3 1,-0.3 1.5,0 0.5,0.3 0.7,0.8 0.7,1.3 l 0,17.7 c 0,0.5 -0.3,1 -0.8,1.3 l -8.8,5 c -0.2,0.2 -0.5,0.2 -0.7,0.2 z m 1.5,-18.3 0,14.3 5.8,-3.3 0,-14.3 -5.8,3.3 z"
             id="path5024"
             style="fill:#414042" />
        </g>
        <g
           id="g5026">
          <polygon
             points="238.6,226 250.1,243.9 222.2,227.8 "
             id="polygon5028"
             style="fill:#ffffff" />
          <path
             d="m 250.1,245.4 c -0.3,0 -0.5,-0.1 -0.7,-0.2 l -27.9,-16.1 c -0.6,-0.3 -0.9,-1 -0.7,-1.6 0.1,-0.6 0.7,-1.1 1.3,-1.2 l 16.4,-1.7 c 0.6,-0.1 1.1,0.2 1.4,0.7 l 11.5,17.9 c 0.4,0.6 0.3,1.3 -0.2,1.8 -0.3,0.2 -0.7,0.4 -1.1,0.4 z m -23.2,-16.6 18.5,10.7 -7.7,-11.9 -10.8,1.2 z"
             id="path5030"
             style="fill:#414042" />
        </g>
        <g
           id="g5032">
          <polygon
             points="266,210.5 278,227.8 250.1,211.6 "
             id="polygon5034"
             style="fill:#ffffff" />
          <path
             d="m 278,229.3 c -0.3,0 -0.5,-0.1 -0.7,-0.2 L 249.4,213 c -0.6,-0.3 -0.9,-1 -0.7,-1.6 0.1,-0.6 0.7,-1.1 1.4,-1.2 l 15.9,-1.1 c 0.5,0 1,0.2 1.3,0.6 l 12,17.2 c 0.4,0.6 0.3,1.4 -0.1,1.9 -0.4,0.3 -0.8,0.5 -1.2,0.5 z m -22.9,-16.5 17.9,10.3 -7.7,-11 -10.2,0.7 z"
             id="path5036"
             style="fill:#414042" />
        </g>
        <g
           id="g5038">
          <polygon
             points="250.6,211 222.2,227.8 238.6,226 266.6,210.7 "
             id="polygon5040"
             style="fill:#ffffff" />
          <path
             d="m 222.2,229.3 c -0.6,0 -1.2,-0.4 -1.4,-1 -0.2,-0.7 0.1,-1.4 0.7,-1.8 l 28.4,-16.8 c 0.2,-0.1 0.5,-0.2 0.7,-0.2 l 15.9,-0.2 c 0,0 0,0 0,0 0.7,0 1.3,0.5 1.5,1.1 0.2,0.7 -0.1,1.4 -0.7,1.7 l -27.9,15.3 c -0.2,0.1 -0.4,0.2 -0.6,0.2 l -16.5,1.8 c 0,-0.1 -0.1,-0.1 -0.1,-0.1 z m 28.8,-16.8 -22.1,13.1 9.3,-1 22.4,-12.2 -9.6,0.1 z"
             id="path5042"
             style="fill:#414042" />
        </g>
        <g
           id="g5044">
          <polygon
             points="230.8,254.9 239.5,259.9 239.5,248 230.7,242.9 "
             id="polygon5046"
             style="fill:#414042" />
          <path
             d="m 239.5,261.4 c -0.3,0 -0.5,-0.1 -0.7,-0.2 l -8.8,-5 c -0.5,-0.3 -0.8,-0.8 -0.8,-1.3 l 0,-12 c 0,-0.5 0.3,-1 0.7,-1.3 0.5,-0.3 1,-0.3 1.5,0 l 8.8,5 c 0.5,0.3 0.8,0.8 0.8,1.3 l 0,12 c 0,0.5 -0.3,1 -0.7,1.3 -0.2,0.2 -0.5,0.2 -0.8,0.2 z m -7.2,-7.4 5.8,3.3 0,-8.5 -5.8,-3.3 0,8.5 z"
             id="path5048"
             style="fill:#414042" />
        </g>
        <g
           id="g5050">
          <path
             d="m 218.5,257.5 c -2.2,0 -4.4,-0.2 -6.6,-0.6 -0.8,-0.1 -1.4,-0.9 -1.2,-1.7 0.1,-0.8 0.9,-1.4 1.7,-1.2 8.3,1.4 16.9,-0.1 24.2,-4.3 l 2.1,-1.2 c 0.7,-0.4 1.6,-0.2 2,0.5 0.4,0.7 0.2,1.6 -0.5,2 l -2.1,1.2 c -5.9,3.5 -12.7,5.3 -19.6,5.3 z"
             id="path5052"
             style="fill:#b0ddd8" />
        </g>
        <g
           id="g5054">
          <g
             id="g5056">
            <path
               d="m 275,231 c -0.5,0 -1,-0.3 -1.3,-0.8 -0.4,-0.7 -0.2,-1.6 0.5,-2 l 2.1,-1.2 c 2.7,-1.6 4.6,-4.3 5.2,-7.4 l 1.4,-7.7 c 0.1,-0.8 0.9,-1.4 1.7,-1.2 0.8,0.1 1.4,0.9 1.2,1.7 l -1.4,7.7 c -0.7,4 -3.1,7.4 -6.6,9.4 l -2.1,1.2 c -0.2,0.2 -0.4,0.3 -0.7,0.3 z"
               id="path5058"
               style="fill:#b0ddd8" />
          </g>
          <g
             id="g5060">
            <g
               id="g5062">
              <polygon
                 points="284.3,213.1 278.4,217.2 279.2,212.9 285.1,208.8 289.2,214.7 288.4,219 "
                 id="polygon5064"
                 style="fill:#b0ddd8" />
            </g>
          </g>
        </g>
        <g
           id="g5066">
          <polygon
             points="278,260 250.1,276.2 250.1,243.9 278,227.8 "
             id="polygon5068"
             style="fill:#ffffff" />
          <path
             d="m 250.1,277.7 c -0.3,0 -0.5,-0.1 -0.8,-0.2 -0.5,-0.3 -0.8,-0.8 -0.8,-1.3 v -32.3 c 0,-0.5 0.3,-1 0.8,-1.3 l 27.9,-16.1 c 0.5,-0.3 1,-0.3 1.5,0 0.5,0.3 0.8,0.8 0.8,1.3 V 260 c 0,0.5 -0.3,1 -0.8,1.3 l -27.9,16.1 c -0.2,0.2 -0.4,0.3 -0.7,0.3 z m 1.5,-32.9 v 28.8 l 24.9,-14.4 v -28.8 l -24.9,14.4 z"
             id="path5070"
             style="fill:#414042" />
        </g>
        <g
           id="g5072">
          <polygon
             points="266.9,210.5 278,227.8 250.1,243.9 238.6,226 "
             id="polygon5074"
             style="fill:#ffffff" />
          <path
             d="m 250.1,245.4 c -0.5,0 -1,-0.2 -1.3,-0.7 l -11.5,-17.9 c -0.2,-0.4 -0.3,-0.8 -0.2,-1.2 0.1,-0.4 0.4,-0.7 0.7,-0.9 l 28.4,-15.5 c 0.7,-0.4 1.6,-0.2 2,0.5 l 11.1,17.2 c 0.2,0.3 0.3,0.8 0.2,1.2 -0.1,0.4 -0.4,0.7 -0.7,0.9 l -27.9,16.1 c -0.3,0.2 -0.5,0.3 -0.8,0.3 z m -9.4,-18.8 9.9,15.3 25.3,-14.6 -9.5,-14.7 -25.7,14 z"
             id="path5076"
             style="fill:#414042" />
        </g>
        <g
           id="g5078">
          <path
             d="m 238,259.9 0,-11.1 -8,-4.6 1.5,-2.6 8.8,5 c 0.5,0.3 0.8,0.8 0.8,1.3 l 0,12 -3.1,0 z"
             id="path5080"
             style="fill:#414042" />
        </g>
      </g>
      <g
         id="Layer_2-25" />
    </g>
  </g>
  <g
     id="layer10"
     style="display:none">
    <g
       transform="translate(-210.13747,-195.425)"
       id="g5236">
      <g
         id="Layer_1-63">
        <g
           id="g5149">
          <polygon
             points="249.9,244.4 222,260.5 222,228.2 249.9,212.1 "
             id="polygon5151"
             style="fill:#ffffff" />
          <path
             d="m 222,262 c -0.3,0 -0.5,-0.1 -0.8,-0.2 -0.5,-0.3 -0.8,-0.8 -0.8,-1.3 v -32.3 c 0,-0.5 0.3,-1 0.8,-1.3 l 27.9,-16.1 c 0.5,-0.3 1,-0.3 1.5,0 0.5,0.3 0.8,0.8 0.8,1.3 l 0,32.3 c 0,0.5 -0.3,1 -0.8,1.3 l -27.9,16.1 c -0.2,0.1 -0.5,0.2 -0.7,0.2 z m 1.5,-32.9 v 28.8 l 24.9,-14.4 0,-28.8 -24.9,14.4 z"
             id="path5153"
             style="fill:#414042" />
        </g>
        <g
           id="g5155">
          <polygon
             points="249.9,244.4 277.8,260.5 277.8,228.2 249.9,212.1 "
             id="polygon5157"
             style="fill:#ffffff" />
          <path
             d="m 277.8,262 c -0.3,0 -0.5,-0.1 -0.8,-0.2 l -27.9,-16.1 c -0.5,-0.3 -0.8,-0.8 -0.8,-1.3 l 0,-32.3 c 0,-0.5 0.3,-1 0.8,-1.3 0.5,-0.3 1,-0.3 1.5,0 l 27.9,16.1 c 0.5,0.3 0.8,0.8 0.8,1.3 v 32.3 c 0,0.5 -0.3,1 -0.8,1.3 -0.1,0.1 -0.4,0.2 -0.7,0.2 z m -26.4,-18.5 24.9,14.4 v -28.8 l -24.9,-14.4 0,28.8 z"
             id="path5159"
             style="fill:#414042" />
        </g>
        <g
           id="g5161">
          <polygon
             points="222,228 238.4,226.3 249.9,244.2 "
             id="polygon5163"
             style="fill:#b0ddd8" />
          <path
             d="m 249.9,245.7 c -0.3,0 -0.5,-0.1 -0.7,-0.2 l -27.9,-16.1 c -0.6,-0.3 -0.9,-1 -0.7,-1.6 0.1,-0.6 0.7,-1.1 1.3,-1.2 l 16.4,-1.7 c 0.6,-0.1 1.1,0.2 1.4,0.7 l 11.5,17.9 c 0.4,0.6 0.3,1.3 -0.2,1.8 -0.3,0.2 -0.7,0.4 -1.1,0.4 z m -23.2,-16.6 18.5,10.7 -7.7,-11.9 -10.8,1.2 z"
             id="path5165"
             style="fill:#414042" />
        </g>
        <g
           id="g5167">
          <polygon
             points="249.9,244.4 277.8,260.5 249.9,276.6 222,260.5 "
             id="polygon5169"
             style="fill:#dbafb5" />
          <path
             d="m 249.9,278.1 c -0.3,0 -0.5,-0.1 -0.8,-0.2 l -27.9,-16.1 c -0.5,-0.3 -0.8,-0.8 -0.8,-1.3 0,-0.5 0.3,-1 0.8,-1.3 l 27.9,-16.1 c 0.5,-0.3 1,-0.3 1.5,0 l 27.9,16.1 c 0.5,0.3 0.8,0.8 0.8,1.3 0,0.5 -0.3,1 -0.8,1.3 l -27.9,16.1 c -0.2,0.2 -0.4,0.2 -0.7,0.2 z m -24.9,-17.6 24.9,14.4 24.9,-14.4 -24.9,-14.4 -24.9,14.4 z"
             id="path5171"
             style="fill:#414042" />
        </g>
        <g
           id="g5173">
          <path
             d="m 244.2,268.2 c -2.2,0 -4.2,-1.1 -5.4,-2.9 l -0.3,-0.5 c -0.7,-1.1 -2,-1.8 -3.3,-1.7 -2.4,0.1 -4.6,-1 -5.8,-3 l -0.9,-1.4 c -0.7,-1.1 -1.9,-1.8 -3.2,-1.7 l -2.3,0 c -0.7,0 -1.4,-0.6 -1.4,-1.3 0,-0.7 0.6,-1.4 1.3,-1.4 l 2.3,0 c 2.3,0 4.4,1.1 5.6,3 l 0.9,1.4 c 0.7,1.2 2,1.8 3.4,1.7 2.3,-0.2 4.5,1 5.8,2.9 l 0.3,0.5 c 0.8,1.2 2.1,1.8 3.5,1.7 l 3.4,-0.4 c 0.8,-0.1 1.4,0.5 1.5,1.2 0.1,0.7 -0.5,1.4 -1.2,1.5 l -3.4,0.4 c -0.3,0 -0.6,0 -0.8,0 z"
             id="path5175"
             style="fill:#d696a3" />
        </g>
        <g
           id="g5177"
           style="opacity:0.8">
          <path
             d="m 244.2,259.8 c -2.2,0 -4.2,-1.1 -5.4,-2.9 l -0.3,-0.5 c -0.7,-1.1 -2,-1.8 -3.3,-1.7 -2.4,0.1 -4.6,-1 -5.8,-3 l -0.9,-1.4 c -0.7,-1.1 -1.9,-1.8 -3.2,-1.7 l -2.3,0 c -0.7,0 -1.4,-0.6 -1.4,-1.3 0,-0.7 0.6,-1.4 1.3,-1.4 l 2.3,0 c 2.2,0 4.4,1.1 5.6,3 l 0.9,1.4 c 0.7,1.2 2,1.8 3.4,1.7 2.3,-0.2 4.5,1 5.8,2.9 l 0.3,0.5 c 0.8,1.2 2.1,1.8 3.5,1.7 l 3.4,-0.4 c 0.8,-0.1 1.4,0.5 1.5,1.2 0.1,0.7 -0.5,1.4 -1.2,1.5 l -3.4,0.4 c -0.3,0 -0.6,0 -0.8,0 z"
             id="path5179"
             style="fill:#d696a3" />
        </g>
        <g
           id="g5181"
           style="opacity:0.6">
          <path
             d="m 244.2,251.4 c -2.2,0 -4.2,-1.1 -5.4,-2.9 l -0.3,-0.5 c -0.7,-1.1 -2,-1.8 -3.3,-1.7 -2.4,0.1 -4.6,-1 -5.8,-3 l -0.9,-1.4 c -0.7,-1.1 -1.9,-1.8 -3.2,-1.7 l -2.3,0 c -0.7,0 -1.4,-0.6 -1.4,-1.3 0,-0.7 0.6,-1.4 1.3,-1.4 l 2.3,0 c 2.2,0 4.4,1.1 5.6,3 l 0.9,1.4 c 0.7,1.2 2,1.8 3.4,1.7 2.3,-0.1 4.5,1 5.8,2.9 l 0.3,0.5 c 0.8,1.2 2.1,1.8 3.5,1.7 l 3.4,-0.4 c 0.7,-0.1 1.4,0.5 1.5,1.2 0.1,0.7 -0.5,1.4 -1.2,1.5 l -3.4,0.4 c -0.3,0 -0.6,0 -0.8,0 z"
             id="path5183"
             style="fill:#d696a3" />
        </g>
        <g
           id="g5185">
          <path
             d="m 273.5,254.1 c -2.2,0 -4.2,-1.1 -5.4,-2.9 l -0.3,-0.5 c -0.7,-1.1 -2,-1.8 -3.3,-1.7 -2.4,0.1 -4.6,-1 -5.8,-3 l -0.9,-1.4 c -0.7,-1.1 -1.9,-1.8 -3.2,-1.7 l -2.3,0 c -0.7,0 -1.4,-0.6 -1.4,-1.3 0,-0.7 0.6,-1.4 1.3,-1.4 l 2.3,0 c 2.2,0 4.4,1.1 5.6,3 l 0.9,1.4 c 0.7,1.2 2,1.8 3.4,1.7 2.3,-0.1 4.5,1 5.8,2.9 l 0.3,0.5 c 0.8,1.2 2.1,1.8 3.5,1.7 l 3.4,-0.4 c 0.7,-0.1 1.4,0.5 1.5,1.2 0.1,0.7 -0.5,1.4 -1.2,1.5 l -3.4,0.4 c -0.3,0 -0.6,0 -0.8,0 z"
             id="path5187"
             style="fill:#d696a3" />
        </g>
        <g
           id="g5189"
           style="opacity:0.8">
          <path
             d="m 273.5,245.7 c -2.2,0 -4.2,-1.1 -5.4,-2.9 l -0.3,-0.5 c -0.7,-1.1 -2,-1.8 -3.3,-1.7 -2.4,0.1 -4.6,-1 -5.8,-3 l -0.9,-1.4 c -0.7,-1.1 -1.9,-1.8 -3.2,-1.7 l -2.3,0 c -0.7,0 -1.4,-0.6 -1.4,-1.3 0,-0.7 0.6,-1.4 1.3,-1.4 l 2.3,0 c 2.2,0 4.4,1.1 5.6,3 l 0.9,1.4 c 0.7,1.2 2,1.8 3.4,1.7 2.3,-0.1 4.5,1 5.8,2.9 l 0.3,0.5 c 0.8,1.2 2.1,1.8 3.5,1.7 l 3.4,-0.4 c 0.7,-0.1 1.4,0.5 1.5,1.2 0.1,0.7 -0.5,1.4 -1.2,1.5 l -3.4,0.4 c -0.3,0 -0.6,0 -0.8,0 z"
             id="path5191"
             style="fill:#d696a3" />
        </g>
        <g
           id="g5193"
           style="opacity:0.4">
          <path
             d="m 273.5,237.3 c -2.2,0 -4.2,-1.1 -5.4,-2.9 l -0.3,-0.5 c -0.7,-1.1 -2,-1.8 -3.3,-1.7 -2.4,0.1 -4.6,-1 -5.8,-3 l -0.9,-1.4 c -0.7,-1.1 -1.9,-1.8 -3.2,-1.7 l -2.3,0 c -0.7,0 -1.4,-0.6 -1.4,-1.3 0,-0.7 0.6,-1.4 1.3,-1.4 l 2.3,0 c 2.3,0 4.4,1.1 5.6,3 l 0.9,1.4 c 0.7,1.2 2,1.8 3.4,1.7 2.3,-0.1 4.5,1 5.8,2.9 l 0.3,0.5 c 0.8,1.2 2.1,1.8 3.5,1.7 l 3.4,-0.4 c 0.7,-0.1 1.4,0.5 1.5,1.2 0.1,0.7 -0.5,1.4 -1.2,1.5 l -3.4,0.4 c -0.3,0 -0.6,0 -0.8,0 z"
             id="path5195"
             style="fill:#d696a3" />
        </g>
        <g
           id="g5197">
          <polygon
             points="249.9,212.1 277.8,228.2 249.9,244.4 222,228.2 "
             id="polygon5199"
             style="fill:#ffffff" />
          <path
             d="m 249.9,245.9 c -0.3,0 -0.5,-0.1 -0.8,-0.2 l -27.9,-16.1 c -0.5,-0.3 -0.8,-0.8 -0.8,-1.3 0,-0.5 0.3,-1 0.8,-1.3 l 27.9,-16.1 c 0.5,-0.3 1,-0.3 1.5,0 l 27.9,16.1 c 0.5,0.3 0.8,0.8 0.8,1.3 0,0.5 -0.3,1 -0.8,1.3 l -27.9,16.1 c -0.2,0.1 -0.4,0.2 -0.7,0.2 z m -24.9,-17.7 24.9,14.4 24.9,-14.4 -24.9,-14.4 -24.9,14.4 z"
             id="path5201"
             style="fill:#414042" />
        </g>
        <g
           id="g5203">
          <polygon
             points="249.9,244.4 277.8,228.2 249.9,212.1 222,228.2 "
             id="polygon5205"
             style="fill:#ffffff" />
          <path
             d="m 249.9,245.9 c -0.3,0 -0.5,-0.1 -0.8,-0.2 l -27.9,-16.1 c -0.5,-0.3 -0.8,-0.8 -0.8,-1.3 0,-0.5 0.3,-1 0.8,-1.3 l 27.9,-16.1 c 0.5,-0.3 1,-0.3 1.5,0 l 27.9,16.1 c 0.5,0.3 0.8,0.8 0.8,1.3 0,0.5 -0.3,1 -0.8,1.3 l -27.9,16.1 c -0.2,0.1 -0.4,0.2 -0.7,0.2 z m -24.9,-17.7 24.9,14.4 24.9,-14.4 -24.9,-14.4 -24.9,14.4 z"
             id="path5207"
             style="fill:#414042" />
        </g>
        <g
           id="g5209">
          <polygon
             points="266.8,210.5 278,227.9 249.8,244.2 238.2,226.1 "
             id="polygon5211"
             style="fill:#ffffff" />
          <path
             d="m 249.8,245.7 c -0.5,0 -1,-0.2 -1.3,-0.7 l -11.7,-18 c -0.2,-0.4 -0.3,-0.8 -0.2,-1.2 0.1,-0.4 0.4,-0.7 0.7,-0.9 l 28.6,-15.6 c 0.7,-0.4 1.6,-0.2 2,0.5 l 11.2,17.4 c 0.2,0.3 0.3,0.8 0.2,1.2 -0.1,0.4 -0.4,0.7 -0.7,0.9 l -28.2,16.3 c -0.1,0 -0.3,0.1 -0.6,0.1 z m -9.5,-19 10,15.5 25.6,-14.8 -9.6,-14.9 -26,14.2 z"
             id="path5213"
             style="fill:#414042" />
        </g>
        <g
           id="g5215">
          <polygon
             points="250.4,211.2 222,228 238.4,226.3 266.8,210.5 "
             id="polygon5217"
             style="fill:#ffffff" />
          <path
             d="m 222,229.5 c -0.6,0 -1.2,-0.4 -1.4,-1 -0.2,-0.7 0.1,-1.4 0.7,-1.8 l 28.4,-16.8 c 0.2,-0.1 0.4,-0.2 0.7,-0.2 l 16.4,-0.7 c 0.7,0 1.3,0.4 1.5,1.1 0.2,0.7 -0.1,1.4 -0.7,1.7 l -28.4,15.8 c -0.2,0.1 -0.4,0.2 -0.6,0.2 l -16.5,1.8 c 0,-0.1 -0.1,-0.1 -0.1,-0.1 z m 28.9,-16.8 -22.2,13.1 9.3,-1 22.5,-12.5 -9.6,0.4 z"
             id="path5219"
             style="fill:#414042" />
        </g>
        <g
           id="g5221">
          <path
             d="m 249.9,278.1 c -0.3,0 -0.5,-0.1 -0.8,-0.2 -0.5,-0.3 -0.8,-0.8 -0.8,-1.3 v -32.3 c 0,-0.5 0.3,-1 0.8,-1.3 L 277,226.9 c 0.5,-0.3 1,-0.3 1.5,0 0.5,0.3 0.8,0.8 0.8,1.3 v 32.3 c 0,0.5 -0.3,1 -0.8,1.3 l -27.9,16.1 c -0.2,0.2 -0.4,0.2 -0.7,0.2 z m 1.5,-32.9 V 274 l 24.9,-14.4 v -28.8 l -24.9,14.4 z"
             id="path5223"
             style="fill:#414042" />
        </g>
        <g
           id="g5225">
          <rect
             width="3"
             height="31.700001"
             x="220.5"
             y="228.2"
             id="rect5227"
             style="fill:#414042" />
        </g>
      </g>
      <g
         id="Layer_2-4" />
    </g>
  </g>
  <g
     id="layer11"
     style="display:none">
    <g
       transform="translate(-210.14818,-195.24449)"
       id="g5349">
      <g
         id="Layer_1-65">
        <g
           id="g5284">
          <polygon
             points="250,276.4 222.1,260.2 250,244.1 277.9,260.2 "
             id="polygon5286"
             style="fill:#b0ddd8" />
          <path
             d="m 250,277.9 c -0.3,0 -0.5,-0.1 -0.8,-0.2 l -27.9,-16.1 c -0.5,-0.3 -0.8,-0.8 -0.8,-1.3 0,-0.5 0.3,-1 0.8,-1.3 l 27.9,-16.1 c 0.5,-0.3 1,-0.3 1.5,0 l 27.9,16.1 c 0.5,0.3 0.8,0.8 0.8,1.3 0,0.5 -0.3,1 -0.8,1.3 l -27.9,16.1 c -0.2,0.1 -0.4,0.2 -0.7,0.2 z m -24.9,-17.7 24.9,14.4 24.9,-14.4 -24.9,-14.4 -24.9,14.4 z"
             id="path5288"
             style="fill:#414042" />
        </g>
        <g
           id="g5290">
          <polygon
             points="250,244.1 222.1,228 250,211.8 277.9,228 "
             id="polygon5292"
             style="fill:#ffffff" />
          <path
             d="m 250,245.6 c -0.3,0 -0.5,-0.1 -0.8,-0.2 l -27.9,-16.1 c -0.5,-0.3 -0.8,-0.8 -0.8,-1.3 0,-0.5 0.3,-1 0.8,-1.3 l 27.9,-16.1 c 0.5,-0.3 1,-0.3 1.5,0 l 27.9,16.1 c 0.5,0.3 0.8,0.8 0.8,1.3 0,0.5 -0.3,1 -0.8,1.3 l -27.9,16.1 c -0.2,0.1 -0.4,0.2 -0.7,0.2 z M 225.1,228 250,242.4 274.9,228 250,213.6 225.1,228 z"
             id="path5294"
             style="fill:#414042" />
        </g>
        <g
           id="g5296">
          <polygon
             points="222.1,228 250,211.8 250,244.1 222.1,260.2 "
             id="polygon5298"
             style="fill:#ffffff" />
          <path
             d="m 222.1,261.7 c -0.3,0 -0.5,-0.1 -0.8,-0.2 -0.5,-0.3 -0.8,-0.8 -0.8,-1.3 V 228 c 0,-0.5 0.3,-1 0.8,-1.3 l 27.9,-16.1 c 0.5,-0.3 1,-0.3 1.5,0 0.5,0.3 0.8,0.8 0.8,1.3 l 0,32.3 c 0,0.5 -0.3,1 -0.8,1.3 l -27.9,16.1 c -0.2,0.1 -0.5,0.1 -0.7,0.1 z m 1.5,-32.9 v 28.8 l 24.9,-14.4 0,-28.8 -24.9,14.4 z"
             id="path5300"
             style="fill:#414042" />
        </g>
        <g
           id="g5302">
          <polygon
             points="277.9,228 250,211.8 250,244.1 277.9,260.2 "
             id="polygon5304"
             style="fill:#ffffff" />
          <path
             d="m 277.9,261.7 c -0.3,0 -0.5,-0.1 -0.8,-0.2 l -27.9,-16.1 c -0.5,-0.3 -0.8,-0.8 -0.8,-1.3 l 0,-32.3 c 0,-0.5 0.3,-1 0.8,-1.3 0.5,-0.3 1,-0.3 1.5,0 l 27.9,16.1 c 0.5,0.3 0.8,0.8 0.8,1.3 v 32.3 c 0,0.5 -0.3,1 -0.8,1.3 -0.1,0.2 -0.4,0.2 -0.7,0.2 z m -26.4,-18.5 24.9,14.4 v -28.8 l -24.9,-14.4 0,28.8 z"
             id="path5306"
             style="fill:#414042" />
        </g>
        <g
           id="g5308">
          <path
             d="m 250,277.9 c -0.3,0 -0.5,-0.1 -0.8,-0.2 -0.5,-0.3 -0.8,-0.8 -0.8,-1.3 v -32.3 c 0,-0.5 0.3,-1 0.8,-1.3 l 27.9,-16.1 c 0.5,-0.3 1,-0.3 1.5,0 0.5,0.3 0.8,0.8 0.8,1.3 v 32.3 c 0,0.5 -0.3,1 -0.8,1.3 l -27.9,16.1 c -0.2,0.1 -0.4,0.2 -0.7,0.2 z m 1.5,-32.9 v 28.8 l 24.9,-14.4 V 230.6 L 251.5,245 z"
             id="path5310"
             style="fill:#414042" />
        </g>
        <g
           id="g5312">
          <polygon
             points="231.7,233.9 240.4,228.8 240.4,240.8 231.6,245.9 "
             id="polygon5314"
             style="fill:#ffffff" />
          <path
             d="m 231.6,247.4 c -0.3,0 -0.5,-0.1 -0.8,-0.2 -0.5,-0.3 -0.7,-0.8 -0.7,-1.3 l 0,-12 c 0,-0.5 0.3,-1 0.8,-1.3 l 8.8,-5 c 0.5,-0.3 1,-0.3 1.5,0 0.5,0.3 0.7,0.8 0.7,1.3 l 0,12 c 0,0.5 -0.3,1 -0.8,1.3 l -8.8,5 c -0.2,0.1 -0.4,0.2 -0.7,0.2 z m 1.6,-12.6 0,8.5 5.8,-3.3 0,-8.5 -5.8,3.3 z"
             id="path5316"
             style="fill:#414042" />
        </g>
        <g
           id="g5318">
          <polygon
             points="250,211.8 222.1,228 250,244.1 277.9,228 "
             id="polygon5320"
             style="fill:#ffffff" />
          <path
             d="m 250,245.6 c -0.3,0 -0.5,-0.1 -0.8,-0.2 l -27.9,-16.1 c -0.5,-0.3 -0.8,-0.8 -0.8,-1.3 0,-0.5 0.3,-1 0.8,-1.3 l 27.9,-16.1 c 0.5,-0.3 1,-0.3 1.5,0 l 27.9,16.1 c 0.5,0.3 0.8,0.8 0.8,1.3 0,0.5 -0.3,1 -0.8,1.3 l -27.9,16.1 c -0.2,0.1 -0.4,0.2 -0.7,0.2 z M 225.1,228 250,242.4 274.9,228 250,213.6 225.1,228 z"
             id="path5322"
             style="fill:#414042" />
        </g>
        <g
           id="g5324">
          <polygon
             points="238.5,226.3 250,244.1 222.1,228 "
             id="polygon5326"
             style="fill:#ffffff" />
          <path
             d="m 250,245.6 c -0.3,0 -0.5,-0.1 -0.7,-0.2 l -27.9,-16.1 c -0.6,-0.3 -0.9,-1 -0.7,-1.6 0.1,-0.6 0.7,-1.1 1.3,-1.2 l 16.4,-1.7 c 0.6,-0.1 1.1,0.2 1.4,0.7 l 11.5,17.9 c 0.4,0.6 0.3,1.3 -0.2,1.8 -0.3,0.3 -0.7,0.4 -1.1,0.4 z m -23.2,-16.6 18.5,10.7 -7.7,-11.9 -10.8,1.2 z"
             id="path5328"
             style="fill:#414042" />
        </g>
        <g
           id="g5330">
          <polygon
             points="238.5,226.2 266.5,211 250.5,211.2 222.1,228 "
             id="polygon5332"
             style="fill:#ffffff" />
          <path
             d="m 222.1,229.5 c -0.6,0 -1.2,-0.4 -1.4,-1 -0.2,-0.7 0.1,-1.4 0.7,-1.8 l 28.4,-16.8 c 0.2,-0.1 0.5,-0.2 0.7,-0.2 l 15.9,-0.2 c 0,0 0,0 0,0 0.7,0 1.3,0.5 1.5,1.1 0.2,0.7 -0.1,1.4 -0.7,1.7 l -27.9,15.3 c -0.2,0.1 -0.4,0.2 -0.6,0.2 l -16.5,1.8 c 0,-0.1 -0.1,-0.1 -0.1,-0.1 z m 28.8,-16.8 -22.1,13.1 9.3,-1 22.4,-12.2 -9.6,0.1 z"
             id="path5334"
             style="fill:#414042" />
        </g>
        <g
           id="g5336">
          <polygon
             points="250,244.1 238.5,226.3 266.8,210.8 277.9,228 "
             id="polygon5338"
             style="fill:#ffffff" />
          <path
             d="m 250,245.6 c -0.5,0 -1,-0.2 -1.3,-0.7 L 237.2,227 c -0.2,-0.4 -0.3,-0.8 -0.2,-1.2 0.1,-0.4 0.4,-0.7 0.7,-0.9 l 28.4,-15.5 c 0.7,-0.4 1.6,-0.2 2,0.5 l 11.1,17.2 c 0.2,0.3 0.3,0.8 0.2,1.2 -0.1,0.4 -0.4,0.7 -0.7,0.9 l -27.9,16.1 c -0.3,0.2 -0.5,0.3 -0.8,0.3 z m -9.4,-18.8 9.9,15.3 25.3,-14.6 -9.5,-14.7 -25.7,14 z"
             id="path5340"
             style="fill:#414042" />
        </g>
      </g>
      <g
         id="Layer_2-255" />
    </g>
  </g>
  <g
     id="layer7"
     style="display:none">
    <g
       transform="translate(-210.18634,-202.05521)"
       id="g4817">
      <g
         id="Layer_1-31">
        <g
           id="g4744">
          <polygon
             points="277.9,267.3 250,283.2 222.1,267 250,251.2 "
             id="polygon4746"
             style="fill:#ffffff" />
          <path
             d="m 250,284.7 c -0.3,0 -0.5,-0.1 -0.8,-0.2 l -27.9,-16.1 c -0.5,-0.3 -0.8,-0.8 -0.8,-1.3 0,-0.5 0.3,-1 0.8,-1.3 l 27.9,-15.9 c 0.5,-0.3 1,-0.3 1.5,0 l 27.9,16.1 c 0.5,0.3 0.8,0.8 0.8,1.3 0,0.5 -0.3,1 -0.8,1.3 l -27.9,15.9 c -0.2,0.1 -0.4,0.2 -0.7,0.2 z m -24.9,-17.6 24.9,14.4 24.9,-14.1 -24.9,-14.5 -24.9,14.2 z"
             id="path4748"
             style="fill:#4d4d4d" />
        </g>
        <g
           id="g4750">
          <polygon
             points="277.9,234.8 250,251.2 222.1,234.8 250,218.7 "
             id="polygon4752"
             style="fill:#ffffff" />
          <path
             d="m 250,252.7 c -0.3,0 -0.5,-0.1 -0.8,-0.2 l -27.9,-16.4 c -0.5,-0.3 -0.7,-0.8 -0.7,-1.3 0,-0.5 0.3,-1 0.8,-1.3 l 27.9,-16.1 c 0.5,-0.3 1,-0.3 1.5,0 l 27.9,16.1 c 0.5,0.3 0.7,0.8 0.8,1.3 0.1,0.5 -0.3,1 -0.7,1.3 l -27.9,16.4 c -0.4,0.1 -0.6,0.2 -0.9,0.2 z m -25,-17.9 25,14.7 25,-14.7 -25,-14.4 -25,14.4 z"
             id="path4754"
             style="fill:#4d4d4d" />
        </g>
        <g
           id="g4756">
          <polygon
             points="222.1,267 222.1,234.8 250,218.7 250,251.2 "
             id="polygon4758"
             style="fill:#ffffff" />
          <path
             d="m 222.1,268.5 c -0.3,0 -0.5,-0.1 -0.8,-0.2 -0.5,-0.3 -0.7,-0.8 -0.7,-1.3 l 0,-32.3 c 0,-0.5 0.3,-1 0.8,-1.3 l 27.9,-16.1 c 0.5,-0.3 1,-0.3 1.5,0 0.5,0.3 0.8,0.8 0.8,1.3 l 0,32.5 c 0,0.5 -0.3,1 -0.8,1.3 l -27.9,15.9 c -0.3,0.2 -0.6,0.2 -0.8,0.2 z m 1.5,-32.8 0,28.8 24.9,-14.2 0,-29.1 -24.9,14.5 z"
             id="path4760"
             style="fill:#4d4d4d" />
        </g>
        <g
           id="g4762">
          <polygon
             points="250,283.2 222.1,267 222.1,234.8 250,250.9 "
             id="polygon4764"
             style="fill:#ffffff" />
          <path
             d="m 250,284.7 c -0.3,0 -0.5,-0.1 -0.8,-0.2 l -27.9,-16.1 c -0.5,-0.3 -0.8,-0.8 -0.8,-1.3 l 0,-32.3 c 0,-0.5 0.3,-1 0.7,-1.3 0.5,-0.3 1,-0.3 1.5,0 l 27.9,16.1 c 0.5,0.3 0.8,0.8 0.8,1.3 l 0,32.3 c 0,0.5 -0.3,1 -0.8,1.3 -0.1,0.1 -0.3,0.2 -0.6,0.2 z m -26.4,-18.5 24.9,14.4 0,-28.8 -24.9,-14.4 0,28.8 z"
             id="path4766"
             style="fill:#4d4d4d" />
        </g>
        <g
           id="g4768">
          <polygon
             points="277.9,267.3 277.9,234.8 250,218.7 250,251.2 "
             id="polygon4770"
             style="fill:#ffffff" />
          <path
             d="m 277.9,268.8 c -0.3,0 -0.5,-0.1 -0.8,-0.2 l -27.9,-16.1 c -0.5,-0.3 -0.8,-0.8 -0.8,-1.3 l 0,-32.5 c 0,-0.5 0.3,-1 0.8,-1.3 0.5,-0.3 1,-0.3 1.5,0 l 27.9,16.1 c 0.5,0.3 0.8,0.8 0.8,1.3 v 32.5 c 0,0.5 -0.3,1 -0.8,1.3 -0.1,0.1 -0.4,0.2 -0.7,0.2 z m -26.4,-18.5 24.9,14.4 v -29.1 l -24.9,-14.4 0,29.1 z"
             id="path4772"
             style="fill:#4d4d4d" />
        </g>
        <g
           id="g4774">
          <polygon
             points="277.9,234.8 250,218.7 222.1,234.8 250,251 "
             id="polygon4776"
             style="fill:#ffffff" />
          <path
             d="m 250,252.5 c -0.3,0 -0.5,-0.1 -0.8,-0.2 l -27.9,-16.2 c -0.5,-0.3 -0.7,-0.8 -0.7,-1.3 0,-0.5 0.3,-1 0.8,-1.3 l 27.9,-16.1 c 0.5,-0.3 1,-0.3 1.5,0 l 27.9,16.1 c 0.5,0.3 0.7,0.8 0.8,1.3 0,0.5 -0.3,1 -0.7,1.3 l -27.9,16.2 c -0.4,0.1 -0.6,0.2 -0.9,0.2 z m -24.9,-17.7 24.9,14.5 24.9,-14.5 -24.9,-14.4 -24.9,14.4 z"
             id="path4778"
             style="fill:#4d4d4d" />
        </g>
        <g
           id="g4780">
          <polygon
             points="250,283.2 250,250.9 277.9,234.8 277.9,267.3 "
             id="polygon4782"
             style="fill:#ffffff" />
          <path
             d="m 250,284.7 c -0.3,0 -0.5,-0.1 -0.8,-0.2 -0.5,-0.3 -0.7,-0.8 -0.7,-1.3 l 0,-32.3 c 0,-0.5 0.3,-1 0.8,-1.3 l 27.9,-16.1 c 0.5,-0.3 1,-0.3 1.5,0 0.5,0.3 0.7,0.8 0.7,1.3 v 32.5 c 0,0.5 -0.3,1 -0.8,1.3 l -27.9,15.9 c -0.2,0.1 -0.4,0.2 -0.7,0.2 z m 1.5,-32.9 0,28.8 24.9,-14.2 v -29.1 l -24.9,14.5 z"
             id="path4784"
             style="fill:#4d4d4d" />
        </g>
        <g
           id="g4786">
          <polygon
             points="262,275.6 262.1,257.9 270.9,252.8 270.8,270.6 "
             id="polygon4788"
             style="fill:#ffffff" />
          <path
             d="m 262,277.1 c -0.3,0 -0.5,-0.1 -0.8,-0.2 -0.5,-0.3 -0.7,-0.8 -0.7,-1.3 l 0,-17.7 c 0,-0.5 0.3,-1 0.8,-1.3 l 8.8,-5 c 0.5,-0.3 1,-0.3 1.5,0 0.5,0.3 0.7,0.8 0.7,1.3 l 0,17.7 c 0,0.5 -0.3,1 -0.8,1.3 l -8.8,5 c -0.1,0.1 -0.4,0.2 -0.7,0.2 z m 1.6,-18.3 0,14.3 5.8,-3.3 0,-14.3 -5.8,3.3 z"
             id="path4790"
             style="fill:#4d4d4d" />
        </g>
        <g
           id="g4792">
          <polygon
             points="250,250.9 222.1,234.8 238.5,233.3 "
             id="polygon4794"
             style="fill:#ffffff" />
          <path
             d="m 250,252.4 c -0.3,0 -0.5,-0.1 -0.7,-0.2 l -27.9,-16.1 c -0.6,-0.3 -0.9,-1 -0.7,-1.6 0.1,-0.6 0.7,-1.1 1.3,-1.2 l 16.4,-1.5 c 0.5,0 1.1,0.2 1.4,0.7 l 11.5,17.6 c 0.4,0.6 0.3,1.3 -0.2,1.9 -0.3,0.2 -0.7,0.4 -1.1,0.4 z m -23.1,-16.5 18.3,10.6 -7.6,-11.5 -10.7,0.9 z"
             id="path4796"
             style="fill:#4d4d4d" />
        </g>
        <g
           id="g4798">
          <polygon
             points="277.9,234.8 250,250.9 238.5,233.3 266.8,217.8 "
             id="polygon4800"
             style="fill:#ffffff" />
          <path
             d="m 250,252.4 c -0.5,0 -1,-0.2 -1.3,-0.7 l -11.5,-17.6 c -0.2,-0.4 -0.3,-0.8 -0.2,-1.2 0.1,-0.4 0.4,-0.8 0.7,-1 l 28.4,-15.5 c 0.7,-0.4 1.5,-0.2 2,0.5 l 11.1,17 c 0.2,0.3 0.3,0.8 0.2,1.2 -0.1,0.4 -0.4,0.7 -0.7,1 l -27.9,16.1 c -0.3,0.1 -0.5,0.2 -0.8,0.2 z m -9.4,-18.5 9.9,15 25.3,-14.6 -9.5,-14.5 -25.7,14.1 z"
             id="path4802"
             style="fill:#4d4d4d" />
        </g>
        <g
           id="g4804">
          <polygon
             points="222.1,234.8 238.5,233.3 266.8,217.8 250,218.7 "
             id="polygon4806"
             style="fill:#ffffff" />
          <path
             d="m 222.1,236.3 c -0.6,0 -1.2,-0.4 -1.4,-1 -0.2,-0.7 0.1,-1.4 0.7,-1.8 l 27.9,-16.1 c 0.2,-0.1 0.4,-0.2 0.7,-0.2 l 16.8,-0.8 c 0.7,0 1.3,0.4 1.5,1.1 0.2,0.7 -0.1,1.4 -0.7,1.7 l -28.3,15.5 c -0.2,0.1 -0.4,0.2 -0.6,0.2 l -16.5,1.5 c 0,-0.1 -0.1,-0.1 -0.1,-0.1 z m 28.3,-16.2 -21.7,12.5 9.4,-0.8 22.3,-12.2 -10,0.5 z"
             id="path4808"
             style="fill:#4d4d4d" />
        </g>
      </g>
      <g
         id="Layer_2-79" />
    </g>
  </g>
</svg>
