<?xml version="1.0" encoding="utf-8"?>
<!-- Generator: Adobe Illustrator 18.1.0, SVG Export Plug-In . SVG Version: 6.00 Build 0)  -->
<!DOCTYPE svg PUBLIC "-//W3C//DTD SVG 1.1//EN" "http://www.w3.org/Graphics/SVG/1.1/DTD/svg11.dtd">
<svg version="1.1" id="Layer_1" xmlns="http://www.w3.org/2000/svg" xmlns:xlink="http://www.w3.org/1999/xlink" x="0px" y="0px"
	 viewBox="0 0 102.9 102.9" enable-background="new 0 0 102.9 102.9" xml:space="preserve">
<polygon fill="#FFFFFF" stroke="#424143" stroke-width="3" stroke-linejoin="round" stroke-miterlimit="10" points="51.8,23.2 
	68.2,21.5 79.7,39.3 "/>
<polygon fill="#FFFFFF" stroke="#424143" stroke-width="3" stroke-linejoin="round" stroke-miterlimit="10" points="23.9,68.2 
	51.8,52.1 79.7,68.2 51.8,84.3 "/>
<polygon fill="#FFFFFF" stroke="#424143" stroke-width="3" stroke-linejoin="round" stroke-miterlimit="10" points="23.9,35.9 
	51.8,19.8 79.7,35.9 51.8,52.1 "/>
<polygon fill="#FFFFFF" stroke="#424143" stroke-width="3" stroke-linejoin="round" stroke-miterlimit="10" points="51.8,19.8 
	51.8,52.1 23.9,68.2 23.9,35.9 "/>
<polygon fill="#FFFFFF" stroke="#424143" stroke-width="3" stroke-linejoin="round" stroke-miterlimit="10" points="23.9,35.9 
	51.8,52.1 51.8,84.3 23.9,68.2 "/>
<polygon fill="#FFFFFF" stroke="#424143" stroke-width="3" stroke-linejoin="round" stroke-miterlimit="10" points="51.8,19.8 
	51.8,52.1 79.7,68.2 79.7,35.9 "/>
<polygon fill="#FFFFFF" stroke="#424143" stroke-width="3" stroke-linejoin="round" stroke-miterlimit="10" points="23.9,35.9 
	51.8,52.1 79.7,35.9 51.8,19.8 "/>
<polygon fill="#FFFFFF" stroke="#424143" stroke-width="3" stroke-linejoin="round" stroke-miterlimit="10" points="23.9,35.9 
	40.3,34.2 51.8,52.1 "/>
<polygon fill="#FFFFFF" stroke="#424143" stroke-width="3" stroke-linejoin="round" stroke-miterlimit="10" points="51.8,19.8 
	67.8,18.7 79.7,35.9 "/>
<polygon fill="#FFFFFF" stroke="#424143" stroke-width="3" stroke-linejoin="round" stroke-miterlimit="10" points="40.3,34.2 
	68.6,18.7 79.7,35.9 51.8,52.1 "/>
<polygon fill="#FFFFFF" stroke="#424143" stroke-width="3" stroke-linejoin="round" stroke-miterlimit="10" points="68.3,18.9 
	52.3,19.1 23.9,35.9 40.3,34.2 "/>
<line fill="#FFFFFF" stroke="#424143" stroke-width="2.9991" stroke-linecap="round" stroke-linejoin="round" stroke-miterlimit="10" x1="34.4" y1="39.8" x2="24.5" y2="76.9"/>
<line fill="#FFFFFF" stroke="#424143" stroke-width="2.9991" stroke-linecap="round" stroke-linejoin="round" stroke-miterlimit="10" x1="41.7" y1="43.6" x2="31.6" y2="81.2"/>
<line fill="none" stroke="#424143" stroke-width="3" stroke-linejoin="round" stroke-miterlimit="10" x1="27.6" y1="70.3" x2="34.7" y2="74.4"/>
<line fill="none" stroke="#424143" stroke-width="3" stroke-linejoin="round" stroke-miterlimit="10" x1="28" y1="64.6" x2="35.1" y2="68.6"/>
<line fill="none" stroke="#424143" stroke-width="3" stroke-linejoin="round" stroke-miterlimit="10" x1="29.7" y1="58.9" x2="36.8" y2="63"/>
<line fill="none" stroke="#424143" stroke-width="3" stroke-linejoin="round" stroke-miterlimit="10" x1="31.8" y1="53.2" x2="38.9" y2="57.3"/>
<line fill="none" stroke="#424143" stroke-width="3" stroke-linejoin="round" stroke-miterlimit="10" x1="33.3" y1="47.5" x2="40.4" y2="51.6"/>
<polygon fill="#B1DED8" stroke="#424143" stroke-width="3" stroke-linejoin="round" stroke-miterlimit="10" points="59,24 
	64.2,31.6 68.6,28.8 63.8,21.5 "/>
<path fill="none" stroke="#424143" stroke-width="2.9991" stroke-linecap="round" stroke-linejoin="round" stroke-miterlimit="10" d="
	M44.9,80.4"/>
<path fill="none" stroke="#424143" stroke-width="2.9991" stroke-linecap="round" stroke-linejoin="round" stroke-miterlimit="10" d="
	M44.9,48.3"/>
<path fill="none" stroke="#424143" stroke-width="2.9991" stroke-linecap="round" stroke-linejoin="round" stroke-miterlimit="10" d="
	M59,79.6"/>
<path fill="none" stroke="#424143" stroke-width="2.9991" stroke-linecap="round" stroke-linejoin="round" stroke-miterlimit="10" d="
	M59,48.3"/>
<polygon fill="#B1DED8" stroke="#424143" stroke-width="3" stroke-linejoin="round" stroke-miterlimit="10" points="79.7,62.4 
	79.7,68.1 72.3,72.4 72.3,66.7 "/>
<polygon fill="#B1DED8" stroke="#424143" stroke-width="3" stroke-linejoin="round" stroke-miterlimit="10" points="79.7,56.6 
	79.7,62.4 72.3,66.6 72.3,60.9 "/>
<polygon fill="#B1DED8" stroke="#424143" stroke-width="3" stroke-linejoin="round" stroke-miterlimit="10" points="79.7,51 
	79.7,56.7 72.3,60.9 72.3,55.2 "/>
<polygon fill="#B1DED8" stroke="#424143" stroke-width="3" stroke-linejoin="round" stroke-miterlimit="10" points="72.3,66.6 
	72.3,72.3 64.9,76.6 64.9,70.8 "/>
</svg>
