<?xml version="1.0" encoding="UTF-8" standalone="no"?>
<!-- Created with Inkscape (http://www.inkscape.org/) -->

<svg
   xmlns:dc="http://purl.org/dc/elements/1.1/"
   xmlns:cc="http://creativecommons.org/ns#"
   xmlns:rdf="http://www.w3.org/1999/02/22-rdf-syntax-ns#"
   xmlns:svg="http://www.w3.org/2000/svg"
   xmlns="http://www.w3.org/2000/svg"
   version="1.1"
   width="115"
   height="101"
   id="svg2">
  <defs
     id="defs4" />
  <metadata
     id="metadata7">
    <rdf:RDF>
      <cc:Work
         rdf:about="">
        <dc:format>image/svg+xml</dc:format>
        <dc:type
           rdf:resource="http://purl.org/dc/dcmitype/StillImage" />
        <dc:title></dc:title>
      </cc:Work>
    </rdf:RDF>
  </metadata>
  <g
     transform="translate(0,-951.36218)"
     id="layer1"
     style="display:none">
    <g
       transform="translate(-192.6,766.56218)"
       id="g3217">
      <g
         id="Layer_1">
        <g
           id="g2988">
          <g
             id="g2990">
            <polygon
               points="277.9,236.2 305.8,252 277.9,268.2 249.9,252 "
               id="polygon2992"
               style="fill:#ffffff" />
            <path
               d="m 277.9,269.7 c -0.3,0 -0.5,-0.1 -0.8,-0.2 l -27.9,-16.1 c -0.5,-0.3 -0.8,-0.8 -0.8,-1.3 0,-0.5 0.3,-1 0.8,-1.3 l 27.9,-15.9 c 0.5,-0.3 1,-0.3 1.5,0 l 27.9,15.9 c 0.5,0.3 0.8,0.8 0.8,1.3 0,0.5 -0.3,1 -0.8,1.3 l -27.9,16.1 c -0.2,0.1 -0.5,0.2 -0.7,0.2 z m -25,-17.7 24.9,14.4 24.9,-14.4 -24.9,-14.1 -24.9,14.1 z"
               id="path2994"
               style="fill:#4d4d4d" />
          </g>
          <g
             id="g2996">
            <polygon
               points="277.9,203.6 305.8,219.8 277.9,236.2 249.9,219.8 "
               id="polygon2998"
               style="fill:#ffffff" />
            <path
               d="m 277.9,237.7 c -0.3,0 -0.5,-0.1 -0.8,-0.2 l -27.9,-16.4 c -0.5,-0.3 -0.7,-0.8 -0.7,-1.3 0,-0.5 0.3,-1 0.8,-1.3 l 27.9,-16.1 c 0.5,-0.3 1,-0.3 1.5,0 l 27.9,16.1 c 0.5,0.3 0.7,0.8 0.8,1.3 0,0.5 -0.3,1 -0.7,1.3 l -27.9,16.4 c -0.4,0.1 -0.7,0.2 -0.9,0.2 z m -25,-17.9 25,14.7 25,-14.7 -25,-14.4 -25,14.4 z"
               id="path3000"
               style="fill:#4d4d4d" />
          </g>
          <g
             id="g3002">
            <polygon
               points="277.9,236.2 249.9,252 249.9,219.8 277.9,203.6 "
               id="polygon3004"
               style="fill:#ffffff" />
            <path
               d="m 249.9,253.5 c -0.3,0 -0.5,-0.1 -0.8,-0.2 -0.5,-0.3 -0.7,-0.8 -0.7,-1.3 l 0,-32.3 c 0,-0.5 0.3,-1 0.8,-1.3 l 27.9,-16.1 c 0.5,-0.3 1,-0.3 1.5,0 0.5,0.3 0.8,0.8 0.8,1.3 l 0,32.5 c 0,0.5 -0.3,1 -0.8,1.3 l -27.9,15.9 c -0.3,0.2 -0.5,0.2 -0.8,0.2 z m 1.5,-32.9 0,28.8 24.9,-14.2 0,-29.1 -24.9,14.5 z"
               id="path3006"
               style="fill:#4d4d4d" />
          </g>
          <g
             id="g3008">
            <polygon
               points="277.9,235.9 277.9,268.2 249.9,252 249.9,219.8 "
               id="polygon3010"
               style="fill:#ffffff" />
            <path
               d="m 277.9,269.7 c -0.3,0 -0.5,-0.1 -0.8,-0.2 l -27.9,-16.1 c -0.5,-0.3 -0.8,-0.8 -0.8,-1.3 l 0,-32.3 c 0,-0.5 0.3,-1 0.7,-1.3 0.5,-0.3 1,-0.3 1.5,0 l 27.9,16.1 c 0.5,0.3 0.8,0.8 0.8,1.3 l 0,32.3 c 0,0.5 -0.3,1 -0.8,1.3 -0.1,0.1 -0.4,0.2 -0.6,0.2 z m -26.5,-18.5 24.9,14.4 0,-28.8 -24.9,-14.4 0,28.8 z"
               id="path3012"
               style="fill:#4d4d4d" />
          </g>
          <g
             id="g3014">
            <polygon
               points="277.9,236.2 305.8,252 305.8,219.8 277.9,203.6 "
               id="polygon3016"
               style="fill:#ffffff" />
            <path
               d="m 305.8,253.5 c -0.3,0 -0.5,-0.1 -0.7,-0.2 l -27.9,-15.9 c -0.5,-0.3 -0.8,-0.8 -0.8,-1.3 l 0,-32.5 c 0,-0.5 0.3,-1 0.8,-1.3 0.5,-0.3 1,-0.3 1.5,0 l 27.9,16.1 c 0.5,0.3 0.8,0.8 0.8,1.3 l 0,32.3 c 0,0.5 -0.3,1 -0.7,1.3 -0.4,0.2 -0.6,0.2 -0.9,0.2 z m -26.4,-18.2 24.9,14.2 0,-28.8 -24.9,-14.4 0,29 z"
               id="path3018"
               style="fill:#4d4d4d" />
          </g>
          <g
             id="g3020">
            <polygon
               points="277.9,236 305.8,219.8 277.9,203.6 249.9,219.8 "
               id="polygon3022"
               style="fill:#ffffff" />
            <path
               d="m 277.9,237.5 c -0.3,0 -0.5,-0.1 -0.8,-0.2 l -27.9,-16.2 c -0.5,-0.3 -0.7,-0.8 -0.7,-1.3 0,-0.5 0.3,-1 0.8,-1.3 l 27.9,-16.1 c 0.5,-0.3 1,-0.3 1.5,0 l 27.9,16.1 c 0.5,0.3 0.7,0.8 0.8,1.3 0,0.5 -0.3,1 -0.7,1.3 l -27.9,16.2 c -0.4,0.1 -0.7,0.2 -0.9,0.2 z m -25,-17.7 24.9,14.5 24.9,-14.5 -24.9,-14.4 -24.9,14.4 z"
               id="path3024"
               style="fill:#4d4d4d" />
          </g>
          <g
             id="g3026">
            <polygon
               points="305.8,252 277.9,268.2 277.9,235.9 305.8,219.8 "
               id="polygon3028"
               style="fill:#ffffff" />
            <path
               d="m 277.9,269.7 c -0.3,0 -0.5,-0.1 -0.8,-0.2 -0.5,-0.3 -0.8,-0.8 -0.8,-1.3 l 0,-32.3 c 0,-0.5 0.3,-1 0.8,-1.3 L 305,218.5 c 0.5,-0.3 1,-0.3 1.5,0 0.5,0.3 0.7,0.8 0.7,1.3 l 0,32.3 c 0,0.5 -0.3,1 -0.8,1.3 l -27.9,16.1 c -0.1,0.1 -0.4,0.2 -0.6,0.2 z m 1.5,-32.9 0,28.8 24.9,-14.4 0,-28.8 -24.9,14.4 z"
               id="path3030"
               style="fill:#4d4d4d" />
          </g>
          <g
             id="g3032">
            <polygon
               points="298.7,255.6 289.9,260.6 289.9,242.9 298.7,237.8 "
               id="polygon3034"
               style="fill:#ffffff" />
            <path
               d="m 289.9,262.1 c -0.3,0 -0.5,-0.1 -0.8,-0.2 -0.5,-0.3 -0.7,-0.8 -0.7,-1.3 l 0,-17.7 c 0,-0.5 0.3,-1 0.8,-1.3 l 8.8,-5 c 0.5,-0.3 1,-0.3 1.5,0 0.5,0.3 0.7,0.8 0.7,1.3 l 0,17.7 c 0,0.5 -0.3,1 -0.8,1.3 l -8.8,5 c -0.2,0.1 -0.4,0.2 -0.7,0.2 z m 1.5,-18.4 0,14.3 5.8,-3.3 0,-14.3 -5.8,3.3 z"
               id="path3036"
               style="fill:#4d4d4d" />
          </g>
          <g
             id="g3038">
            <polygon
               points="249.9,219.8 266.3,218.3 277.9,235.9 "
               id="polygon3040"
               style="fill:#ffffff" />
            <path
               d="m 277.9,237.4 c -0.3,0 -0.5,-0.1 -0.7,-0.2 l -27.9,-16.1 c -0.6,-0.3 -0.9,-1 -0.7,-1.6 0.1,-0.6 0.7,-1.1 1.3,-1.2 l 16.4,-1.5 c 0.5,0 1.1,0.2 1.4,0.7 l 11.5,17.6 c 0.4,0.6 0.3,1.3 -0.2,1.9 -0.3,0.2 -0.7,0.4 -1.1,0.4 z m -23.1,-16.6 18.3,10.6 -7.6,-11.5 -10.7,0.9 z"
               id="path3042"
               style="fill:#4d4d4d" />
          </g>
          <g
             id="g3044">
            <polygon
               points="294.7,202.8 305.8,219.8 277.9,235.9 266.3,218.3 "
               id="polygon3046"
               style="fill:#ffffff" />
            <path
               d="m 277.9,237.4 c -0.5,0 -1,-0.2 -1.3,-0.7 l -11.5,-17.6 c -0.2,-0.4 -0.3,-0.8 -0.2,-1.2 0.1,-0.4 0.4,-0.8 0.7,-1 L 294,201.4 c 0.7,-0.4 1.5,-0.2 2,0.5 l 11.1,17 c 0.2,0.3 0.3,0.8 0.2,1.2 -0.1,0.4 -0.4,0.7 -0.7,1 l -27.9,16.1 c -0.3,0.1 -0.6,0.2 -0.8,0.2 z m -9.4,-18.5 9.9,15 25.3,-14.6 -9.5,-14.5 -25.7,14.1 z"
               id="path3048"
               style="fill:#4d4d4d" />
          </g>
          <g
             id="g3050">
            <polygon
               points="277.9,203.6 249.9,219.8 266.4,218.3 294.7,202.8 "
               id="polygon3052"
               style="fill:#ffffff" />
            <path
               d="m 249.9,221.3 c -0.6,0 -1.2,-0.4 -1.4,-1 -0.2,-0.7 0.1,-1.4 0.7,-1.8 l 27.9,-16.1 c 0.2,-0.1 0.4,-0.2 0.7,-0.2 l 16.8,-0.8 c 0.7,0 1.3,0.4 1.5,1.1 0.2,0.7 -0.1,1.4 -0.7,1.7 l -28.3,15.5 c -0.2,0.1 -0.4,0.2 -0.6,0.2 l -16.5,1.5 c 0,-0.1 0,-0.1 -0.1,-0.1 z m 28.4,-16.2 -21.7,12.5 9.4,-0.8 22.3,-12.2 -10,0.5 z"
               id="path3054"
               style="fill:#4d4d4d" />
          </g>
        </g>
        <g
           id="g3056">
          <g
             id="g3058">
            <polygon
               points="222.1,236.6 250.1,252.4 222.1,268.6 194.2,252.4 "
               id="polygon3060"
               style="fill:#ffffff" />
            <path
               d="m 222.1,270.1 c -0.3,0 -0.5,-0.1 -0.8,-0.2 l -27.9,-16.1 c -0.5,-0.3 -0.8,-0.8 -0.8,-1.3 0,-0.5 0.3,-1 0.8,-1.3 l 27.9,-15.9 c 0.5,-0.3 1,-0.3 1.5,0 l 27.9,15.9 c 0.5,0.3 0.8,0.8 0.8,1.3 0,0.5 -0.3,1 -0.8,1.3 l -27.9,16.1 c -0.1,0.1 -0.4,0.2 -0.7,0.2 z m -24.9,-17.7 24.9,14.4 24.9,-14.4 -24.9,-14.1 -24.9,14.1 z"
               id="path3062"
               style="fill:#4d4d4d" />
          </g>
          <g
             id="g3064">
            <polygon
               points="222.1,204 250.1,220.2 222.1,236.6 194.2,220.2 "
               id="polygon3066"
               style="fill:#ffffff" />
            <path
               d="m 222.1,238.1 c -0.3,0 -0.5,-0.1 -0.8,-0.2 l -27.9,-16.4 c -0.5,-0.3 -0.7,-0.8 -0.7,-1.3 0,-0.5 0.3,-1 0.8,-1.3 l 27.9,-16.1 c 0.5,-0.3 1,-0.3 1.5,0 l 27.9,16.1 c 0.5,0.3 0.7,0.8 0.8,1.3 0,0.5 -0.3,1 -0.7,1.3 L 223,237.9 c -0.3,0.1 -0.6,0.2 -0.9,0.2 z m -24.9,-17.9 25,14.7 25,-14.7 -25,-14.4 -25,14.4 z"
               id="path3068"
               style="fill:#4d4d4d" />
          </g>
          <g
             id="g3070">
            <polygon
               points="222.1,236.6 194.2,252.4 194.2,220.2 222.1,204 "
               id="polygon3072"
               style="fill:#ffffff" />
            <path
               d="m 194.2,253.9 c -0.3,0 -0.5,-0.1 -0.8,-0.2 -0.5,-0.3 -0.7,-0.8 -0.7,-1.3 l 0,-32.3 c 0,-0.5 0.3,-1 0.8,-1.3 l 27.9,-16.1 c 0.5,-0.3 1,-0.3 1.5,0 0.5,0.3 0.8,0.8 0.8,1.3 l 0,32.5 c 0,0.5 -0.3,1 -0.8,1.3 L 195,253.7 c -0.3,0.2 -0.5,0.2 -0.8,0.2 z m 1.5,-32.9 0,28.8 24.9,-14.2 0,-29.1 -24.9,14.5 z"
               id="path3074"
               style="fill:#4d4d4d" />
          </g>
          <g
             id="g3076">
            <polygon
               points="222.1,236.3 222.1,268.6 194.2,252.4 194.2,220.2 "
               id="polygon3078"
               style="fill:#ffffff" />
            <path
               d="m 222.1,270.1 c -0.3,0 -0.5,-0.1 -0.8,-0.2 l -27.9,-16.1 c -0.5,-0.3 -0.8,-0.8 -0.8,-1.3 l 0,-32.3 c 0,-0.5 0.3,-1 0.7,-1.3 0.5,-0.3 1,-0.3 1.5,0 l 27.9,16.1 c 0.5,0.3 0.8,0.8 0.8,1.3 l 0,32.3 c 0,0.5 -0.3,1 -0.8,1.3 0,0.1 -0.3,0.2 -0.6,0.2 z m -26.4,-18.5 24.9,14.4 0,-28.8 -24.9,-14.4 0,28.8 z"
               id="path3080"
               style="fill:#4d4d4d" />
          </g>
          <g
             id="g3082">
            <polygon
               points="222.1,236.6 250.1,252.4 250.1,220.2 222.1,204 "
               id="polygon3084"
               style="fill:#ffffff" />
            <path
               d="m 250.1,253.9 c -0.3,0 -0.5,-0.1 -0.7,-0.2 l -27.9,-15.9 c -0.5,-0.3 -0.8,-0.8 -0.8,-1.3 l 0,-32.5 c 0,-0.5 0.3,-1 0.8,-1.3 0.5,-0.3 1,-0.3 1.5,0 l 27.9,16.1 c 0.5,0.3 0.8,0.8 0.8,1.3 l 0,32.3 c 0,0.5 -0.3,1 -0.7,1.3 -0.4,0.2 -0.7,0.2 -0.9,0.2 z m -26.5,-18.2 24.9,14.2 0,-28.8 -24.9,-14.4 0,29 z"
               id="path3086"
               style="fill:#4d4d4d" />
          </g>
          <g
             id="g3088">
            <polygon
               points="222.1,236.4 250.1,220.2 222.1,204 194.2,220.2 "
               id="polygon3090"
               style="fill:#ffffff" />
            <path
               d="m 222.1,237.9 c -0.3,0 -0.5,-0.1 -0.8,-0.2 l -27.9,-16.2 c -0.5,-0.3 -0.7,-0.8 -0.7,-1.3 0,-0.5 0.3,-1 0.8,-1.3 l 27.9,-16.1 c 0.5,-0.3 1,-0.3 1.5,0 l 27.9,16.1 c 0.5,0.3 0.7,0.8 0.8,1.3 0,0.5 -0.3,1 -0.7,1.3 L 223,237.7 c -0.3,0.1 -0.6,0.2 -0.9,0.2 z m -24.9,-17.7 24.9,14.5 24.9,-14.5 -24.9,-14.4 -24.9,14.4 z"
               id="path3092"
               style="fill:#4d4d4d" />
          </g>
          <g
             id="g3094">
            <polygon
               points="250.1,252.4 222.1,268.6 222.1,236.3 250.1,220.2 "
               id="polygon3096"
               style="fill:#ffffff" />
            <path
               d="m 222.1,270.1 c -0.3,0 -0.5,-0.1 -0.8,-0.2 -0.5,-0.3 -0.8,-0.8 -0.8,-1.3 l 0,-32.3 c 0,-0.5 0.3,-1 0.8,-1.3 l 27.9,-16.1 c 0.5,-0.3 1,-0.3 1.5,0 0.5,0.3 0.7,0.8 0.7,1.3 l 0,32.3 c 0,0.5 -0.3,1 -0.8,1.3 l -27.9,16.1 c 0,0.1 -0.3,0.2 -0.6,0.2 z m 1.5,-33 0,28.8 24.9,-14.4 0,-28.8 -24.9,14.4 z"
               id="path3098"
               style="fill:#4d4d4d" />
          </g>
          <g
             id="g3100">
            <polygon
               points="243,256 234.2,261 234.2,243.3 243,238.2 "
               id="polygon3102"
               style="fill:#ffffff" />
            <path
               d="m 234.2,262.5 c -0.3,0 -0.5,-0.1 -0.8,-0.2 -0.5,-0.3 -0.7,-0.8 -0.7,-1.3 l 0,-17.7 c 0,-0.5 0.3,-1 0.8,-1.3 l 8.8,-5 c 0.5,-0.3 1,-0.3 1.5,0 0.5,0.3 0.7,0.8 0.7,1.3 l 0,17.7 c 0,0.5 -0.3,1 -0.8,1.3 l -8.8,5 c -0.2,0.1 -0.5,0.2 -0.7,0.2 z m 1.5,-18.4 0,14.3 5.8,-3.3 0,-14.3 -5.8,3.3 z"
               id="path3104"
               style="fill:#4d4d4d" />
          </g>
          <g
             id="g3106">
            <polygon
               points="194.2,220.2 210.6,218.7 222.1,236.3 "
               id="polygon3108"
               style="fill:#ffffff" />
            <path
               d="m 222.1,237.8 c -0.3,0 -0.5,-0.1 -0.7,-0.2 l -27.9,-16.1 c -0.6,-0.3 -0.9,-1 -0.7,-1.6 0.1,-0.6 0.7,-1.1 1.3,-1.2 l 16.4,-1.5 c 0.5,0 1.1,0.2 1.4,0.7 l 11.5,17.6 c 0.4,0.6 0.3,1.3 -0.2,1.9 -0.3,0.2 -0.7,0.4 -1.1,0.4 z m -23,-16.6 18.3,10.6 -7.6,-11.5 -10.7,0.9 z"
               id="path3110"
               style="fill:#4d4d4d" />
          </g>
          <g
             id="g3112">
            <polygon
               points="239,203.2 250.1,220.2 222.1,236.3 210.6,218.7 "
               id="polygon3114"
               style="fill:#ffffff" />
            <path
               d="m 222.1,237.8 c -0.5,0 -1,-0.2 -1.3,-0.7 l -11.5,-17.6 c -0.2,-0.4 -0.3,-0.8 -0.2,-1.2 0.1,-0.4 0.4,-0.8 0.7,-1 l 28.4,-15.5 c 0.7,-0.4 1.5,-0.2 2,0.5 l 11.1,17 c 0.2,0.3 0.3,0.8 0.2,1.2 -0.1,0.4 -0.4,0.7 -0.7,1 l -27.9,16.1 c -0.3,0.1 -0.5,0.2 -0.8,0.2 z m -9.4,-18.6 9.9,15 25.3,-14.6 -9.5,-14.5 -25.7,14.1 z"
               id="path3116"
               style="fill:#4d4d4d" />
          </g>
          <g
             id="g3118">
            <polygon
               points="222.1,204 194.2,220.2 210.7,218.7 239,203.2 "
               id="polygon3120"
               style="fill:#ffffff" />
            <path
               d="m 194.2,221.7 c -0.6,0 -1.2,-0.4 -1.4,-1 -0.2,-0.7 0.1,-1.4 0.7,-1.8 l 27.9,-16.1 c 0.2,-0.1 0.4,-0.2 0.7,-0.2 l 16.8,-0.8 c 0.7,0 1.3,0.4 1.5,1.1 0.2,0.7 -0.1,1.4 -0.7,1.7 L 211.4,220 c -0.2,0.1 -0.4,0.2 -0.6,0.2 l -16.5,1.5 c 0,0 -0.1,0 -0.1,0 z m 28.4,-16.2 -21.7,12.5 9.4,-0.8 22.3,-12.2 -10,0.5 z"
               id="path3122"
               style="fill:#4d4d4d" />
          </g>
        </g>
        <g
           id="g3124">
          <g
             id="g3126">
            <polygon
               points="250.1,252.3 278,268.2 250.1,284.3 222.1,268.2 "
               id="polygon3128"
               style="fill:#b0ddd8" />
            <path
               d="m 250.1,285.8 c -0.3,0 -0.5,-0.1 -0.8,-0.2 l -27.9,-16.1 c -0.5,-0.3 -0.8,-0.8 -0.8,-1.3 0,-0.5 0.3,-1 0.8,-1.3 L 249.3,251 c 0.5,-0.3 1,-0.3 1.5,0 l 27.9,15.9 c 0.5,0.3 0.8,0.8 0.8,1.3 0,0.5 -0.3,1 -0.8,1.3 l -27.9,16.1 c -0.2,0.1 -0.5,0.2 -0.7,0.2 z m -24.9,-17.6 24.9,14.4 24.9,-14.4 -24.9,-14.2 -24.9,14.2 z"
               id="path3130"
               style="fill:#4d4d4d" />
          </g>
          <g
             id="g3132">
            <polygon
               points="250.1,219.8 278,235.9 250.1,252.3 222.1,235.9 "
               id="polygon3134"
               style="fill:#b0ddd8" />
            <path
               d="m 250.1,253.8 c -0.3,0 -0.5,-0.1 -0.8,-0.2 l -27.9,-16.4 c -0.5,-0.3 -0.7,-0.8 -0.7,-1.3 0,-0.5 0.3,-1 0.8,-1.3 l 27.9,-16.1 c 0.5,-0.3 1,-0.3 1.5,0 l 27.9,16.1 c 0.5,0.3 0.7,0.8 0.8,1.3 0,0.5 -0.3,1 -0.7,1.3 L 251,253.6 c -0.4,0.1 -0.7,0.2 -0.9,0.2 z m -25,-17.9 25,14.7 25,-14.7 -25,-14.4 -25,14.4 z"
               id="path3136"
               style="fill:#4d4d4d" />
          </g>
          <g
             id="g3138">
            <polygon
               points="250.1,252.3 222.1,268.2 222.1,235.9 250.1,219.8 "
               id="polygon3140"
               style="fill:#b0ddd8" />
            <path
               d="m 222.1,269.7 c -0.3,0 -0.5,-0.1 -0.8,-0.2 -0.5,-0.3 -0.7,-0.8 -0.7,-1.3 l 0,-32.3 c 0,-0.5 0.3,-1 0.8,-1.3 l 27.9,-16.1 c 0.5,-0.3 1,-0.3 1.5,0 0.5,0.3 0.8,0.8 0.8,1.3 l 0,32.5 c 0,0.5 -0.3,1 -0.8,1.3 l -27.9,15.9 c -0.2,0.1 -0.5,0.2 -0.8,0.2 z m 1.5,-32.9 0,28.8 24.9,-14.2 0,-29.1 -24.9,14.5 z"
               id="path3142"
               style="fill:#4d4d4d" />
          </g>
          <g
             id="g3144">
            <polygon
               points="250.1,252 250.1,284.3 222.1,268.2 222.1,235.9 "
               id="polygon3146"
               style="fill:#b0ddd8" />
            <path
               d="m 250.1,285.8 c -0.3,0 -0.5,-0.1 -0.8,-0.2 l -27.9,-16.1 c -0.5,-0.3 -0.8,-0.8 -0.8,-1.3 l 0,-32.3 c 0,-0.5 0.3,-1 0.7,-1.3 0.5,-0.3 1,-0.3 1.5,0 l 27.9,16.1 c 0.5,0.3 0.8,0.8 0.8,1.3 l 0,32.3 c 0,0.5 -0.3,1 -0.8,1.3 -0.1,0.1 -0.4,0.2 -0.6,0.2 z m -26.5,-18.5 24.9,14.4 0,-28.8 -24.9,-14.4 0,28.8 z"
               id="path3148"
               style="fill:#4d4d4d" />
          </g>
          <g
             id="g3150">
            <polygon
               points="250.1,252.3 278,268.2 278,235.9 250.1,219.8 "
               id="polygon3152"
               style="fill:#b0ddd8" />
            <path
               d="m 278,269.7 c -0.3,0 -0.5,-0.1 -0.7,-0.2 l -27.9,-15.9 c -0.5,-0.3 -0.8,-0.8 -0.8,-1.3 l 0,-32.5 c 0,-0.5 0.3,-1 0.8,-1.3 0.5,-0.3 1,-0.3 1.5,0 l 27.9,16.1 c 0.5,0.3 0.8,0.8 0.8,1.3 l 0,32.3 c 0,0.5 -0.3,1 -0.7,1.3 -0.4,0.1 -0.6,0.2 -0.9,0.2 z m -26.4,-18.3 24.9,14.2 0,-28.8 -24.9,-14.4 0,29 z"
               id="path3154"
               style="fill:#4d4d4d" />
          </g>
          <g
             id="g3156">
            <polygon
               points="250.1,252.1 278,235.9 250.1,219.8 222.1,235.9 "
               id="polygon3158"
               style="fill:#b0ddd8" />
            <path
               d="m 250.1,253.6 c -0.3,0 -0.5,-0.1 -0.8,-0.2 l -27.9,-16.2 c -0.5,-0.3 -0.7,-0.8 -0.7,-1.3 0,-0.5 0.3,-1 0.8,-1.3 l 27.9,-16.1 c 0.5,-0.3 1,-0.3 1.5,0 l 27.9,16.1 c 0.5,0.3 0.7,0.8 0.8,1.3 0,0.5 -0.3,1 -0.7,1.3 L 251,253.4 c -0.4,0.1 -0.7,0.2 -0.9,0.2 z m -25,-17.7 24.9,14.5 24.9,-14.5 -24.9,-14.4 -24.9,14.4 z"
               id="path3160"
               style="fill:#4d4d4d" />
          </g>
          <g
             id="g3162">
            <polygon
               points="278,268.2 250.1,284.3 250.1,252 278,235.9 "
               id="polygon3164"
               style="fill:#b0ddd8" />
            <path
               d="m 250.1,285.8 c -0.3,0 -0.5,-0.1 -0.8,-0.2 -0.5,-0.3 -0.8,-0.8 -0.8,-1.3 l 0,-32.3 c 0,-0.5 0.3,-1 0.8,-1.3 l 27.9,-16.1 c 0.5,-0.3 1,-0.3 1.5,0 0.5,0.3 0.7,0.8 0.7,1.3 l 0,32.3 c 0,0.5 -0.3,1 -0.8,1.3 l -27.9,16.1 c -0.1,0.1 -0.4,0.2 -0.6,0.2 z m 1.5,-32.9 0,28.8 24.9,-14.4 0,-28.8 -24.9,14.4 z"
               id="path3166"
               style="fill:#4d4d4d" />
          </g>
          <g
             id="g3168">
            <polygon
               points="270.9,271.7 262.1,276.7 262.2,259 270.9,254 "
               id="polygon3170"
               style="fill:#b0ddd8" />
            <path
               d="m 262.1,278.2 c -0.3,0 -0.5,-0.1 -0.8,-0.2 -0.5,-0.3 -0.7,-0.8 -0.7,-1.3 l 0,-17.7 c 0,-0.5 0.3,-1 0.8,-1.3 l 8.8,-5 c 0.5,-0.3 1,-0.3 1.5,0 0.5,0.3 0.7,0.8 0.7,1.3 l 0,17.7 c 0,0.5 -0.3,1 -0.8,1.3 l -8.8,5 c -0.2,0.2 -0.4,0.2 -0.7,0.2 z m 1.6,-18.3 0,14.3 5.8,-3.3 0,-14.3 -5.8,3.3 z"
               id="path3172"
               style="fill:#4d4d4d" />
          </g>
          <g
             id="g3174">
            <polygon
               points="229.2,264.4 238,269.4 238,259 229.2,254 "
               id="polygon3176"
               style="fill:#b0ddd8" />
            <path
               d="m 238,270.9 c -0.3,0 -0.5,-0.1 -0.7,-0.2 l -8.8,-5 c -0.5,-0.3 -0.8,-0.8 -0.8,-1.3 l 0,-10.4 c 0,-0.5 0.3,-1 0.7,-1.3 0.5,-0.3 1,-0.3 1.5,0 l 8.8,5 c 0.5,0.3 0.8,0.8 0.8,1.3 l 0,10.4 c 0,0.5 -0.3,1 -0.7,1.3 -0.3,0.1 -0.5,0.2 -0.8,0.2 z m -7.3,-7.4 5.8,3.3 0,-6.9 -5.8,-3.3 0,6.9 z"
               id="path3178"
               style="fill:#4d4d4d" />
          </g>
          <g
             id="g3180">
            <polygon
               points="222.1,235.9 238.5,234.5 250.1,252 "
               id="polygon3182"
               style="fill:#b0ddd8" />
            <path
               d="m 250.1,253.5 c -0.3,0 -0.5,-0.1 -0.7,-0.2 l -27.9,-16.1 c -0.6,-0.3 -0.9,-1 -0.7,-1.6 0.1,-0.6 0.7,-1.1 1.3,-1.2 l 16.4,-1.5 c 0.5,-0.1 1.1,0.2 1.4,0.7 l 11.5,17.6 c 0.4,0.6 0.3,1.3 -0.2,1.9 -0.3,0.3 -0.7,0.4 -1.1,0.4 z M 227,237 245.3,247.6 237.7,236.1 227,237 z"
               id="path3184"
               style="fill:#4d4d4d" />
          </g>
          <g
             id="g3186">
            <polygon
               points="266.9,219 278,235.9 250.1,252 238.5,234.5 "
               id="polygon3188"
               style="fill:#b0ddd8" />
            <path
               d="m 250.1,253.5 c -0.5,0 -1,-0.2 -1.3,-0.7 l -11.5,-17.6 c -0.2,-0.4 -0.3,-0.8 -0.2,-1.2 0.1,-0.4 0.4,-0.8 0.7,-1 l 28.4,-15.5 c 0.7,-0.4 1.5,-0.2 2,0.5 l 11.1,17 c 0.2,0.3 0.3,0.8 0.2,1.2 -0.1,0.4 -0.4,0.7 -0.7,1 l -27.9,16.1 c -0.3,0.2 -0.6,0.2 -0.8,0.2 z m -9.4,-18.5 9.9,15 25.3,-14.6 -9.5,-14.5 -25.7,14.1 z"
               id="path3190"
               style="fill:#4d4d4d" />
          </g>
          <g
             id="g3192">
            <polygon
               points="250.1,219.8 222.1,235.9 238.6,234.4 266.9,219 "
               id="polygon3194"
               style="fill:#b0ddd8" />
            <path
               d="m 222.1,237.4 c -0.6,0 -1.2,-0.4 -1.4,-1 -0.2,-0.7 0.1,-1.4 0.7,-1.8 l 27.9,-16.1 c 0.2,-0.1 0.4,-0.2 0.7,-0.2 l 16.8,-0.8 c 0.7,-0.1 1.3,0.4 1.5,1.1 0.2,0.7 -0.1,1.4 -0.7,1.7 l -28.3,15.5 c -0.2,0.1 -0.4,0.2 -0.6,0.2 l -16.5,1.5 c 0,-0.1 0,-0.1 -0.1,-0.1 z m 28.4,-16.1 -21.7,12.5 9.4,-0.8 22.3,-12.2 -10,0.5 z"
               id="path3196"
               style="fill:#4d4d4d" />
          </g>
        </g>
        <g
           id="g3198">
          <polygon
             points="270.9,271.7 262.1,276.7 262.2,259 270.9,254 "
             id="polygon3200"
             style="fill:#b0ddd8" />
          <path
             d="m 262.1,278.2 c -0.3,0 -0.5,-0.1 -0.8,-0.2 -0.5,-0.3 -0.7,-0.8 -0.7,-1.3 l 0,-17.7 c 0,-0.5 0.3,-1 0.8,-1.3 l 8.8,-5 c 0.5,-0.3 1,-0.3 1.5,0 0.5,0.3 0.7,0.8 0.7,1.3 l 0,17.7 c 0,0.5 -0.3,1 -0.8,1.3 l -8.8,5 c -0.2,0.2 -0.4,0.2 -0.7,0.2 z m 1.6,-18.3 0,14.3 5.8,-3.3 0,-14.3 -5.8,3.3 z"
             id="path3202"
             style="fill:#4d4d4d" />
        </g>
        <g
           id="g3204">
          <polygon
             points="203.8,258 212.6,263 212.5,245.3 203.8,240.2 "
             id="polygon3206"
             style="fill:#ffffff" />
          <path
             d="m 212.6,264.5 c -0.3,0 -0.5,-0.1 -0.7,-0.2 l -8.8,-5 c -0.5,-0.3 -0.8,-0.8 -0.8,-1.3 l 0,-17.7 c 0,-0.5 0.3,-1 0.7,-1.3 0.5,-0.3 1,-0.3 1.5,0 l 8.8,5 c 0.5,0.3 0.8,0.8 0.8,1.3 l 0,17.7 c 0,0.5 -0.3,1 -0.7,1.3 -0.3,0.1 -0.6,0.2 -0.8,0.2 z m -7.3,-7.4 5.8,3.3 0,-14.3 -5.8,-3.3 0,14.3 z"
             id="path3208"
             style="fill:#4d4d4d" />
        </g>
      </g>
      <g
         id="Layer_2" />
    </g>
  </g>
  <g
     transform="translate(0,-951.36218)"
     id="layer2"
     style="display:inline">
    <g
       transform="translate(-191.92857,767.66218)"
       id="g3730">
      <g
         id="Layer_1-1">
        <g
           id="g3657">
          <polygon
             points="250,251.2 277.9,267.3 250,283.2 222.1,267 "
             id="polygon3659"
             style="fill:#ffffff" />
          <path
             d="m 250,284.7 c -0.3,0 -0.5,-0.1 -0.8,-0.2 l -27.9,-16.1 c -0.5,-0.3 -0.8,-0.8 -0.8,-1.3 0,-0.5 0.3,-1 0.8,-1.3 l 27.9,-15.9 c 0.5,-0.3 1,-0.3 1.5,0 l 27.9,16.1 c 0.5,0.3 0.8,0.8 0.8,1.3 0,0.5 -0.3,1 -0.8,1.3 l -27.9,15.9 c -0.2,0.1 -0.4,0.2 -0.7,0.2 z m -24.9,-17.6 24.9,14.4 24.9,-14.1 -24.9,-14.5 -24.9,14.2 z"
             id="path3661"
             style="fill:#4d4d4d" />
        </g>
        <g
           id="g3663">
          <polygon
             points="250,218.7 277.9,234.8 250,251.2 222.1,234.8 "
             id="polygon3665"
             style="fill:#ffffff" />
          <path
             d="m 250,252.7 c -0.3,0 -0.5,-0.1 -0.8,-0.2 l -27.9,-16.4 c -0.5,-0.3 -0.7,-0.8 -0.7,-1.3 0,-0.5 0.3,-1 0.8,-1.3 l 27.9,-16.1 c 0.5,-0.3 1,-0.3 1.5,0 l 27.9,16.1 c 0.5,0.3 0.7,0.8 0.8,1.3 0.1,0.5 -0.3,1 -0.7,1.3 l -27.9,16.4 c -0.4,0.1 -0.6,0.2 -0.9,0.2 z m -25,-17.9 25,14.7 25,-14.7 -25,-14.4 -25,14.4 z"
             id="path3667"
             style="fill:#4d4d4d" />
        </g>
        <g
           id="g3669">
          <polygon
             points="250,251.2 222.1,267 222.1,234.8 250,218.7 "
             id="polygon3671"
             style="fill:#ffffff" />
          <path
             d="m 222.1,268.5 c -0.3,0 -0.5,-0.1 -0.8,-0.2 -0.5,-0.3 -0.7,-0.8 -0.7,-1.3 l 0,-32.3 c 0,-0.5 0.3,-1 0.8,-1.3 l 27.9,-16.1 c 0.5,-0.3 1,-0.3 1.5,0 0.5,0.3 0.8,0.8 0.8,1.3 l 0,32.5 c 0,0.5 -0.3,1 -0.8,1.3 l -27.9,15.9 c -0.3,0.2 -0.6,0.2 -0.8,0.2 z m 1.5,-32.8 0,28.8 24.9,-14.2 0,-29.1 -24.9,14.5 z"
             id="path3673"
             style="fill:#4d4d4d" />
        </g>
        <g
           id="g3675">
          <polygon
             points="250,250.9 250,283.2 222.1,267 222.1,234.8 "
             id="polygon3677"
             style="fill:#ffffff" />
          <path
             d="m 250,284.7 c -0.3,0 -0.5,-0.1 -0.8,-0.2 l -27.9,-16.1 c -0.5,-0.3 -0.8,-0.8 -0.8,-1.3 l 0,-32.3 c 0,-0.5 0.3,-1 0.7,-1.3 0.5,-0.3 1,-0.3 1.5,0 l 27.9,16.1 c 0.5,0.3 0.8,0.8 0.8,1.3 l 0,32.3 c 0,0.5 -0.3,1 -0.8,1.3 -0.1,0.1 -0.3,0.2 -0.6,0.2 z m -26.4,-18.5 24.9,14.4 0,-28.8 -24.9,-14.4 0,28.8 z"
             id="path3679"
             style="fill:#4d4d4d" />
        </g>
        <g
           id="g3681">
          <polygon
             points="250,251.2 277.9,267.3 277.9,234.8 250,218.7 "
             id="polygon3683"
             style="fill:#ffffff" />
          <path
             d="m 277.9,268.8 c -0.3,0 -0.5,-0.1 -0.8,-0.2 l -27.9,-16.1 c -0.5,-0.3 -0.8,-0.8 -0.8,-1.3 l 0,-32.5 c 0,-0.5 0.3,-1 0.8,-1.3 0.5,-0.3 1,-0.3 1.5,0 l 27.9,16.1 c 0.5,0.3 0.8,0.8 0.8,1.3 v 32.5 c 0,0.5 -0.3,1 -0.8,1.3 -0.1,0.1 -0.4,0.2 -0.7,0.2 z m -26.4,-18.5 24.9,14.4 v -29.1 l -24.9,-14.4 0,29.1 z"
             id="path3685"
             style="fill:#4d4d4d" />
        </g>
        <g
           id="g3687">
          <polygon
             points="250,251 277.9,234.8 250,218.7 222.1,234.8 "
             id="polygon3689"
             style="fill:#ffffff" />
          <path
             d="m 250,252.5 c -0.3,0 -0.5,-0.1 -0.8,-0.2 l -27.9,-16.2 c -0.5,-0.3 -0.7,-0.8 -0.7,-1.3 0,-0.5 0.3,-1 0.8,-1.3 l 27.9,-16.1 c 0.5,-0.3 1,-0.3 1.5,0 l 27.9,16.1 c 0.5,0.3 0.7,0.8 0.8,1.3 0,0.5 -0.3,1 -0.7,1.3 l -27.9,16.2 c -0.4,0.1 -0.6,0.2 -0.9,0.2 z m -24.9,-17.7 24.9,14.5 24.9,-14.5 -24.9,-14.4 -24.9,14.4 z"
             id="path3691"
             style="fill:#4d4d4d" />
        </g>
        <g
           id="g3693">
          <polygon
             points="277.9,267.3 250,283.2 250,250.9 277.9,234.8 "
             id="polygon3695"
             style="fill:#ffffff" />
          <path
             d="m 250,284.7 c -0.3,0 -0.5,-0.1 -0.8,-0.2 -0.5,-0.3 -0.7,-0.8 -0.7,-1.3 l 0,-32.3 c 0,-0.5 0.3,-1 0.8,-1.3 l 27.9,-16.1 c 0.5,-0.3 1,-0.3 1.5,0 0.5,0.3 0.7,0.8 0.7,1.3 v 32.5 c 0,0.5 -0.3,1 -0.8,1.3 l -27.9,15.9 c -0.2,0.1 -0.4,0.2 -0.7,0.2 z m 1.5,-32.9 0,28.8 24.9,-14.2 v -29.1 l -24.9,14.5 z"
             id="path3697"
             style="fill:#4d4d4d" />
        </g>
        <g
           id="g3699">
          <polygon
             points="270.8,270.6 262,275.6 262.1,257.9 270.9,252.8 "
             id="polygon3701"
             style="fill:#ffffff" />
          <path
             d="m 262,277.1 c -0.3,0 -0.5,-0.1 -0.8,-0.2 -0.5,-0.3 -0.7,-0.8 -0.7,-1.3 l 0,-17.7 c 0,-0.5 0.3,-1 0.8,-1.3 l 8.8,-5 c 0.5,-0.3 1,-0.3 1.5,0 0.5,0.3 0.7,0.8 0.7,1.3 l 0,17.7 c 0,0.5 -0.3,1 -0.8,1.3 l -8.8,5 c -0.1,0.1 -0.4,0.2 -0.7,0.2 z m 1.6,-18.3 0,14.3 5.8,-3.3 0,-14.3 -5.8,3.3 z"
             id="path3703"
             style="fill:#4d4d4d" />
        </g>
        <g
           id="g3705">
          <polygon
             points="222.1,234.8 238.5,233.3 250,250.9 "
             id="polygon3707"
             style="fill:#ffffff" />
          <path
             d="m 250,252.4 c -0.3,0 -0.5,-0.1 -0.7,-0.2 l -27.9,-16.1 c -0.6,-0.3 -0.9,-1 -0.7,-1.6 0.1,-0.6 0.7,-1.1 1.3,-1.2 l 16.4,-1.5 c 0.5,0 1.1,0.2 1.4,0.7 l 11.5,17.6 c 0.4,0.6 0.3,1.3 -0.2,1.9 -0.3,0.2 -0.7,0.4 -1.1,0.4 z m -23.1,-16.5 18.3,10.6 -7.6,-11.5 -10.7,0.9 z"
             id="path3709"
             style="fill:#4d4d4d" />
        </g>
        <g
           id="g3711">
          <polygon
             points="266.8,217.8 277.9,234.8 250,250.9 238.5,233.3 "
             id="polygon3713"
             style="fill:#ffffff" />
          <path
             d="m 250,252.4 c -0.5,0 -1,-0.2 -1.3,-0.7 l -11.5,-17.6 c -0.2,-0.4 -0.3,-0.8 -0.2,-1.2 0.1,-0.4 0.4,-0.8 0.7,-1 l 28.4,-15.5 c 0.7,-0.4 1.5,-0.2 2,0.5 l 11.1,17 c 0.2,0.3 0.3,0.8 0.2,1.2 -0.1,0.4 -0.4,0.7 -0.7,1 l -27.9,16.1 c -0.3,0.1 -0.5,0.2 -0.8,0.2 z m -9.4,-18.5 9.9,15 25.3,-14.6 -9.5,-14.5 -25.7,14.1 z"
             id="path3715"
             style="fill:#4d4d4d" />
        </g>
        <g
           id="g3717">
          <polygon
             points="250,218.7 222.1,234.8 238.5,233.3 266.8,217.8 "
             id="polygon3719"
             style="fill:#ffffff" />
          <path
             d="m 222.1,236.3 c -0.6,0 -1.2,-0.4 -1.4,-1 -0.2,-0.7 0.1,-1.4 0.7,-1.8 l 27.9,-16.1 c 0.2,-0.1 0.4,-0.2 0.7,-0.2 l 16.8,-0.8 c 0.7,0 1.3,0.4 1.5,1.1 0.2,0.7 -0.1,1.4 -0.7,1.7 l -28.3,15.5 c -0.2,0.1 -0.4,0.2 -0.6,0.2 l -16.5,1.5 c 0,-0.1 -0.1,-0.1 -0.1,-0.1 z m 28.3,-16.2 -21.7,12.5 9.4,-0.8 22.3,-12.2 -10,0.5 z"
             id="path3721"
             style="fill:#4d4d4d" />
        </g>
      </g>
      <g
         id="Layer_2-6" />
    </g>
  </g>
  <g
     transform="translate(0,-951.36218)"
     id="layer3"
     style="display:none">
    <g
       transform="translate(-194.2,758.46218)"
       id="g3548">
      <g
         id="Layer_1-3">
        <g
           id="g3337">
          <g
             id="g3339">
            <polygon
               points="279.4,228.1 307.3,244 279.4,260.1 251.5,244 "
               id="polygon3341"
               style="fill:#ffffff" />
            <path
               d="m 279.4,261.6 c -0.3,0 -0.5,-0.1 -0.8,-0.2 l -27.9,-16.1 c -0.5,-0.3 -0.8,-0.8 -0.8,-1.3 0,-0.5 0.3,-1 0.8,-1.3 l 27.9,-15.9 c 0.5,-0.3 1,-0.3 1.5,0 l 27.9,15.9 c 0.5,0.3 0.8,0.8 0.8,1.3 0,0.5 -0.3,1 -0.8,1.3 l -27.9,16.1 c -0.2,0.1 -0.4,0.2 -0.7,0.2 z M 254.5,244 279.4,258.4 304.3,244 279.4,229.9 254.5,244 z"
               id="path3343"
               style="fill:#4d4d4d" />
          </g>
          <g
             id="g3345">
            <polygon
               points="279.4,195.6 307.3,211.7 279.4,228.1 251.5,211.7 "
               id="polygon3347"
               style="fill:#ffffff" />
            <path
               d="m 279.4,229.6 c -0.3,0 -0.5,-0.1 -0.8,-0.2 L 250.7,213 c -0.5,-0.3 -0.7,-0.8 -0.7,-1.3 0,-0.5 0.3,-1 0.8,-1.3 l 27.9,-16.1 c 0.5,-0.3 1,-0.3 1.5,0 l 27.9,16.1 c 0.5,0.3 0.7,0.8 0.8,1.3 0,0.5 -0.3,1 -0.7,1.3 l -27.9,16.4 c -0.4,0.1 -0.6,0.2 -0.9,0.2 z m -25,-17.9 25,14.7 25,-14.7 -25,-14.4 -25,14.4 z"
               id="path3349"
               style="fill:#4d4d4d" />
          </g>
          <g
             id="g3351">
            <polygon
               points="279.4,228.1 251.5,244 251.5,211.7 279.4,195.6 "
               id="polygon3353"
               style="fill:#ffffff" />
            <path
               d="m 251.5,245.5 c -0.3,0 -0.5,-0.1 -0.8,-0.2 -0.5,-0.3 -0.7,-0.8 -0.7,-1.3 l 0,-32.3 c 0,-0.5 0.3,-1 0.8,-1.3 l 27.9,-16.1 c 0.5,-0.3 1,-0.3 1.5,0 0.5,0.3 0.8,0.8 0.8,1.3 l 0,32.5 c 0,0.5 -0.3,1 -0.8,1.3 l -27.9,15.9 c -0.3,0.1 -0.6,0.2 -0.8,0.2 z m 1.5,-32.9 0,28.8 24.9,-14.2 0,-29.1 -24.9,14.5 z"
               id="path3355"
               style="fill:#4d4d4d" />
          </g>
          <g
             id="g3357">
            <polygon
               points="279.4,227.8 279.4,260.1 251.5,244 251.5,211.7 "
               id="polygon3359"
               style="fill:#ffffff" />
            <path
               d="m 279.4,261.6 c -0.3,0 -0.5,-0.1 -0.8,-0.2 l -27.9,-16.1 c -0.5,-0.3 -0.8,-0.8 -0.8,-1.3 l 0,-32.3 c 0,-0.5 0.3,-1 0.7,-1.3 0.5,-0.3 1,-0.3 1.5,0 l 27.9,16.1 c 0.5,0.3 0.8,0.8 0.8,1.3 l 0,32.3 c 0,0.5 -0.3,1 -0.8,1.3 -0.1,0.1 -0.3,0.2 -0.6,0.2 z m -26.4,-18.5 24.9,14.4 0,-28.8 -24.9,-14.4 0,28.8 z"
               id="path3361"
               style="fill:#4d4d4d" />
          </g>
          <g
             id="g3363">
            <polygon
               points="279.4,228.1 307.3,244 307.3,211.7 279.4,195.6 "
               id="polygon3365"
               style="fill:#ffffff" />
            <path
               d="m 307.3,245.5 c -0.3,0 -0.5,-0.1 -0.7,-0.2 l -27.9,-15.9 c -0.5,-0.3 -0.8,-0.8 -0.8,-1.3 l 0,-32.5 c 0,-0.5 0.3,-1 0.8,-1.3 0.5,-0.3 1,-0.3 1.5,0 l 27.9,16.1 c 0.5,0.3 0.8,0.8 0.8,1.3 l 0,32.3 c 0,0.5 -0.3,1 -0.7,1.3 -0.3,0.1 -0.6,0.2 -0.9,0.2 z m -26.4,-18.3 24.9,14.2 0,-28.8 -24.9,-14.4 0,29 z"
               id="path3367"
               style="fill:#4d4d4d" />
          </g>
          <g
             id="g3369">
            <polygon
               points="279.4,227.9 307.3,211.7 279.4,195.6 251.5,211.7 "
               id="polygon3371"
               style="fill:#ffffff" />
            <path
               d="m 279.4,229.4 c -0.3,0 -0.5,-0.1 -0.8,-0.2 L 250.7,213 c -0.5,-0.3 -0.7,-0.8 -0.7,-1.3 0,-0.5 0.3,-1 0.8,-1.3 l 27.9,-16.1 c 0.5,-0.3 1,-0.3 1.5,0 l 27.9,16.1 c 0.5,0.3 0.7,0.8 0.8,1.3 0,0.5 -0.3,1 -0.7,1.3 l -27.9,16.2 c -0.4,0.1 -0.6,0.2 -0.9,0.2 z m -24.9,-17.7 24.9,14.5 24.9,-14.5 -24.9,-14.4 -24.9,14.4 z"
               id="path3373"
               style="fill:#4d4d4d" />
          </g>
          <g
             id="g3375">
            <polygon
               points="307.3,244 279.4,260.1 279.4,227.8 307.3,211.7 "
               id="polygon3377"
               style="fill:#ffffff" />
            <path
               d="m 279.4,261.6 c -0.3,0 -0.5,-0.1 -0.8,-0.2 -0.5,-0.3 -0.8,-0.8 -0.8,-1.3 l 0,-32.3 c 0,-0.5 0.3,-1 0.8,-1.3 l 27.9,-16.1 c 0.5,-0.3 1,-0.3 1.5,0 0.5,0.3 0.7,0.8 0.7,1.3 l 0,32.3 c 0,0.5 -0.3,1 -0.8,1.3 L 280,261.4 c -0.1,0.1 -0.3,0.2 -0.6,0.2 z m 1.5,-32.9 0,28.8 24.9,-14.4 0,-28.8 -24.9,14.4 z"
               id="path3379"
               style="fill:#4d4d4d" />
          </g>
          <g
             id="g3381">
            <polygon
               points="300.2,247.5 291.4,252.5 291.5,234.8 300.3,229.8 "
               id="polygon3383"
               style="fill:#ffffff" />
            <path
               d="m 291.4,254 c -0.3,0 -0.5,-0.1 -0.8,-0.2 -0.5,-0.3 -0.7,-0.8 -0.7,-1.3 l 0,-17.7 c 0,-0.5 0.3,-1 0.8,-1.3 l 8.8,-5 c 0.5,-0.3 1,-0.3 1.5,0 0.5,0.3 0.7,0.8 0.7,1.3 l 0,17.7 c 0,0.5 -0.3,1 -0.8,1.3 l -8.8,5 c -0.1,0.2 -0.4,0.2 -0.7,0.2 z m 1.6,-18.3 0,14.3 5.8,-3.3 0,-14.3 -5.8,3.3 z"
               id="path3385"
               style="fill:#4d4d4d" />
          </g>
          <g
             id="g3387">
            <polygon
               points="279.4,227.8 251.5,211.7 267.9,210.3 "
               id="polygon3389"
               style="fill:#ffffff" />
            <path
               d="m 279.4,229.3 c -0.3,0 -0.5,-0.1 -0.7,-0.2 l -28,-16.1 c -0.6,-0.3 -0.9,-1 -0.7,-1.6 0.1,-0.6 0.7,-1.1 1.3,-1.2 l 16.4,-1.5 c 0.5,0 1.1,0.2 1.4,0.7 l 11.5,17.6 c 0.4,0.6 0.3,1.3 -0.2,1.9 -0.2,0.3 -0.6,0.4 -1,0.4 z m -23.1,-16.5 18.3,10.6 -7.6,-11.5 -10.7,0.9 z"
               id="path3391"
               style="fill:#4d4d4d" />
          </g>
          <g
             id="g3393">
            <polygon
               points="296.2,194.8 307.3,211.7 279.4,227.8 267.9,210.3 "
               id="polygon3395"
               style="fill:#ffffff" />
            <path
               d="m 279.4,229.3 c -0.5,0 -1,-0.2 -1.3,-0.7 L 266.6,211 c -0.2,-0.4 -0.3,-0.8 -0.2,-1.2 0.1,-0.4 0.4,-0.8 0.7,-1 l 28.4,-15.5 c 0.7,-0.4 1.5,-0.2 2,0.5 l 11.1,17 c 0.2,0.3 0.3,0.8 0.2,1.2 -0.1,0.4 -0.4,0.7 -0.7,1 l -27.9,16.1 c -0.3,0.2 -0.6,0.2 -0.8,0.2 z m -9.4,-18.5 9.9,15 25.3,-14.6 -9.5,-14.5 -25.7,14.1 z"
               id="path3397"
               style="fill:#4d4d4d" />
          </g>
          <g
             id="g3399">
            <polygon
               points="279.4,195.6 251.5,211.7 267.9,210.2 296.2,194.8 "
               id="polygon3401"
               style="fill:#ffffff" />
            <path
               d="m 251.5,213.2 c -0.6,0 -1.2,-0.4 -1.4,-1 -0.2,-0.7 0.1,-1.4 0.7,-1.8 l 27.9,-16.1 c 0.2,-0.1 0.4,-0.2 0.7,-0.2 l 16.8,-0.8 c 0.7,0 1.3,0.4 1.5,1.1 0.2,0.7 -0.1,1.4 -0.7,1.7 l -28.3,15.5 c -0.2,0.1 -0.4,0.2 -0.6,0.2 l -16.5,1.5 c -0.1,-0.1 -0.1,-0.1 -0.1,-0.1 z m 28.3,-16.1 -21.7,12.5 9.4,-0.8 22.3,-12.2 -10,0.5 z"
               id="path3403"
               style="fill:#4d4d4d" />
          </g>
        </g>
        <g
           id="g3405">
          <g
             id="g3407">
            <polygon
               points="251.6,244.2 279.6,260.1 251.6,276.2 223.7,260.1 "
               id="polygon3409"
               style="fill:#b0ddd8" />
            <path
               d="m 251.6,277.7 c -0.3,0 -0.5,-0.1 -0.8,-0.2 l -27.9,-16.1 c -0.5,-0.3 -0.8,-0.8 -0.8,-1.3 0,-0.5 0.3,-1 0.8,-1.3 l 27.9,-15.9 c 0.5,-0.3 1,-0.3 1.5,0 l 27.9,15.9 c 0.5,0.3 0.8,0.8 0.8,1.3 0,0.5 -0.3,1 -0.8,1.3 l -27.9,16.1 c -0.2,0.2 -0.4,0.2 -0.7,0.2 z m -24.9,-17.6 24.9,14.4 24.9,-14.4 -24.9,-14.1 -24.9,14.1 z"
               id="path3411"
               style="fill:#4d4d4d" />
          </g>
          <g
             id="g3413">
            <polygon
               points="251.6,211.7 279.6,227.8 251.6,244.2 223.7,227.8 "
               id="polygon3415"
               style="fill:#b0ddd8" />
            <path
               d="m 251.6,245.7 c -0.3,0 -0.5,-0.1 -0.8,-0.2 l -27.9,-16.4 c -0.5,-0.3 -0.7,-0.8 -0.7,-1.3 0,-0.5 0.3,-1 0.8,-1.3 l 27.9,-16.1 c 0.5,-0.3 1,-0.3 1.5,0 l 27.9,16.1 c 0.5,0.3 0.7,0.8 0.8,1.3 0,0.5 -0.3,1 -0.7,1.3 l -27.9,16.4 c -0.4,0.2 -0.6,0.2 -0.9,0.2 z m -24.9,-17.8 25,14.7 25,-14.7 -25,-14.4 -25,14.4 z"
               id="path3417"
               style="fill:#4d4d4d" />
          </g>
          <g
             id="g3419">
            <polygon
               points="251.6,244.2 223.7,260.1 223.7,227.8 251.6,211.7 "
               id="polygon3421"
               style="fill:#b0ddd8" />
            <path
               d="m 223.7,261.6 c -0.3,0 -0.5,-0.1 -0.8,-0.2 -0.5,-0.3 -0.7,-0.8 -0.7,-1.3 l 0,-32.3 c 0,-0.5 0.3,-1 0.8,-1.3 l 27.9,-16.1 c 0.5,-0.3 1,-0.3 1.5,0 0.5,0.3 0.8,0.8 0.8,1.3 l 0,32.5 c 0,0.5 -0.3,1 -0.8,1.3 l -27.9,15.9 c -0.3,0.1 -0.6,0.2 -0.8,0.2 z m 1.5,-32.9 0,28.8 24.9,-14.2 0,-29.1 -24.9,14.5 z"
               id="path3423"
               style="fill:#4d4d4d" />
          </g>
          <g
             id="g3425">
            <polygon
               points="251.6,244 251.6,276.2 223.7,260.1 223.7,227.8 "
               id="polygon3427"
               style="fill:#b0ddd8" />
            <path
               d="m 251.6,277.7 c -0.3,0 -0.5,-0.1 -0.8,-0.2 l -27.9,-16.1 c -0.5,-0.3 -0.8,-0.8 -0.8,-1.3 l 0,-32.3 c 0,-0.5 0.3,-1 0.7,-1.3 0.5,-0.3 1,-0.3 1.5,0 l 27.9,16.1 c 0.5,0.3 0.8,0.8 0.8,1.3 l 0,32.3 c 0,0.5 -0.3,1 -0.8,1.3 -0.1,0.2 -0.3,0.2 -0.6,0.2 z m -26.4,-18.5 24.9,14.4 0,-28.8 -24.9,-14.4 0,28.8 z"
               id="path3429"
               style="fill:#4d4d4d" />
          </g>
          <g
             id="g3431">
            <polygon
               points="251.6,244.2 279.6,260.1 279.6,227.8 251.6,211.7 "
               id="polygon3433"
               style="fill:#b0ddd8" />
            <path
               d="m 279.6,261.6 c -0.3,0 -0.5,-0.1 -0.7,-0.2 L 251,245.5 c -0.5,-0.3 -0.8,-0.8 -0.8,-1.3 l 0,-32.5 c 0,-0.5 0.3,-1 0.8,-1.3 0.5,-0.3 1,-0.3 1.5,0 l 27.9,16.1 c 0.5,0.3 0.8,0.8 0.8,1.3 l 0,32.3 c 0,0.5 -0.3,1 -0.7,1.3 -0.4,0.1 -0.7,0.2 -0.9,0.2 z m -26.5,-18.2 24.9,14.2 0,-28.8 -24.9,-14.4 0,29 z"
               id="path3435"
               style="fill:#4d4d4d" />
          </g>
          <g
             id="g3437">
            <polygon
               points="251.6,244 279.6,227.8 251.6,211.7 223.7,227.8 "
               id="polygon3439"
               style="fill:#b0ddd8" />
            <path
               d="m 251.6,245.5 c -0.3,0 -0.5,-0.1 -0.8,-0.2 l -27.9,-16.2 c -0.5,-0.3 -0.7,-0.8 -0.7,-1.3 0,-0.5 0.3,-1 0.8,-1.3 l 27.9,-16.1 c 0.5,-0.3 1,-0.3 1.5,0 l 27.9,16.1 c 0.5,0.3 0.7,0.8 0.8,1.3 0,0.5 -0.3,1 -0.7,1.3 l -27.9,16.2 c -0.4,0.2 -0.6,0.2 -0.9,0.2 z m -24.9,-17.7 24.9,14.5 24.9,-14.5 -24.9,-14.4 -24.9,14.4 z"
               id="path3441"
               style="fill:#4d4d4d" />
          </g>
          <g
             id="g3443">
            <polygon
               points="279.6,260.1 251.6,276.2 251.6,244 279.6,227.8 "
               id="polygon3445"
               style="fill:#b0ddd8" />
            <path
               d="m 251.6,277.7 c -0.3,0 -0.5,-0.1 -0.8,-0.2 -0.5,-0.3 -0.8,-0.8 -0.8,-1.3 l 0,-32.3 c 0,-0.5 0.3,-1 0.8,-1.3 l 27.9,-16.1 c 0.5,-0.3 1,-0.3 1.5,0 0.5,0.3 0.7,0.8 0.7,1.3 l 0,32.3 c 0,0.5 -0.3,1 -0.8,1.3 l -27.9,16.1 c -0.1,0.2 -0.3,0.2 -0.6,0.2 z m 1.5,-32.9 0,28.8 24.9,-14.4 0,-28.8 -24.9,14.4 z"
               id="path3447"
               style="fill:#4d4d4d" />
          </g>
          <g
             id="g3449">
            <polygon
               points="272.4,263.6 263.7,268.7 263.7,250.9 272.5,245.9 "
               id="polygon3451"
               style="fill:#b0ddd8" />
            <path
               d="m 263.7,270.2 c -0.3,0 -0.5,-0.1 -0.8,-0.2 -0.5,-0.3 -0.7,-0.8 -0.7,-1.3 l 0,-17.7 c 0,-0.5 0.3,-1 0.8,-1.3 l 8.8,-5 c 0.5,-0.3 1,-0.3 1.5,0 0.5,0.3 0.7,0.8 0.7,1.3 l 0,17.7 c 0,0.5 -0.3,1 -0.8,1.3 l -8.8,5 c -0.2,0.1 -0.5,0.2 -0.7,0.2 z m 1.5,-18.4 0,14.3 5.8,-3.3 0,-14.3 -5.8,3.3 z"
               id="path3453"
               style="fill:#4d4d4d" />
          </g>
          <g
             id="g3455">
            <polygon
               points="251.6,244 223.7,227.8 240.1,226.4 "
               id="polygon3457"
               style="fill:#b0ddd8" />
            <path
               d="m 251.6,245.5 c -0.3,0 -0.5,-0.1 -0.7,-0.2 L 223,229.2 c -0.6,-0.3 -0.9,-1 -0.7,-1.6 0.1,-0.6 0.7,-1.1 1.3,-1.2 l 16.4,-1.5 c 0.5,0 1.1,0.2 1.4,0.7 l 11.5,17.6 c 0.4,0.6 0.3,1.3 -0.2,1.9 -0.3,0.2 -0.7,0.4 -1.1,0.4 z m -23.1,-16.6 18.3,10.6 -7.6,-11.5 -10.7,0.9 z"
               id="path3459"
               style="fill:#4d4d4d" />
          </g>
          <g
             id="g3461">
            <polygon
               points="268.4,210.9 279.6,227.8 251.6,244 240.1,226.4 "
               id="polygon3463"
               style="fill:#b0ddd8" />
            <path
               d="m 251.6,245.5 c -0.5,0 -1,-0.2 -1.3,-0.7 l -11.5,-17.6 c -0.2,-0.4 -0.3,-0.8 -0.2,-1.2 0.1,-0.4 0.4,-0.8 0.7,-1 l 28.4,-15.5 c 0.7,-0.4 1.5,-0.2 2,0.5 l 11.1,17 c 0.2,0.3 0.3,0.8 0.2,1.2 -0.1,0.4 -0.4,0.7 -0.7,1 l -27.9,16.1 c -0.3,0.1 -0.5,0.2 -0.8,0.2 z m -9.4,-18.6 9.9,15 25.3,-14.6 -9.5,-14.5 -25.7,14.1 z"
               id="path3465"
               style="fill:#4d4d4d" />
          </g>
          <g
             id="g3467">
            <polygon
               points="251.6,211.7 223.7,227.8 240.1,226.4 268.4,210.9 "
               id="polygon3469"
               style="fill:#b0ddd8" />
            <path
               d="m 223.7,229.3 c -0.6,0 -1.2,-0.4 -1.4,-1 -0.2,-0.7 0.1,-1.4 0.7,-1.8 l 27.9,-16.1 c 0.2,-0.1 0.4,-0.2 0.7,-0.2 l 16.8,-0.8 c 0.7,-0.1 1.3,0.4 1.5,1.1 0.2,0.7 -0.1,1.4 -0.7,1.7 l -28.3,15.5 c -0.2,0.1 -0.4,0.2 -0.6,0.2 l -16.5,1.5 c 0,-0.1 -0.1,-0.1 -0.1,-0.1 z m 28.4,-16.1 -21.7,12.5 9.4,-0.8 22.3,-12.2 -10,0.5 z"
               id="path3471"
               style="fill:#4d4d4d" />
          </g>
        </g>
        <g
           id="g3473">
          <g
             id="g3475">
            <polygon
               points="223.7,260.4 251.6,276.2 223.7,292.4 195.7,276.2 "
               id="polygon3477"
               style="fill:#ffffff" />
            <path
               d="m 223.7,293.9 c -0.3,0 -0.5,-0.1 -0.8,-0.2 L 195,277.5 c -0.5,-0.3 -0.8,-0.8 -0.8,-1.3 0,-0.5 0.3,-1 0.8,-1.3 L 222.9,259 c 0.5,-0.3 1,-0.3 1.5,0 l 27.9,15.9 c 0.5,0.3 0.8,0.8 0.8,1.3 0,0.5 -0.3,1 -0.8,1.3 l -27.9,16.1 c -0.2,0.2 -0.5,0.3 -0.7,0.3 z m -24.9,-17.7 24.9,14.4 24.9,-14.4 -24.9,-14.1 -24.9,14.1 z"
               id="path3479"
               style="fill:#4d4d4d" />
          </g>
          <g
             id="g3481">
            <polygon
               points="223.7,227.8 251.6,244 223.7,260.4 195.7,244 "
               id="polygon3483"
               style="fill:#ffffff" />
            <path
               d="m 223.7,261.9 c -0.3,0 -0.5,-0.1 -0.8,-0.2 L 195,245.3 c -0.5,-0.3 -0.7,-0.8 -0.7,-1.3 0,-0.5 0.3,-1 0.8,-1.3 L 223,226.6 c 0.5,-0.3 1,-0.3 1.5,0 l 27.9,16.1 c 0.5,0.3 0.7,0.8 0.8,1.3 0,0.5 -0.3,1 -0.7,1.3 l -27.9,16.4 c -0.4,0.1 -0.7,0.2 -0.9,0.2 z m -25,-17.9 25,14.7 25,-14.7 -25,-14.4 -25,14.4 z"
               id="path3485"
               style="fill:#4d4d4d" />
          </g>
          <g
             id="g3487">
            <polygon
               points="223.7,260.4 195.7,276.2 195.7,244 223.7,227.8 "
               id="polygon3489"
               style="fill:#ffffff" />
            <path
               d="m 195.7,277.7 c -0.3,0 -0.5,-0.1 -0.8,-0.2 -0.5,-0.3 -0.7,-0.8 -0.7,-1.3 l 0,-32.3 c 0,-0.5 0.3,-1 0.8,-1.3 l 27.9,-16.1 c 0.5,-0.3 1,-0.3 1.5,0 0.5,0.3 0.8,0.8 0.8,1.3 l 0,32.5 c 0,0.5 -0.3,1 -0.8,1.3 l -27.9,15.9 c -0.2,0.2 -0.5,0.2 -0.8,0.2 z m 1.5,-32.9 0,28.8 24.9,-14.2 0,-29.1 -24.9,14.5 z"
               id="path3491"
               style="fill:#4d4d4d" />
          </g>
          <g
             id="g3493">
            <polygon
               points="223.7,260.1 223.7,292.4 195.7,276.2 195.7,244 "
               id="polygon3495"
               style="fill:#ffffff" />
            <path
               d="m 223.7,293.9 c -0.3,0 -0.5,-0.1 -0.8,-0.2 L 195,277.5 c -0.5,-0.3 -0.8,-0.8 -0.8,-1.3 l 0,-32.3 c 0,-0.5 0.3,-1 0.7,-1.3 0.5,-0.3 1,-0.3 1.5,0 l 27.9,16.1 c 0.5,0.3 0.8,0.8 0.8,1.3 l 0,32.3 c 0,0.5 -0.3,1 -0.8,1.3 -0.1,0.2 -0.4,0.3 -0.6,0.3 z m -26.5,-18.5 24.9,14.4 0,-28.8 -24.9,-14.4 0,28.8 z"
               id="path3497"
               style="fill:#4d4d4d" />
          </g>
          <g
             id="g3499">
            <polygon
               points="223.7,260.4 251.6,276.2 251.6,244 223.7,227.8 "
               id="polygon3501"
               style="fill:#ffffff" />
            <path
               d="m 251.6,277.7 c -0.3,0 -0.5,-0.1 -0.7,-0.2 L 223,261.6 c -0.5,-0.3 -0.8,-0.8 -0.8,-1.3 l 0,-32.5 c 0,-0.5 0.3,-1 0.8,-1.3 0.5,-0.3 1,-0.3 1.5,0 l 27.9,16.1 c 0.5,0.3 0.8,0.8 0.8,1.3 l 0,32.3 c 0,0.5 -0.3,1 -0.7,1.3 -0.4,0.2 -0.6,0.2 -0.9,0.2 z m -26.4,-18.2 24.9,14.2 0,-28.8 -24.9,-14.4 0,29 z"
               id="path3503"
               style="fill:#4d4d4d" />
          </g>
          <g
             id="g3505">
            <polygon
               points="223.7,260.2 251.6,244 223.7,227.8 195.7,244 "
               id="polygon3507"
               style="fill:#ffffff" />
            <path
               d="m 223.7,261.7 c -0.3,0 -0.5,-0.1 -0.8,-0.2 L 195,245.3 c -0.5,-0.3 -0.7,-0.8 -0.7,-1.3 0,-0.5 0.3,-1 0.8,-1.3 L 223,226.6 c 0.5,-0.3 1,-0.3 1.5,0 l 27.9,16.1 c 0.5,0.3 0.7,0.8 0.8,1.3 0,0.5 -0.3,1 -0.7,1.3 l -27.9,16.2 c -0.4,0.1 -0.7,0.2 -0.9,0.2 z m -25,-17.7 24.9,14.5 24.9,-14.5 -24.9,-14.4 -24.9,14.4 z"
               id="path3509"
               style="fill:#4d4d4d" />
          </g>
          <g
             id="g3511">
            <polygon
               points="251.6,276.2 223.7,292.4 223.7,260.1 251.6,244 "
               id="polygon3513"
               style="fill:#ffffff" />
            <path
               d="m 223.7,293.9 c -0.3,0 -0.5,-0.1 -0.8,-0.2 -0.5,-0.3 -0.8,-0.8 -0.8,-1.3 l 0,-32.3 c 0,-0.5 0.3,-1 0.8,-1.3 l 27.9,-16.1 c 0.5,-0.3 1,-0.3 1.5,0 0.5,0.3 0.7,0.8 0.7,1.3 l 0,32.3 c 0,0.5 -0.3,1 -0.8,1.3 l -27.9,16.1 c -0.1,0.1 -0.4,0.2 -0.6,0.2 z m 1.5,-32.9 0,28.8 24.9,-14.4 0,-28.8 -24.9,14.4 z"
               id="path3515"
               style="fill:#4d4d4d" />
          </g>
          <g
             id="g3517">
            <polygon
               points="244.5,279.8 235.7,284.8 235.8,267.1 244.5,262 "
               id="polygon3519"
               style="fill:#ffffff" />
            <path
               d="m 235.7,286.3 c -0.3,0 -0.5,-0.1 -0.8,-0.2 -0.5,-0.3 -0.7,-0.8 -0.7,-1.3 l 0,-17.7 c 0,-0.5 0.3,-1 0.8,-1.3 l 8.8,-5 c 0.5,-0.3 1,-0.3 1.5,0 0.5,0.3 0.7,0.8 0.7,1.3 l 0,17.7 c 0,0.5 -0.3,1 -0.8,1.3 l -8.8,5 c -0.2,0.1 -0.4,0.2 -0.7,0.2 z m 1.6,-18.4 0,14.3 5.8,-3.3 0,-14.3 -5.8,3.3 z"
               id="path3521"
               style="fill:#4d4d4d" />
          </g>
          <g
             id="g3523">
            <polygon
               points="223.7,260.1 195.7,244 212.1,242.5 "
               id="polygon3525"
               style="fill:#ffffff" />
            <path
               d="m 223.7,261.6 c -0.3,0 -0.5,-0.1 -0.7,-0.2 l -28,-16.1 c -0.6,-0.3 -0.9,-1 -0.7,-1.6 0.1,-0.6 0.7,-1.1 1.3,-1.2 L 212,241 c 0.5,0 1.1,0.2 1.4,0.7 l 11.5,17.6 c 0.4,0.6 0.3,1.3 -0.2,1.9 -0.2,0.2 -0.6,0.4 -1,0.4 z m -23.1,-16.6 18.3,10.6 -7.6,-11.5 -10.7,0.9 z"
               id="path3527"
               style="fill:#4d4d4d" />
          </g>
          <g
             id="g3529">
            <polygon
               points="240.5,227 251.6,244 223.7,260.1 212.1,242.5 "
               id="polygon3531"
               style="fill:#ffffff" />
            <path
               d="m 223.7,261.6 c -0.5,0 -1,-0.2 -1.3,-0.7 l -11.5,-17.6 c -0.2,-0.4 -0.3,-0.8 -0.2,-1.2 0.1,-0.4 0.4,-0.8 0.7,-1 l 28.4,-15.5 c 0.7,-0.4 1.5,-0.2 2,0.5 l 11.1,17 c 0.2,0.3 0.3,0.8 0.2,1.2 -0.1,0.4 -0.4,0.7 -0.7,1 l -27.9,16.1 c -0.3,0.1 -0.6,0.2 -0.8,0.2 z m -9.4,-18.5 9.9,15 25.3,-14.6 -9.5,-14.5 -25.7,14.1 z"
               id="path3533"
               style="fill:#4d4d4d" />
          </g>
          <g
             id="g3535">
            <polygon
               points="223.7,227.8 195.7,244 212.2,242.5 240.5,227 "
               id="polygon3537"
               style="fill:#ffffff" />
            <path
               d="m 195.7,245.5 c -0.6,0 -1.2,-0.4 -1.4,-1 -0.2,-0.7 0.1,-1.4 0.7,-1.8 l 27.9,-16.1 c 0.2,-0.1 0.4,-0.2 0.7,-0.2 l 16.8,-0.8 c 0.7,-0.1 1.3,0.4 1.5,1.1 0.2,0.7 -0.1,1.4 -0.7,1.7 l -28.3,15.5 c -0.2,0.1 -0.4,0.2 -0.6,0.2 l -16.5,1.5 c 0,-0.1 0,-0.1 -0.1,-0.1 z m 28.4,-16.2 -21.7,12.5 9.4,-0.8 22.3,-12.2 -10,0.5 z"
               id="path3539"
               style="fill:#4d4d4d" />
          </g>
        </g>
      </g>
      <g
         id="Layer_2-5" />
    </g>
  </g>
</svg>
