<?xml version="1.0" encoding="UTF-8" standalone="no"?>
<!-- Created with Inkscape (http://www.inkscape.org/) -->

<svg
   xmlns:dc="http://purl.org/dc/elements/1.1/"
   xmlns:cc="http://creativecommons.org/ns#"
   xmlns:rdf="http://www.w3.org/1999/02/22-rdf-syntax-ns#"
   xmlns:svg="http://www.w3.org/2000/svg"
   xmlns="http://www.w3.org/2000/svg"
   version="1.1"
   width="59"
   height="69"
   id="svg4801">
  <defs
     id="defs4803" />
  <metadata
     id="metadata4806">
    <rdf:RDF>
      <cc:Work
         rdf:about="">
        <dc:format>image/svg+xml</dc:format>
        <dc:type
           rdf:resource="http://purl.org/dc/dcmitype/StillImage" />
        <dc:title></dc:title>
      </cc:Work>
    </rdf:RDF>
  </metadata>
  <g
     transform="translate(0,-983.36218)"
     id="layer1"
     style="display:none">
    <g
       transform="translate(-170.6,817.56218)"
       id="g4890"
       style="display:inline">
      <polygon
         points="200,172.2 216.4,170.5 227.9,188.3 "
         id="polygon4858"
         style="fill:#ffffff;stroke:#424143;stroke-width:3;stroke-linejoin:round;stroke-miterlimit:10" />
      <polygon
         points="200,201.1 227.9,217.2 200,233.3 172.1,217.2 "
         id="polygon4860"
         style="fill:#ffffff;stroke:#424143;stroke-width:3;stroke-linejoin:round;stroke-miterlimit:10" />
      <polygon
         points="200,168.8 227.9,184.9 200,201.1 172.1,184.9 "
         id="polygon4862"
         style="fill:#ffffff;stroke:#424143;stroke-width:3;stroke-linejoin:round;stroke-miterlimit:10" />
      <polygon
         points="200,201.1 172.1,217.2 172.1,184.9 200,168.8 "
         id="polygon4864"
         style="fill:#ffffff;stroke:#424143;stroke-width:3;stroke-linejoin:round;stroke-miterlimit:10" />
      <polygon
         points="200,201.1 200,233.3 172.1,217.2 172.1,184.9 "
         id="polygon4866"
         style="fill:#ffffff;stroke:#424143;stroke-width:3;stroke-linejoin:round;stroke-miterlimit:10" />
      <polygon
         points="200,201.1 227.9,217.2 227.9,184.9 200,168.8 "
         id="polygon4868"
         style="fill:#ffffff;stroke:#424143;stroke-width:3;stroke-linejoin:round;stroke-miterlimit:10" />
      <polygon
         points="200,201.1 227.9,184.9 200,168.8 172.1,184.9 "
         id="polygon4870"
         style="fill:#ffffff;stroke:#424143;stroke-width:3;stroke-linejoin:round;stroke-miterlimit:10" />
      <polygon
         points="227.9,217.2 200,233.3 200,201.1 227.9,184.9 "
         id="polygon4872"
         style="fill:#ffffff;stroke:#424143;stroke-width:3;stroke-linejoin:round;stroke-miterlimit:10" />
      <polygon
         points="221.3,220.5 212.5,225.5 212.6,207.8 221.3,202.7 "
         id="polygon4874"
         style="fill:#ffffff;stroke:#424143;stroke-width:3;stroke-linejoin:round;stroke-miterlimit:10" />
      <polygon
         points="172.1,184.9 188.5,183.2 200,201.1 "
         id="polygon4876"
         style="fill:#84c44a;stroke:#424143;stroke-width:3;stroke-linejoin:round;stroke-miterlimit:10" />
      <polygon
         points="200,168.8 215.9,167.7 227.9,184.9 "
         id="polygon4878"
         style="fill:#ffffff;stroke:#424143;stroke-width:3;stroke-linejoin:round;stroke-miterlimit:10" />
      <polygon
         points="216.8,167.7 227.9,184.9 200,201.1 188.5,183.2 "
         id="polygon4880"
         style="fill:#84c44a;stroke:#424143;stroke-width:3;stroke-linejoin:round;stroke-miterlimit:10" />
      <polygon
         points="200.5,168.1 172.1,184.9 188.5,183.2 216.5,167.9 "
         id="polygon4882"
         style="fill:#84c44a;stroke:#424143;stroke-width:3;stroke-linejoin:round;stroke-miterlimit:10" />
    </g>
  </g>
  <g
     id="layer3"
     style="display:none">
    <g
       transform="translate(-170.6,-165.8)"
       id="g4842">
      <polygon
         points="216.4,170.5 227.9,188.3 200,172.2 "
         id="polygon4810"
         style="fill:#ffffff;stroke:#424143;stroke-width:3;stroke-linejoin:round;stroke-miterlimit:10" />
      <polygon
         points="200,233.3 172.1,217.2 200,201.1 227.9,217.2 "
         id="polygon4812"
         style="fill:#ffffff;stroke:#424143;stroke-width:3;stroke-linejoin:round;stroke-miterlimit:10" />
      <polygon
         points="200,201.1 172.1,184.9 200,168.8 227.9,184.9 "
         id="polygon4814"
         style="fill:#ffffff;stroke:#424143;stroke-width:3;stroke-linejoin:round;stroke-miterlimit:10" />
      <polygon
         points="172.1,184.9 200,168.8 200,201.1 172.1,217.2 "
         id="polygon4816"
         style="fill:#ffffff;stroke:#424143;stroke-width:3;stroke-linejoin:round;stroke-miterlimit:10" />
      <polygon
         points="172.1,217.2 172.1,184.9 200,201.1 200,233.3 "
         id="polygon4818"
         style="fill:#ffffff;stroke:#424143;stroke-width:3;stroke-linejoin:round;stroke-miterlimit:10" />
      <polygon
         points="227.9,184.9 200,168.8 200,201.1 227.9,217.2 "
         id="polygon4820"
         style="fill:#ffffff;stroke:#424143;stroke-width:3;stroke-linejoin:round;stroke-miterlimit:10" />
      <polygon
         points="200,168.8 172.1,184.9 200,201.1 227.9,184.9 "
         id="polygon4822"
         style="fill:#ffffff;stroke:#424143;stroke-width:3;stroke-linejoin:round;stroke-miterlimit:10" />
      <polygon
         points="200,201.1 227.9,184.9 227.9,217.2 200,233.3 "
         id="polygon4824"
         style="fill:#ffffff;stroke:#424143;stroke-width:3;stroke-linejoin:round;stroke-miterlimit:10" />
      <polygon
         points="212.6,207.8 221.3,202.7 221.3,220.5 212.5,225.5 "
         id="polygon4826"
         style="fill:#ffffff;stroke:#424143;stroke-width:3;stroke-linejoin:round;stroke-miterlimit:10" />
      <polygon
         points="188.5,183.2 200,201.1 172.1,184.9 "
         id="polygon4828"
         style="fill:#5eabdc;stroke:#424143;stroke-width:3;stroke-linejoin:round;stroke-miterlimit:10" />
      <polygon
         points="215.9,167.7 227.9,184.9 200,168.8 "
         id="polygon4830"
         style="fill:#ffffff;stroke:#424143;stroke-width:3;stroke-linejoin:round;stroke-miterlimit:10" />
      <polygon
         points="200,201.1 188.5,183.2 216.8,167.7 227.9,184.9 "
         id="polygon4832"
         style="fill:#5eabdc;stroke:#424143;stroke-width:3;stroke-linejoin:round;stroke-miterlimit:10" />
      <polygon
         points="188.5,183.2 216.5,167.9 200.5,168.1 172.1,184.9 "
         id="polygon4834"
         style="fill:#5eabdc;stroke:#424143;stroke-width:3;stroke-linejoin:round;stroke-miterlimit:10" />
    </g>
  </g>
  <g
     id="layer2"
     style="display:inline">
    <g
       transform="translate(-170.6,-165.8)"
       id="g4938">
      <polygon
         points="200,172.2 216.4,170.5 227.9,188.3 "
         id="polygon4906"
         style="fill:#ffffff;stroke:#424143;stroke-width:3;stroke-linejoin:round;stroke-miterlimit:10" />
      <polygon
         points="200,201.1 227.9,217.2 200,233.3 172.1,217.2 "
         id="polygon4908"
         style="fill:#ffffff;stroke:#424143;stroke-width:3;stroke-linejoin:round;stroke-miterlimit:10" />
      <polygon
         points="200,168.8 227.9,184.9 200,201.1 172.1,184.9 "
         id="polygon4910"
         style="fill:#ffffff;stroke:#424143;stroke-width:3;stroke-linejoin:round;stroke-miterlimit:10" />
      <polygon
         points="200,201.1 172.1,217.2 172.1,184.9 200,168.8 "
         id="polygon4912"
         style="fill:#ffffff;stroke:#424143;stroke-width:3;stroke-linejoin:round;stroke-miterlimit:10" />
      <polygon
         points="200,201.1 200,233.3 172.1,217.2 172.1,184.9 "
         id="polygon4914"
         style="fill:#ffffff;stroke:#424143;stroke-width:3;stroke-linejoin:round;stroke-miterlimit:10" />
      <polygon
         points="200,201.1 227.9,217.2 227.9,184.9 200,168.8 "
         id="polygon4916"
         style="fill:#ffffff;stroke:#424143;stroke-width:3;stroke-linejoin:round;stroke-miterlimit:10" />
      <polygon
         points="200,201.1 227.9,184.9 200,168.8 172.1,184.9 "
         id="polygon4918"
         style="fill:#ffffff;stroke:#424143;stroke-width:3;stroke-linejoin:round;stroke-miterlimit:10" />
      <polygon
         points="227.9,217.2 200,233.3 200,201.1 227.9,184.9 "
         id="polygon4920"
         style="fill:#ffffff;stroke:#424143;stroke-width:3;stroke-linejoin:round;stroke-miterlimit:10" />
      <polygon
         points="221.3,220.5 212.5,225.5 212.6,207.8 221.3,202.7 "
         id="polygon4922"
         style="fill:#ffffff;stroke:#424143;stroke-width:3;stroke-linejoin:round;stroke-miterlimit:10" />
      <polygon
         points="172.1,184.9 188.5,183.2 200,201.1 "
         id="polygon4924"
         style="fill:#df5a49;stroke:#424143;stroke-width:3;stroke-linejoin:round;stroke-miterlimit:10" />
      <polygon
         points="200,168.8 215.9,167.7 227.9,184.9 "
         id="polygon4926"
         style="fill:#ffffff;stroke:#424143;stroke-width:3;stroke-linejoin:round;stroke-miterlimit:10" />
      <polygon
         points="216.8,167.7 227.9,184.9 200,201.1 188.5,183.2 "
         id="polygon4928"
         style="fill:#df5a49;stroke:#424143;stroke-width:3;stroke-linejoin:round;stroke-miterlimit:10" />
      <polygon
         points="200.5,168.1 172.1,184.9 188.5,183.2 216.5,167.9 "
         id="polygon4930"
         style="fill:#df5a49;stroke:#424143;stroke-width:3;stroke-linejoin:round;stroke-miterlimit:10" />
    </g>
  </g>
</svg>
