<?xml version="1.0" encoding="UTF-8" standalone="no"?>
<!-- Generator: Adobe Illustrator 18.1.0, SVG Export Plug-In . SVG Version: 6.00 Build 0)  -->

<svg
   xmlns:dc="http://purl.org/dc/elements/1.1/"
   xmlns:cc="http://creativecommons.org/ns#"
   xmlns:rdf="http://www.w3.org/1999/02/22-rdf-syntax-ns#"
   xmlns:svg="http://www.w3.org/2000/svg"
   xmlns="http://www.w3.org/2000/svg"
   xmlns:sodipodi="http://sodipodi.sourceforge.net/DTD/sodipodi-0.dtd"
   xmlns:inkscape="http://www.inkscape.org/namespaces/inkscape"
   version="1.1"
   x="0px"
   y="0px"
   viewBox="0 0 426 386"
   enable-background="new 0 0 500 500"
   xml:space="preserve"
   id="svg2"
   inkscape:version="0.48.4 r9939"
   width="100%"
   height="100%"
   sodipodi:docname="kathedraal.svg"><metadata
     id="metadata610"><rdf:RDF><cc:Work
         rdf:about=""><dc:format>image/svg+xml</dc:format><dc:type
           rdf:resource="http://purl.org/dc/dcmitype/StillImage" /></cc:Work></rdf:RDF></metadata><defs
     id="defs608" /><sodipodi:namedview
     pagecolor="#ffffff"
     bordercolor="#666666"
     borderopacity="1"
     objecttolerance="10"
     gridtolerance="10"
     guidetolerance="10"
     inkscape:pageopacity="0"
     inkscape:pageshadow="2"
     inkscape:window-width="1871"
     inkscape:window-height="1056"
     id="namedview606"
     showgrid="false"
     inkscape:zoom="1.3350176"
     inkscape:cx="233.59388"
     inkscape:cy="196.05143"
     inkscape:window-x="49"
     inkscape:window-y="24"
     inkscape:window-maximized="1"
     inkscape:current-layer="svg2" /><g
     id="Layer_1"
     transform="translate(-35.4,-48.5)"><g
       id="g5"><path
         d="m 149.3,280.6 v 28.3 c 0,2 2.5,3.6 5.6,3.6 3.1,0 5.6,-1.6 5.6,-3.6 v -28.3 h -11.2 z"
         id="path7"
         inkscape:connector-curvature="0"
         style="fill:#ffffff" /><path
         d="m 154.9,314 c -4,0 -7.1,-2.2 -7.1,-5.1 v -28.3 c 0,-0.8 0.7,-1.5 1.5,-1.5 h 11.3 c 0.8,0 1.5,0.7 1.5,1.5 v 28.3 c -0.1,2.8 -3.2,5.1 -7.2,5.1 z m -4.1,-31.9 v 26.8 c 0,0.9 1.8,2.1 4.1,2.1 2.3,0 4.1,-1.1 4.1,-2.1 v -26.8 h -8.2 z"
         id="path9"
         inkscape:connector-curvature="0"
         style="fill:#414042" /></g><g
       id="g11"><path
         d="m 35.4,204.5 c 0,0 0.6,0.3 1.8,0.9 1.2,0.6 2.9,1.5 5,2.7 4.3,2.3 10.5,5.6 17.9,9.7 3.7,2 7.7,4.2 11.9,6.6 4.2,2.4 8.6,4.8 13.2,7.4 4.6,2.6 9.3,5.3 14.1,8 4.8,2.7 9.6,5.5 14.5,8.3 4.8,2.8 9.7,5.6 14.5,8.4 4.8,2.8 9.4,5.5 14,8.2 9,5.3 17.5,10.4 24.6,14.8 7.2,4.3 13.1,8.1 17.3,10.6 2.1,1.3 3.7,2.3 4.8,3 1.1,0.7 1.7,1.1 1.7,1.1 0,0 -0.6,-0.3 -1.8,-0.9 -1.2,-0.6 -2.9,-1.5 -5,-2.7 -4.3,-2.3 -10.5,-5.6 -17.9,-9.7 -7.4,-4 -15.9,-8.8 -25.1,-14 -4.6,-2.6 -9.3,-5.2 -14.1,-8 -4.8,-2.7 -9.6,-5.5 -14.5,-8.3 -4.8,-2.8 -9.7,-5.6 -14.5,-8.4 -4.8,-2.8 -9.4,-5.5 -14,-8.2 -4.5,-2.7 -8.9,-5.3 -13,-7.7 -4.1,-2.5 -8,-4.8 -11.6,-7 -7.2,-4.3 -13.1,-8.1 -17.3,-10.6 -2.1,-1.3 -3.7,-2.3 -4.8,-3 -1.1,-0.8 -1.7,-1.2 -1.7,-1.2 z"
         id="path13"
         inkscape:connector-curvature="0"
         style="fill:#4d4d4d" /></g><g
       id="g15"><path
         d="m 302.1,344.8 c 0,0 0.6,0.3 1.8,0.9 1.2,0.6 2.9,1.5 5,2.7 4.3,2.3 10.5,5.6 17.9,9.7 3.7,2 7.7,4.2 11.9,6.6 4.2,2.4 8.6,4.8 13.2,7.4 4.6,2.6 9.3,5.3 14.1,8 4.8,2.7 9.6,5.5 14.5,8.3 4.8,2.8 9.7,5.6 14.5,8.4 4.8,2.8 9.4,5.5 14,8.2 9,5.3 17.5,10.4 24.6,14.8 7.2,4.3 13.1,8.1 17.3,10.6 2.1,1.3 3.7,2.3 4.8,3 1.1,0.7 1.7,1.1 1.7,1.1 0,0 -0.6,-0.3 -1.8,-0.9 -1.2,-0.6 -2.9,-1.5 -5,-2.7 -4.3,-2.3 -10.5,-5.6 -17.9,-9.7 -7.4,-4 -15.9,-8.8 -25.1,-14 -4.6,-2.6 -9.3,-5.2 -14.1,-8 -4.8,-2.7 -9.6,-5.5 -14.5,-8.3 -4.8,-2.8 -9.7,-5.6 -14.5,-8.4 -4.8,-2.8 -9.4,-5.5 -14,-8.2 -4.5,-2.7 -8.9,-5.3 -13,-7.7 -4.1,-2.5 -8,-4.8 -11.6,-7 -7.2,-4.3 -13.1,-8.1 -17.3,-10.6 -2.1,-1.3 -3.7,-2.3 -4.8,-3 -1.1,-0.8 -1.7,-1.2 -1.7,-1.2 z"
         id="path17"
         inkscape:connector-curvature="0"
         style="fill:#4d4d4d" /></g><g
       id="g19"><path
         d="m 142.2,384.4 c 8.1,-4.8 16.1,-9.7 24.2,-14.5 l 24.3,-14.4 48.7,-28.6 c 8.1,-4.8 16.2,-9.5 24.4,-14.2 l 24.4,-14.2 48.8,-28.3 0,2.6 -48.8,-28.3 -24.4,-14.2 c -8.1,-4.7 -16.3,-9.5 -24.4,-14.2 L 190.7,187.5 166.5,173 c -8.1,-4.8 -16.2,-9.6 -24.2,-14.5 8.2,4.6 16.4,9.1 24.6,13.8 l 24.6,13.8 49.1,27.9 c 8.2,4.6 16.4,9.3 24.5,14 l 24.5,14.1 49,28.1 c 0.7,0.4 1,1.3 0.6,2 -0.1,0.2 -0.3,0.4 -0.6,0.6 l -49,28.1 -24.5,14.1 c -8.2,4.7 -16.3,9.3 -24.5,14 l -49.1,27.9 -24.6,13.8 c -8.2,4.5 -16.4,9.1 -24.7,13.7 z"
         id="path21"
         inkscape:connector-curvature="0"
         style="fill:#4d4d4d" /></g><g
       id="g23"><path
         d="m 201.2,385.1 24.3,-14.4 24.3,-14.4 48.7,-28.6 24.4,-14.3 24.4,-14.2 48.7,-28.2 0,2.5 c -9.4,-5.4 -18.8,-10.7 -28.2,-16.2 l -28.1,-16.2 -56.3,-32.5 -56.1,-32.7 -28,-16.5 c -9.3,-5.5 -18.7,-11 -28,-16.5 9.5,5.2 18.9,10.5 28.4,15.8 l 28.3,15.9 56.6,32 56.4,32.2 28.2,16.1 c 9.4,5.4 18.8,10.8 28.2,16.2 l 0,0 c 0.7,0.4 0.9,1.3 0.5,2 -0.1,0.2 -0.3,0.4 -0.5,0.5 l -48.9,28.1 -24.5,14.1 -24.5,14 -49.1,27.9 -24.6,13.8 -24.6,13.6 z"
         id="path25"
         inkscape:connector-curvature="0"
         style="fill:#4d4d4d" /></g><g
       id="g27"><polygon
         points="313.7,154.2 314.2,218.8 258.2,186.5 258.3,122.1 "
         id="polygon29"
         style="fill:#ffffff" /><path
         d="m 314.2,220.3 c -0.3,0 -0.5,-0.1 -0.8,-0.2 l -56,-32.3 c -0.5,-0.3 -0.8,-0.8 -0.8,-1.3 l 0.1,-64.4 c 0,-0.5 0.3,-1 0.8,-1.3 0.5,-0.3 1,-0.3 1.5,0 l 55.4,32.1 c 0.5,0.3 0.7,0.8 0.7,1.3 l 0.5,64.6 c 0,0.5 -0.3,1 -0.7,1.3 -0.2,0.2 -0.5,0.2 -0.7,0.2 z m -54.5,-34.7 53,30.6 -0.4,-61.2 -52.4,-30.4 -0.2,61 z"
         id="path31"
         inkscape:connector-curvature="0"
         style="fill:#4d4d4d" /></g><g
       id="g33"><polygon
         points="160.6,276.2 286.2,202.3 285.7,137.8 160.2,211.5 "
         id="polygon35"
         style="fill:#ffffff" /><path
         d="m 160.6,277.7 c -0.3,0 -0.5,-0.1 -0.7,-0.2 -0.5,-0.3 -0.8,-0.8 -0.8,-1.3 l -0.5,-64.6 c 0,-0.5 0.3,-1 0.7,-1.3 L 285,136.5 c 0.5,-0.3 1,-0.3 1.5,0 0.5,0.3 0.8,0.8 0.8,1.3 l 0.4,64.5 c 0,0.5 -0.3,1 -0.7,1.3 l -125.5,73.9 c -0.4,0.1 -0.6,0.2 -0.9,0.2 z m 1.1,-65.3 0.4,61.2 122.6,-72.2 -0.4,-61 -122.6,72 z"
         id="path37"
         inkscape:connector-curvature="0"
         style="fill:#4d4d4d" /></g><g
       id="g39"><polygon
         points="188.2,228.1 188.6,292.7 160.2,275.6 160.3,211.3 "
         id="polygon41"
         style="fill:#ffffff" /><path
         d="m 188.6,294.2 c -0.3,0 -0.5,-0.1 -0.8,-0.2 l -28.5,-17.2 c -0.5,-0.3 -0.7,-0.8 -0.7,-1.3 l 0.1,-64.3 c 0,-0.5 0.3,-1 0.8,-1.3 0.5,-0.3 1,-0.3 1.5,0 l 27.9,16.8 c 0.4,0.3 0.7,0.8 0.7,1.3 l 0.4,64.6 c 0,0.5 -0.3,1 -0.8,1.3 -0.1,0.3 -0.3,0.3 -0.6,0.3 z m -26.9,-19.5 25.4,15.3 -0.4,-61.1 -24.9,-15 -0.1,60.8 z"
         id="path43"
         inkscape:connector-curvature="0"
         style="fill:#4d4d4d" /></g><g
       id="g45"><polygon
         points="313.7,154.2 303.4,122.1 174.2,184.5 188.2,228.2 "
         id="polygon47"
         style="fill:#ffffff" /><path
         d="m 188.2,229.7 c -0.2,0 -0.4,0 -0.5,-0.1 -0.4,-0.2 -0.8,-0.5 -0.9,-0.9 L 172.9,185 c -0.2,-0.7 0.1,-1.5 0.8,-1.8 l 129.2,-62.4 c 0.4,-0.2 0.8,-0.2 1.2,0 0.4,0.2 0.7,0.5 0.8,0.9 l 10.3,32.1 c 0.2,0.7 -0.1,1.4 -0.7,1.8 l -125.5,74 c -0.3,0 -0.6,0.1 -0.8,0.1 z m -12.1,-44.4 13,40.6 122.9,-72.4 -9.4,-29.3 -126.5,61.1 z"
         id="path49"
         inkscape:connector-curvature="0"
         style="fill:#4d4d4d" /></g><g
       id="g51"><polygon
         points="188.6,292.7 314.2,218.8 313.7,154.2 188.2,228.1 "
         id="polygon53"
         style="fill:#ffffff" /><path
         d="m 188.6,294.2 c -0.3,0 -0.5,-0.1 -0.7,-0.2 -0.5,-0.3 -0.8,-0.8 -0.8,-1.3 l -0.4,-64.6 c 0,-0.5 0.3,-1 0.7,-1.3 L 313,152.9 c 0.5,-0.3 1,-0.3 1.5,0 0.5,0.3 0.8,0.8 0.8,1.3 l 0.5,64.6 c 0,0.5 -0.3,1 -0.7,1.3 L 189.4,294 c -0.2,0.2 -0.5,0.2 -0.8,0.2 z m 1.1,-65.2 0.4,61.2 L 312.7,218 312.3,156.8 189.7,229 z"
         id="path55"
         inkscape:connector-curvature="0"
         style="fill:#4d4d4d" /></g><g
       id="g57"><path
         stroke-miterlimit="10"
         d="M 272,211.3"
         id="path59"
         inkscape:connector-curvature="0"
         style="fill:none;stroke:#4d4d4d;stroke-width:3;stroke-linejoin:round;stroke-miterlimit:10" /></g><g
       id="g61"><polygon
         points="188.2,228.1 160.3,211.3 174.2,184.5 "
         id="polygon63"
         style="fill:#ffffff" /><path
         d="m 188.2,229.6 c -0.3,0 -0.5,-0.1 -0.8,-0.2 l -27.9,-16.8 c -0.7,-0.4 -0.9,-1.3 -0.6,-2 l 13.9,-26.8 c 0.3,-0.5 0.9,-0.8 1.5,-0.8 0.6,0.1 1.1,0.5 1.3,1 l 13.9,43.6 c 0.2,0.6 0,1.2 -0.5,1.6 -0.2,0.3 -0.5,0.4 -0.8,0.4 z m -25.9,-18.9 23.3,14 -11.6,-36.4 -11.7,22.4 z"
         id="path65"
         inkscape:connector-curvature="0"
         style="fill:#4d4d4d" /></g><g
       id="g67"><path
         d="m 177.2,272.8 c 0,-4.6 -3.7,-8.3 -8.3,-8.3 -0.7,0 -1.3,0.1 -1.9,0.2 -1.5,-3 -4.5,-5 -8,-5 -2.4,0 -4.6,0.9 -6.2,2.5 -1.5,-1.7 -3.7,-2.7 -6.2,-2.7 -4.6,0 -8.3,3.7 -8.3,8.3 0,2.1 0.8,4 2.1,5.5 -3.3,1.1 -5.7,4.2 -5.7,7.9 0,4.6 3.7,8.3 8.3,8.3 1.7,0 3.3,-0.5 4.7,-1.4 1.6,2.3 4.3,3.8 7.3,3.8 2.5,0 4.7,-1 6.4,-2.7 0.8,0.3 1.7,0.4 2.6,0.4 5,0 9,-4 9,-9 0,-0.1 0,-0.3 0,-0.4 2.4,-1.5 4.2,-4.2 4.2,-7.4 z"
         id="path69"
         inkscape:connector-curvature="0"
         style="fill:#b0ddd8" /><path
         d="m 154.9,293.3 c -2.9,0 -5.7,-1.2 -7.7,-3.3 -1.3,0.7 -2.8,1 -4.3,1 -5.4,0 -9.8,-4.4 -9.8,-9.8 0,-3.6 1.9,-6.8 4.9,-8.5 -0.8,-1.5 -1.3,-3.1 -1.3,-4.9 0,-5.4 4.4,-9.8 9.8,-9.8 2.3,0 4.5,0.8 6.2,2.2 1.8,-1.3 3.9,-2 6.1,-2 3.6,0 6.9,1.8 8.8,4.9 5.9,-0.7 11,4 11,9.8 0,3.3 -1.6,6.4 -4.4,8.2 -0.2,5.6 -4.8,10.1 -10.5,10.1 -0.7,0 -1.5,-0.1 -2.2,-0.2 -1.7,1.5 -4.1,2.3 -6.6,2.3 z m -7.3,-6.7 c 0.5,0 0.9,0.2 1.2,0.6 1.4,2 3.7,3.1 6.1,3.1 2,0 3.9,-0.8 5.3,-2.2 0.4,-0.4 1,-0.5 1.5,-0.4 0.7,0.2 1.4,0.3 2.2,0.3 4.1,0 7.5,-3.4 7.5,-7.5 0,-0.1 0,-0.1 0,-0.2 l 0,-0.2 c 0,-0.6 0.3,-1.1 0.8,-1.4 2.2,-1.2 3.6,-3.5 3.6,-6 0,-4.3 -3.9,-7.7 -8.4,-6.6 -0.7,0.2 -1.4,-0.2 -1.7,-0.8 -1.3,-2.6 -3.8,-4.2 -6.7,-4.2 -1.9,0 -3.7,0.7 -5.1,2.1 -0.3,0.3 -0.7,0.4 -1.1,0.4 -0.4,0 -0.8,-0.2 -1.1,-0.5 -1.3,-1.4 -3.1,-2.2 -5,-2.2 -3.8,0 -6.8,3.1 -6.8,6.8 0,1.6 0.6,3.2 1.7,4.5 0.3,0.4 0.4,0.9 0.3,1.4 -0.1,0.5 -0.5,0.9 -1,1 -2.8,0.9 -4.7,3.5 -4.7,6.5 0,3.8 3.1,6.8 6.8,6.8 1.4,0 2.7,-0.4 3.8,-1.2 0.2,-0.1 0.5,-0.1 0.8,-0.1 z"
         id="path71"
         inkscape:connector-curvature="0"
         style="fill:#414042" /></g><g
       id="g73"><path
         d="m 326.6,171 v 22.3 c 0,1.5 2,2.8 4.4,2.8 2.4,0 4.4,-1.3 4.4,-2.8 V 171 h -8.8 z"
         id="path75"
         inkscape:connector-curvature="0"
         style="fill:#ffffff" /><path
         d="m 331.1,197.6 c -3.3,0 -5.9,-1.9 -5.9,-4.3 V 171 c 0,-0.8 0.7,-1.5 1.5,-1.5 h 8.9 c 0.8,0 1.5,0.7 1.5,1.5 v 22.3 c -0.1,2.4 -2.7,4.3 -6,4.3 z m -3,-25.1 v 20.8 c 0,0.5 1.1,1.3 2.9,1.3 1.8,0 2.9,-0.8 2.9,-1.3 v -20.8 h -5.8 z"
         id="path77"
         inkscape:connector-curvature="0"
         style="fill:#414042" /></g><g
       id="g79"><path
         d="m 342.6,164.9 c 0,-3 -2.1,-5.5 -5,-6.1 0,-0.2 0,-0.4 0,-0.6 0,-3 -2.4,-5.4 -5.4,-5.4 -0.1,0 -0.1,0 -0.2,0 -0.7,-3.7 -3,-6.4 -5.8,-6.4 -3.3,0 -6,3.8 -6,8.6 0,2.8 0.9,5.3 2.4,6.8 -1.4,1 -2.4,2.7 -2.4,4.5 0,3.1 2.5,5.5 5.5,5.5 0.8,0 1.6,-0.2 2.2,-0.5 -0.2,0.6 -0.4,1.3 -0.4,1.9 0,3 2.5,5.5 5.5,5.5 3,0 5.5,-2.5 5.5,-5.5 0,-0.9 -0.2,-1.7 -0.6,-2.4 2.8,-0.6 4.7,-3 4.7,-5.9 z m -12.2,-1.6 c 0,0 -0.1,0 0,0 -0.1,0 -0.1,0 -0.1,0 0,-0.1 0,0 0.1,0 z m 0.6,4.7 c 0,0.1 0.1,0.1 0.1,0.2 -0.1,0 -0.2,0.1 -0.2,0.1 0,-0.1 0,-0.2 0.1,-0.3 z"
         id="path81"
         inkscape:connector-curvature="0"
         style="fill:#b0ddd8" /><path
         d="m 333.1,180.3 c -3.8,0 -7,-3.1 -7,-7 -0.1,0 -0.3,0 -0.4,0 -3.9,0 -7,-3.2 -7,-7 0,-1.8 0.7,-3.4 1.8,-4.7 -1.2,-1.8 -1.8,-4.2 -1.8,-6.6 0,-5.7 3.3,-10.1 7.5,-10.1 3.1,0 5.9,2.6 7,6.4 3.2,0.5 5.7,3.1 5.9,6.3 2.9,1.1 5,4 5,7.2 0,2.9 -1.7,5.6 -4.2,6.9 0.1,0.5 0.2,1 0.2,1.6 0,3.9 -3.2,7 -7,7 z M 328,169.9 c 0.4,0 0.7,0.1 1,0.4 0.4,0.4 0.6,1.1 0.4,1.6 -0.2,0.5 -0.3,0.9 -0.3,1.4 0,2.2 1.8,4 4,4 2.2,0 4,-1.8 4,-4 0,-0.6 -0.1,-1.2 -0.4,-1.8 -0.2,-0.4 -0.2,-0.9 0,-1.3 0.2,-0.4 0.5,-0.7 1,-0.8 2.1,-0.6 3.5,-2.4 3.5,-4.6 0,-2.2 -1.6,-4.2 -3.8,-4.6 -0.8,-0.2 -1.3,-0.9 -1.2,-1.6 0,-0.1 0,-0.3 0,-0.4 0,-2.2 -1.8,-3.9 -3.9,-3.9 0,0 -0.1,0 -0.2,0 -0.7,0 -1.4,-0.5 -1.5,-1.2 -0.6,-3 -2.4,-5.1 -4.3,-5.1 -2.5,0 -4.5,3.2 -4.5,7.1 0,2.3 0.7,4.5 2,5.8 0.3,0.3 0.4,0.7 0.4,1.2 0,0.4 -0.3,0.8 -0.6,1.1 -1.1,0.8 -1.7,2 -1.7,3.3 0,2.2 1.8,4 4,4 0.6,0 1.1,-0.1 1.6,-0.4 0,-0.1 0.2,-0.2 0.5,-0.2 z m 2.9,-0.1 c -0.4,0 -0.7,-0.1 -1,-0.4 -0.4,-0.4 -0.6,-1.1 -0.4,-1.6 0,-0.1 0.1,-0.2 0.1,-0.2 0.2,-0.6 0.7,-1 1.3,-1 0.6,-0.1 1.2,0.2 1.5,0.7 l 0.1,0.2 c 0.2,0.4 0.3,0.8 0.2,1.3 -0.1,0.5 -0.5,0.8 -0.9,0.9 l -0.2,0.1 c -0.3,0 -0.5,0 -0.7,0 z m -0.6,-5 c -0.5,0 -1,-0.2 -1.2,-0.6 -0.4,-0.5 -0.4,-1.3 0,-1.8 0.4,-0.5 1.1,-0.7 1.7,-0.5 0.7,0.3 1.2,1.1 1,1.8 -0.2,0.6 -0.6,1.1 -1.2,1.1 -0.1,0 -0.2,0 -0.3,0 z"
         id="path83"
         inkscape:connector-curvature="0"
         style="fill:#414042" /></g><g
       id="g85"><rect
         x="153.39999"
         y="291.79999"
         width="3"
         height="20.6"
         id="rect87"
         style="fill:#414042" /></g><g
       id="g89"><rect
         x="329.60001"
         y="178.60001"
         width="3"
         height="17.5"
         id="rect91"
         style="fill:#414042" /></g><g
       id="g93"><path
         d="m 305.7,185.7 c 0,0 0.6,0.3 1.8,0.9 1.2,0.6 2.9,1.5 5,2.7 4.3,2.3 10.5,5.6 17.9,9.7 3.7,2 7.7,4.2 11.9,6.6 4.2,2.4 8.6,4.8 13.2,7.4 4.6,2.6 9.3,5.3 14.1,8 4.8,2.7 9.6,5.5 14.5,8.3 4.8,2.8 9.7,5.6 14.5,8.4 4.8,2.8 9.4,5.5 14,8.2 9,5.3 17.5,10.4 24.6,14.8 7.2,4.3 13.1,8.1 17.3,10.6 2.1,1.3 3.7,2.3 4.8,3 1.1,0.7 1.7,1.1 1.7,1.1 0,0 -0.6,-0.3 -1.8,-0.9 -1.2,-0.6 -2.9,-1.5 -5,-2.7 -4.3,-2.3 -10.5,-5.6 -17.9,-9.7 -7.4,-4 -15.9,-8.8 -25.1,-14 -4.6,-2.6 -9.3,-5.2 -14.1,-8 -4.8,-2.7 -9.6,-5.5 -14.5,-8.3 -4.8,-2.8 -9.7,-5.6 -14.5,-8.4 -4.8,-2.8 -9.4,-5.5 -14,-8.2 -4.5,-2.7 -8.9,-5.3 -13,-7.7 -4.1,-2.5 -8,-4.8 -11.6,-7 -7.2,-4.3 -13.1,-8.1 -17.3,-10.6 -2.1,-1.3 -3.7,-2.3 -4.8,-3 -1.1,-0.8 -1.7,-1.2 -1.7,-1.2 z"
         id="path95"
         inkscape:connector-curvature="0"
         style="fill:#4d4d4d" /></g><g
       id="g97"><polygon
         points="337.8,239.6 309.9,190.8 281.9,207 309.9,255.7 "
         id="polygon99"
         style="fill:#ffffff" /><path
         d="m 309.9,257.2 c -0.1,0 -0.3,0 -0.4,-0.1 -0.4,-0.1 -0.7,-0.4 -0.9,-0.7 l -27.9,-48.8 c -0.4,-0.7 -0.2,-1.6 0.6,-2 l 27.9,-16.1 c 0.3,-0.2 0.8,-0.3 1.1,-0.1 0.4,0.1 0.7,0.4 0.9,0.7 l 27.9,48.8 c 0.4,0.7 0.2,1.6 -0.6,2 L 310.6,257 c -0.2,0.2 -0.5,0.2 -0.7,0.2 z m -25.9,-49.7 26.4,46.2 25.3,-14.6 -26.4,-46.2 -25.3,14.6 z"
         id="path101"
         inkscape:connector-curvature="0"
         style="fill:#4d4d4d" /></g><g
       id="g103"><polygon
         points="281.9,207 281.9,271.5 309.9,287.6 309.9,255.3 "
         id="polygon105"
         style="fill:#ffffff" /><path
         d="m 309.9,289.1 c -0.3,0 -0.5,-0.1 -0.8,-0.2 l -27.9,-16.1 c -0.5,-0.3 -0.8,-0.8 -0.8,-1.3 l 0,-64.5 c 0,-0.7 0.5,-1.3 1.1,-1.4 0.7,-0.2 1.3,0.1 1.7,0.7 l 27.9,48.4 c 0.1,0.2 0.2,0.5 0.2,0.8 l 0,32.3 c 0,0.5 -0.3,1 -0.8,1.3 -0.1,-0.1 -0.4,0 -0.6,0 z m -26.5,-18.5 24.9,14.4 0,-29.3 -24.9,-43.2 0,58.1 z"
         id="path107"
         inkscape:connector-curvature="0"
         style="fill:#4d4d4d" /></g><g
       id="g109"><polygon
         points="309.9,94.1 309.9,287.6 281.9,271.5 281.9,77.9 "
         id="polygon111"
         style="fill:#ffffff" /><path
         d="m 309.9,289.1 c -0.3,0 -0.5,-0.1 -0.8,-0.2 l -27.9,-16.1 c -0.5,-0.3 -0.8,-0.8 -0.8,-1.3 V 77.9 c 0,-0.5 0.3,-1 0.8,-1.3 0.5,-0.3 1,-0.3 1.5,0 l 27.9,16.1 c 0.5,0.3 0.8,0.8 0.8,1.3 v 193.5 c 0,0.5 -0.3,1 -0.8,1.3 -0.2,0.2 -0.5,0.3 -0.7,0.3 z M 283.4,270.6 308.3,285 V 94.9 L 283.4,80.5 v 190.1 z"
         id="path113"
         inkscape:connector-curvature="0"
         style="fill:#4d4d4d" /></g><g
       id="g115"><polygon
         points="254,94.1 281.9,77.9 309.9,94.1 281.9,110.2 "
         id="polygon117"
         style="fill:#ffffff" /><path
         d="m 281.9,111.7 c -0.3,0 -0.5,-0.1 -0.8,-0.2 L 253.2,95.4 c -0.5,-0.3 -0.8,-0.8 -0.8,-1.3 0,-0.5 0.3,-1 0.8,-1.3 l 27.9,-16.1 c 0.5,-0.3 1,-0.3 1.5,0 l 27.9,16.1 c 0.5,0.3 0.8,0.8 0.8,1.3 0,0.5 -0.3,1 -0.8,1.3 l -27.9,16.1 c -0.2,0.1 -0.4,0.2 -0.7,0.2 z M 257,94.1 281.9,108.5 306.8,94.1 281.9,79.7 257,94.1 z"
         id="path119"
         inkscape:connector-curvature="0"
         style="fill:#4d4d4d" /></g><g
       id="g121"><polygon
         points="254,287.6 281.9,271.5 309.9,287.6 281.9,303.7 "
         id="polygon123"
         style="fill:#ffffff" /><path
         d="m 281.9,305.2 c -0.3,0 -0.5,-0.1 -0.8,-0.2 l -27.9,-16.1 c -0.5,-0.3 -0.8,-0.8 -0.8,-1.3 0,-0.5 0.3,-1 0.8,-1.3 l 27.9,-16.1 c 0.5,-0.3 1,-0.3 1.5,0 l 27.9,16.1 c 0.5,0.3 0.8,0.8 0.8,1.3 0,0.5 -0.3,1 -0.8,1.3 L 282.7,305 c -0.3,0.2 -0.5,0.2 -0.8,0.2 z M 257,287.6 281.9,302 306.8,287.6 281.9,273.2 257,287.6 z"
         id="path125"
         inkscape:connector-curvature="0"
         style="fill:#4d4d4d" /></g><g
       id="g127"><polygon
         points="281.9,110.2 281.9,303.7 254,287.6 254,94.1 "
         id="polygon129"
         style="fill:#ffffff" /><path
         d="m 281.9,305.2 c -0.3,0 -0.5,-0.1 -0.8,-0.2 l -27.9,-16.1 c -0.5,-0.3 -0.8,-0.8 -0.8,-1.3 V 94.1 c 0,-0.5 0.3,-1 0.8,-1.3 0.5,-0.3 1,-0.3 1.5,0 l 27.9,16.1 c 0.5,0.3 0.8,0.8 0.8,1.3 v 193.5 c 0,0.5 -0.3,1 -0.8,1.3 -0.2,0.2 -0.4,0.2 -0.7,0.2 z m -26.4,-18.5 24.9,14.4 v -190 L 255.5,96.7 v 190 z"
         id="path131"
         inkscape:connector-curvature="0"
         style="fill:#4d4d4d" /></g><g
       id="g133"><polygon
         points="281.9,110.2 281.9,303.7 309.9,287.6 309.9,94.1 "
         id="polygon135"
         style="fill:#ffffff" /><path
         d="m 281.9,305.2 c -0.3,0 -0.5,-0.1 -0.8,-0.2 -0.5,-0.3 -0.8,-0.8 -0.8,-1.3 V 110.2 c 0,-0.5 0.3,-1 0.8,-1.3 L 309,92.8 c 0.5,-0.3 1,-0.3 1.5,0 0.5,0.3 0.8,0.8 0.8,1.3 v 193.5 c 0,0.5 -0.3,1 -0.8,1.3 L 282.7,305 c -0.3,0.2 -0.5,0.2 -0.8,0.2 z m 1.5,-194.1 v 190.1 l 24.9,-14.4 V 96.7 l -24.9,14.4 z"
         id="path137"
         inkscape:connector-curvature="0"
         style="fill:#4d4d4d" /></g><g
       id="g139"><polygon
         points="263,66.6 263,98.9 254.2,93.7 262.8,61.4 "
         id="polygon141"
         style="fill:#ffffff" /><path
         d="m 263,100.4 c -0.3,0 -0.5,-0.1 -0.8,-0.2 L 253.4,95 c -0.6,-0.3 -0.9,-1 -0.7,-1.7 L 261.3,61 c 0.2,-0.7 0.9,-1.2 1.6,-1.1 0.7,0.1 1.3,0.7 1.3,1.4 l 0.2,5.2 0,32.3 c 0,0.5 -0.3,1 -0.8,1.3 -0.1,0.2 -0.4,0.3 -0.6,0.3 z m -7.1,-7.4 5.5,3.3 v -24 L 255.9,93 z"
         id="path143"
         inkscape:connector-curvature="0"
         style="fill:#4d4d4d" /></g><g
       id="g145"><polygon
         points="263,66.6 263,98.9 271.7,93.7 262.8,61.4 "
         id="polygon147"
         style="fill:#ffffff" /><path
         d="m 263,100.4 c -0.3,0 -0.5,-0.1 -0.7,-0.2 -0.5,-0.3 -0.8,-0.8 -0.8,-1.3 V 66.6 l -0.2,-5.1 c 0,-0.8 0.5,-1.4 1.3,-1.5 0.8,-0.1 1.5,0.4 1.7,1.1 l 8.9,32.3 c 0.2,0.7 -0.1,1.3 -0.7,1.7 l -8.8,5.2 c -0.2,0 -0.5,0.1 -0.7,0.1 z m 1.5,-27.4 0,23.2 5.5,-3.2 -5.5,-20 z"
         id="path149"
         inkscape:connector-curvature="0"
         style="fill:#4d4d4d" /></g><g
       id="g151"><polygon
         points="301.1,66.6 301.1,98.9 292.3,93.7 300.9,61.4 "
         id="polygon153"
         style="fill:#ffffff" /><path
         d="m 301.1,100.4 c -0.3,0 -0.5,-0.1 -0.8,-0.2 L 291.5,95 c -0.6,-0.3 -0.9,-1 -0.7,-1.7 L 299.4,61 c 0.2,-0.7 0.9,-1.2 1.6,-1.1 0.7,0.1 1.3,0.7 1.3,1.4 l 0.2,5.2 0,32.3 c 0,0.5 -0.3,1 -0.8,1.3 -0.1,0.2 -0.4,0.3 -0.6,0.3 z m -7,-7.4 5.5,3.3 v -24 L 294.1,93 z"
         id="path155"
         inkscape:connector-curvature="0"
         style="fill:#4d4d4d" /></g><g
       id="g157"><polygon
         points="301.1,66.6 301.1,98.9 309.9,93.7 300.9,61.4 "
         id="polygon159"
         style="fill:#ffffff" /><path
         d="m 301.1,100.4 c -0.3,0 -0.5,-0.1 -0.7,-0.2 -0.5,-0.3 -0.8,-0.8 -0.8,-1.3 V 66.6 l -0.2,-5.1 c 0,-0.8 0.5,-1.4 1.3,-1.5 0.8,-0.1 1.5,0.4 1.7,1.1 l 8.9,32.3 c 0.2,0.7 -0.1,1.3 -0.7,1.7 l -8.8,5.2 c -0.2,0 -0.4,0.1 -0.7,0.1 z m 1.5,-27.4 0,23.2 5.5,-3.3 -5.5,-19.9 z"
         id="path161"
         inkscape:connector-curvature="0"
         style="fill:#4d4d4d" /></g><g
       id="g163"><polygon
         points="282,55.9 282,88.1 273.2,83 281.8,50.7 "
         id="polygon165"
         style="fill:#ffffff" /><path
         d="m 282,89.6 c -0.3,0 -0.5,-0.1 -0.8,-0.2 l -8.8,-5.2 c -0.6,-0.3 -0.9,-1 -0.7,-1.7 l 8.6,-32.3 c 0.2,-0.7 0.9,-1.2 1.6,-1.1 0.7,0.1 1.3,0.7 1.3,1.4 l 0.2,5.2 0,32.3 c 0,0.5 -0.3,1 -0.8,1.3 -0.1,0.3 -0.4,0.3 -0.6,0.3 z m -7.1,-7.4 5.5,3.3 v -24 l -5.5,20.7 z"
         id="path167"
         inkscape:connector-curvature="0"
         style="fill:#4d4d4d" /></g><g
       id="g169"><polygon
         points="282,55.9 282,88.1 290.7,83 281.8,50.7 "
         id="polygon171"
         style="fill:#ffffff" /><path
         d="m 282,89.6 c -0.3,0 -0.5,-0.1 -0.7,-0.2 -0.5,-0.3 -0.8,-0.8 -0.8,-1.3 V 55.9 l -0.2,-5.1 c 0,-0.8 0.5,-1.4 1.3,-1.5 0.8,-0.1 1.5,0.4 1.7,1.1 l 8.9,32.3 c 0.2,0.7 -0.1,1.3 -0.7,1.7 l -8.8,5.2 c -0.2,0 -0.5,0 -0.7,0 z m 1.5,-27.3 0,23.2 5.5,-3.3 -5.5,-19.9 z"
         id="path173"
         inkscape:connector-curvature="0"
         style="fill:#4d4d4d" /></g><g
       id="g175"><path
         d="m 281.8,194 c -0.3,0 -0.5,-0.1 -0.8,-0.2 l -27.8,-16 1.5,-2.6 27,15.6 27.3,-15.6 1.5,2.6 -28.1,16 c -0.1,0.1 -0.4,0.2 -0.6,0.2 z"
         id="path177"
         inkscape:connector-curvature="0"
         style="fill:#4d4d4d" /></g><g
       id="g179"><path
         d="m 281.8,147.9 c -0.3,0 -0.5,-0.1 -0.8,-0.2 l -27.8,-16 1.5,-2.6 27,15.6 27.3,-15.6 1.5,2.6 -28.1,16 c -0.1,0.2 -0.4,0.2 -0.6,0.2 z"
         id="path181"
         inkscape:connector-curvature="0"
         style="fill:#4d4d4d" /></g><g
       id="g183"><path
         d="m 281.8,116.4 c -0.3,0 -0.5,-0.1 -0.8,-0.2 l -27.8,-16 1.5,-2.6 27,15.6 27.3,-15.6 1.5,2.6 -28.1,16 c -0.1,0.1 -0.4,0.2 -0.6,0.2 z"
         id="path185"
         inkscape:connector-curvature="0"
         style="fill:#4d4d4d" /></g><g
       id="g187"><g
         id="g189"><path
           d="m 290.3,179 c -0.3,0 -0.5,-0.1 -0.8,-0.2 -0.5,-0.3 -0.7,-0.8 -0.7,-1.3 l 0,-18.2 c 0,-2.2 1.3,-4.7 3.1,-5.7 1.4,-0.8 3,-0.5 3.9,0.7 0.4,0.6 0.7,1.4 0.7,2.3 l 0,18.2 c 0,0.5 -0.3,1 -0.8,1.3 l -4.6,2.7 c -0.3,0.1 -0.6,0.2 -0.8,0.2 z m 3.1,-22.9 c 0,0 0,0 0,0 -0.7,0.4 -1.6,1.8 -1.6,3.1 l 0,15.6 1.6,-0.9 0,-17.4 c 0,-0.1 0,-0.3 0,-0.4 z"
           id="path191"
           inkscape:connector-curvature="0"
           style="fill:#4d4d4d" /></g><g
         id="g193"><path
           d="m 298.8,174.1 c -0.3,0 -0.5,-0.1 -0.8,-0.2 -0.5,-0.3 -0.7,-0.8 -0.7,-1.3 l 0,-18.2 c 0,-2.2 1.3,-4.7 3.1,-5.7 1.4,-0.8 3,-0.5 3.9,0.7 0.4,0.6 0.7,1.4 0.7,2.4 l 0,18.2 c 0,0.5 -0.3,1 -0.8,1.3 l -4.6,2.7 c -0.3,0 -0.6,0.1 -0.8,0.1 z m 3.1,-22.9 c 0,0 0,0 0,0 -0.7,0.4 -1.6,1.8 -1.6,3.1 l 0,15.6 1.6,-0.9 0,-17.4 c 0,-0.1 0,-0.3 0,-0.4 z"
           id="path195"
           inkscape:connector-curvature="0"
           style="fill:#4d4d4d" /></g></g><g
       id="g197"><g
         id="g199"><path
           d="m 273.8,179 c -0.3,0 -0.5,-0.1 -0.7,-0.2 l -4.6,-2.7 c -0.5,-0.3 -0.8,-0.8 -0.8,-1.3 l 0,-18.2 c 0,-0.9 0.2,-1.7 0.7,-2.4 0.9,-1.2 2.5,-1.5 3.9,-0.7 1.7,1 3.1,3.5 3.1,5.7 l 0,18.2 c 0,0.5 -0.3,1 -0.7,1.3 -0.4,0.2 -0.7,0.3 -0.9,0.3 z m -3.1,-5.1 1.6,0.9 0,-15.6 c 0,-1.3 -0.8,-2.7 -1.6,-3.1 0,0 0,0 0,0 0,0.1 0,0.2 0,0.4 l 0,17.4 z"
           id="path201"
           inkscape:connector-curvature="0"
           style="fill:#4d4d4d" /></g><g
         id="g203"><path
           d="m 265.3,174.1 c -0.3,0 -0.5,-0.1 -0.7,-0.2 l -4.6,-2.7 c -0.5,-0.3 -0.8,-0.8 -0.8,-1.3 l 0,-18.2 c 0,-0.9 0.2,-1.7 0.7,-2.4 0.9,-1.2 2.5,-1.5 3.9,-0.7 1.7,1 3.1,3.5 3.1,5.7 l 0,18.2 c 0,0.5 -0.3,1 -0.7,1.3 -0.4,0.2 -0.7,0.3 -0.9,0.3 z m -3.1,-5.1 1.6,0.9 0,-15.6 c 0,-1.3 -0.8,-2.7 -1.6,-3.1 0,0 0,0 0,0 0,0.1 0,0.2 0,0.4 l 0,17.4 z"
           id="path205"
           inkscape:connector-curvature="0"
           style="fill:#4d4d4d" /></g></g><g
       id="g207"><g
         id="g209"><path
           d="m 290.3,223.6 c -0.3,0 -0.5,-0.1 -0.8,-0.2 -0.5,-0.3 -0.7,-0.8 -0.7,-1.3 l 0,-18.2 c 0,-2.2 1.3,-4.7 3.1,-5.7 1.4,-0.8 3,-0.5 3.9,0.7 0.4,0.6 0.7,1.4 0.7,2.3 l 0,18.2 c 0,0.5 -0.3,1 -0.8,1.3 l -4.6,2.7 c -0.3,0.1 -0.6,0.2 -0.8,0.2 z m 3.1,-22.8 c 0,0 0,0 0,0 -0.7,0.4 -1.6,1.8 -1.6,3.1 l 0,15.6 1.6,-0.9 0,-17.4 c 0,-0.2 0,-0.3 0,-0.4 z"
           id="path211"
           inkscape:connector-curvature="0"
           style="fill:#4d4d4d" /></g><g
         id="g213"><path
           d="m 298.8,218.7 c -0.3,0 -0.5,-0.1 -0.8,-0.2 -0.5,-0.3 -0.7,-0.8 -0.7,-1.3 l 0,-18.2 c 0,-2.2 1.3,-4.7 3.1,-5.7 1.4,-0.8 3,-0.5 3.9,0.7 0.4,0.6 0.7,1.4 0.7,2.3 l 0,18.2 c 0,0.5 -0.3,1 -0.8,1.3 l -4.6,2.7 c -0.3,0.1 -0.6,0.2 -0.8,0.2 z m 3.1,-22.8 c 0,0 0,0 0,0 -0.7,0.4 -1.6,1.8 -1.6,3.1 l 0,15.6 1.6,-0.9 0,-17.4 c 0,-0.2 0,-0.3 0,-0.4 z"
           id="path215"
           inkscape:connector-curvature="0"
           style="fill:#4d4d4d" /></g></g><g
       id="g217"><g
         id="g219"><path
           d="m 200.5,249.9 c -0.3,0 -0.5,-0.1 -0.8,-0.2 -0.5,-0.3 -0.7,-0.8 -0.7,-1.3 l 0,-18.2 c 0,-2.2 1.3,-4.7 3.1,-5.7 1.4,-0.8 3,-0.5 3.9,0.7 0.4,0.6 0.7,1.4 0.7,2.3 l 0,18.2 c 0,0.5 -0.3,1 -0.8,1.3 l -4.6,2.7 c -0.3,0.1 -0.6,0.2 -0.8,0.2 z m 3,-22.8 c 0,0 0,0 0,0 -0.7,0.4 -1.6,1.8 -1.6,3.1 l 0,15.6 1.6,-0.9 0,-17.4 c 0.1,-0.2 0.1,-0.3 0,-0.4 z"
           id="path221"
           inkscape:connector-curvature="0"
           style="fill:#4d4d4d" /></g><g
         id="g223"><path
           d="m 217.9,240.1 c -0.3,0 -0.5,-0.1 -0.8,-0.2 -0.5,-0.3 -0.7,-0.8 -0.7,-1.3 l 0,-18.2 c 0,-2.2 1.3,-4.7 3.1,-5.7 1.4,-0.8 3,-0.5 3.9,0.7 0.4,0.6 0.7,1.4 0.7,2.4 l 0,18.2 c 0,0.5 -0.3,1 -0.8,1.3 l -4.6,2.7 c -0.3,0 -0.5,0.1 -0.8,0.1 z m 3.1,-22.8 c 0,0 0,0 0,0 -0.7,0.4 -1.6,1.8 -1.6,3.1 l 0,15.6 1.6,-0.9 0,-17.4 c 0.1,-0.2 0,-0.4 0,-0.4 z"
           id="path225"
           inkscape:connector-curvature="0"
           style="fill:#4d4d4d" /></g><g
         id="g227"><path
           d="m 235.4,228.6 c -0.3,0 -0.5,-0.1 -0.8,-0.2 -0.5,-0.3 -0.7,-0.8 -0.7,-1.3 l 0,-18.2 c 0,-2.2 1.3,-4.7 3.1,-5.7 1.4,-0.8 3,-0.5 3.9,0.7 0.4,0.6 0.7,1.4 0.7,2.4 l 0,18.2 c 0,0.5 -0.3,1 -0.8,1.3 l -4.6,2.7 c -0.3,0.1 -0.5,0.1 -0.8,0.1 z m 3.1,-22.8 c 0,0 0,0 0,0 -0.7,0.4 -1.6,1.8 -1.6,3.1 l 0,15.6 1.6,-0.9 0,-17.4 c 0,-0.2 0,-0.3 0,-0.4 z"
           id="path229"
           inkscape:connector-curvature="0"
           style="fill:#4d4d4d" /></g></g><g
       id="g231"><g
         id="g233"><path
           d="m 273.8,223.6 c -0.3,0 -0.5,-0.1 -0.7,-0.2 l -4.6,-2.7 c -0.5,-0.3 -0.8,-0.8 -0.8,-1.3 l 0,-18.2 c 0,-0.9 0.2,-1.7 0.7,-2.4 0.9,-1.2 2.5,-1.5 3.9,-0.7 1.7,1 3.1,3.5 3.1,5.7 l 0,18.2 c 0,0.5 -0.3,1 -0.7,1.3 -0.4,0.2 -0.7,0.3 -0.9,0.3 z m -3.1,-5 1.6,0.9 0,-15.6 c 0,-1.3 -0.8,-2.7 -1.6,-3.1 0,0 0,0 0,0 0,0.1 0,0.2 0,0.4 l 0,17.4 z"
           id="path235"
           inkscape:connector-curvature="0"
           style="fill:#4d4d4d" /></g><g
         id="g237"><path
           d="m 265.3,218.7 c -0.3,0 -0.5,-0.1 -0.7,-0.2 l -4.6,-2.7 c -0.5,-0.3 -0.8,-0.8 -0.8,-1.3 l 0,-18.2 c 0,-0.9 0.2,-1.7 0.7,-2.3 0.9,-1.2 2.5,-1.5 3.9,-0.7 1.7,1 3.1,3.5 3.1,5.7 l 0,18.2 c 0,0.5 -0.3,1 -0.7,1.3 -0.4,0.1 -0.7,0.2 -0.9,0.2 z m -3.1,-5 1.6,0.9 0,-15.6 c 0,-1.3 -0.8,-2.7 -1.6,-3.1 0,0 0,0 0,0 0,0.1 0,0.2 0,0.4 l 0,17.4 z"
           id="path239"
           inkscape:connector-curvature="0"
           style="fill:#4d4d4d" /></g></g><g
       id="g241"><path
         d="m 293.6,135.9 c -0.3,0 -0.5,-0.1 -0.8,-0.2 -0.5,-0.3 -0.7,-0.8 -0.7,-1.3 l 0,-18.2 c 0,-2.2 1.3,-4.7 3.1,-5.7 1.4,-0.8 3,-0.5 3.9,0.7 0.4,0.6 0.7,1.4 0.7,2.4 l 0,18.2 c 0,0.5 -0.3,1 -0.8,1.3 l -4.6,2.7 c -0.3,0 -0.6,0.1 -0.8,0.1 z m 3.1,-22.9 c 0,0 0,0 0,0 -0.7,0.4 -1.6,1.8 -1.6,3.1 l 0,15.6 1.6,-0.9 0,-17.4 c 0,-0.1 0,-0.3 0,-0.4 z"
         id="path243"
         inkscape:connector-curvature="0"
         style="fill:#4d4d4d" /></g><g
       id="g245"><path
         d="m 270.5,135.9 c -0.3,0 -0.5,-0.1 -0.7,-0.2 l -4.6,-2.7 c -0.5,-0.3 -0.8,-0.8 -0.8,-1.3 l 0,-18.2 c 0,-0.9 0.2,-1.7 0.7,-2.4 0.9,-1.2 2.5,-1.5 3.9,-0.7 1.7,1 3.1,3.5 3.1,5.7 l 0,18.2 c 0,0.5 -0.3,1 -0.7,1.3 -0.4,0.2 -0.7,0.3 -0.9,0.3 z m -3.1,-5 1.6,0.9 0,-15.6 c 0,-1.3 -0.8,-2.7 -1.6,-3.1 0,0 0,0 0,0 0,0.1 0,0.2 0,0.4 l 0,17.4 z"
         id="path247"
         inkscape:connector-curvature="0"
         style="fill:#4d4d4d" /></g><g
       id="g249"><path
         d="m 304.7,246.3 v 8.6 L 287.1,265 v -8.6 c 0,-6.5 6.5,-15.7 8.8,-16.8 1.2,-0.5 8.8,0.2 8.8,6.7 z"
         id="path251"
         inkscape:connector-curvature="0"
         style="fill:#ffffff" /><path
         d="m 287.1,266.5 c -0.3,0 -0.5,-0.1 -0.8,-0.2 -0.5,-0.3 -0.8,-0.8 -0.8,-1.3 v -8.6 c 0,-6.8 6.6,-16.8 9.7,-18.2 0.4,-0.2 1,-0.3 1.7,-0.3 3.7,0 9.2,2.2 9.2,8.3 v 8.6 c 0,0.5 -0.3,1 -0.8,1.3 l -17.6,10.1 c -0.1,0.2 -0.3,0.3 -0.6,0.3 z M 297,241 c -0.3,0 -0.5,0 -0.6,0 -1.7,0.8 -7.9,9.5 -7.9,15.4 v 6 l 14.6,-8.4 v -7.7 c 0.1,-5.3 -6,-5.3 -6.1,-5.3 z"
         id="path253"
         inkscape:connector-curvature="0"
         style="fill:#4d4d4d" /></g><g
       id="g255"><path
         d="m 305.7,281.4 v 8.6 l -17.6,10.1 v -8.6 c 0,-6.5 6.5,-15.7 8.8,-16.8 1.3,-0.6 8.8,0.2 8.8,6.7 z"
         id="path257"
         inkscape:connector-curvature="0"
         style="fill:#ffffff" /><path
         d="m 288.2,301.6 c -0.3,0 -0.5,-0.1 -0.8,-0.2 -0.5,-0.3 -0.8,-0.8 -0.8,-1.3 v -8.6 c 0,-6.8 6.6,-16.8 9.7,-18.2 0.4,-0.2 1,-0.3 1.7,-0.3 3.7,0 9.2,2.2 9.2,8.3 v 8.6 c 0,0.5 -0.3,1 -0.8,1.3 l -17.6,10.1 c -0.1,0.2 -0.4,0.3 -0.6,0.3 z m 9.9,-25.5 c -0.3,0 -0.5,0 -0.6,0 -1.7,0.8 -7.9,9.5 -7.9,15.4 v 6 l 14.6,-8.4 v -7.7 c 0,-5.3 -6.1,-5.3 -6.1,-5.3 z"
         id="path259"
         inkscape:connector-curvature="0"
         style="fill:#4d4d4d" /></g><g
       id="g261"><path
         d="m 281.8,240.1 c -0.3,0 -0.5,-0.1 -0.8,-0.2 l -27.8,-16 c -0.5,-0.3 -0.8,-0.8 -0.8,-1.3 0,-0.3 0.1,-0.5 0.2,-0.7 0.4,-0.7 1.3,-1 2,-0.5 l 27,15.6 27.3,-15.6 1.5,2.6 -28.1,16 c 0,0 -0.3,0.1 -0.5,0.1 z"
         id="path263"
         inkscape:connector-curvature="0"
         style="fill:#4d4d4d" /></g><g
       id="g265"><path
         d="m 281.8,274.9 c -0.3,0 -0.5,-0.1 -0.8,-0.2 l -27.8,-16 c -0.5,-0.3 -0.8,-0.8 -0.8,-1.3 0,-0.3 0.1,-0.5 0.2,-0.7 0.4,-0.7 1.3,-1 2,-0.5 l 27,15.6 27.3,-15.6 1.5,2.6 -28.1,16 c 0,0.1 -0.3,0.1 -0.5,0.1 z"
         id="path267"
         inkscape:connector-curvature="0"
         style="fill:#4d4d4d" /></g><g
       id="g269"><polygon
         points="281.9,271.9 254,223.1 226.1,239.2 254,288 "
         id="polygon271"
         style="fill:#ffffff" /><path
         d="m 254,289.5 c -0.1,0 -0.3,0 -0.4,-0.1 -0.4,-0.1 -0.7,-0.4 -0.9,-0.7 L 224.8,240 c -0.4,-0.7 -0.2,-1.6 0.6,-2 l 27.9,-16.1 c 0.3,-0.2 0.8,-0.3 1.1,-0.1 0.4,0.1 0.7,0.4 0.9,0.7 l 27.9,48.8 c 0.4,0.7 0.2,1.6 -0.6,2 l -27.9,16.1 c -0.2,0 -0.4,0.1 -0.7,0.1 z m -25.9,-49.7 26.4,46.2 25.3,-14.6 -26.5,-46.2 -25.2,14.6 z"
         id="path273"
         inkscape:connector-curvature="0"
         style="fill:#4d4d4d" /></g><g
       id="g275"><polygon
         points="281.9,271.9 281.9,303.7 254,319.9 254,288 "
         id="polygon277"
         style="fill:#ffffff" /><path
         d="m 254,321.4 c -0.3,0 -0.5,-0.1 -0.8,-0.2 -0.5,-0.3 -0.8,-0.8 -0.8,-1.3 l 0,-31.8 c 0,-0.5 0.3,-1 0.8,-1.3 l 27.9,-16.1 c 0.5,-0.3 1,-0.3 1.5,0 0.5,0.3 0.7,0.8 0.7,1.3 l 0,31.8 c 0,0.5 -0.3,1 -0.8,1.3 l -27.9,16.1 c -0.1,0.1 -0.3,0.2 -0.6,0.2 z m 1.5,-32.5 0,28.4 24.9,-14.4 0,-28.4 -24.9,14.4 z"
         id="path279"
         inkscape:connector-curvature="0"
         style="fill:#4d4d4d" /></g><g
       id="g281"><polygon
         points="281.9,77.9 281.9,110.2 273.2,105 281.8,72.7 "
         id="polygon283"
         style="fill:#ffffff" /><path
         d="m 281.9,111.7 c -0.3,0 -0.5,-0.1 -0.8,-0.2 l -8.8,-5.2 c -0.6,-0.3 -0.9,-1 -0.7,-1.7 l 8.6,-32.3 c 0.2,-0.7 0.9,-1.2 1.6,-1.1 0.7,0.1 1.3,0.7 1.3,1.4 l 0.2,5.2 0,32.3 c 0,0.5 -0.3,1 -0.8,1.3 -0.1,0.2 -0.3,0.3 -0.6,0.3 z m -7,-7.4 5.5,3.3 v -24 l -5.5,20.7 z"
         id="path285"
         inkscape:connector-curvature="0"
         style="fill:#4d4d4d" /></g><g
       id="g287"><polygon
         points="281.9,77.9 281.9,110.2 290.7,105 281.8,72.7 "
         id="polygon289"
         style="fill:#ffffff" /><path
         d="m 281.9,111.7 c -0.3,0 -0.5,-0.1 -0.7,-0.2 -0.5,-0.3 -0.8,-0.8 -0.8,-1.3 V 77.9 l -0.2,-5.1 c 0,-0.8 0.5,-1.4 1.3,-1.5 0.7,-0.1 1.5,0.4 1.7,1.1 l 8.9,32.3 c 0.2,0.7 -0.1,1.3 -0.7,1.7 l -8.8,5.2 c -0.1,0 -0.4,0.1 -0.7,0.1 z m 1.5,-27.4 0,23.2 5.5,-3.3 -5.5,-19.9 z"
         id="path291"
         inkscape:connector-curvature="0"
         style="fill:#4d4d4d" /></g><g
       id="g293"><polygon
         points="337.8,239.7 337.8,271.5 309.9,287.6 309.9,255.8 "
         id="polygon295"
         style="fill:#ffffff" /><path
         d="m 309.9,289.1 c -0.3,0 -0.5,-0.1 -0.8,-0.2 -0.5,-0.3 -0.8,-0.8 -0.8,-1.3 l 0,-31.8 c 0,-0.5 0.3,-1 0.8,-1.3 L 337,238.4 c 0.5,-0.3 1,-0.3 1.5,0 0.5,0.3 0.8,0.8 0.8,1.3 l 0,31.8 c 0,0.5 -0.3,1 -0.7,1.3 l -27.9,16.1 c -0.3,0.1 -0.6,0.2 -0.8,0.2 z m 1.5,-32.5 0,28.4 24.9,-14.4 0,-28.4 -24.9,14.4 z"
         id="path297"
         inkscape:connector-curvature="0"
         style="fill:#4d4d4d" /></g><g
       id="g299"><polygon
         points="254,287.6 226.1,239.2 198.8,255.7 198.1,287.6 226.1,303.7 226.1,303.7 254,319.9 "
         id="polygon301"
         style="fill:#ffffff" /><path
         d="m 254,321.4 c -0.3,0 -0.5,-0.1 -0.8,-0.2 L 225.3,305 c 0,0 -0.1,0 -0.1,-0.1 l -27.8,-16.1 c -0.5,-0.3 -0.8,-0.8 -0.8,-1.3 l 0.7,-31.9 c 0,-0.5 0.3,-1 0.7,-1.3 l 27.3,-16.5 c 0.3,-0.2 0.8,-0.3 1.1,-0.2 0.4,0.1 0.7,0.4 0.9,0.7 l 27.9,48.4 c 0.1,0.2 0.2,0.5 0.2,0.8 l 0,32.3 c 0,0.5 -0.3,1 -0.8,1.3 -0.1,0.2 -0.3,0.3 -0.6,0.3 z m -27.1,-18.9 25.6,14.8 0,-29.3 -27,-46.7 -25.3,15.3 -0.6,30.2 27.2,15.7 c 0,0 0.1,0 0.1,0 z"
         id="path303"
         inkscape:connector-curvature="0"
         style="fill:#4d4d4d" /></g><g
       id="g305"><path
         d="m 265.5,309.8 c -0.3,0 -0.5,-0.1 -0.8,-0.2 -0.5,-0.3 -0.7,-0.8 -0.7,-1.3 l 0,-18.2 c 0,-2.2 1.3,-4.7 3.1,-5.7 1.4,-0.8 3,-0.5 3.9,0.7 0.4,0.6 0.7,1.4 0.7,2.3 l 0,18.2 c 0,0.5 -0.3,1 -0.8,1.3 l -4.6,2.7 c -0.2,0.2 -0.5,0.2 -0.8,0.2 z m 3.1,-22.8 c 0,0 0,0 0,0 -0.7,0.4 -1.6,1.8 -1.6,3.1 l 0,15.6 1.6,-0.9 0,-17.4 c 0.1,-0.1 0,-0.3 0,-0.4 z"
         id="path307"
         inkscape:connector-curvature="0"
         style="fill:#4d4d4d" /></g><g
       id="g309"><path
         d="m 321.5,278 c -0.3,0 -0.5,-0.1 -0.8,-0.2 -0.5,-0.3 -0.7,-0.8 -0.7,-1.3 l 0,-18.2 c 0,-2.2 1.3,-4.7 3.1,-5.7 1.4,-0.8 3,-0.5 3.9,0.7 0.4,0.6 0.7,1.4 0.7,2.3 l 0,18.2 c 0,0.5 -0.3,1 -0.8,1.3 l -4.6,2.7 c -0.3,0.1 -0.5,0.2 -0.8,0.2 z m 3.1,-22.9 c 0,0 0,0 0,0 -0.7,0.4 -1.6,1.8 -1.6,3.1 l 0,15.6 1.6,-0.9 0,-17.4 c 0,-0.1 0,-0.3 0,-0.4 z"
         id="path311"
         inkscape:connector-curvature="0"
         style="fill:#4d4d4d" /></g><g
       id="g313"><polygon
         points="169.9,335.2 197.8,319.1 225.7,335.2 197.8,351.4 "
         id="polygon315"
         style="fill:#ffffff" /><path
         d="m 197.8,352.9 c -0.3,0 -0.5,-0.1 -0.8,-0.2 l -27.9,-16.1 c -0.5,-0.3 -0.8,-0.8 -0.8,-1.3 0,-0.5 0.3,-1 0.8,-1.3 L 197,317.9 c 0.5,-0.3 1,-0.3 1.5,0 l 27.9,16.1 c 0.5,0.3 0.8,0.8 0.8,1.3 0,0.5 -0.3,1 -0.8,1.3 l -27.9,16.1 c -0.2,0.1 -0.4,0.2 -0.7,0.2 z m -24.9,-17.7 24.9,14.4 24.9,-14.4 -24.9,-14.4 -24.9,14.4 z"
         id="path317"
         inkscape:connector-curvature="0"
         style="fill:#4d4d4d" /></g><g
       id="g319"><polygon
         points="169.9,303 197.8,286.8 225.7,303 197.8,319.1 "
         id="polygon321"
         style="fill:#ffffff" /><path
         d="m 197.8,320.6 c -0.3,0 -0.5,-0.1 -0.8,-0.2 l -27.9,-16.1 c -0.5,-0.3 -0.8,-0.8 -0.8,-1.3 0,-0.5 0.3,-1 0.8,-1.3 L 197,285.6 c 0.5,-0.3 1,-0.3 1.5,0 l 27.9,16.1 c 0.5,0.3 0.8,0.8 0.8,1.3 0,0.5 -0.3,1 -0.8,1.3 l -27.9,16.1 c -0.2,0.1 -0.4,0.2 -0.7,0.2 z M 172.9,303 197.8,317.4 222.7,303 197.8,288.6 172.9,303 z"
         id="path323"
         inkscape:connector-curvature="0"
         style="fill:#4d4d4d" /></g><g
       id="g325"><polygon
         points="197.8,289.8 197.8,322.1 169.9,338.2 169.9,306 "
         id="polygon327"
         style="fill:#ffffff" /><path
         d="m 169.9,339.7 c -0.3,0 -0.5,-0.1 -0.8,-0.2 -0.5,-0.3 -0.8,-0.8 -0.8,-1.3 V 306 c 0,-0.5 0.3,-1 0.8,-1.3 L 197,288.6 c 0.5,-0.3 1,-0.3 1.5,0 0.5,0.3 0.8,0.8 0.8,1.3 l 0,32.3 c 0,0.5 -0.3,1 -0.8,1.3 l -27.9,16.1 c -0.2,0.1 -0.5,0.1 -0.7,0.1 z m 1.5,-32.9 v 28.8 l 24.9,-14.4 0,-28.8 -24.9,14.4 z"
         id="path329"
         inkscape:connector-curvature="0"
         style="fill:#4d4d4d" /></g><g
       id="g331"><polygon
         points="197.8,286.8 197.8,319.1 225.7,335.2 225.7,303 "
         id="polygon333"
         style="fill:#ffffff" /><path
         d="m 225.7,336.7 c -0.3,0 -0.5,-0.1 -0.8,-0.2 L 197,320.4 c -0.5,-0.3 -0.8,-0.8 -0.8,-1.3 l 0,-32.3 c 0,-0.5 0.3,-1 0.8,-1.3 0.5,-0.3 1,-0.3 1.5,0 l 27.9,16.1 c 0.5,0.3 0.8,0.8 0.8,1.3 v 32.3 c 0,0.5 -0.3,1 -0.8,1.3 -0.1,0.2 -0.4,0.2 -0.7,0.2 z m -26.4,-18.5 24.9,14.4 v -28.8 l -24.9,-14.4 0,28.8 z"
         id="path335"
         inkscape:connector-curvature="0"
         style="fill:#4d4d4d" /></g><g
       id="g337"><polygon
         points="169.9,303 197.8,319.1 225.7,303 197.8,286.8 "
         id="polygon339"
         style="fill:#ffffff" /><path
         d="m 197.8,320.6 c -0.3,0 -0.5,-0.1 -0.8,-0.2 l -27.9,-16.1 c -0.5,-0.3 -0.8,-0.8 -0.8,-1.3 0,-0.5 0.3,-1 0.8,-1.3 L 197,285.6 c 0.5,-0.3 1,-0.3 1.5,0 l 27.9,16.1 c 0.5,0.3 0.8,0.8 0.8,1.3 0,0.5 -0.3,1 -0.8,1.3 l -27.9,16.1 c -0.2,0.1 -0.4,0.2 -0.7,0.2 z M 172.9,303 197.8,317.4 222.7,303 197.8,288.6 172.9,303 z"
         id="path341"
         inkscape:connector-curvature="0"
         style="fill:#4d4d4d" /></g><g
       id="g343"><polygon
         points="225.7,303 225.7,335.2 197.8,351.4 197.8,319.1 "
         id="polygon345"
         style="fill:#ffffff" /><path
         d="m 197.8,352.9 c -0.3,0 -0.5,-0.1 -0.8,-0.2 -0.5,-0.3 -0.8,-0.8 -0.8,-1.3 v -32.3 c 0,-0.5 0.3,-1 0.8,-1.3 l 27.9,-16.1 c 0.5,-0.3 1,-0.3 1.5,0 0.5,0.3 0.8,0.8 0.8,1.3 v 32.3 c 0,0.5 -0.3,1 -0.8,1.3 l -27.9,16.1 c -0.2,0.1 -0.4,0.2 -0.7,0.2 z m 1.5,-32.9 v 28.8 l 24.9,-14.4 V 305.6 L 199.3,320 z"
         id="path347"
         inkscape:connector-curvature="0"
         style="fill:#4d4d4d" /></g><g
       id="g349"><polygon
         points="197.8,322.1 169.9,306 186.3,304.2 "
         id="polygon351"
         style="fill:#ffffff" /><path
         d="m 197.8,323.6 c -0.3,0 -0.5,-0.1 -0.7,-0.2 l -27.9,-16.1 c -0.6,-0.3 -0.9,-1 -0.7,-1.6 0.1,-0.6 0.7,-1.1 1.3,-1.2 l 16.4,-1.7 c 0.6,-0.1 1.1,0.2 1.4,0.7 l 11.5,17.9 c 0.4,0.6 0.3,1.3 -0.2,1.8 -0.3,0.2 -0.7,0.4 -1.1,0.4 z m -23.2,-16.6 18.5,10.7 -7.7,-11.9 -10.8,1.2 z"
         id="path353"
         inkscape:connector-curvature="0"
         style="fill:#4d4d4d" /></g><g
       id="g355"><polygon
         points="224.7,302 196.8,285.8 212.8,284.7 "
         id="polygon357"
         style="fill:#ffffff" /><path
         d="m 224.7,303.5 c -0.3,0 -0.5,-0.1 -0.7,-0.2 l -27.9,-16.1 c -0.6,-0.3 -0.9,-1 -0.7,-1.6 0.1,-0.6 0.7,-1.1 1.4,-1.2 l 15.9,-1.1 c 0.5,0 1,0.2 1.3,0.6 l 12,17.2 c 0.4,0.6 0.3,1.4 -0.1,1.9 -0.3,0.3 -0.8,0.5 -1.2,0.5 z m -22.9,-16.5 17.9,10.3 -7.7,-11 -10.2,0.7 z"
         id="path359"
         inkscape:connector-curvature="0"
         style="fill:#4d4d4d" /></g><g
       id="g361"><polygon
         points="186.3,301.2 214.6,285.7 225.7,303 197.8,319.1 "
         id="polygon363"
         style="fill:#ffffff" /><path
         d="m 197.8,320.6 c -0.5,0 -1,-0.2 -1.3,-0.7 L 185,302.1 c -0.2,-0.4 -0.3,-0.8 -0.2,-1.2 0.1,-0.4 0.4,-0.7 0.7,-0.9 l 28.4,-15.5 c 0.7,-0.4 1.6,-0.2 2,0.5 l 11.1,17.2 c 0.2,0.3 0.3,0.8 0.2,1.2 -0.1,0.4 -0.4,0.7 -0.7,0.9 l -27.9,16.1 c -0.3,0.1 -0.5,0.2 -0.8,0.2 z m -9.4,-18.8 9.9,15.3 25.3,-14.6 -9.5,-14.7 -25.7,14 z"
         id="path365"
         inkscape:connector-curvature="0"
         style="fill:#4d4d4d" /></g><g
       id="g367"><polygon
         points="214.3,285.9 198.3,286.2 169.9,303 186.3,301.2 "
         id="polygon369"
         style="fill:#ffffff" /><path
         d="m 169.9,304.5 c -0.6,0 -1.2,-0.4 -1.4,-1 -0.2,-0.7 0.1,-1.4 0.7,-1.8 l 28.4,-16.8 c 0.2,-0.1 0.5,-0.2 0.7,-0.2 l 15.9,-0.2 c 0,0 0,0 0,0 0.7,0 1.3,0.5 1.5,1.1 0.2,0.7 -0.1,1.4 -0.7,1.7 l -28,15.2 c -0.2,0.1 -0.4,0.2 -0.6,0.2 l -16.5,1.8 c 0.1,0 0,0 0,0 z m 28.8,-16.8 -22.1,13.1 9.3,-1 22.4,-12.2 -9.6,0.1 z"
         id="path371"
         inkscape:connector-curvature="0"
         style="fill:#4d4d4d" /></g><g
       id="g373"><polygon
         points="141.9,351 169.9,334.8 197.8,351 169.9,367.1 "
         id="polygon375"
         style="fill:#ffffff" /><path
         d="m 169.9,368.6 c -0.3,0 -0.5,-0.1 -0.8,-0.2 l -27.9,-16.1 c -0.5,-0.3 -0.8,-0.8 -0.8,-1.3 0,-0.5 0.3,-1 0.8,-1.3 l 27.9,-16.1 c 0.5,-0.3 1,-0.3 1.5,0 l 27.9,16.1 c 0.5,0.3 0.8,0.8 0.8,1.3 0,0.5 -0.3,1 -0.8,1.3 l -27.9,16.1 c -0.2,0.1 -0.5,0.2 -0.7,0.2 z m -25,-17.6 24.9,14.4 24.9,-14.4 -24.9,-14.4 -24.9,14.4 z"
         id="path377"
         inkscape:connector-curvature="0"
         style="fill:#4d4d4d" /></g><g
       id="g379"><polygon
         points="141.9,318.7 169.9,302.6 197.8,318.7 169.9,334.8 "
         id="polygon381"
         style="fill:#ffffff" /><path
         d="m 169.9,336.3 c -0.3,0 -0.5,-0.1 -0.8,-0.2 L 141.2,320 c -0.5,-0.3 -0.8,-0.8 -0.8,-1.3 0,-0.5 0.3,-1 0.8,-1.3 l 27.9,-16.1 c 0.5,-0.3 1,-0.3 1.5,0 l 27.9,16.1 c 0.5,0.3 0.8,0.8 0.8,1.3 0,0.5 -0.3,1 -0.8,1.3 l -27.9,16.1 c -0.2,0.2 -0.5,0.2 -0.7,0.2 z m -25,-17.6 24.9,14.4 24.9,-14.4 -24.9,-14.4 -24.9,14.4 z"
         id="path383"
         inkscape:connector-curvature="0"
         style="fill:#4d4d4d" /></g><g
       id="g385"><polygon
         points="169.9,302.6 169.9,334.8 141.9,351 141.9,318.7 "
         id="polygon387"
         style="fill:#ffffff" /><path
         d="m 141.9,352.5 c -0.3,0 -0.5,-0.1 -0.8,-0.2 -0.5,-0.3 -0.8,-0.8 -0.8,-1.3 v -32.3 c 0,-0.5 0.3,-1 0.8,-1.3 L 169,301.3 c 0.5,-0.3 1,-0.3 1.5,0 0.5,0.3 0.8,0.8 0.8,1.3 l 0,32.3 c 0,0.5 -0.3,1 -0.8,1.3 l -27.9,16.1 c -0.1,0.1 -0.4,0.2 -0.7,0.2 z m 1.5,-32.9 v 28.8 l 24.9,-14.4 0,-28.8 -24.9,14.4 z"
         id="path389"
         inkscape:connector-curvature="0"
         style="fill:#4d4d4d" /></g><g
       id="g391"><polygon
         points="141.9,318.7 169.9,334.8 169.9,367.1 141.9,351 "
         id="polygon393"
         style="fill:#ffffff" /><path
         d="m 169.9,368.6 c -0.3,0 -0.5,-0.1 -0.8,-0.2 l -27.9,-16.1 c -0.5,-0.3 -0.8,-0.8 -0.8,-1.3 v -32.3 c 0,-0.5 0.3,-1 0.8,-1.3 0.5,-0.3 1,-0.3 1.5,0 l 27.9,16.1 c 0.5,0.3 0.8,0.8 0.8,1.3 v 32.3 c 0,0.5 -0.3,1 -0.8,1.3 -0.2,0.1 -0.5,0.2 -0.7,0.2 z m -26.5,-18.5 24.9,14.4 v -28.8 l -24.9,-14.4 v 28.8 z"
         id="path395"
         inkscape:connector-curvature="0"
         style="fill:#4d4d4d" /></g><g
       id="g397"><polygon
         points="169.9,302.6 169.9,334.8 197.8,351 197.8,318.7 "
         id="polygon399"
         style="fill:#ffffff" /><path
         d="m 197.8,352.5 c -0.3,0 -0.5,-0.1 -0.8,-0.2 l -27.9,-16.1 c -0.5,-0.3 -0.8,-0.8 -0.8,-1.3 l 0,-32.3 c 0,-0.5 0.3,-1 0.8,-1.3 0.5,-0.3 1,-0.3 1.5,0 l 27.9,16.1 c 0.5,0.3 0.8,0.8 0.8,1.3 V 351 c 0,0.5 -0.3,1 -0.8,1.3 -0.2,0.1 -0.4,0.2 -0.7,0.2 z m -26.4,-18.5 24.9,14.4 v -28.8 l -24.9,-14.4 0,28.8 z"
         id="path401"
         inkscape:connector-curvature="0"
         style="fill:#4d4d4d" /></g><g
       id="g403"><polygon
         points="141.9,318.7 169.9,334.8 197.8,318.7 169.9,302.6 "
         id="polygon405"
         style="fill:#ffffff" /><path
         d="m 169.9,336.3 c -0.3,0 -0.5,-0.1 -0.8,-0.2 L 141.2,320 c -0.5,-0.3 -0.8,-0.8 -0.8,-1.3 0,-0.5 0.3,-1 0.8,-1.3 l 27.9,-16.1 c 0.5,-0.3 1,-0.3 1.5,0 l 27.9,16.1 c 0.5,0.3 0.8,0.8 0.8,1.3 0,0.5 -0.3,1 -0.8,1.3 l -27.9,16.1 c -0.2,0.2 -0.5,0.2 -0.7,0.2 z m -25,-17.6 24.9,14.4 24.9,-14.4 -24.9,-14.4 -24.9,14.4 z"
         id="path407"
         inkscape:connector-curvature="0"
         style="fill:#4d4d4d" /></g><g
       id="g409"><polygon
         points="197.8,318.7 197.8,351 169.9,367.1 169.9,334.8 "
         id="polygon411"
         style="fill:#ffffff" /><path
         d="m 169.9,368.6 c -0.3,0 -0.5,-0.1 -0.8,-0.2 -0.5,-0.3 -0.8,-0.8 -0.8,-1.3 v -32.3 c 0,-0.5 0.3,-1 0.8,-1.3 L 197,317.4 c 0.5,-0.3 1,-0.3 1.5,0 0.5,0.3 0.8,0.8 0.8,1.3 V 351 c 0,0.5 -0.3,1 -0.8,1.3 l -27.9,16.1 c -0.2,0.1 -0.5,0.2 -0.7,0.2 z m 1.5,-32.9 v 28.8 l 24.9,-14.4 v -28.8 l -24.9,14.4 z"
         id="path413"
         inkscape:connector-curvature="0"
         style="fill:#4d4d4d" /></g><g
       id="g415"><polygon
         points="190.7,336.5 190.7,354.2 181.9,359.3 182,341.5 "
         id="polygon417"
         style="fill:#ffffff" /><path
         d="m 181.9,360.8 c -0.3,0 -0.5,-0.1 -0.8,-0.2 -0.5,-0.3 -0.7,-0.8 -0.7,-1.3 l 0,-17.7 c 0,-0.5 0.3,-1 0.8,-1.3 l 8.8,-5 c 0.5,-0.3 1,-0.3 1.5,0 0.5,0.3 0.7,0.8 0.7,1.3 l 0,17.7 c 0,0.5 -0.3,1 -0.8,1.3 l -8.8,5 c -0.2,0.1 -0.4,0.2 -0.7,0.2 z m 1.6,-18.4 0,14.3 5.8,-3.3 0,-14.3 -5.8,3.3 z"
         id="path419"
         inkscape:connector-curvature="0"
         style="fill:#4d4d4d" /></g><g
       id="g421"><polygon
         points="215.2,322.4 215.1,340.2 206.4,345.2 206.4,327.5 "
         id="polygon423"
         style="fill:#ffffff" /><path
         d="m 206.4,346.7 c -0.3,0 -0.5,-0.1 -0.8,-0.2 -0.5,-0.3 -0.7,-0.8 -0.7,-1.3 l 0,-17.7 c 0,-0.5 0.3,-1 0.8,-1.3 l 8.8,-5 c 0.5,-0.3 1,-0.3 1.5,0 0.5,0.3 0.7,0.8 0.7,1.3 l 0,17.7 c 0,0.5 -0.3,1 -0.8,1.3 l -8.8,5 c -0.2,0.2 -0.5,0.2 -0.7,0.2 z m 1.5,-18.3 0,14.3 5.8,-3.3 0,-14.3 -5.8,3.3 z"
         id="path425"
         inkscape:connector-curvature="0"
         style="fill:#4d4d4d" /></g><g
       id="g427"><polygon
         points="169.9,334.8 141.9,318.7 158.3,317 "
         id="polygon429"
         style="fill:#ffffff" /><path
         d="m 169.9,336.3 c -0.3,0 -0.5,-0.1 -0.7,-0.2 l -28,-16.1 c -0.6,-0.3 -0.9,-1 -0.7,-1.6 0.1,-0.6 0.7,-1.1 1.3,-1.2 l 16.4,-1.7 c 0.6,0 1.1,0.2 1.4,0.7 l 11.5,17.9 c 0.4,0.6 0.3,1.3 -0.2,1.8 -0.2,0.3 -0.6,0.4 -1,0.4 z m -23.2,-16.6 18.5,10.7 -7.7,-11.9 -10.8,1.2 z"
         id="path431"
         inkscape:connector-curvature="0"
         style="fill:#4d4d4d" /></g><g
       id="g433"><polygon
         points="197.8,318.7 169.9,302.6 185.8,301.5 "
         id="polygon435"
         style="fill:#ffffff" /><path
         d="m 197.8,320.2 c -0.3,0 -0.5,-0.1 -0.7,-0.2 l -27.9,-16.1 c -0.6,-0.3 -0.9,-1 -0.7,-1.6 0.1,-0.6 0.7,-1.1 1.4,-1.2 l 15.9,-1.1 c 0.5,0 1,0.2 1.3,0.6 l 12,17.2 c 0.4,0.6 0.3,1.4 -0.1,1.9 -0.4,0.3 -0.8,0.5 -1.2,0.5 z m -22.9,-16.5 17.9,10.3 -7.7,-11 -10.2,0.7 z"
         id="path437"
         inkscape:connector-curvature="0"
         style="fill:#4d4d4d" /></g><g
       id="g439"><polygon
         points="158.3,317 186.7,301.5 197.8,318.7 169.9,334.8 "
         id="polygon441"
         style="fill:#ffffff" /><path
         d="m 169.9,336.3 c -0.5,0 -1,-0.2 -1.3,-0.7 l -11.5,-17.9 c -0.2,-0.4 -0.3,-0.8 -0.2,-1.2 0.1,-0.4 0.4,-0.7 0.7,-0.9 L 186,300.1 c 0.7,-0.4 1.6,-0.2 2,0.5 l 11.1,17.2 c 0.2,0.3 0.3,0.8 0.2,1.2 -0.1,0.4 -0.4,0.7 -0.7,0.9 L 170.7,336 c -0.3,0.3 -0.6,0.3 -0.8,0.3 z m -9.4,-18.8 9.9,15.3 25.3,-14.6 -9.5,-14.7 -25.7,14 z"
         id="path443"
         inkscape:connector-curvature="0"
         style="fill:#4d4d4d" /></g><g
       id="g445"><polygon
         points="186.3,301.7 170.4,301.9 141.9,318.7 158.4,316.9 "
         id="polygon447"
         style="fill:#ffffff" /><path
         d="m 141.9,320.2 c -0.6,0 -1.2,-0.4 -1.4,-1 -0.2,-0.7 0.1,-1.4 0.7,-1.8 l 28.4,-16.8 c 0.2,-0.1 0.5,-0.2 0.7,-0.2 l 15.9,-0.2 c 0,0 0,0 0,0 0.7,0 1.3,0.5 1.5,1.1 0.2,0.7 -0.1,1.4 -0.7,1.7 l -27.9,15.3 c -0.2,0.1 -0.4,0.2 -0.6,0.2 l -16.5,1.8 c 0,-0.1 0,-0.1 -0.1,-0.1 z m 28.9,-16.8 -22.1,13.1 9.3,-1 22.4,-12.2 -9.6,0.1 z"
         id="path449"
         inkscape:connector-curvature="0"
         style="fill:#4d4d4d" /></g><g
       id="g451"><polygon
         points="314.1,352.9 286.2,336.8 258.2,352.9 286.2,369 "
         id="polygon453"
         style="fill:#ffffff" /><path
         d="m 286.2,370.5 c -0.3,0 -0.5,-0.1 -0.8,-0.2 l -27.9,-16.1 c -0.5,-0.3 -0.8,-0.8 -0.8,-1.3 0,-0.5 0.3,-1 0.8,-1.3 l 27.9,-16.1 c 0.5,-0.3 1,-0.3 1.5,0 l 27.9,16.1 c 0.5,0.3 0.8,0.8 0.8,1.3 0,0.5 -0.3,1 -0.8,1.3 l -27.9,16.1 c -0.2,0.2 -0.5,0.2 -0.7,0.2 z m -25,-17.6 24.9,14.4 24.9,-14.4 -24.9,-14.4 -24.9,14.4 z"
         id="path455"
         inkscape:connector-curvature="0"
         style="fill:#4d4d4d" /></g><g
       id="g457"><polygon
         points="314.1,320.7 286.2,304.5 258.2,320.7 286.2,336.8 "
         id="polygon459"
         style="fill:#ffffff" /><path
         d="m 286.2,338.3 c -0.3,0 -0.5,-0.1 -0.8,-0.2 L 257.5,322 c -0.5,-0.3 -0.8,-0.8 -0.8,-1.3 0,-0.5 0.3,-1 0.8,-1.3 l 27.9,-16.1 c 0.5,-0.3 1,-0.3 1.5,0 l 27.9,16.1 c 0.5,0.3 0.8,0.8 0.8,1.3 0,0.5 -0.3,1 -0.8,1.3 l -27.9,16.1 c -0.2,0.1 -0.5,0.2 -0.7,0.2 z m -25,-17.6 24.9,14.4 24.9,-14.4 -24.9,-14.4 -24.9,14.4 z"
         id="path461"
         inkscape:connector-curvature="0"
         style="fill:#4d4d4d" /></g><g
       id="g463"><polygon
         points="286.2,304.5 286.2,336.8 314.1,352.9 314.1,320.7 "
         id="polygon465"
         style="fill:#ffffff" /><path
         d="m 314.1,354.4 c -0.3,0 -0.5,-0.1 -0.8,-0.2 l -27.9,-16.1 c -0.5,-0.3 -0.8,-0.8 -0.8,-1.3 l 0,-32.3 c 0,-0.5 0.3,-1 0.8,-1.3 0.5,-0.3 1,-0.3 1.5,0 l 27.9,16.1 c 0.5,0.3 0.8,0.8 0.8,1.3 v 32.3 c 0,0.5 -0.3,1 -0.8,1.3 -0.2,0.1 -0.4,0.2 -0.7,0.2 z m -26.4,-18.5 24.9,14.4 v -28.8 l -24.9,-14.4 0,28.8 z"
         id="path467"
         inkscape:connector-curvature="0"
         style="fill:#4d4d4d" /></g><g
       id="g469"><polygon
         points="314.1,320.7 286.2,336.8 286.2,369 314.1,352.9 "
         id="polygon471"
         style="fill:#ffffff" /><path
         d="m 286.2,370.5 c -0.3,0 -0.5,-0.1 -0.8,-0.2 -0.5,-0.3 -0.8,-0.8 -0.8,-1.3 v -32.3 c 0,-0.5 0.3,-1 0.8,-1.3 l 27.9,-16.1 c 0.5,-0.3 1,-0.3 1.5,0 0.5,0.3 0.8,0.8 0.8,1.3 v 32.3 c 0,0.5 -0.3,1 -0.8,1.3 l -27.9,16.1 c -0.2,0.2 -0.5,0.2 -0.7,0.2 z m 1.5,-32.9 v 28.8 L 312.6,352 v -28.8 l -24.9,14.4 z"
         id="path473"
         inkscape:connector-curvature="0"
         style="fill:#4d4d4d" /></g><g
       id="g475"><polygon
         points="286.2,304.5 286.2,336.8 258.2,352.9 258.2,320.7 "
         id="polygon477"
         style="fill:#ffffff" /><path
         d="m 258.2,354.4 c -0.3,0 -0.5,-0.1 -0.8,-0.2 -0.5,-0.3 -0.8,-0.8 -0.8,-1.3 v -32.3 c 0,-0.5 0.3,-1 0.8,-1.3 l 27.9,-16.1 c 0.5,-0.3 1,-0.3 1.5,0 0.5,0.3 0.8,0.8 0.8,1.3 l 0,32.3 c 0,0.5 -0.3,1 -0.8,1.3 L 259,354.2 c -0.3,0.1 -0.5,0.2 -0.8,0.2 z m 1.5,-32.9 v 28.8 l 24.9,-14.4 0,-28.8 -24.9,14.4 z"
         id="path479"
         inkscape:connector-curvature="0"
         style="fill:#4d4d4d" /></g><g
       id="g481"><polygon
         points="314.1,320.7 286.2,336.8 258.2,320.7 286.2,304.5 "
         id="polygon483"
         style="fill:#ffffff" /><path
         d="m 286.2,338.3 c -0.3,0 -0.5,-0.1 -0.8,-0.2 L 257.5,322 c -0.5,-0.3 -0.8,-0.8 -0.8,-1.3 0,-0.5 0.3,-1 0.8,-1.3 l 27.9,-16.1 c 0.5,-0.3 1,-0.3 1.5,0 l 27.9,16.1 c 0.5,0.3 0.8,0.8 0.8,1.3 0,0.5 -0.3,1 -0.8,1.3 l -27.9,16.1 c -0.2,0.1 -0.5,0.2 -0.7,0.2 z m -25,-17.6 24.9,14.4 24.9,-14.4 -24.9,-14.4 -24.9,14.4 z"
         id="path485"
         inkscape:connector-curvature="0"
         style="fill:#4d4d4d" /></g><g
       id="g487"><polygon
         points="258.2,320.7 258.2,352.9 286.2,369 286.2,336.8 "
         id="polygon489"
         style="fill:#ffffff" /><path
         d="m 286.2,370.5 c -0.3,0 -0.5,-0.1 -0.8,-0.2 l -27.9,-16.1 c -0.5,-0.3 -0.8,-0.8 -0.8,-1.3 v -32.3 c 0,-0.5 0.3,-1 0.8,-1.3 0.5,-0.3 1,-0.3 1.5,0 l 27.9,16.1 c 0.5,0.3 0.8,0.8 0.8,1.3 V 369 c 0,0.5 -0.3,1 -0.8,1.3 -0.2,0.2 -0.5,0.2 -0.7,0.2 z M 259.7,352 284.6,366.4 V 337.6 L 259.7,323.2 V 352 z"
         id="path491"
         inkscape:connector-curvature="0"
         style="fill:#4d4d4d" /></g><g
       id="g493"><polygon
         points="286.2,336.8 314.1,320.7 297.7,318.9 "
         id="polygon495"
         style="fill:#ffffff" /><path
         d="m 286.2,338.3 c -0.4,0 -0.8,-0.2 -1.1,-0.5 -0.5,-0.5 -0.5,-1.3 -0.2,-1.8 l 11.5,-17.9 c 0.3,-0.5 0.9,-0.7 1.4,-0.7 l 16.4,1.7 c 0.6,0.1 1.2,0.5 1.3,1.2 0.1,0.6 -0.2,1.3 -0.7,1.6 L 286.9,338 c -0.2,0.2 -0.5,0.3 -0.7,0.3 z m 12.3,-17.8 -7.7,11.9 18.5,-10.7 -10.8,-1.2 z"
         id="path497"
         inkscape:connector-curvature="0"
         style="fill:#4d4d4d" /></g><g
       id="g499"><polygon
         points="258.2,320.7 286.2,304.5 270.2,303.4 "
         id="polygon501"
         style="fill:#ffffff" /><path
         d="m 258.2,322.2 c -0.4,0 -0.8,-0.2 -1.1,-0.5 -0.5,-0.5 -0.5,-1.3 -0.1,-1.9 l 12,-17.2 c 0.3,-0.4 0.8,-0.7 1.3,-0.6 l 15.9,1.1 c 0.7,0 1.2,0.5 1.4,1.2 0.1,0.6 -0.1,1.3 -0.7,1.6 l -27.9,16 c -0.2,0.2 -0.5,0.3 -0.8,0.3 z M 271,305 263.3,316 281.2,305.7 271,305 z"
         id="path503"
         inkscape:connector-curvature="0"
         style="fill:#4d4d4d" /></g><g
       id="g505"><polygon
         points="297.7,318.9 269.3,303.4 258.2,320.6 286.2,336.8 "
         id="polygon507"
         style="fill:#ffffff" /><path
         d="m 286.2,338.3 c -0.3,0 -0.5,-0.1 -0.7,-0.2 L 257.6,322 c -0.4,-0.2 -0.6,-0.5 -0.7,-0.9 -0.1,-0.4 0,-0.8 0.2,-1.2 l 11.1,-17.2 c 0.4,-0.7 1.3,-0.9 2,-0.5 l 28.4,15.5 c 0.4,0.2 0.6,0.5 0.7,0.9 0.1,0.4 0,0.8 -0.2,1.2 l -11.5,17.9 c -0.5,0.3 -0.9,0.6 -1.4,0.6 z m -25.9,-18.2 25.3,14.6 9.9,-15.3 -25.7,-14.1 -9.5,14.8 z"
         id="path509"
         inkscape:connector-curvature="0"
         style="fill:#4d4d4d" /></g><g
       id="g511"><polygon
         points="269.7,303.6 285.7,303.9 314.1,320.7 297.6,318.9 "
         id="polygon513"
         style="fill:#ffffff" /><path
         d="m 314.1,322.2 c -0.1,0 -0.1,0 -0.2,0 l -16.5,-1.8 c -0.2,0 -0.4,-0.1 -0.6,-0.2 L 269,304.9 c -0.6,-0.3 -0.9,-1 -0.7,-1.7 0.2,-0.7 0.8,-1.1 1.5,-1.1 l 15.9,0.2 c 0.3,0 0.5,0.1 0.7,0.2 l 28.4,16.8 c 0.6,0.4 0.9,1.1 0.7,1.8 -0.2,0.6 -0.8,1.1 -1.4,1.1 z m -16,-4.8 9.3,1 -22.1,-13.1 -9.5,-0.1 22.3,12.2 z"
         id="path515"
         inkscape:connector-curvature="0"
         style="fill:#4d4d4d" /></g><g
       id="g517"><polygon
         points="393.7,237.8 365.7,221.7 337.8,237.8 365.7,253.9 "
         id="polygon519"
         style="fill:#ffffff" /><path
         d="m 365.7,255.4 c -0.3,0 -0.5,-0.1 -0.8,-0.2 L 337,239.1 c -0.5,-0.3 -0.8,-0.8 -0.8,-1.3 0,-0.5 0.3,-1 0.8,-1.3 l 27.9,-16.1 c 0.5,-0.3 1,-0.3 1.5,0 l 27.9,16.1 c 0.5,0.3 0.8,0.8 0.8,1.3 0,0.5 -0.3,1 -0.8,1.3 l -27.9,16.1 c -0.1,0.1 -0.4,0.2 -0.7,0.2 z m -24.9,-17.6 24.9,14.4 24.9,-14.4 -24.9,-14.4 -24.9,14.4 z"
         id="path521"
         inkscape:connector-curvature="0"
         style="fill:#4d4d4d" /></g><g
       id="g523"><polygon
         points="393.7,205.5 365.7,189.4 337.8,205.5 365.7,221.7 "
         id="polygon525"
         style="fill:#ffffff" /><path
         d="m 365.7,223.2 c -0.3,0 -0.5,-0.1 -0.8,-0.2 L 337,206.9 c -0.5,-0.3 -0.8,-0.8 -0.8,-1.3 0,-0.5 0.3,-1 0.8,-1.3 l 27.9,-16.1 c 0.5,-0.3 1,-0.3 1.5,0 l 27.9,16.1 c 0.5,0.3 0.8,0.8 0.8,1.3 0,0.5 -0.3,1 -0.8,1.3 L 366.5,223 c -0.2,0.1 -0.5,0.2 -0.8,0.2 z m -24.9,-17.7 24.9,14.4 24.9,-14.4 -24.9,-14.4 -24.9,14.4 z"
         id="path527"
         inkscape:connector-curvature="0"
         style="fill:#4d4d4d" /></g><g
       id="g529"><polygon
         points="365.7,189.4 365.7,221.7 393.7,237.8 393.7,205.5 "
         id="polygon531"
         style="fill:#ffffff" /><path
         d="m 393.7,239.3 c -0.3,0 -0.5,-0.1 -0.8,-0.2 L 365,223 c -0.5,-0.3 -0.8,-0.8 -0.8,-1.3 l 0,-32.3 c 0,-0.5 0.3,-1 0.8,-1.3 0.5,-0.3 1,-0.3 1.5,0 l 27.9,16.1 c 0.5,0.3 0.8,0.8 0.8,1.3 v 32.3 c 0,0.5 -0.3,1 -0.8,1.3 -0.2,0.1 -0.5,0.2 -0.7,0.2 z m -26.5,-18.5 24.9,14.4 v -28.8 l -24.9,-14.4 0,28.8 z"
         id="path533"
         inkscape:connector-curvature="0"
         style="fill:#4d4d4d" /></g><g
       id="g535"><polygon
         points="393.7,205.5 365.7,221.7 365.7,253.9 393.7,237.8 "
         id="polygon537"
         style="fill:#ffffff" /><path
         d="m 365.7,255.4 c -0.3,0 -0.5,-0.1 -0.8,-0.2 -0.5,-0.3 -0.8,-0.8 -0.8,-1.3 v -32.3 c 0,-0.5 0.3,-1 0.8,-1.3 l 27.9,-16.1 c 0.5,-0.3 1,-0.3 1.5,0 0.5,0.3 0.8,0.8 0.8,1.3 v 32.3 c 0,0.5 -0.3,1 -0.8,1.3 l -27.9,16.1 c -0.1,0.1 -0.4,0.2 -0.7,0.2 z m 1.5,-32.9 v 28.8 l 24.9,-14.4 v -28.8 l -24.9,14.4 z"
         id="path539"
         inkscape:connector-curvature="0"
         style="fill:#4d4d4d" /></g><g
       id="g541"><polygon
         points="365.7,189.4 365.7,221.7 337.8,237.8 337.8,205.5 "
         id="polygon543"
         style="fill:#ffffff" /><path
         d="m 337.8,239.3 c -0.3,0 -0.5,-0.1 -0.8,-0.2 -0.5,-0.3 -0.8,-0.8 -0.8,-1.3 v -32.3 c 0,-0.5 0.3,-1 0.8,-1.3 l 27.9,-16.1 c 0.5,-0.3 1,-0.3 1.5,0 0.5,0.3 0.8,0.8 0.8,1.3 l 0,32.3 c 0,0.5 -0.3,1 -0.8,1.3 l -27.9,16.1 c -0.2,0.1 -0.4,0.2 -0.7,0.2 z m 1.5,-32.9 v 28.8 l 24.9,-14.4 0,-28.8 -24.9,14.4 z"
         id="path545"
         inkscape:connector-curvature="0"
         style="fill:#4d4d4d" /></g><g
       id="g547"><polygon
         points="393.7,205.5 365.7,221.7 337.8,205.5 365.7,189.4 "
         id="polygon549"
         style="fill:#ffffff" /><path
         d="m 365.7,223.2 c -0.3,0 -0.5,-0.1 -0.8,-0.2 L 337,206.9 c -0.5,-0.3 -0.8,-0.8 -0.8,-1.3 0,-0.5 0.3,-1 0.8,-1.3 l 27.9,-16.1 c 0.5,-0.3 1,-0.3 1.5,0 l 27.9,16.1 c 0.5,0.3 0.8,0.8 0.8,1.3 0,0.5 -0.3,1 -0.8,1.3 L 366.5,223 c -0.2,0.1 -0.5,0.2 -0.8,0.2 z m -24.9,-17.7 24.9,14.4 24.9,-14.4 -24.9,-14.4 -24.9,14.4 z"
         id="path551"
         inkscape:connector-curvature="0"
         style="fill:#4d4d4d" /></g><g
       id="g553"><polygon
         points="337.8,205.5 337.8,237.8 365.7,253.9 365.7,221.7 "
         id="polygon555"
         style="fill:#ffffff" /><path
         d="m 365.7,255.4 c -0.3,0 -0.5,-0.1 -0.8,-0.2 L 337,239.1 c -0.5,-0.3 -0.8,-0.8 -0.8,-1.3 v -32.3 c 0,-0.5 0.3,-1 0.8,-1.3 0.5,-0.3 1,-0.3 1.5,0 l 27.9,16.1 c 0.5,0.3 0.8,0.8 0.8,1.3 v 32.3 c 0,0.5 -0.3,1 -0.8,1.3 -0.1,0.1 -0.4,0.2 -0.7,0.2 z m -26.4,-18.5 24.9,14.4 v -28.8 l -24.9,-14.4 v 28.8 z"
         id="path557"
         inkscape:connector-curvature="0"
         style="fill:#4d4d4d" /></g><g
       id="g559"><polygon
         points="365.7,221.7 393.7,205.5 377.3,203.8 "
         id="polygon561"
         style="fill:#ffffff" /><path
         d="m 365.7,223.2 c -0.4,0 -0.8,-0.2 -1.1,-0.5 -0.5,-0.5 -0.5,-1.3 -0.2,-1.8 L 376,203 c 0.3,-0.5 0.9,-0.7 1.4,-0.7 l 16.4,1.7 c 0.6,0.1 1.2,0.5 1.3,1.2 0.1,0.6 -0.2,1.3 -0.7,1.6 L 366.5,223 c -0.2,0.1 -0.5,0.2 -0.8,0.2 z m 12.3,-17.8 -7.7,11.9 18.5,-10.7 -10.8,-1.2 z"
         id="path563"
         inkscape:connector-curvature="0"
         style="fill:#4d4d4d" /></g><g
       id="g565"><polygon
         points="337.8,205.5 365.7,189.4 349.8,188.3 "
         id="polygon567"
         style="fill:#ffffff" /><path
         d="m 337.8,207 c -0.4,0 -0.8,-0.2 -1.1,-0.5 -0.5,-0.5 -0.5,-1.3 -0.1,-1.9 l 12,-17.2 c 0.3,-0.4 0.8,-0.7 1.3,-0.6 l 15.9,1.1 c 0.7,0 1.2,0.5 1.4,1.2 0.1,0.6 -0.1,1.3 -0.7,1.6 l -27.9,16.1 c -0.3,0.2 -0.5,0.2 -0.8,0.2 z m 12.7,-17.2 -7.7,11 17.9,-10.3 -10.2,-0.7 z"
         id="path569"
         inkscape:connector-curvature="0"
         style="fill:#4d4d4d" /></g><g
       id="g571"><polygon
         points="377.3,203.8 348.9,188.3 337.8,205.5 365.7,221.7 "
         id="polygon573"
         style="fill:#ffffff" /><path
         d="m 365.7,223.2 c -0.3,0 -0.5,-0.1 -0.7,-0.2 l -27.9,-16.1 c -0.4,-0.2 -0.6,-0.5 -0.7,-0.9 -0.1,-0.4 0,-0.8 0.2,-1.2 l 11.1,-17.2 c 0.4,-0.7 1.3,-0.9 2,-0.5 l 28.4,15.5 c 0.4,0.2 0.6,0.5 0.7,0.9 0.1,0.4 0,0.8 -0.2,1.2 L 367,222.5 c -0.3,0.4 -0.8,0.7 -1.3,0.7 z m -25.8,-18.2 25.3,14.6 9.9,-15.3 -25.7,-14.1 -9.5,14.8 z"
         id="path575"
         inkscape:connector-curvature="0"
         style="fill:#4d4d4d" /></g><g
       id="g577"><polygon
         points="349.3,188.5 365.2,188.7 393.7,205.5 377.2,203.8 "
         id="polygon579"
         style="fill:#ffffff" /><path
         d="m 393.7,207 c -0.1,0 -0.1,0 -0.2,0 L 377,205.2 c -0.2,0 -0.4,-0.1 -0.6,-0.2 l -27.9,-15.3 c -0.6,-0.3 -0.9,-1 -0.7,-1.7 0.2,-0.7 0.8,-1.1 1.5,-1.1 0,0 0,0 0,0 l 15.9,0.2 c 0.3,0 0.5,0.1 0.7,0.2 l 28.4,16.8 c 0.6,0.4 0.9,1.1 0.7,1.8 -0.1,0.7 -0.7,1.1 -1.3,1.1 z m -16,-4.7 9.3,1 -22.1,-13.1 -9.5,-0.1 22.3,12.2 z"
         id="path581"
         inkscape:connector-curvature="0"
         style="fill:#4d4d4d" /></g><g
       id="g583"><polygon
         points="347.4,224.6 347.4,242.3 356.2,247.3 356.1,229.6 "
         id="polygon585"
         style="fill:#ffffff" /><path
         d="m 356.2,248.8 c -0.3,0 -0.5,-0.1 -0.7,-0.2 l -8.8,-5 c -0.5,-0.3 -0.8,-0.8 -0.8,-1.3 l 0,-17.7 c 0,-0.5 0.3,-1 0.7,-1.3 0.5,-0.3 1,-0.3 1.5,0 l 8.8,5 c 0.5,0.3 0.8,0.8 0.8,1.3 l 0,17.7 c 0,0.5 -0.3,1 -0.7,1.3 -0.3,0.2 -0.6,0.2 -0.8,0.2 z m -7.3,-7.4 5.8,3.3 0,-14.3 -5.8,-3.3 0,14.3 z"
         id="path587"
         inkscape:connector-curvature="0"
         style="fill:#4d4d4d" /></g><g
       id="g589"><path
         d="m 329.6,292.6 v 24.6 c 0,1.7 2.2,3.1 4.9,3.1 2.7,0 4.9,-1.4 4.9,-3.1 v -24.6 h -9.8 z"
         id="path591"
         inkscape:connector-curvature="0"
         style="fill:#ffffff" /><path
         d="m 334.4,321.8 c -3.6,0 -6.4,-2 -6.4,-4.6 v -24.6 c 0,-0.8 0.7,-1.5 1.5,-1.5 h 9.8 c 0.8,0 1.5,0.7 1.5,1.5 v 24.6 c 0,2.6 -2.8,4.6 -6.4,4.6 z m -3.3,-27.7 v 23.1 c 0,0.6 1.4,1.6 3.4,1.6 2,0 3.4,-1 3.4,-1.6 v -23.1 h -6.8 z"
         id="path593"
         inkscape:connector-curvature="0"
         style="fill:#414042" /></g><g
       id="g595"><path
         d="m 344.8,280 c -0.1,-2.3 -1.3,-4.4 -3.1,-5.7 0,0 0,0 0,0 0,-3.9 -2.5,-7.2 -6,-8.4 0.8,-0.8 1.3,-1.9 1.3,-3.1 0,-2.4 -1.9,-4.3 -4.3,-4.3 -2.4,0 -4.3,1.9 -4.3,4.3 0,1.2 0.5,2.3 1.3,3.1 -3.5,1.2 -6,4.5 -6,8.4 0,2 0.7,3.9 1.8,5.4 -2.1,1.3 -3.5,3.6 -3.5,6.3 0,4.1 3.3,7.4 7.4,7.4 1.3,0 2.5,-0.3 3.6,-0.9 1.6,2.4 4.2,3.9 7.3,3.9 4.8,0 8.7,-3.9 8.7,-8.7 0.2,-3.4 -1.6,-6.3 -4.2,-7.7 z"
         id="path597"
         inkscape:connector-curvature="0"
         style="fill:#b0ddd8" /><path
         d="m 340.5,297.8 c -3,0 -5.8,-1.3 -7.7,-3.5 -1,0.4 -2.1,0.6 -3.1,0.6 -4.9,0 -8.9,-4 -8.9,-8.9 0,-2.6 1.1,-4.9 2.9,-6.6 -0.9,-1.5 -1.3,-3.3 -1.3,-5.1 0,-3.7 2,-7.2 5.2,-9 -0.4,-0.8 -0.6,-1.6 -0.6,-2.5 0,-3.2 2.6,-5.8 5.8,-5.8 3.2,0 5.8,2.6 5.8,5.8 0,0.9 -0.2,1.7 -0.6,2.5 3,1.7 4.9,4.8 5.2,8.3 1.6,1.4 2.7,3.4 3,5.5 2.8,1.9 4.6,5.1 4.6,8.5 -0.1,5.6 -4.6,10.2 -10.3,10.2 z m -7.2,-7 c 0.5,0 1,0.2 1.3,0.7 1.3,2 3.6,3.2 6,3.2 4,0 7.2,-3.2 7.2,-7.2 0,-2.6 -1.4,-5 -3.7,-6.3 -0.4,-0.2 -0.7,-0.7 -0.8,-1.2 -0.1,-1.8 -1,-3.5 -2.5,-4.6 -0.4,-0.3 -0.6,-0.8 -0.6,-1.2 0,-3.1 -2,-5.9 -4.9,-7 -0.5,-0.2 -0.9,-0.6 -1,-1.1 -0.1,-0.5 0.1,-1 0.4,-1.4 0.6,-0.5 0.9,-1.2 0.9,-2 0,-1.5 -1.2,-2.8 -2.8,-2.8 -1.5,0 -2.8,1.2 -2.8,2.8 0,0.8 0.3,1.5 0.9,2 0.4,0.4 0.5,0.9 0.4,1.4 -0.1,0.5 -0.5,0.9 -1,1.1 -3,1 -5,3.8 -5,7 0,1.6 0.5,3.2 1.5,4.5 0.3,0.3 0.4,0.8 0.3,1.2 -0.1,0.4 -0.3,0.8 -0.7,1 -1.7,1.1 -2.8,2.9 -2.8,5 0,3.2 2.6,5.9 5.9,5.9 1,0 2,-0.3 2.9,-0.7 0.4,-0.2 0.6,-0.3 0.9,-0.3 z"
         id="path599"
         inkscape:connector-curvature="0"
         style="fill:#414042" /></g><g
       id="g601"><rect
         x="332.89999"
         y="293.60001"
         width="3"
         height="26.700001"
         id="rect603"
         style="fill:#414042" /></g></g><g
     id="Layer_2"
     transform="translate(0,-114)" /></svg>