<?xml version="1.0" encoding="utf-8"?>
<!-- Generator: Adobe Illustrator 18.1.0, SVG Export Plug-In . SVG Version: 6.00 Build 0)  -->
<!DOCTYPE svg PUBLIC "-//W3C//DTD SVG 1.1//EN" "http://www.w3.org/Graphics/SVG/1.1/DTD/svg11.dtd">
<svg version="1.1" id="Layer_1" xmlns="http://www.w3.org/2000/svg" xmlns:xlink="http://www.w3.org/1999/xlink" x="0px" y="0px"
	 viewBox="0 0 102.9 102.9" enable-background="new 0 0 102.9 102.9" xml:space="preserve">
<polygon fill="#FFFFFF" stroke="#424143" stroke-width="3" stroke-linejoin="round" stroke-miterlimit="10" points="35.5,25.2 
	51.9,23.5 63.5,41.3 "/>
<polygon fill="#FFFFFF" stroke="#424143" stroke-width="3" stroke-linejoin="round" stroke-miterlimit="10" points="7.6,70.2 
	35.6,54.1 63.5,70.2 35.5,86.3 "/>
<polygon fill="#FFFFFF" stroke="#424143" stroke-width="3" stroke-linejoin="round" stroke-miterlimit="10" points="7.6,37.9 
	35.6,21.8 63.5,37.9 35.5,54.1 "/>
<polygon fill="#FFFFFF" stroke="#424143" stroke-width="3" stroke-linejoin="round" stroke-miterlimit="10" points="35.6,21.8 
	35.5,54.1 7.6,70.2 7.6,37.9 "/>
<polygon fill="#FFFFFF" stroke="#424143" stroke-width="3" stroke-linejoin="round" stroke-miterlimit="10" points="7.6,37.9 
	35.5,54.1 35.5,86.3 7.6,70.2 "/>
<polygon fill="#FFFFFF" stroke="#424143" stroke-width="3" stroke-linejoin="round" stroke-miterlimit="10" points="35.6,21.8 
	35.5,54.1 63.5,70.2 63.5,37.9 "/>
<polygon fill="#FFFFFF" stroke="#424143" stroke-width="3" stroke-linejoin="round" stroke-miterlimit="10" points="7.6,37.9 
	35.5,54.1 63.5,37.9 35.6,21.8 "/>
<polygon fill="#FFFFFF" stroke="#424143" stroke-width="3" stroke-linejoin="round" stroke-miterlimit="10" points="63.5,37.9 
	63.5,70.2 35.5,86.3 35.5,54.1 "/>
<polygon fill="#FFFFFF" stroke="#424143" stroke-width="3" stroke-linejoin="round" stroke-miterlimit="10" points="56.7,55.7 
	56.7,73.5 47.9,78.5 48,60.8 "/>
<polygon fill="#FFFFFF" stroke="#424143" stroke-width="3" stroke-linejoin="round" stroke-miterlimit="10" points="7.6,37.9 
	24,36.2 35.5,54.1 "/>
<polygon fill="#FFFFFF" stroke="#424143" stroke-width="3" stroke-linejoin="round" stroke-miterlimit="10" points="35.6,21.8 
	51.5,20.7 63.5,37.9 "/>
<polygon fill="#FFFFFF" stroke="#424143" stroke-width="3" stroke-linejoin="round" stroke-miterlimit="10" points="24,36.2 
	52.4,20.7 63.5,37.9 35.6,54.1 "/>
<polygon fill="#FFFFFF" stroke="#424143" stroke-width="3" stroke-linejoin="round" stroke-miterlimit="10" points="52,20.9 
	36.1,21.1 7.6,37.9 24.1,36.2 "/>
<g>
	<polygon fill="#424143" points="69.9,34.9 69.9,31.4 97.7,15.4 97.7,18.8 	"/>
</g>
<g>
	<polygon fill="#424143" points="71.5,43.6 71.5,42.7 89.4,32.3 89.4,33.2 	"/>
</g>
<g>
	<polygon fill="#424143" points="71.5,53.2 71.5,52.3 89.4,41.9 89.4,42.8 	"/>
</g>
<g>
	<polygon fill="#424143" points="71.5,62.8 71.5,61.9 89.4,51.5 89.4,52.3 	"/>
</g>
</svg>
