<?xml version="1.0" encoding="UTF-8" standalone="no"?>
<!-- Created with Inkscape (http://www.inkscape.org/) -->

<svg
   xmlns:dc="http://purl.org/dc/elements/1.1/"
   xmlns:cc="http://creativecommons.org/ns#"
   xmlns:rdf="http://www.w3.org/1999/02/22-rdf-syntax-ns#"
   xmlns:svg="http://www.w3.org/2000/svg"
   xmlns="http://www.w3.org/2000/svg"
   version="1.1"
   width="115"
   height="101"
   id="svg2">
  <defs
     id="defs4" />
  <metadata
     id="metadata7">
    <rdf:RDF>
      <cc:Work
         rdf:about="">
        <dc:format>image/svg+xml</dc:format>
        <dc:type
           rdf:resource="http://purl.org/dc/dcmitype/StillImage" />
        <dc:title></dc:title>
      </cc:Work>
    </rdf:RDF>
  </metadata>
  <g
     transform="translate(0,-951.36218)"
     id="layer2"
     style="display:none">
    <g
       transform="translate(-191.92857,767.66218)"
       id="g3730">
      <g
         id="Layer_1-1">
        <g
           id="g3657">
          <polygon
             points="222.1,267 250,251.2 277.9,267.3 250,283.2 "
             id="polygon3659"
             style="fill:#ffffff" />
          <path
             d="m 250,284.7 c -0.3,0 -0.5,-0.1 -0.8,-0.2 l -27.9,-16.1 c -0.5,-0.3 -0.8,-0.8 -0.8,-1.3 0,-0.5 0.3,-1 0.8,-1.3 l 27.9,-15.9 c 0.5,-0.3 1,-0.3 1.5,0 l 27.9,16.1 c 0.5,0.3 0.8,0.8 0.8,1.3 0,0.5 -0.3,1 -0.8,1.3 l -27.9,15.9 c -0.2,0.1 -0.4,0.2 -0.7,0.2 z m -24.9,-17.6 24.9,14.4 24.9,-14.1 -24.9,-14.5 -24.9,14.2 z"
             id="path3661"
             style="fill:#4d4d4d" />
        </g>
        <g
           id="g3663">
          <polygon
             points="222.1,234.8 250,218.7 277.9,234.8 250,251.2 "
             id="polygon3665"
             style="fill:#ffffff" />
          <path
             d="m 250,252.7 c -0.3,0 -0.5,-0.1 -0.8,-0.2 l -27.9,-16.4 c -0.5,-0.3 -0.7,-0.8 -0.7,-1.3 0,-0.5 0.3,-1 0.8,-1.3 l 27.9,-16.1 c 0.5,-0.3 1,-0.3 1.5,0 l 27.9,16.1 c 0.5,0.3 0.7,0.8 0.8,1.3 0.1,0.5 -0.3,1 -0.7,1.3 l -27.9,16.4 c -0.4,0.1 -0.6,0.2 -0.9,0.2 z m -25,-17.9 25,14.7 25,-14.7 -25,-14.4 -25,14.4 z"
             id="path3667"
             style="fill:#4d4d4d" />
        </g>
        <g
           id="g3669">
          <polygon
             points="250,218.7 250,251.2 222.1,267 222.1,234.8 "
             id="polygon3671"
             style="fill:#ffffff" />
          <path
             d="m 222.1,268.5 c -0.3,0 -0.5,-0.1 -0.8,-0.2 -0.5,-0.3 -0.7,-0.8 -0.7,-1.3 l 0,-32.3 c 0,-0.5 0.3,-1 0.8,-1.3 l 27.9,-16.1 c 0.5,-0.3 1,-0.3 1.5,0 0.5,0.3 0.8,0.8 0.8,1.3 l 0,32.5 c 0,0.5 -0.3,1 -0.8,1.3 l -27.9,15.9 c -0.3,0.2 -0.6,0.2 -0.8,0.2 z m 1.5,-32.8 0,28.8 24.9,-14.2 0,-29.1 -24.9,14.5 z"
             id="path3673"
             style="fill:#4d4d4d" />
        </g>
        <g
           id="g3675">
          <polygon
             points="222.1,234.8 250,250.9 250,283.2 222.1,267 "
             id="polygon3677"
             style="fill:#ffffff" />
          <path
             d="m 250,284.7 c -0.3,0 -0.5,-0.1 -0.8,-0.2 l -27.9,-16.1 c -0.5,-0.3 -0.8,-0.8 -0.8,-1.3 l 0,-32.3 c 0,-0.5 0.3,-1 0.7,-1.3 0.5,-0.3 1,-0.3 1.5,0 l 27.9,16.1 c 0.5,0.3 0.8,0.8 0.8,1.3 l 0,32.3 c 0,0.5 -0.3,1 -0.8,1.3 -0.1,0.1 -0.3,0.2 -0.6,0.2 z m -26.4,-18.5 24.9,14.4 0,-28.8 -24.9,-14.4 0,28.8 z"
             id="path3679"
             style="fill:#4d4d4d" />
        </g>
        <g
           id="g3681">
          <polygon
             points="250,218.7 250,251.2 277.9,267.3 277.9,234.8 "
             id="polygon3683"
             style="fill:#ffffff" />
          <path
             d="m 277.9,268.8 c -0.3,0 -0.5,-0.1 -0.8,-0.2 l -27.9,-16.1 c -0.5,-0.3 -0.8,-0.8 -0.8,-1.3 l 0,-32.5 c 0,-0.5 0.3,-1 0.8,-1.3 0.5,-0.3 1,-0.3 1.5,0 l 27.9,16.1 c 0.5,0.3 0.8,0.8 0.8,1.3 v 32.5 c 0,0.5 -0.3,1 -0.8,1.3 -0.1,0.1 -0.4,0.2 -0.7,0.2 z m -26.4,-18.5 24.9,14.4 v -29.1 l -24.9,-14.4 0,29.1 z"
             id="path3685"
             style="fill:#4d4d4d" />
        </g>
        <g
           id="g3687">
          <polygon
             points="222.1,234.8 250,251 277.9,234.8 250,218.7 "
             id="polygon3689"
             style="fill:#ffffff" />
          <path
             d="m 250,252.5 c -0.3,0 -0.5,-0.1 -0.8,-0.2 l -27.9,-16.2 c -0.5,-0.3 -0.7,-0.8 -0.7,-1.3 0,-0.5 0.3,-1 0.8,-1.3 l 27.9,-16.1 c 0.5,-0.3 1,-0.3 1.5,0 l 27.9,16.1 c 0.5,0.3 0.7,0.8 0.8,1.3 0,0.5 -0.3,1 -0.7,1.3 l -27.9,16.2 c -0.4,0.1 -0.6,0.2 -0.9,0.2 z m -24.9,-17.7 24.9,14.5 24.9,-14.5 -24.9,-14.4 -24.9,14.4 z"
             id="path3691"
             style="fill:#4d4d4d" />
        </g>
        <g
           id="g3693">
          <polygon
             points="277.9,234.8 277.9,267.3 250,283.2 250,250.9 "
             id="polygon3695"
             style="fill:#ffffff" />
          <path
             d="m 250,284.7 c -0.3,0 -0.5,-0.1 -0.8,-0.2 -0.5,-0.3 -0.7,-0.8 -0.7,-1.3 l 0,-32.3 c 0,-0.5 0.3,-1 0.8,-1.3 l 27.9,-16.1 c 0.5,-0.3 1,-0.3 1.5,0 0.5,0.3 0.7,0.8 0.7,1.3 v 32.5 c 0,0.5 -0.3,1 -0.8,1.3 l -27.9,15.9 c -0.2,0.1 -0.4,0.2 -0.7,0.2 z m 1.5,-32.9 0,28.8 24.9,-14.2 v -29.1 l -24.9,14.5 z"
             id="path3697"
             style="fill:#4d4d4d" />
        </g>
        <g
           id="g3699">
          <polygon
             points="270.9,252.8 270.8,270.6 262,275.6 262.1,257.9 "
             id="polygon3701"
             style="fill:#ffffff" />
          <path
             d="m 262,277.1 c -0.3,0 -0.5,-0.1 -0.8,-0.2 -0.5,-0.3 -0.7,-0.8 -0.7,-1.3 l 0,-17.7 c 0,-0.5 0.3,-1 0.8,-1.3 l 8.8,-5 c 0.5,-0.3 1,-0.3 1.5,0 0.5,0.3 0.7,0.8 0.7,1.3 l 0,17.7 c 0,0.5 -0.3,1 -0.8,1.3 l -8.8,5 c -0.1,0.1 -0.4,0.2 -0.7,0.2 z m 1.6,-18.3 0,14.3 5.8,-3.3 0,-14.3 -5.8,3.3 z"
             id="path3703"
             style="fill:#4d4d4d" />
        </g>
        <g
           id="g3705">
          <polygon
             points="222.1,234.8 238.5,233.3 250,250.9 "
             id="polygon3707"
             style="fill:#ffffff" />
          <path
             d="m 250,252.4 c -0.3,0 -0.5,-0.1 -0.7,-0.2 l -27.9,-16.1 c -0.6,-0.3 -0.9,-1 -0.7,-1.6 0.1,-0.6 0.7,-1.1 1.3,-1.2 l 16.4,-1.5 c 0.5,0 1.1,0.2 1.4,0.7 l 11.5,17.6 c 0.4,0.6 0.3,1.3 -0.2,1.9 -0.3,0.2 -0.7,0.4 -1.1,0.4 z m -23.1,-16.5 18.3,10.6 -7.6,-11.5 -10.7,0.9 z"
             id="path3709"
             style="fill:#4d4d4d" />
        </g>
        <g
           id="g3711">
          <polygon
             points="238.5,233.3 266.8,217.8 277.9,234.8 250,250.9 "
             id="polygon3713"
             style="fill:#ffffff" />
          <path
             d="m 250,252.4 c -0.5,0 -1,-0.2 -1.3,-0.7 l -11.5,-17.6 c -0.2,-0.4 -0.3,-0.8 -0.2,-1.2 0.1,-0.4 0.4,-0.8 0.7,-1 l 28.4,-15.5 c 0.7,-0.4 1.5,-0.2 2,0.5 l 11.1,17 c 0.2,0.3 0.3,0.8 0.2,1.2 -0.1,0.4 -0.4,0.7 -0.7,1 l -27.9,16.1 c -0.3,0.1 -0.5,0.2 -0.8,0.2 z m -9.4,-18.5 9.9,15 25.3,-14.6 -9.5,-14.5 -25.7,14.1 z"
             id="path3715"
             style="fill:#4d4d4d" />
        </g>
        <g
           id="g3717">
          <polygon
             points="266.8,217.8 250,218.7 222.1,234.8 238.5,233.3 "
             id="polygon3719"
             style="fill:#ffffff" />
          <path
             d="m 222.1,236.3 c -0.6,0 -1.2,-0.4 -1.4,-1 -0.2,-0.7 0.1,-1.4 0.7,-1.8 l 27.9,-16.1 c 0.2,-0.1 0.4,-0.2 0.7,-0.2 l 16.8,-0.8 c 0.7,0 1.3,0.4 1.5,1.1 0.2,0.7 -0.1,1.4 -0.7,1.7 l -28.3,15.5 c -0.2,0.1 -0.4,0.2 -0.6,0.2 l -16.5,1.5 c 0,-0.1 -0.1,-0.1 -0.1,-0.1 z m 28.3,-16.2 -21.7,12.5 9.4,-0.8 22.3,-12.2 -10,0.5 z"
             id="path3721"
             style="fill:#4d4d4d" />
        </g>
      </g>
      <g
         id="Layer_2-6" />
    </g>
  </g>
  <g
     transform="translate(0,-951.36218)"
     id="layer3"
     style="display:none">
    <g
       transform="translate(-194.2,758.46218)"
       id="g3548">
      <g
         id="Layer_1-3">
        <g
           id="g3337">
          <g
             id="g3339">
            <polygon
               points="307.3,244 279.4,260.1 251.5,244 279.4,228.1 "
               id="polygon3341"
               style="fill:#ffffff" />
            <path
               d="m 279.4,261.6 c -0.3,0 -0.5,-0.1 -0.8,-0.2 l -27.9,-16.1 c -0.5,-0.3 -0.8,-0.8 -0.8,-1.3 0,-0.5 0.3,-1 0.8,-1.3 l 27.9,-15.9 c 0.5,-0.3 1,-0.3 1.5,0 l 27.9,15.9 c 0.5,0.3 0.8,0.8 0.8,1.3 0,0.5 -0.3,1 -0.8,1.3 l -27.9,16.1 c -0.2,0.1 -0.4,0.2 -0.7,0.2 z M 254.5,244 279.4,258.4 304.3,244 279.4,229.9 254.5,244 z"
               id="path3343"
               style="fill:#4d4d4d" />
          </g>
          <g
             id="g3345">
            <polygon
               points="307.3,211.7 279.4,228.1 251.5,211.7 279.4,195.6 "
               id="polygon3347"
               style="fill:#ffffff" />
            <path
               d="m 279.4,229.6 c -0.3,0 -0.5,-0.1 -0.8,-0.2 L 250.7,213 c -0.5,-0.3 -0.7,-0.8 -0.7,-1.3 0,-0.5 0.3,-1 0.8,-1.3 l 27.9,-16.1 c 0.5,-0.3 1,-0.3 1.5,0 l 27.9,16.1 c 0.5,0.3 0.7,0.8 0.8,1.3 0,0.5 -0.3,1 -0.7,1.3 l -27.9,16.4 c -0.4,0.1 -0.6,0.2 -0.9,0.2 z m -25,-17.9 25,14.7 25,-14.7 -25,-14.4 -25,14.4 z"
               id="path3349"
               style="fill:#4d4d4d" />
          </g>
          <g
             id="g3351">
            <polygon
               points="251.5,244 251.5,211.7 279.4,195.6 279.4,228.1 "
               id="polygon3353"
               style="fill:#ffffff" />
            <path
               d="m 251.5,245.5 c -0.3,0 -0.5,-0.1 -0.8,-0.2 -0.5,-0.3 -0.7,-0.8 -0.7,-1.3 l 0,-32.3 c 0,-0.5 0.3,-1 0.8,-1.3 l 27.9,-16.1 c 0.5,-0.3 1,-0.3 1.5,0 0.5,0.3 0.8,0.8 0.8,1.3 l 0,32.5 c 0,0.5 -0.3,1 -0.8,1.3 l -27.9,15.9 c -0.3,0.1 -0.6,0.2 -0.8,0.2 z m 1.5,-32.9 0,28.8 24.9,-14.2 0,-29.1 -24.9,14.5 z"
               id="path3355"
               style="fill:#4d4d4d" />
          </g>
          <g
             id="g3357">
            <polygon
               points="279.4,260.1 251.5,244 251.5,211.7 279.4,227.8 "
               id="polygon3359"
               style="fill:#ffffff" />
            <path
               d="m 279.4,261.6 c -0.3,0 -0.5,-0.1 -0.8,-0.2 l -27.9,-16.1 c -0.5,-0.3 -0.8,-0.8 -0.8,-1.3 l 0,-32.3 c 0,-0.5 0.3,-1 0.7,-1.3 0.5,-0.3 1,-0.3 1.5,0 l 27.9,16.1 c 0.5,0.3 0.8,0.8 0.8,1.3 l 0,32.3 c 0,0.5 -0.3,1 -0.8,1.3 -0.1,0.1 -0.3,0.2 -0.6,0.2 z m -26.4,-18.5 24.9,14.4 0,-28.8 -24.9,-14.4 0,28.8 z"
               id="path3361"
               style="fill:#4d4d4d" />
          </g>
          <g
             id="g3363">
            <polygon
               points="307.3,244 307.3,211.7 279.4,195.6 279.4,228.1 "
               id="polygon3365"
               style="fill:#ffffff" />
            <path
               d="m 307.3,245.5 c -0.3,0 -0.5,-0.1 -0.7,-0.2 l -27.9,-15.9 c -0.5,-0.3 -0.8,-0.8 -0.8,-1.3 l 0,-32.5 c 0,-0.5 0.3,-1 0.8,-1.3 0.5,-0.3 1,-0.3 1.5,0 l 27.9,16.1 c 0.5,0.3 0.8,0.8 0.8,1.3 l 0,32.3 c 0,0.5 -0.3,1 -0.7,1.3 -0.3,0.1 -0.6,0.2 -0.9,0.2 z m -26.4,-18.3 24.9,14.2 0,-28.8 -24.9,-14.4 0,29 z"
               id="path3367"
               style="fill:#4d4d4d" />
          </g>
          <g
             id="g3369">
            <polygon
               points="307.3,211.7 279.4,195.6 251.5,211.7 279.4,227.9 "
               id="polygon3371"
               style="fill:#ffffff" />
            <path
               d="m 279.4,229.4 c -0.3,0 -0.5,-0.1 -0.8,-0.2 L 250.7,213 c -0.5,-0.3 -0.7,-0.8 -0.7,-1.3 0,-0.5 0.3,-1 0.8,-1.3 l 27.9,-16.1 c 0.5,-0.3 1,-0.3 1.5,0 l 27.9,16.1 c 0.5,0.3 0.7,0.8 0.8,1.3 0,0.5 -0.3,1 -0.7,1.3 l -27.9,16.2 c -0.4,0.1 -0.6,0.2 -0.9,0.2 z m -24.9,-17.7 24.9,14.5 24.9,-14.5 -24.9,-14.4 -24.9,14.4 z"
               id="path3373"
               style="fill:#4d4d4d" />
          </g>
          <g
             id="g3375">
            <polygon
               points="279.4,260.1 279.4,227.8 307.3,211.7 307.3,244 "
               id="polygon3377"
               style="fill:#ffffff" />
            <path
               d="m 279.4,261.6 c -0.3,0 -0.5,-0.1 -0.8,-0.2 -0.5,-0.3 -0.8,-0.8 -0.8,-1.3 l 0,-32.3 c 0,-0.5 0.3,-1 0.8,-1.3 l 27.9,-16.1 c 0.5,-0.3 1,-0.3 1.5,0 0.5,0.3 0.7,0.8 0.7,1.3 l 0,32.3 c 0,0.5 -0.3,1 -0.8,1.3 L 280,261.4 c -0.1,0.1 -0.3,0.2 -0.6,0.2 z m 1.5,-32.9 0,28.8 24.9,-14.4 0,-28.8 -24.9,14.4 z"
               id="path3379"
               style="fill:#4d4d4d" />
          </g>
          <g
             id="g3381">
            <polygon
               points="291.4,252.5 291.5,234.8 300.3,229.8 300.2,247.5 "
               id="polygon3383"
               style="fill:#ffffff" />
            <path
               d="m 291.4,254 c -0.3,0 -0.5,-0.1 -0.8,-0.2 -0.5,-0.3 -0.7,-0.8 -0.7,-1.3 l 0,-17.7 c 0,-0.5 0.3,-1 0.8,-1.3 l 8.8,-5 c 0.5,-0.3 1,-0.3 1.5,0 0.5,0.3 0.7,0.8 0.7,1.3 l 0,17.7 c 0,0.5 -0.3,1 -0.8,1.3 l -8.8,5 c -0.1,0.2 -0.4,0.2 -0.7,0.2 z m 1.6,-18.3 0,14.3 5.8,-3.3 0,-14.3 -5.8,3.3 z"
               id="path3385"
               style="fill:#4d4d4d" />
          </g>
          <g
             id="g3387">
            <polygon
               points="267.9,210.3 279.4,227.8 251.5,211.7 "
               id="polygon3389"
               style="fill:#ffffff" />
            <path
               d="m 279.4,229.3 c -0.3,0 -0.5,-0.1 -0.7,-0.2 l -28,-16.1 c -0.6,-0.3 -0.9,-1 -0.7,-1.6 0.1,-0.6 0.7,-1.1 1.3,-1.2 l 16.4,-1.5 c 0.5,0 1.1,0.2 1.4,0.7 l 11.5,17.6 c 0.4,0.6 0.3,1.3 -0.2,1.9 -0.2,0.3 -0.6,0.4 -1,0.4 z m -23.1,-16.5 18.3,10.6 -7.6,-11.5 -10.7,0.9 z"
               id="path3391"
               style="fill:#4d4d4d" />
          </g>
          <g
             id="g3393">
            <polygon
               points="307.3,211.7 279.4,227.8 267.9,210.3 296.2,194.8 "
               id="polygon3395"
               style="fill:#ffffff" />
            <path
               d="m 279.4,229.3 c -0.5,0 -1,-0.2 -1.3,-0.7 L 266.6,211 c -0.2,-0.4 -0.3,-0.8 -0.2,-1.2 0.1,-0.4 0.4,-0.8 0.7,-1 l 28.4,-15.5 c 0.7,-0.4 1.5,-0.2 2,0.5 l 11.1,17 c 0.2,0.3 0.3,0.8 0.2,1.2 -0.1,0.4 -0.4,0.7 -0.7,1 l -27.9,16.1 c -0.3,0.2 -0.6,0.2 -0.8,0.2 z m -9.4,-18.5 9.9,15 25.3,-14.6 -9.5,-14.5 -25.7,14.1 z"
               id="path3397"
               style="fill:#4d4d4d" />
          </g>
          <g
             id="g3399">
            <polygon
               points="251.5,211.7 267.9,210.2 296.2,194.8 279.4,195.6 "
               id="polygon3401"
               style="fill:#ffffff" />
            <path
               d="m 251.5,213.2 c -0.6,0 -1.2,-0.4 -1.4,-1 -0.2,-0.7 0.1,-1.4 0.7,-1.8 l 27.9,-16.1 c 0.2,-0.1 0.4,-0.2 0.7,-0.2 l 16.8,-0.8 c 0.7,0 1.3,0.4 1.5,1.1 0.2,0.7 -0.1,1.4 -0.7,1.7 l -28.3,15.5 c -0.2,0.1 -0.4,0.2 -0.6,0.2 l -16.5,1.5 c -0.1,-0.1 -0.1,-0.1 -0.1,-0.1 z m 28.3,-16.1 -21.7,12.5 9.4,-0.8 22.3,-12.2 -10,0.5 z"
               id="path3403"
               style="fill:#4d4d4d" />
          </g>
        </g>
        <g
           id="g3405">
          <g
             id="g3407">
            <polygon
               points="279.6,260.1 251.6,276.2 223.7,260.1 251.6,244.2 "
               id="polygon3409"
               style="fill:#b0ddd8" />
            <path
               d="m 251.6,277.7 c -0.3,0 -0.5,-0.1 -0.8,-0.2 l -27.9,-16.1 c -0.5,-0.3 -0.8,-0.8 -0.8,-1.3 0,-0.5 0.3,-1 0.8,-1.3 l 27.9,-15.9 c 0.5,-0.3 1,-0.3 1.5,0 l 27.9,15.9 c 0.5,0.3 0.8,0.8 0.8,1.3 0,0.5 -0.3,1 -0.8,1.3 l -27.9,16.1 c -0.2,0.2 -0.4,0.2 -0.7,0.2 z m -24.9,-17.6 24.9,14.4 24.9,-14.4 -24.9,-14.1 -24.9,14.1 z"
               id="path3411"
               style="fill:#4d4d4d" />
          </g>
          <g
             id="g3413">
            <polygon
               points="279.6,227.8 251.6,244.2 223.7,227.8 251.6,211.7 "
               id="polygon3415"
               style="fill:#b0ddd8" />
            <path
               d="m 251.6,245.7 c -0.3,0 -0.5,-0.1 -0.8,-0.2 l -27.9,-16.4 c -0.5,-0.3 -0.7,-0.8 -0.7,-1.3 0,-0.5 0.3,-1 0.8,-1.3 l 27.9,-16.1 c 0.5,-0.3 1,-0.3 1.5,0 l 27.9,16.1 c 0.5,0.3 0.7,0.8 0.8,1.3 0,0.5 -0.3,1 -0.7,1.3 l -27.9,16.4 c -0.4,0.2 -0.6,0.2 -0.9,0.2 z m -24.9,-17.8 25,14.7 25,-14.7 -25,-14.4 -25,14.4 z"
               id="path3417"
               style="fill:#4d4d4d" />
          </g>
          <g
             id="g3419">
            <polygon
               points="223.7,260.1 223.7,227.8 251.6,211.7 251.6,244.2 "
               id="polygon3421"
               style="fill:#b0ddd8" />
            <path
               d="m 223.7,261.6 c -0.3,0 -0.5,-0.1 -0.8,-0.2 -0.5,-0.3 -0.7,-0.8 -0.7,-1.3 l 0,-32.3 c 0,-0.5 0.3,-1 0.8,-1.3 l 27.9,-16.1 c 0.5,-0.3 1,-0.3 1.5,0 0.5,0.3 0.8,0.8 0.8,1.3 l 0,32.5 c 0,0.5 -0.3,1 -0.8,1.3 l -27.9,15.9 c -0.3,0.1 -0.6,0.2 -0.8,0.2 z m 1.5,-32.9 0,28.8 24.9,-14.2 0,-29.1 -24.9,14.5 z"
               id="path3423"
               style="fill:#4d4d4d" />
          </g>
          <g
             id="g3425">
            <polygon
               points="251.6,276.2 223.7,260.1 223.7,227.8 251.6,244 "
               id="polygon3427"
               style="fill:#b0ddd8" />
            <path
               d="m 251.6,277.7 c -0.3,0 -0.5,-0.1 -0.8,-0.2 l -27.9,-16.1 c -0.5,-0.3 -0.8,-0.8 -0.8,-1.3 l 0,-32.3 c 0,-0.5 0.3,-1 0.7,-1.3 0.5,-0.3 1,-0.3 1.5,0 l 27.9,16.1 c 0.5,0.3 0.8,0.8 0.8,1.3 l 0,32.3 c 0,0.5 -0.3,1 -0.8,1.3 -0.1,0.2 -0.3,0.2 -0.6,0.2 z m -26.4,-18.5 24.9,14.4 0,-28.8 -24.9,-14.4 0,28.8 z"
               id="path3429"
               style="fill:#4d4d4d" />
          </g>
          <g
             id="g3431">
            <polygon
               points="279.6,260.1 279.6,227.8 251.6,211.7 251.6,244.2 "
               id="polygon3433"
               style="fill:#b0ddd8" />
            <path
               d="m 279.6,261.6 c -0.3,0 -0.5,-0.1 -0.7,-0.2 L 251,245.5 c -0.5,-0.3 -0.8,-0.8 -0.8,-1.3 l 0,-32.5 c 0,-0.5 0.3,-1 0.8,-1.3 0.5,-0.3 1,-0.3 1.5,0 l 27.9,16.1 c 0.5,0.3 0.8,0.8 0.8,1.3 l 0,32.3 c 0,0.5 -0.3,1 -0.7,1.3 -0.4,0.1 -0.7,0.2 -0.9,0.2 z m -26.5,-18.2 24.9,14.2 0,-28.8 -24.9,-14.4 0,29 z"
               id="path3435"
               style="fill:#4d4d4d" />
          </g>
          <g
             id="g3437">
            <polygon
               points="279.6,227.8 251.6,211.7 223.7,227.8 251.6,244 "
               id="polygon3439"
               style="fill:#b0ddd8" />
            <path
               d="m 251.6,245.5 c -0.3,0 -0.5,-0.1 -0.8,-0.2 l -27.9,-16.2 c -0.5,-0.3 -0.7,-0.8 -0.7,-1.3 0,-0.5 0.3,-1 0.8,-1.3 l 27.9,-16.1 c 0.5,-0.3 1,-0.3 1.5,0 l 27.9,16.1 c 0.5,0.3 0.7,0.8 0.8,1.3 0,0.5 -0.3,1 -0.7,1.3 l -27.9,16.2 c -0.4,0.2 -0.6,0.2 -0.9,0.2 z m -24.9,-17.7 24.9,14.5 24.9,-14.5 -24.9,-14.4 -24.9,14.4 z"
               id="path3441"
               style="fill:#4d4d4d" />
          </g>
          <g
             id="g3443">
            <polygon
               points="251.6,276.2 251.6,244 279.6,227.8 279.6,260.1 "
               id="polygon3445"
               style="fill:#b0ddd8" />
            <path
               d="m 251.6,277.7 c -0.3,0 -0.5,-0.1 -0.8,-0.2 -0.5,-0.3 -0.8,-0.8 -0.8,-1.3 l 0,-32.3 c 0,-0.5 0.3,-1 0.8,-1.3 l 27.9,-16.1 c 0.5,-0.3 1,-0.3 1.5,0 0.5,0.3 0.7,0.8 0.7,1.3 l 0,32.3 c 0,0.5 -0.3,1 -0.8,1.3 l -27.9,16.1 c -0.1,0.2 -0.3,0.2 -0.6,0.2 z m 1.5,-32.9 0,28.8 24.9,-14.4 0,-28.8 -24.9,14.4 z"
               id="path3447"
               style="fill:#4d4d4d" />
          </g>
          <g
             id="g3449">
            <polygon
               points="263.7,268.7 263.7,250.9 272.5,245.9 272.4,263.6 "
               id="polygon3451"
               style="fill:#b0ddd8" />
            <path
               d="m 263.7,270.2 c -0.3,0 -0.5,-0.1 -0.8,-0.2 -0.5,-0.3 -0.7,-0.8 -0.7,-1.3 l 0,-17.7 c 0,-0.5 0.3,-1 0.8,-1.3 l 8.8,-5 c 0.5,-0.3 1,-0.3 1.5,0 0.5,0.3 0.7,0.8 0.7,1.3 l 0,17.7 c 0,0.5 -0.3,1 -0.8,1.3 l -8.8,5 c -0.2,0.1 -0.5,0.2 -0.7,0.2 z m 1.5,-18.4 0,14.3 5.8,-3.3 0,-14.3 -5.8,3.3 z"
               id="path3453"
               style="fill:#4d4d4d" />
          </g>
          <g
             id="g3455">
            <polygon
               points="240.1,226.4 251.6,244 223.7,227.8 "
               id="polygon3457"
               style="fill:#b0ddd8" />
            <path
               d="m 251.6,245.5 c -0.3,0 -0.5,-0.1 -0.7,-0.2 L 223,229.2 c -0.6,-0.3 -0.9,-1 -0.7,-1.6 0.1,-0.6 0.7,-1.1 1.3,-1.2 l 16.4,-1.5 c 0.5,0 1.1,0.2 1.4,0.7 l 11.5,17.6 c 0.4,0.6 0.3,1.3 -0.2,1.9 -0.3,0.2 -0.7,0.4 -1.1,0.4 z m -23.1,-16.6 18.3,10.6 -7.6,-11.5 -10.7,0.9 z"
               id="path3459"
               style="fill:#4d4d4d" />
          </g>
          <g
             id="g3461">
            <polygon
               points="279.6,227.8 251.6,244 240.1,226.4 268.4,210.9 "
               id="polygon3463"
               style="fill:#b0ddd8" />
            <path
               d="m 251.6,245.5 c -0.5,0 -1,-0.2 -1.3,-0.7 l -11.5,-17.6 c -0.2,-0.4 -0.3,-0.8 -0.2,-1.2 0.1,-0.4 0.4,-0.8 0.7,-1 l 28.4,-15.5 c 0.7,-0.4 1.5,-0.2 2,0.5 l 11.1,17 c 0.2,0.3 0.3,0.8 0.2,1.2 -0.1,0.4 -0.4,0.7 -0.7,1 l -27.9,16.1 c -0.3,0.1 -0.5,0.2 -0.8,0.2 z m -9.4,-18.6 9.9,15 25.3,-14.6 -9.5,-14.5 -25.7,14.1 z"
               id="path3465"
               style="fill:#4d4d4d" />
          </g>
          <g
             id="g3467">
            <polygon
               points="223.7,227.8 240.1,226.4 268.4,210.9 251.6,211.7 "
               id="polygon3469"
               style="fill:#b0ddd8" />
            <path
               d="m 223.7,229.3 c -0.6,0 -1.2,-0.4 -1.4,-1 -0.2,-0.7 0.1,-1.4 0.7,-1.8 l 27.9,-16.1 c 0.2,-0.1 0.4,-0.2 0.7,-0.2 l 16.8,-0.8 c 0.7,-0.1 1.3,0.4 1.5,1.1 0.2,0.7 -0.1,1.4 -0.7,1.7 l -28.3,15.5 c -0.2,0.1 -0.4,0.2 -0.6,0.2 l -16.5,1.5 c 0,-0.1 -0.1,-0.1 -0.1,-0.1 z m 28.4,-16.1 -21.7,12.5 9.4,-0.8 22.3,-12.2 -10,0.5 z"
               id="path3471"
               style="fill:#4d4d4d" />
          </g>
        </g>
        <g
           id="g3473">
          <g
             id="g3475">
            <polygon
               points="251.6,276.2 223.7,292.4 195.7,276.2 223.7,260.4 "
               id="polygon3477"
               style="fill:#ffffff" />
            <path
               d="m 223.7,293.9 c -0.3,0 -0.5,-0.1 -0.8,-0.2 L 195,277.5 c -0.5,-0.3 -0.8,-0.8 -0.8,-1.3 0,-0.5 0.3,-1 0.8,-1.3 L 222.9,259 c 0.5,-0.3 1,-0.3 1.5,0 l 27.9,15.9 c 0.5,0.3 0.8,0.8 0.8,1.3 0,0.5 -0.3,1 -0.8,1.3 l -27.9,16.1 c -0.2,0.2 -0.5,0.3 -0.7,0.3 z m -24.9,-17.7 24.9,14.4 24.9,-14.4 -24.9,-14.1 -24.9,14.1 z"
               id="path3479"
               style="fill:#4d4d4d" />
          </g>
          <g
             id="g3481">
            <polygon
               points="251.6,244 223.7,260.4 195.7,244 223.7,227.8 "
               id="polygon3483"
               style="fill:#ffffff" />
            <path
               d="m 223.7,261.9 c -0.3,0 -0.5,-0.1 -0.8,-0.2 L 195,245.3 c -0.5,-0.3 -0.7,-0.8 -0.7,-1.3 0,-0.5 0.3,-1 0.8,-1.3 L 223,226.6 c 0.5,-0.3 1,-0.3 1.5,0 l 27.9,16.1 c 0.5,0.3 0.7,0.8 0.8,1.3 0,0.5 -0.3,1 -0.7,1.3 l -27.9,16.4 c -0.4,0.1 -0.7,0.2 -0.9,0.2 z m -25,-17.9 25,14.7 25,-14.7 -25,-14.4 -25,14.4 z"
               id="path3485"
               style="fill:#4d4d4d" />
          </g>
          <g
             id="g3487">
            <polygon
               points="195.7,276.2 195.7,244 223.7,227.8 223.7,260.4 "
               id="polygon3489"
               style="fill:#ffffff" />
            <path
               d="m 195.7,277.7 c -0.3,0 -0.5,-0.1 -0.8,-0.2 -0.5,-0.3 -0.7,-0.8 -0.7,-1.3 l 0,-32.3 c 0,-0.5 0.3,-1 0.8,-1.3 l 27.9,-16.1 c 0.5,-0.3 1,-0.3 1.5,0 0.5,0.3 0.8,0.8 0.8,1.3 l 0,32.5 c 0,0.5 -0.3,1 -0.8,1.3 l -27.9,15.9 c -0.2,0.2 -0.5,0.2 -0.8,0.2 z m 1.5,-32.9 0,28.8 24.9,-14.2 0,-29.1 -24.9,14.5 z"
               id="path3491"
               style="fill:#4d4d4d" />
          </g>
          <g
             id="g3493">
            <polygon
               points="223.7,292.4 195.7,276.2 195.7,244 223.7,260.1 "
               id="polygon3495"
               style="fill:#ffffff" />
            <path
               d="m 223.7,293.9 c -0.3,0 -0.5,-0.1 -0.8,-0.2 L 195,277.5 c -0.5,-0.3 -0.8,-0.8 -0.8,-1.3 l 0,-32.3 c 0,-0.5 0.3,-1 0.7,-1.3 0.5,-0.3 1,-0.3 1.5,0 l 27.9,16.1 c 0.5,0.3 0.8,0.8 0.8,1.3 l 0,32.3 c 0,0.5 -0.3,1 -0.8,1.3 -0.1,0.2 -0.4,0.3 -0.6,0.3 z m -26.5,-18.5 24.9,14.4 0,-28.8 -24.9,-14.4 0,28.8 z"
               id="path3497"
               style="fill:#4d4d4d" />
          </g>
          <g
             id="g3499">
            <polygon
               points="251.6,276.2 251.6,244 223.7,227.8 223.7,260.4 "
               id="polygon3501"
               style="fill:#ffffff" />
            <path
               d="m 251.6,277.7 c -0.3,0 -0.5,-0.1 -0.7,-0.2 L 223,261.6 c -0.5,-0.3 -0.8,-0.8 -0.8,-1.3 l 0,-32.5 c 0,-0.5 0.3,-1 0.8,-1.3 0.5,-0.3 1,-0.3 1.5,0 l 27.9,16.1 c 0.5,0.3 0.8,0.8 0.8,1.3 l 0,32.3 c 0,0.5 -0.3,1 -0.7,1.3 -0.4,0.2 -0.6,0.2 -0.9,0.2 z m -26.4,-18.2 24.9,14.2 0,-28.8 -24.9,-14.4 0,29 z"
               id="path3503"
               style="fill:#4d4d4d" />
          </g>
          <g
             id="g3505">
            <polygon
               points="251.6,244 223.7,227.8 195.7,244 223.7,260.2 "
               id="polygon3507"
               style="fill:#ffffff" />
            <path
               d="m 223.7,261.7 c -0.3,0 -0.5,-0.1 -0.8,-0.2 L 195,245.3 c -0.5,-0.3 -0.7,-0.8 -0.7,-1.3 0,-0.5 0.3,-1 0.8,-1.3 L 223,226.6 c 0.5,-0.3 1,-0.3 1.5,0 l 27.9,16.1 c 0.5,0.3 0.7,0.8 0.8,1.3 0,0.5 -0.3,1 -0.7,1.3 l -27.9,16.2 c -0.4,0.1 -0.7,0.2 -0.9,0.2 z m -25,-17.7 24.9,14.5 24.9,-14.5 -24.9,-14.4 -24.9,14.4 z"
               id="path3509"
               style="fill:#4d4d4d" />
          </g>
          <g
             id="g3511">
            <polygon
               points="223.7,292.4 223.7,260.1 251.6,244 251.6,276.2 "
               id="polygon3513"
               style="fill:#ffffff" />
            <path
               d="m 223.7,293.9 c -0.3,0 -0.5,-0.1 -0.8,-0.2 -0.5,-0.3 -0.8,-0.8 -0.8,-1.3 l 0,-32.3 c 0,-0.5 0.3,-1 0.8,-1.3 l 27.9,-16.1 c 0.5,-0.3 1,-0.3 1.5,0 0.5,0.3 0.7,0.8 0.7,1.3 l 0,32.3 c 0,0.5 -0.3,1 -0.8,1.3 l -27.9,16.1 c -0.1,0.1 -0.4,0.2 -0.6,0.2 z m 1.5,-32.9 0,28.8 24.9,-14.4 0,-28.8 -24.9,14.4 z"
               id="path3515"
               style="fill:#4d4d4d" />
          </g>
          <g
             id="g3517">
            <polygon
               points="235.7,284.8 235.8,267.1 244.5,262 244.5,279.8 "
               id="polygon3519"
               style="fill:#ffffff" />
            <path
               d="m 235.7,286.3 c -0.3,0 -0.5,-0.1 -0.8,-0.2 -0.5,-0.3 -0.7,-0.8 -0.7,-1.3 l 0,-17.7 c 0,-0.5 0.3,-1 0.8,-1.3 l 8.8,-5 c 0.5,-0.3 1,-0.3 1.5,0 0.5,0.3 0.7,0.8 0.7,1.3 l 0,17.7 c 0,0.5 -0.3,1 -0.8,1.3 l -8.8,5 c -0.2,0.1 -0.4,0.2 -0.7,0.2 z m 1.6,-18.4 0,14.3 5.8,-3.3 0,-14.3 -5.8,3.3 z"
               id="path3521"
               style="fill:#4d4d4d" />
          </g>
          <g
             id="g3523">
            <polygon
               points="212.1,242.5 223.7,260.1 195.7,244 "
               id="polygon3525"
               style="fill:#ffffff" />
            <path
               d="m 223.7,261.6 c -0.3,0 -0.5,-0.1 -0.7,-0.2 l -28,-16.1 c -0.6,-0.3 -0.9,-1 -0.7,-1.6 0.1,-0.6 0.7,-1.1 1.3,-1.2 L 212,241 c 0.5,0 1.1,0.2 1.4,0.7 l 11.5,17.6 c 0.4,0.6 0.3,1.3 -0.2,1.9 -0.2,0.2 -0.6,0.4 -1,0.4 z m -23.1,-16.6 18.3,10.6 -7.6,-11.5 -10.7,0.9 z"
               id="path3527"
               style="fill:#4d4d4d" />
          </g>
          <g
             id="g3529">
            <polygon
               points="251.6,244 223.7,260.1 212.1,242.5 240.5,227 "
               id="polygon3531"
               style="fill:#ffffff" />
            <path
               d="m 223.7,261.6 c -0.5,0 -1,-0.2 -1.3,-0.7 l -11.5,-17.6 c -0.2,-0.4 -0.3,-0.8 -0.2,-1.2 0.1,-0.4 0.4,-0.8 0.7,-1 l 28.4,-15.5 c 0.7,-0.4 1.5,-0.2 2,0.5 l 11.1,17 c 0.2,0.3 0.3,0.8 0.2,1.2 -0.1,0.4 -0.4,0.7 -0.7,1 l -27.9,16.1 c -0.3,0.1 -0.6,0.2 -0.8,0.2 z m -9.4,-18.5 9.9,15 25.3,-14.6 -9.5,-14.5 -25.7,14.1 z"
               id="path3533"
               style="fill:#4d4d4d" />
          </g>
          <g
             id="g3535">
            <polygon
               points="195.7,244 212.2,242.5 240.5,227 223.7,227.8 "
               id="polygon3537"
               style="fill:#ffffff" />
            <path
               d="m 195.7,245.5 c -0.6,0 -1.2,-0.4 -1.4,-1 -0.2,-0.7 0.1,-1.4 0.7,-1.8 l 27.9,-16.1 c 0.2,-0.1 0.4,-0.2 0.7,-0.2 l 16.8,-0.8 c 0.7,-0.1 1.3,0.4 1.5,1.1 0.2,0.7 -0.1,1.4 -0.7,1.7 l -28.3,15.5 c -0.2,0.1 -0.4,0.2 -0.6,0.2 l -16.5,1.5 c 0,-0.1 0,-0.1 -0.1,-0.1 z m 28.4,-16.2 -21.7,12.5 9.4,-0.8 22.3,-12.2 -10,0.5 z"
               id="path3539"
               style="fill:#4d4d4d" />
          </g>
        </g>
      </g>
      <g
         id="Layer_2-5" />
    </g>
  </g>
  <g
     transform="translate(-16.616949,-25.618644)"
     id="g3299">
    <g
       id="g3241">
      <polygon
         points="93,76.9 120.9,92.7 93,108.9 65,92.7 "
         id="polygon3243"
         style="fill:#ffffff;stroke:#4d4d4d;stroke-width:3;stroke-linejoin:round;stroke-miterlimit:10" />
      <polygon
         points="93,44.4 120.9,60.5 93,76.9 65,60.5 "
         id="polygon3245"
         style="fill:#ffffff;stroke:#4d4d4d;stroke-width:3;stroke-linejoin:round;stroke-miterlimit:10" />
      <polygon
         points="93,76.9 65,92.7 65,60.5 93,44.4 "
         id="polygon3247"
         style="fill:#ffffff;stroke:#4d4d4d;stroke-width:3;stroke-linejoin:round;stroke-miterlimit:10" />
      <polygon
         points="93,76.6 93,108.9 65,92.7 65,60.5 "
         id="polygon3249"
         style="fill:#ffffff;stroke:#4d4d4d;stroke-width:3;stroke-linejoin:round;stroke-miterlimit:10" />
      <polygon
         points="93,76.9 120.9,92.7 120.9,60.5 93,44.4 "
         id="polygon3251"
         style="fill:#ffffff;stroke:#4d4d4d;stroke-width:3;stroke-linejoin:round;stroke-miterlimit:10" />
      <polygon
         points="93,76.7 120.9,60.5 93,44.4 65,60.5 "
         id="polygon3253"
         style="fill:#ffffff;stroke:#4d4d4d;stroke-width:3;stroke-linejoin:round;stroke-miterlimit:10" />
      <polygon
         points="120.9,92.7 93,108.9 93,76.6 120.9,60.5 "
         id="polygon3255"
         style="fill:#ffffff;stroke:#4d4d4d;stroke-width:3;stroke-linejoin:round;stroke-miterlimit:10" />
      <polygon
         points="113.8,96.3 105,101.3 105.1,83.6 113.8,78.5 "
         id="polygon3257"
         style="fill:#ffffff;stroke:#4d4d4d;stroke-width:3;stroke-linejoin:round;stroke-miterlimit:10" />
      <polygon
         points="93,76.6 65,60.5 81.4,59 "
         id="polygon3259"
         style="fill:#ffffff;stroke:#4d4d4d;stroke-width:3;stroke-linejoin:round;stroke-miterlimit:10" />
      <polygon
         points="109.8,43.5 120.9,60.5 93,76.6 81.4,59 "
         id="polygon3261"
         style="fill:#ffffff;stroke:#4d4d4d;stroke-width:3;stroke-linejoin:round;stroke-miterlimit:10" />
      <polygon
         points="93,44.4 65,60.5 81.5,59 109.8,43.5 "
         id="polygon3263"
         style="fill:#ffffff;stroke:#4d4d4d;stroke-width:3;stroke-linejoin:round;stroke-miterlimit:10" />
    </g>
    <g
       id="g3265">
      <polygon
         points="65.2,93 93.1,108.9 65.2,125 37.3,108.9 "
         id="polygon3267"
         style="fill:#b0ddd8;stroke:#4d4d4d;stroke-width:3;stroke-linejoin:round;stroke-miterlimit:10" />
      <polygon
         points="65.2,60.5 93.1,76.6 65.2,93 37.3,76.6 "
         id="polygon3269"
         style="fill:#b0ddd8;stroke:#4d4d4d;stroke-width:3;stroke-linejoin:round;stroke-miterlimit:10" />
      <polygon
         points="65.2,93 37.3,108.9 37.3,76.6 65.2,60.5 "
         id="polygon3271"
         style="fill:#b0ddd8;stroke:#4d4d4d;stroke-width:3;stroke-linejoin:round;stroke-miterlimit:10" />
      <polygon
         points="65.2,92.7 65.2,125 37.3,108.9 37.3,76.6 "
         id="polygon3273"
         style="fill:#b0ddd8;stroke:#4d4d4d;stroke-width:3;stroke-linejoin:round;stroke-miterlimit:10" />
      <polygon
         points="65.2,93 93.1,108.9 93.1,76.6 65.2,60.5 "
         id="polygon3275"
         style="fill:#b0ddd8;stroke:#4d4d4d;stroke-width:3;stroke-linejoin:round;stroke-miterlimit:10" />
      <polygon
         points="65.2,92.8 93.1,76.6 65.2,60.5 37.3,76.6 "
         id="polygon3277"
         style="fill:#b0ddd8;stroke:#4d4d4d;stroke-width:3;stroke-linejoin:round;stroke-miterlimit:10" />
      <polygon
         points="93.1,108.9 65.2,125 65.2,92.7 93.1,76.6 "
         id="polygon3279"
         style="fill:#b0ddd8;stroke:#4d4d4d;stroke-width:3;stroke-linejoin:round;stroke-miterlimit:10" />
      <polygon
         points="86,112.4 77.2,117.4 77.3,99.7 86.1,94.7 "
         id="polygon3281"
         style="fill:#b0ddd8;stroke:#4d4d4d;stroke-width:3;stroke-linejoin:round;stroke-miterlimit:10" />
      <polygon
         points="44.4,105.1 53.1,110.1 53.1,99.7 44.3,94.7 "
         id="polygon3283"
         style="fill:#b0ddd8;stroke:#4d4d4d;stroke-width:3;stroke-linejoin:round;stroke-miterlimit:10" />
      <polygon
         points="65.2,92.7 37.3,76.6 53.6,75.2 "
         id="polygon3285"
         style="fill:#b0ddd8;stroke:#4d4d4d;stroke-width:3;stroke-linejoin:round;stroke-miterlimit:10" />
      <polygon
         points="82,59.7 93.1,76.6 65.2,92.7 53.7,75.2 "
         id="polygon3287"
         style="fill:#b0ddd8;stroke:#4d4d4d;stroke-width:3;stroke-linejoin:round;stroke-miterlimit:10" />
      <polygon
         points="65.2,60.5 37.3,76.6 53.7,75.1 82,59.7 "
         id="polygon3289"
         style="fill:#b0ddd8;stroke:#4d4d4d;stroke-width:3;stroke-linejoin:round;stroke-miterlimit:10" />
    </g>
    <polygon
       points="86,112.4 77.2,117.4 77.3,99.7 86.1,94.7 "
       id="polygon3291"
       style="fill:#b0ddd8;stroke:#4d4d4d;stroke-width:3;stroke-linejoin:round;stroke-miterlimit:10" />
  </g>
</svg>
