<?xml version="1.0" encoding="utf-8"?>
<!-- Generator: Adobe Illustrator 18.1.0, SVG Export Plug-In . SVG Version: 6.00 Build 0)  -->
<!DOCTYPE svg PUBLIC "-//W3C//DTD SVG 1.1//EN" "http://www.w3.org/Graphics/SVG/1.1/DTD/svg11.dtd">
<svg version="1.1" xmlns="http://www.w3.org/2000/svg" xmlns:xlink="http://www.w3.org/1999/xlink" x="0px" y="0px"
	 viewBox="0 0 500 500" enable-background="new 0 0 500 500" xml:space="preserve">
<g id="Layer_1">
	<g>
		<g>
			<path fill="#4D4D4D" d="M37.2,204.2c0,0,0.6,0.3,1.8,0.9c1.2,0.6,2.9,1.5,5,2.7c4.3,2.3,10.5,5.6,17.9,9.7
				c3.7,2,7.7,4.2,11.9,6.6c4.2,2.4,8.6,4.8,13.2,7.4c4.6,2.6,9.3,5.3,14.1,8c4.8,2.7,9.6,5.5,14.5,8.3c4.8,2.8,9.7,5.6,14.5,8.4
				c4.8,2.8,9.4,5.5,14,8.2c9,5.3,17.5,10.4,24.6,14.8c7.2,4.3,13.1,8.1,17.3,10.6c2.1,1.3,3.7,2.3,4.8,3c1.1,0.7,1.7,1.1,1.7,1.1
				s-0.6-0.3-1.8-0.9c-1.2-0.6-2.9-1.5-5-2.7c-4.3-2.3-10.5-5.6-17.9-9.7c-7.4-4-15.9-8.8-25.1-14c-4.6-2.6-9.3-5.2-14.1-8
				c-4.8-2.7-9.6-5.5-14.5-8.3c-4.8-2.8-9.7-5.6-14.5-8.4c-4.8-2.8-9.4-5.5-14-8.2c-4.5-2.7-8.9-5.3-13-7.7c-4.1-2.5-8-4.8-11.6-7
				c-7.2-4.3-13.1-8.1-17.3-10.6c-2.1-1.3-3.7-2.3-4.8-3C37.8,204.6,37.2,204.2,37.2,204.2z"/>
		</g>
	</g>
	<g>
		<g>
			<path fill="#4D4D4D" d="M303.8,344.6c0,0,0.6,0.3,1.8,0.9c1.2,0.6,2.9,1.5,5,2.7c4.3,2.3,10.5,5.6,17.9,9.7
				c3.7,2,7.7,4.2,11.9,6.6c4.2,2.4,8.6,4.8,13.2,7.4c4.6,2.6,9.3,5.3,14.1,8c4.8,2.7,9.6,5.5,14.5,8.3c4.8,2.8,9.7,5.6,14.5,8.4
				c4.8,2.8,9.4,5.5,14,8.2c9,5.3,17.5,10.4,24.6,14.8c7.2,4.3,13.1,8.1,17.3,10.6c2.1,1.3,3.7,2.3,4.8,3c1.1,0.7,1.7,1.1,1.7,1.1
				s-0.6-0.3-1.8-0.9c-1.2-0.6-2.9-1.5-5-2.7c-4.3-2.3-10.5-5.6-17.9-9.7c-7.4-4-15.9-8.8-25.1-14c-4.6-2.6-9.3-5.2-14.1-8
				c-4.8-2.7-9.6-5.5-14.5-8.3c-4.8-2.8-9.7-5.6-14.5-8.4c-4.8-2.8-9.4-5.5-14-8.2c-4.5-2.7-8.9-5.3-13-7.7c-4.1-2.5-8-4.8-11.6-7
				c-7.2-4.3-13.1-8.1-17.3-10.6c-2.1-1.3-3.7-2.3-4.8-3C304.4,344.9,303.8,344.6,303.8,344.6z"/>
		</g>
	</g>
	<g>
		<g>
			<path fill="#4D4D4D" d="M144,384.1c8.1-4.8,16.1-9.7,24.2-14.5l24.3-14.4l48.7-28.6c8.1-4.8,16.2-9.5,24.4-14.2l24.4-14.2
				l48.8-28.3l0,2.6L290,244.2L265.6,230c-8.1-4.7-16.3-9.5-24.4-14.2l-48.7-28.6l-24.3-14.4c-8.1-4.8-16.2-9.6-24.2-14.5
				c8.2,4.6,16.4,9.1,24.6,13.8l24.6,13.8l49.1,27.9c8.2,4.6,16.4,9.3,24.5,14l24.5,14.1l49,28.1c0.7,0.4,1,1.3,0.6,2
				c-0.1,0.2-0.3,0.4-0.6,0.6l-49,28.1l-24.5,14.1c-8.2,4.7-16.3,9.3-24.5,14l-49.1,27.9l-24.6,13.8
				C160.5,375,152.2,379.5,144,384.1z"/>
		</g>
	</g>
	<g>
		<g>
			<path fill="#4D4D4D" d="M203,384.9l24.3-14.4l24.3-14.4l48.7-28.6l24.4-14.3L349,299l48.8-28.3l0,2.5
				c-9.4-5.4-18.8-10.7-28.2-16.2l-28.1-16.2l-56.3-32.5l-56.1-32.7l-28-16.5c-9.3-5.5-18.7-11-28-16.5c9.5,5.2,18.9,10.5,28.4,15.8
				l28.3,15.9l56.6,32l56.4,32.2l28.2,16.1c9.4,5.4,18.8,10.8,28.2,16.2l0,0c0.7,0.4,0.9,1.3,0.5,2c-0.1,0.2-0.3,0.4-0.5,0.5
				l-48.9,28.1l-24.5,14.1l-24.5,14l-49.1,27.9l-24.6,13.8L203,384.9z"/>
		</g>
	</g>
	<g>
		<g>
			<polygon fill="#FFFFFF" points="315.5,153.9 315.9,218.6 259.9,186.2 260.1,121.8 			"/>
		</g>
		<g>
			<path fill="#4D4D4D" d="M315.9,220.1c-0.3,0-0.5-0.1-0.8-0.2l-56-32.3c-0.5-0.3-0.8-0.8-0.8-1.3l0.1-64.4c0-0.5,0.3-1,0.8-1.3
				c0.5-0.3,1-0.3,1.5,0l55.4,32.1c0.5,0.3,0.7,0.8,0.7,1.3l0.4,64.6c0,0.5-0.3,1-0.7,1.3C316.5,220,316.2,220.1,315.9,220.1z
				 M261.4,185.4l53,30.6l-0.4-61.2l-52.4-30.4L261.4,185.4z"/>
		</g>
	</g>
	<g>
		<g>
			<polygon fill="#FFFFFF" points="162.4,275.9 287.9,202 287.5,137.5 161.9,211.3 			"/>
		</g>
		<g>
			<path fill="#4D4D4D" d="M162.4,277.4c-0.3,0-0.5-0.1-0.7-0.2c-0.5-0.3-0.8-0.8-0.8-1.3l-0.4-64.6c0-0.5,0.3-1,0.7-1.3l125.5-73.8
				c0.5-0.3,1-0.3,1.5,0s0.8,0.8,0.8,1.3l0.5,64.5c0,0.5-0.3,1-0.7,1.3l-125.5,73.9C162.9,277.3,162.6,277.4,162.4,277.4z
				 M163.4,212.1l0.4,61.2l122.6-72.2l-0.4-61L163.4,212.1z"/>
		</g>
	</g>
	<g>
		<g>
			<polygon fill="#FFFFFF" points="189.9,227.8 190.4,292.5 161.9,275.3 162.1,211 			"/>
		</g>
		<g>
			<path fill="#4D4D4D" d="M190.4,294c-0.3,0-0.5-0.1-0.8-0.2l-28.5-17.2c-0.5-0.3-0.7-0.8-0.7-1.3l0.1-64.3c0-0.5,0.3-1,0.8-1.3
				c0.5-0.3,1-0.3,1.5,0l27.9,16.8c0.4,0.3,0.7,0.8,0.7,1.3l0.5,64.6c0,0.5-0.3,1-0.8,1.3C190.9,293.9,190.7,294,190.4,294z
				 M163.4,274.5l25.4,15.3l-0.4-61.1l-24.9-15L163.4,274.5z"/>
		</g>
	</g>
	<g>
		<g>
			<polygon fill="#FFFFFF" points="315.5,153.9 305.2,121.8 176,184.2 189.9,227.9 			"/>
		</g>
		<g>
			<path fill="#4D4D4D" d="M189.9,229.4c-0.2,0-0.4,0-0.5-0.1c-0.4-0.2-0.8-0.5-0.9-0.9l-13.9-43.7c-0.2-0.7,0.1-1.5,0.8-1.8
				l129.2-62.4c0.4-0.2,0.8-0.2,1.2,0c0.4,0.2,0.7,0.5,0.8,0.9l10.3,32.1c0.2,0.7-0.1,1.4-0.7,1.8l-125.5,74
				C190.5,229.3,190.2,229.4,189.9,229.4z M177.8,185l13,40.6l122.9-72.4l-9.4-29.3L177.8,185z"/>
		</g>
	</g>
	<g>
		<g>
			<polygon fill="#FFFFFF" points="190.4,292.5 315.9,218.6 315.5,153.9 189.9,227.8 			"/>
		</g>
		<g>
			<path fill="#4D4D4D" d="M190.4,294c-0.3,0-0.5-0.1-0.7-0.2c-0.5-0.3-0.8-0.8-0.8-1.3l-0.5-64.6c0-0.5,0.3-1,0.7-1.3l125.5-73.9
				c0.5-0.3,1-0.3,1.5,0c0.5,0.3,0.8,0.8,0.8,1.3l0.4,64.6c0,0.5-0.3,1-0.7,1.3l-125.5,73.9C190.9,293.9,190.7,294,190.4,294z
				 M191.5,228.7l0.4,61.2l122.6-72.2l-0.4-61.2L191.5,228.7z"/>
		</g>
	</g>
	<g>
		<g>
			<path fill="none" stroke="#4D4D4D" stroke-width="3" stroke-linejoin="round" stroke-miterlimit="10" d="M273.8,211"/>
		</g>
	</g>
	<g>
		<g>
			<polygon fill="#FFFFFF" points="162.1,211 176,184.2 189.9,227.8 			"/>
		</g>
		<g>
			<path fill="#4D4D4D" d="M189.9,229.3c-0.3,0-0.5-0.1-0.8-0.2l-27.9-16.8c-0.7-0.4-0.9-1.3-0.6-2l13.9-26.8
				c0.3-0.5,0.9-0.8,1.5-0.8c0.6,0.1,1.1,0.5,1.3,1l13.9,43.6c0.2,0.6,0,1.2-0.5,1.6C190.6,229.2,190.3,229.3,189.9,229.3z
				 M164.1,210.5l23.3,14l-11.6-36.4L164.1,210.5z"/>
		</g>
	</g>
	<g>
		<g>
			<path fill="#4D4D4D" d="M307.5,185.5c0,0,0.6,0.3,1.8,0.9c1.2,0.6,2.9,1.5,5,2.7c4.3,2.3,10.5,5.6,17.9,9.7
				c3.7,2,7.7,4.2,11.9,6.6c4.2,2.4,8.6,4.8,13.2,7.4c4.6,2.6,9.3,5.3,14.1,8c4.8,2.7,9.6,5.5,14.5,8.3c4.8,2.8,9.7,5.6,14.5,8.4
				c4.8,2.8,9.4,5.5,14,8.2c9,5.3,17.5,10.4,24.6,14.8c7.2,4.3,13.1,8.1,17.3,10.6c2.1,1.3,3.7,2.3,4.8,3c1.1,0.7,1.7,1.1,1.7,1.1
				s-0.6-0.3-1.8-0.9c-1.2-0.6-2.9-1.5-5-2.7c-4.3-2.3-10.5-5.6-17.9-9.7c-7.4-4-15.9-8.8-25.1-14c-4.6-2.6-9.3-5.2-14.1-8
				c-4.8-2.7-9.6-5.5-14.5-8.3c-4.8-2.8-9.7-5.6-14.5-8.4c-4.8-2.8-9.4-5.5-14-8.2c-4.5-2.7-8.9-5.3-13-7.7c-4.1-2.5-8-4.8-11.6-7
				c-7.2-4.3-13.1-8.1-17.3-10.6c-2.1-1.3-3.7-2.3-4.8-3C308.1,185.8,307.5,185.5,307.5,185.5z"/>
		</g>
	</g>
	<g>
		<g>
			<polygon fill="#FFFFFF" points="339.6,239.3 311.6,190.6 283.7,206.7 311.6,255.5 			"/>
		</g>
		<g>
			<path fill="#4D4D4D" d="M311.6,257c-0.1,0-0.3,0-0.4-0.1c-0.4-0.1-0.7-0.4-0.9-0.7l-27.9-48.8c-0.4-0.7-0.2-1.6,0.6-2l27.9-16.1
				c0.3-0.2,0.8-0.3,1.1-0.1c0.4,0.1,0.7,0.4,0.9,0.7l27.9,48.8c0.4,0.7,0.2,1.6-0.6,2l-27.9,16.1C312.1,256.9,311.9,257,311.6,257z
				 M285.7,207.2l26.4,46.2l25.3-14.6l-26.5-46.2L285.7,207.2z"/>
		</g>
	</g>
	<g>
		<g>
			<polygon fill="#FFFFFF" points="283.7,206.7 283.7,271.2 311.6,287.3 311.6,255.1 			"/>
		</g>
		<g>
			<path fill="#4D4D4D" d="M311.6,288.8c-0.3,0-0.5-0.1-0.8-0.2l-27.9-16.1c-0.5-0.3-0.8-0.8-0.8-1.3l0-64.5c0-0.7,0.5-1.3,1.1-1.4
				c0.7-0.2,1.3,0.1,1.7,0.7l27.9,48.4c0.1,0.2,0.2,0.5,0.2,0.8l0,32.3c0,0.5-0.3,1-0.8,1.3C312.1,288.8,311.9,288.8,311.6,288.8z
				 M285.2,270.3l24.9,14.4l0-29.3l-24.9-43.2L285.2,270.3z"/>
		</g>
	</g>
	<g>
		<g>
			<polygon fill="#FFFFFF" points="311.6,93.8 311.6,287.3 283.7,271.2 283.7,77.7 			"/>
		</g>
		<g>
			<path fill="#4D4D4D" d="M311.6,288.8c-0.3,0-0.5-0.1-0.8-0.2l-27.9-16.1c-0.5-0.3-0.8-0.8-0.8-1.3V77.7c0-0.5,0.3-1,0.8-1.3
				c0.5-0.3,1-0.3,1.5,0l27.9,16.1c0.5,0.3,0.8,0.8,0.8,1.3v193.5c0,0.5-0.3,1-0.8,1.3C312.1,288.8,311.9,288.8,311.6,288.8z
				 M285.2,270.3l24.9,14.4V94.7l-24.9-14.4V270.3z"/>
		</g>
	</g>
	<g>
		<g>
			<polygon fill="#FFFFFF" points="255.8,93.8 283.7,77.7 311.6,93.8 283.7,109.9 			"/>
		</g>
		<g>
			<path fill="#4D4D4D" d="M283.7,111.4c-0.3,0-0.5-0.1-0.8-0.2L255,95.1c-0.5-0.3-0.8-0.8-0.8-1.3c0-0.5,0.3-1,0.8-1.3l27.9-16.1
				c0.5-0.3,1-0.3,1.5,0l27.9,16.1c0.5,0.3,0.8,0.8,0.8,1.3c0,0.5-0.3,1-0.8,1.3l-27.9,16.1C284.2,111.4,283.9,111.4,283.7,111.4z
				 M258.8,93.8l24.9,14.4l24.9-14.4l-24.9-14.4L258.8,93.8z"/>
		</g>
	</g>
	<g>
		<g>
			<polygon fill="#FFFFFF" points="255.8,287.3 283.7,271.2 311.6,287.3 283.7,303.5 			"/>
		</g>
		<g>
			<path fill="#4D4D4D" d="M283.7,305c-0.3,0-0.5-0.1-0.8-0.2L255,288.6c-0.5-0.3-0.8-0.8-0.8-1.3s0.3-1,0.8-1.3l27.9-16.1
				c0.5-0.3,1-0.3,1.5,0l27.9,16.1c0.5,0.3,0.8,0.8,0.8,1.3s-0.3,1-0.8,1.3l-27.9,16.1C284.2,304.9,283.9,305,283.7,305z
				 M258.8,287.3l24.9,14.4l24.9-14.4l-24.9-14.4L258.8,287.3z"/>
		</g>
	</g>
	<g>
		<g>
			<polygon fill="#FFFFFF" points="283.7,109.9 283.7,303.5 255.8,287.3 255.8,93.8 			"/>
		</g>
		<g>
			<path fill="#4D4D4D" d="M283.7,305c-0.3,0-0.5-0.1-0.8-0.2L255,288.6c-0.5-0.3-0.8-0.8-0.8-1.3V93.8c0-0.5,0.3-1,0.8-1.3
				c0.5-0.3,1-0.3,1.5,0l27.9,16.1c0.5,0.3,0.8,0.8,0.8,1.3v193.5c0,0.5-0.3,1-0.8,1.3C284.2,304.9,283.9,305,283.7,305z
				 M257.3,286.5l24.9,14.4V110.8l-24.9-14.4V286.5z"/>
		</g>
	</g>
	<g>
		<g>
			<polygon fill="#FFFFFF" points="283.7,109.9 283.7,303.5 311.6,287.3 311.6,93.8 			"/>
		</g>
		<g>
			<path fill="#4D4D4D" d="M283.7,305c-0.3,0-0.5-0.1-0.8-0.2c-0.5-0.3-0.8-0.8-0.8-1.3V109.9c0-0.5,0.3-1,0.8-1.3l27.9-16.1
				c0.5-0.3,1-0.3,1.5,0c0.5,0.3,0.8,0.8,0.8,1.3v193.5c0,0.5-0.3,1-0.8,1.3l-27.9,16.1C284.2,304.9,283.9,305,283.7,305z
				 M285.2,110.8v190.1l24.9-14.4V96.4L285.2,110.8z"/>
		</g>
	</g>
	<g>
		<g>
			<polygon fill="#FFFFFF" points="264.7,66.3 264.7,98.6 255.9,93.4 264.6,61.1 			"/>
		</g>
		<g>
			<path fill="#4D4D4D" d="M264.7,100.1c-0.3,0-0.5-0.1-0.8-0.2l-8.8-5.2c-0.6-0.3-0.9-1-0.7-1.7l8.6-32.3c0.2-0.7,0.9-1.2,1.6-1.1
				c0.7,0.1,1.3,0.7,1.3,1.4l0.2,5.2l0,32.3c0,0.5-0.3,1-0.8,1.3C265.2,100,265,100.1,264.7,100.1z M257.7,92.7l5.5,3.3V72
				L257.7,92.7z"/>
		</g>
	</g>
	<g>
		<g>
			<polygon fill="#FFFFFF" points="264.7,66.3 264.7,98.6 273.5,93.4 264.6,61.1 			"/>
		</g>
		<g>
			<path fill="#4D4D4D" d="M264.7,100.1c-0.3,0-0.5-0.1-0.7-0.2c-0.5-0.3-0.8-0.8-0.8-1.3V66.3l-0.2-5.1c0-0.8,0.5-1.4,1.3-1.5
				c0.7-0.1,1.5,0.4,1.7,1.1l8.9,32.3c0.2,0.7-0.1,1.3-0.7,1.7l-8.8,5.2C265.2,100,265,100.1,264.7,100.1z M266.2,72.7l0,23.2
				l5.5-3.3L266.2,72.7z"/>
		</g>
	</g>
	<g>
		<g>
			<polygon fill="#FFFFFF" points="302.9,66.3 302.9,98.6 294.1,93.4 302.7,61.1 			"/>
		</g>
		<g>
			<path fill="#4D4D4D" d="M302.9,100.1c-0.3,0-0.5-0.1-0.8-0.2l-8.8-5.2c-0.6-0.3-0.9-1-0.7-1.7l8.6-32.3c0.2-0.7,0.9-1.2,1.6-1.1
				c0.7,0.1,1.3,0.7,1.3,1.4l0.2,5.2l0,32.3c0,0.5-0.3,1-0.8,1.3C303.4,100,303.1,100.1,302.9,100.1z M295.8,92.7l5.5,3.3V72
				L295.8,92.7z"/>
		</g>
	</g>
	<g>
		<g>
			<polygon fill="#FFFFFF" points="302.9,66.3 302.9,98.6 311.6,93.4 302.7,61.1 			"/>
		</g>
		<g>
			<path fill="#4D4D4D" d="M302.9,100.1c-0.3,0-0.5-0.1-0.7-0.2c-0.5-0.3-0.8-0.8-0.8-1.3V66.3l-0.2-5.1c0-0.8,0.5-1.4,1.3-1.5
				c0.7-0.1,1.5,0.4,1.7,1.1l8.9,32.3c0.2,0.7-0.1,1.3-0.7,1.7l-8.8,5.2C303.4,100,303.1,100.1,302.9,100.1z M304.4,72.7l0,23.2
				l5.5-3.3L304.4,72.7z"/>
		</g>
	</g>
	<g>
		<g>
			<polygon fill="#FFFFFF" points="283.7,55.6 283.7,87.9 274.9,82.7 283.6,50.4 			"/>
		</g>
		<g>
			<path fill="#4D4D4D" d="M283.7,89.4c-0.3,0-0.5-0.1-0.8-0.2l-8.8-5.2c-0.6-0.3-0.9-1-0.7-1.7l8.6-32.3c0.2-0.7,0.9-1.2,1.6-1.1
				c0.7,0.1,1.3,0.7,1.3,1.4l0.2,5.2l0,32.3c0,0.5-0.3,1-0.8,1.3C284.2,89.3,284,89.4,283.7,89.4z M276.7,82l5.5,3.3v-24L276.7,82z"
				/>
		</g>
	</g>
	<g>
		<g>
			<polygon fill="#FFFFFF" points="283.7,55.6 283.7,87.9 292.5,82.7 283.6,50.4 			"/>
		</g>
		<g>
			<path fill="#4D4D4D" d="M283.7,89.4c-0.3,0-0.5-0.1-0.7-0.2c-0.5-0.3-0.8-0.8-0.8-1.3V55.6l-0.2-5.1c0-0.8,0.5-1.4,1.3-1.5
				c0.7-0.1,1.5,0.4,1.7,1.1l8.9,32.3c0.2,0.7-0.1,1.3-0.7,1.7l-8.8,5.2C284.2,89.3,284,89.4,283.7,89.4z M285.2,62l0,23.2l5.5-3.3
				L285.2,62z"/>
		</g>
	</g>
	<g>
		<g>
			<path fill="#4D4D4D" d="M283.5,193.7c-0.3,0-0.5-0.1-0.8-0.2l-27.8-16l1.5-2.6l27,15.6l27.3-15.6l1.5,2.6l-28.1,16
				C284,193.7,283.8,193.7,283.5,193.7z"/>
		</g>
	</g>
	<g>
		<g>
			<path fill="#4D4D4D" d="M283.5,147.6c-0.3,0-0.5-0.1-0.8-0.2l-27.8-16l1.5-2.6l27,15.6l27.3-15.6l1.5,2.6l-28.1,16
				C284,147.6,283.8,147.6,283.5,147.6z"/>
		</g>
	</g>
	<g>
		<g>
			<path fill="#4D4D4D" d="M283.5,116.1c-0.3,0-0.5-0.1-0.8-0.2l-27.8-16l1.5-2.6l27,15.6l27.3-15.6l1.5,2.6l-28.1,16
				C284,116.1,283.8,116.1,283.5,116.1z"/>
		</g>
	</g>
	<g>
		<g>
			<g>
				<path fill="#4D4D4D" d="M292,178.7c-0.3,0-0.5-0.1-0.8-0.2c-0.5-0.3-0.7-0.8-0.7-1.3l0-18.2c0-2.2,1.3-4.7,3.1-5.7
					c1.4-0.8,3-0.5,3.9,0.7c0.4,0.6,0.7,1.4,0.7,2.4l0,18.2c0,0.5-0.3,1-0.8,1.3l-4.6,2.7C292.6,178.6,292.3,178.7,292,178.7z
					 M295.1,155.9C295.1,155.9,295.1,155.9,295.1,155.9c-0.7,0.4-1.6,1.8-1.6,3.1l0,15.6l1.6-0.9l0-17.4
					C295.2,156.1,295.1,156,295.1,155.9z"/>
			</g>
		</g>
		<g>
			<g>
				<path fill="#4D4D4D" d="M300.5,173.8c-0.3,0-0.5-0.1-0.8-0.2c-0.5-0.3-0.7-0.8-0.7-1.3l0-18.2c0-2.2,1.3-4.7,3.1-5.7
					c1.4-0.8,3-0.5,3.9,0.7c0.4,0.6,0.7,1.4,0.7,2.4l0,18.2c0,0.5-0.3,1-0.8,1.3l-4.6,2.7C301.1,173.7,300.8,173.8,300.5,173.8z
					 M303.6,151C303.6,151,303.6,151,303.6,151c-0.7,0.4-1.6,1.8-1.6,3.1l0,15.6l1.6-0.9l0-17.4C303.7,151.2,303.6,151.1,303.6,151z
					"/>
			</g>
		</g>
	</g>
	<g>
		<g>
			<g>
				<path fill="#4D4D4D" d="M275.5,178.7c-0.3,0-0.5-0.1-0.7-0.2l-4.6-2.7c-0.5-0.3-0.8-0.8-0.8-1.3l0-18.2c0-0.9,0.2-1.7,0.7-2.4
					c0.9-1.2,2.5-1.5,3.9-0.7c1.7,1,3.1,3.5,3.1,5.7l0,18.2c0,0.5-0.3,1-0.7,1.3C276,178.6,275.8,178.7,275.5,178.7z M272.4,173.7
					l1.6,0.9l0-15.6c0-1.3-0.8-2.7-1.6-3.1c0,0,0,0,0,0c0,0.1,0,0.2,0,0.4L272.4,173.7z"/>
			</g>
		</g>
		<g>
			<g>
				<path fill="#4D4D4D" d="M267,173.8c-0.3,0-0.5-0.1-0.7-0.2l-4.6-2.7c-0.5-0.3-0.8-0.8-0.8-1.3l0-18.2c0-0.9,0.2-1.7,0.7-2.4
					c0.9-1.2,2.5-1.5,3.9-0.7c1.7,1,3.1,3.5,3.1,5.7l0,18.2c0,0.5-0.3,1-0.7,1.3C267.5,173.7,267.3,173.8,267,173.8z M263.9,168.8
					l1.6,0.9l0-15.6c0-1.3-0.8-2.7-1.6-3.1c0,0,0,0,0,0c0,0.1,0,0.2,0,0.4L263.9,168.8z"/>
			</g>
		</g>
	</g>
	<g>
		<g>
			<g>
				<path fill="#4D4D4D" d="M292,223.3c-0.3,0-0.5-0.1-0.8-0.2c-0.5-0.3-0.7-0.8-0.7-1.3l0-18.2c0-2.2,1.3-4.7,3.1-5.7
					c1.4-0.8,3-0.5,3.9,0.7c0.4,0.6,0.7,1.4,0.7,2.3l0,18.2c0,0.5-0.3,1-0.8,1.3l-4.6,2.7C292.6,223.3,292.3,223.3,292,223.3z
					 M295.1,200.5C295.1,200.5,295.1,200.5,295.1,200.5c-0.7,0.4-1.6,1.8-1.6,3.1l0,15.6l1.6-0.9l0-17.4
					C295.2,200.7,295.1,200.6,295.1,200.5z"/>
			</g>
		</g>
		<g>
			<g>
				<path fill="#4D4D4D" d="M300.5,218.4c-0.3,0-0.5-0.1-0.8-0.2c-0.5-0.3-0.7-0.8-0.7-1.3l0-18.2c0-2.2,1.3-4.7,3.1-5.7
					c1.4-0.8,3-0.5,3.9,0.7c0.4,0.6,0.7,1.4,0.7,2.4l0,18.2c0,0.5-0.3,1-0.8,1.3l-4.6,2.7C301.1,218.4,300.8,218.4,300.5,218.4z
					 M303.6,195.6C303.6,195.6,303.6,195.6,303.6,195.6c-0.7,0.4-1.6,1.8-1.6,3.1l0,15.6l1.6-0.9l0-17.4
					C303.7,195.8,303.6,195.7,303.6,195.6z"/>
			</g>
		</g>
	</g>
	<g>
		<g>
			<g>
				<path fill="#4D4D4D" d="M202.2,249.6c-0.3,0-0.5-0.1-0.8-0.2c-0.5-0.3-0.7-0.8-0.7-1.3l0-18.2c0-2.2,1.3-4.7,3.1-5.7
					c1.4-0.8,3-0.5,3.9,0.7c0.4,0.6,0.7,1.4,0.7,2.3l0,18.2c0,0.5-0.3,1-0.8,1.3l-4.6,2.7C202.7,249.6,202.5,249.6,202.2,249.6z
					 M205.3,226.8C205.3,226.8,205.3,226.8,205.3,226.8c-0.7,0.4-1.6,1.8-1.6,3.1l0,15.6l1.6-0.9l0-17.4
					C205.3,227,205.3,226.9,205.3,226.8z"/>
			</g>
		</g>
		<g>
			<g>
				<path fill="#4D4D4D" d="M219.7,239.8c-0.3,0-0.5-0.1-0.8-0.2c-0.5-0.3-0.7-0.8-0.7-1.3l0-18.2c0-2.2,1.3-4.7,3.1-5.7
					c1.4-0.8,3-0.5,3.9,0.7c0.4,0.6,0.7,1.4,0.7,2.3l0,18.2c0,0.5-0.3,1-0.8,1.3l-4.6,2.7C220.2,239.8,219.9,239.8,219.7,239.8z
					 M222.8,217C222.8,217,222.8,217,222.8,217c-0.7,0.4-1.6,1.8-1.6,3.1l0,15.6l1.6-0.9l0-17.4C222.8,217.2,222.8,217.1,222.8,217z
					"/>
			</g>
		</g>
		<g>
			<g>
				<path fill="#4D4D4D" d="M237.2,228.4c-0.3,0-0.5-0.1-0.8-0.2c-0.5-0.3-0.7-0.8-0.7-1.3l0-18.2c0-2.2,1.3-4.7,3.1-5.7
					c1.4-0.8,3-0.5,3.9,0.7c0.4,0.6,0.7,1.4,0.7,2.3l0,18.2c0,0.5-0.3,1-0.8,1.3l-4.6,2.7C237.7,228.3,237.4,228.4,237.2,228.4z
					 M240.2,205.5C240.2,205.5,240.2,205.5,240.2,205.5c-0.7,0.4-1.6,1.8-1.6,3.1l0,15.6l1.6-0.9l0-17.4
					C240.3,205.8,240.3,205.6,240.2,205.5z"/>
			</g>
		</g>
	</g>
	<g>
		<g>
			<g>
				<path fill="#4D4D4D" d="M275.5,223.3c-0.3,0-0.5-0.1-0.7-0.2l-4.6-2.7c-0.5-0.3-0.8-0.8-0.8-1.3l0-18.2c0-0.9,0.2-1.7,0.7-2.3
					c0.9-1.2,2.5-1.5,3.9-0.7c1.7,1,3.1,3.5,3.1,5.7l0,18.2c0,0.5-0.3,1-0.7,1.3C276,223.3,275.8,223.3,275.5,223.3z M272.4,218.3
					l1.6,0.9l0-15.6c0-1.3-0.8-2.7-1.6-3.1c0,0,0,0,0,0c0,0.1,0,0.2,0,0.4L272.4,218.3z"/>
			</g>
		</g>
		<g>
			<g>
				<path fill="#4D4D4D" d="M267,218.4c-0.3,0-0.5-0.1-0.7-0.2l-4.6-2.7c-0.5-0.3-0.8-0.8-0.8-1.3l0-18.2c0-0.9,0.2-1.7,0.7-2.4
					c0.9-1.2,2.5-1.5,3.9-0.7c1.7,1,3.1,3.5,3.1,5.7l0,18.2c0,0.5-0.3,1-0.7,1.3C267.5,218.4,267.3,218.4,267,218.4z M263.9,213.4
					l1.6,0.9l0-15.6c0-1.3-0.8-2.7-1.6-3.1c0,0,0,0,0,0c0,0.1,0,0.2,0,0.4L263.9,213.4z"/>
			</g>
		</g>
	</g>
	<g>
		<g>
			<path fill="#4D4D4D" d="M295.3,135.6c-0.3,0-0.5-0.1-0.8-0.2c-0.5-0.3-0.7-0.8-0.7-1.3l0-18.2c0-2.2,1.3-4.7,3.1-5.7
				c1.3-0.7,2.7-0.6,3.6,0.3c0.6,0.6,1,1.6,1,2.7l0,18.2c0,0.5-0.3,1-0.8,1.3l-4.6,2.7C295.9,135.5,295.6,135.6,295.3,135.6z
				 M298.4,112.8C298.4,112.8,298.4,112.8,298.4,112.8c-0.7,0.4-1.6,1.8-1.6,3.1l0,15.6l1.6-0.9l0-17.4
				C298.5,113,298.4,112.9,298.4,112.8z"/>
		</g>
	</g>
	<g>
		<g>
			<path fill="#4D4D4D" d="M272.2,135.6c-0.3,0-0.5-0.1-0.7-0.2l-4.6-2.7c-0.5-0.3-0.8-0.8-0.8-1.3l0-18.2c0-0.9,0.2-1.7,0.7-2.3
				c0.9-1.2,2.5-1.5,3.9-0.7c1.7,1,3.1,3.5,3.1,5.7l0,18.2c0,0.5-0.3,1-0.7,1.3C272.8,135.5,272.5,135.6,272.2,135.6z M269.1,130.6
				l1.6,0.9l0-15.6c0-1.3-0.8-2.7-1.6-3.1c0,0,0,0,0,0c0,0.1,0,0.2,0,0.4L269.1,130.6z"/>
		</g>
	</g>
	<g>
		<g>
			<path fill="#FFFFFF" d="M306.4,246v8.6l-17.6,10.1v-8.6c0-6.5,6.5-15.7,8.8-16.8C298.9,238.8,306.4,239.5,306.4,246z"/>
		</g>
		<g>
			<path fill="#4D4D4D" d="M288.9,266.2c-0.3,0-0.5-0.1-0.8-0.2c-0.5-0.3-0.8-0.8-0.8-1.3v-8.6c0-6.8,6.6-16.8,9.7-18.2
				c0.4-0.2,1-0.3,1.7-0.3c3.7,0,9.2,2.2,9.2,8.3v8.6c0,0.5-0.3,1-0.8,1.3L289.6,266C289.4,266.2,289.1,266.2,288.9,266.2z
				 M298.8,240.7c-0.3,0-0.5,0-0.6,0c-1.7,0.8-7.9,9.5-7.9,15.4v6l14.6-8.4V246C304.9,240.8,298.8,240.7,298.8,240.7z"/>
		</g>
	</g>
	<g>
		<g>
			<path fill="#FFFFFF" d="M307.5,281.1v8.6l-17.6,10.1v-8.6c0-6.5,6.5-15.7,8.8-16.8C300,273.9,307.5,274.6,307.5,281.1z"/>
		</g>
		<g>
			<path fill="#4D4D4D" d="M289.9,301.3c-0.3,0-0.5-0.1-0.8-0.2c-0.5-0.3-0.8-0.8-0.8-1.3v-8.6c0-6.8,6.6-16.8,9.7-18.2
				c0.4-0.2,1-0.3,1.7-0.3c3.7,0,9.2,2.2,9.2,8.3v8.6c0,0.5-0.3,1-0.8,1.3l-17.6,10.1C290.4,301.2,290.2,301.3,289.9,301.3z
				 M299.8,275.8c-0.3,0-0.5,0-0.6,0c-1.7,0.8-7.9,9.5-7.9,15.4v6l14.6-8.4v-7.7C306,275.8,299.9,275.8,299.8,275.8z"/>
		</g>
	</g>
	<g>
		<g>
			<path fill="#4D4D4D" d="M283.5,239.8c-0.3,0-0.5-0.1-0.8-0.2l-27.8-16c-0.5-0.3-0.8-0.8-0.8-1.3c0-0.3,0.1-0.5,0.2-0.7
				c0.4-0.7,1.3-1,2-0.5l27,15.6l27.3-15.6l1.5,2.6l-28.1,16C284,239.8,283.8,239.8,283.5,239.8z"/>
		</g>
	</g>
	<g>
		<g>
			<path fill="#4D4D4D" d="M283.5,274.7c-0.3,0-0.5-0.1-0.8-0.2l-27.8-16c-0.5-0.3-0.8-0.8-0.8-1.3c0-0.3,0.1-0.5,0.2-0.7
				c0.4-0.7,1.3-1,2-0.5l27,15.6l27.3-15.6l1.5,2.6l-28.1,16C284,274.6,283.8,274.7,283.5,274.7z"/>
		</g>
	</g>
	<g>
		<g>
			<polygon fill="#FFFFFF" points="283.7,271.6 255.8,222.8 227.8,239 255.8,287.7 			"/>
		</g>
		<g>
			<path fill="#4D4D4D" d="M255.8,289.2c-0.1,0-0.3,0-0.4-0.1c-0.4-0.1-0.7-0.4-0.9-0.7l-27.9-48.8c-0.4-0.7-0.2-1.6,0.6-2
				l27.9-16.1c0.3-0.2,0.8-0.3,1.1-0.1c0.4,0.1,0.7,0.4,0.9,0.7l27.9,48.8c0.4,0.7,0.2,1.6-0.6,2L256.5,289
				C256.3,289.1,256,289.2,255.8,289.2z M229.9,239.5l26.4,46.2l25.3-14.6l-26.4-46.2L229.9,239.5z"/>
		</g>
	</g>
	<g>
		<g>
			<polygon fill="#FFFFFF" points="283.7,271.6 283.7,303.5 255.8,319.6 255.8,287.8 			"/>
		</g>
		<g>
			<path fill="#4D4D4D" d="M255.8,321.1c-0.3,0-0.5-0.1-0.8-0.2c-0.5-0.3-0.8-0.8-0.8-1.3l0-31.8c0-0.5,0.3-1,0.8-1.3l27.9-16.1
				c0.5-0.3,1-0.3,1.5,0c0.5,0.3,0.8,0.8,0.8,1.3l0,31.8c0,0.5-0.3,1-0.7,1.3l-27.9,16.1C256.3,321,256,321.1,255.8,321.1z
				 M257.3,288.6l0,28.4l24.9-14.4l0-28.4L257.3,288.6z"/>
		</g>
	</g>
	<g>
		<g>
			<polygon fill="#FFFFFF" points="283.7,77.7 283.7,109.9 274.9,104.7 283.5,72.5 			"/>
		</g>
		<g>
			<path fill="#4D4D4D" d="M283.7,111.4c-0.3,0-0.5-0.1-0.8-0.2l-8.8-5.2c-0.6-0.3-0.9-1-0.7-1.7l8.6-32.3c0.2-0.7,0.9-1.2,1.6-1.1
				c0.7,0.1,1.3,0.7,1.3,1.4l0.2,5.2l0,32.3c0,0.5-0.3,1-0.8,1.3C284.2,111.4,283.9,111.4,283.7,111.4z M276.7,104l5.5,3.3v-24
				L276.7,104z"/>
		</g>
	</g>
	<g>
		<g>
			<polygon fill="#FFFFFF" points="283.7,77.7 283.7,109.9 292.5,104.7 283.5,72.5 			"/>
		</g>
		<g>
			<path fill="#4D4D4D" d="M283.7,111.4c-0.3,0-0.5-0.1-0.7-0.2c-0.5-0.3-0.8-0.8-0.8-1.3V77.7l-0.2-5.1c0-0.8,0.5-1.4,1.3-1.5
				c0.8-0.1,1.5,0.4,1.7,1.1l8.9,32.3c0.2,0.7-0.1,1.3-0.7,1.7l-8.8,5.2C284.2,111.4,284,111.4,283.7,111.4z M285.2,84.1l0,23.2
				l5.5-3.3L285.2,84.1z"/>
		</g>
	</g>
	<g>
		<g>
			<polygon fill="#FFFFFF" points="339.6,239.4 339.5,271.2 311.6,287.3 311.6,255.5 			"/>
		</g>
		<g>
			<path fill="#4D4D4D" d="M311.6,288.8c-0.3,0-0.5-0.1-0.8-0.2c-0.5-0.3-0.8-0.8-0.8-1.3l0-31.8c0-0.5,0.3-1,0.8-1.3l27.9-16.1
				c0.5-0.3,1-0.3,1.5,0c0.5,0.3,0.8,0.8,0.8,1.3l0,31.8c0,0.5-0.3,1-0.7,1.3l-27.9,16.1C312.1,288.8,311.9,288.8,311.6,288.8z
				 M313.1,256.4l0,28.4l24.9-14.4l0-28.4L313.1,256.4z"/>
		</g>
	</g>
	<g>
		<g>
			<polygon fill="#FFFFFF" points="255.8,319.6 255.8,287.3 227.8,239 200.5,255.5 199.9,287.3 227.8,303.5 227.8,303.5 			"/>
		</g>
		<g>
			<path fill="#4D4D4D" d="M255.8,321.1c-0.3,0-0.5-0.1-0.8-0.2l-27.9-16.1c0,0-0.1,0-0.1-0.1l-27.8-16.1c-0.5-0.3-0.8-0.8-0.8-1.3
				l0.6-31.9c0-0.5,0.3-1,0.7-1.3l27.3-16.5c0.3-0.2,0.8-0.3,1.1-0.2c0.4,0.1,0.7,0.4,0.9,0.7l27.9,48.4c0.1,0.2,0.2,0.5,0.2,0.8
				l0,32.3c0,0.5-0.3,1-0.8,1.3C256.3,321,256,321.1,255.8,321.1z M228.7,302.2l25.6,14.8l0-29.3l-27-46.7L202,256.3l-0.6,30.2
				l27.2,15.7C228.6,302.2,228.6,302.2,228.7,302.2z"/>
		</g>
	</g>
	<g>
		<g>
			<path fill="#4D4D4D" d="M267.3,309.6c-0.3,0-0.5-0.1-0.8-0.2c-0.5-0.3-0.7-0.8-0.7-1.3l0-18.2c0-2.2,1.3-4.7,3.1-5.7
				c1.4-0.8,3-0.5,3.9,0.7c0.4,0.6,0.7,1.4,0.7,2.3l0,18.2c0,0.5-0.3,1-0.8,1.3l-4.6,2.7C267.8,309.5,267.6,309.6,267.3,309.6z
				 M270.4,286.7C270.4,286.7,270.4,286.7,270.4,286.7c-0.7,0.4-1.6,1.8-1.6,3.1l0,15.6l1.6-0.9l0-17.4
				C270.4,287,270.4,286.8,270.4,286.7z"/>
		</g>
	</g>
	<g>
		<g>
			<path fill="#4D4D4D" d="M323.3,277.7c-0.3,0-0.5-0.1-0.8-0.2c-0.5-0.3-0.7-0.8-0.7-1.3l0-18.2c0-2.2,1.3-4.7,3.1-5.7
				c1.3-0.7,2.7-0.6,3.6,0.3c0.6,0.6,1,1.6,1,2.7l0,18.2c0,0.5-0.3,1-0.8,1.3l-4.6,2.7C323.8,277.6,323.5,277.7,323.3,277.7z
				 M326.3,254.9C326.3,254.9,326.3,254.9,326.3,254.9c-0.7,0.4-1.6,1.8-1.6,3.1l0,15.6l1.6-0.9l0-17.4
				C326.4,255.1,326.4,255,326.3,254.9z"/>
		</g>
	</g>
	<g>
		<g>
			<polygon fill="#FFFFFF" points="171.6,335 199.6,318.8 227.5,335 199.6,351.1 			"/>
		</g>
		<g>
			<path fill="#4D4D4D" d="M199.6,352.6c-0.3,0-0.5-0.1-0.8-0.2l-27.9-16.1c-0.5-0.3-0.8-0.8-0.8-1.3s0.3-1,0.8-1.3l27.9-16.1
				c0.5-0.3,1-0.3,1.5,0l27.9,16.1c0.5,0.3,0.8,0.8,0.8,1.3s-0.3,1-0.8,1.3l-27.9,16.1C200.1,352.5,199.8,352.6,199.6,352.6z
				 M174.6,335l24.9,14.4l24.9-14.4l-24.9-14.4L174.6,335z"/>
		</g>
	</g>
	<g>
		<g>
			<polygon fill="#FFFFFF" points="171.6,302.7 199.6,286.6 227.5,302.7 199.6,318.8 			"/>
		</g>
		<g>
			<path fill="#4D4D4D" d="M199.6,320.3c-0.3,0-0.5-0.1-0.8-0.2L170.9,304c-0.5-0.3-0.8-0.8-0.8-1.3s0.3-1,0.8-1.3l27.9-16.1
				c0.5-0.3,1-0.3,1.5,0l27.9,16.1c0.5,0.3,0.8,0.8,0.8,1.3s-0.3,1-0.8,1.3l-27.9,16.1C200.1,320.3,199.8,320.3,199.6,320.3z
				 M174.6,302.7l24.9,14.4l24.9-14.4l-24.9-14.4L174.6,302.7z"/>
		</g>
	</g>
	<g>
		<g>
			<polygon fill="#FFFFFF" points="199.6,289.6 199.6,321.8 171.6,338 171.6,305.7 			"/>
		</g>
		<g>
			<path fill="#4D4D4D" d="M171.6,339.5c-0.3,0-0.5-0.1-0.8-0.2c-0.5-0.3-0.8-0.8-0.8-1.3v-32.3c0-0.5,0.3-1,0.8-1.3l27.9-16.1
				c0.5-0.3,1-0.3,1.5,0c0.5,0.3,0.8,0.8,0.8,1.3l0,32.3c0,0.5-0.3,1-0.8,1.3l-27.9,16.1C172.2,339.4,171.9,339.5,171.6,339.5z
				 M173.1,306.6v28.8l24.9-14.4l0-28.8L173.1,306.6z"/>
		</g>
	</g>
	<g>
		<g>
			<polygon fill="#FFFFFF" points="199.6,286.6 199.6,318.8 227.5,335 227.5,302.7 			"/>
		</g>
		<g>
			<path fill="#4D4D4D" d="M227.5,336.5c-0.3,0-0.5-0.1-0.8-0.2l-27.9-16.1c-0.5-0.3-0.8-0.8-0.8-1.3l0-32.3c0-0.5,0.3-1,0.8-1.3
				s1-0.3,1.5,0l27.9,16.1c0.5,0.3,0.8,0.8,0.8,1.3V335c0,0.5-0.3,1-0.8,1.3C228,336.4,227.8,336.5,227.5,336.5z M201.1,318
				l24.9,14.4v-28.8l-24.9-14.4L201.1,318z"/>
		</g>
	</g>
	<g>
		<g>
			<polygon fill="#FFFFFF" points="171.6,302.7 199.6,318.8 227.5,302.7 199.6,286.6 			"/>
		</g>
		<g>
			<path fill="#4D4D4D" d="M199.6,320.3c-0.3,0-0.5-0.1-0.8-0.2L170.9,304c-0.5-0.3-0.8-0.8-0.8-1.3s0.3-1,0.8-1.3l27.9-16.1
				c0.5-0.3,1-0.3,1.5,0l27.9,16.1c0.5,0.3,0.8,0.8,0.8,1.3s-0.3,1-0.8,1.3l-27.9,16.1C200.1,320.3,199.8,320.3,199.6,320.3z
				 M174.6,302.7l24.9,14.4l24.9-14.4l-24.9-14.4L174.6,302.7z"/>
		</g>
	</g>
	<g>
		<g>
			<polygon fill="#FFFFFF" points="227.5,302.7 227.5,335 199.6,351.1 199.6,318.8 			"/>
		</g>
		<g>
			<path fill="#4D4D4D" d="M199.6,352.6c-0.3,0-0.5-0.1-0.8-0.2c-0.5-0.3-0.8-0.8-0.8-1.3v-32.3c0-0.5,0.3-1,0.8-1.3l27.9-16.1
				c0.5-0.3,1-0.3,1.5,0c0.5,0.3,0.8,0.8,0.8,1.3V335c0,0.5-0.3,1-0.8,1.3l-27.9,16.1C200.1,352.5,199.8,352.6,199.6,352.6z
				 M201.1,319.7v28.8l24.9-14.4v-28.8L201.1,319.7z"/>
		</g>
	</g>
	<g>
		<g>
			<polygon fill="#FFFFFF" points="171.6,305.7 188,304 199.6,321.8 			"/>
		</g>
		<g>
			<path fill="#4D4D4D" d="M199.6,323.3c-0.3,0-0.5-0.1-0.7-0.2L170.9,307c-0.6-0.3-0.9-1-0.7-1.6c0.1-0.6,0.7-1.1,1.3-1.2l16.4-1.7
				c0.6-0.1,1.1,0.2,1.4,0.7l11.5,17.9c0.4,0.6,0.3,1.3-0.2,1.8C200.4,323.2,200,323.3,199.6,323.3z M176.4,306.7l18.5,10.7
				l-7.7-11.9L176.4,306.7z"/>
		</g>
	</g>
	<g>
		<g>
			<polygon fill="#FFFFFF" points="198.6,285.6 214.5,284.5 226.5,301.7 			"/>
		</g>
		<g>
			<path fill="#4D4D4D" d="M226.5,303.2c-0.3,0-0.5-0.1-0.7-0.2l-27.9-16.1c-0.6-0.3-0.9-1-0.7-1.6c0.1-0.6,0.7-1.1,1.4-1.2
				l15.9-1.1c0.5,0,1,0.2,1.3,0.6l12,17.2c0.4,0.6,0.3,1.4-0.1,1.9C227.3,303,226.9,303.2,226.5,303.2z M203.6,286.7l17.9,10.3
				l-7.7-11L203.6,286.7z"/>
		</g>
	</g>
	<g>
		<g>
			<polygon fill="#FFFFFF" points="188,301 216.4,285.5 227.5,302.7 199.6,318.8 			"/>
		</g>
		<g>
			<path fill="#4D4D4D" d="M199.6,320.3c-0.5,0-1-0.2-1.3-0.7l-11.5-17.9c-0.2-0.4-0.3-0.8-0.2-1.2s0.4-0.7,0.7-0.9l28.4-15.5
				c0.7-0.4,1.6-0.2,2,0.5l11.1,17.2c0.2,0.3,0.3,0.8,0.2,1.2c-0.1,0.4-0.4,0.7-0.7,0.9l-27.9,16.1
				C200.1,320.3,199.8,320.3,199.6,320.3z M190.2,301.5l9.9,15.3l25.3-14.6l-9.5-14.7L190.2,301.5z"/>
		</g>
	</g>
	<g>
		<g>
			<polygon fill="#FFFFFF" points="216,285.7 200.1,285.9 171.6,302.7 188.1,300.9 			"/>
		</g>
		<g>
			<path fill="#4D4D4D" d="M171.6,304.2c-0.6,0-1.2-0.4-1.4-1c-0.2-0.7,0.1-1.4,0.7-1.8l28.4-16.8c0.2-0.1,0.5-0.2,0.7-0.2l15.9-0.2
				c0,0,0,0,0,0c0.7,0,1.3,0.5,1.5,1.1c0.2,0.7-0.1,1.4-0.7,1.7l-27.9,15.3c-0.2,0.1-0.4,0.2-0.6,0.2l-16.5,1.8
				C171.7,304.2,171.7,304.2,171.6,304.2z M200.5,287.4l-22.1,13.1l9.3-1l22.4-12.2L200.5,287.4z"/>
		</g>
	</g>
	<g>
		<g>
			<polygon fill="#FFFFFF" points="143.7,350.7 171.6,334.6 199.6,350.7 171.6,366.8 			"/>
		</g>
		<g>
			<path fill="#4D4D4D" d="M171.6,368.3c-0.3,0-0.5-0.1-0.8-0.2L143,352c-0.5-0.3-0.8-0.8-0.8-1.3s0.3-1,0.8-1.3l27.9-16.1
				c0.5-0.3,1-0.3,1.5,0l27.9,16.1c0.5,0.3,0.8,0.8,0.8,1.3s-0.3,1-0.8,1.3l-27.9,16.1C172.2,368.3,171.9,368.3,171.6,368.3z
				 M146.7,350.7l24.9,14.4l24.9-14.4l-24.9-14.4L146.7,350.7z"/>
		</g>
	</g>
	<g>
		<g>
			<polygon fill="#FFFFFF" points="143.7,318.4 171.6,302.3 199.6,318.4 171.6,334.6 			"/>
		</g>
		<g>
			<path fill="#4D4D4D" d="M171.6,336.1c-0.3,0-0.5-0.1-0.8-0.2L143,319.7c-0.5-0.3-0.8-0.8-0.8-1.3s0.3-1,0.8-1.3l27.9-16.1
				c0.5-0.3,1-0.3,1.5,0l27.9,16.1c0.5,0.3,0.8,0.8,0.8,1.3s-0.3,1-0.8,1.3l-27.9,16.1C172.2,336,171.9,336.1,171.6,336.1z
				 M146.7,318.4l24.9,14.4l24.9-14.4L171.6,304L146.7,318.4z"/>
		</g>
	</g>
	<g>
		<g>
			<polygon fill="#FFFFFF" points="171.6,302.3 171.6,334.6 143.7,350.7 143.7,318.4 			"/>
		</g>
		<g>
			<path fill="#4D4D4D" d="M143.7,352.2c-0.3,0-0.5-0.1-0.8-0.2c-0.5-0.3-0.8-0.8-0.8-1.3v-32.3c0-0.5,0.3-1,0.8-1.3l27.9-16.1
				c0.5-0.3,1-0.3,1.5,0c0.5,0.3,0.8,0.8,0.8,1.3l0,32.3c0,0.5-0.3,1-0.8,1.3L144.5,352C144.2,352.1,144,352.2,143.7,352.2z
				 M145.2,319.3v28.8l24.9-14.4l0-28.8L145.2,319.3z"/>
		</g>
	</g>
	<g>
		<g>
			<polygon fill="#FFFFFF" points="143.7,318.4 171.6,334.6 171.6,366.8 143.7,350.7 			"/>
		</g>
		<g>
			<path fill="#4D4D4D" d="M171.6,368.3c-0.3,0-0.5-0.1-0.8-0.2L143,352c-0.5-0.3-0.8-0.8-0.8-1.3v-32.3c0-0.5,0.3-1,0.8-1.3
				c0.5-0.3,1-0.3,1.5,0l27.9,16.1c0.5,0.3,0.8,0.8,0.8,1.3v32.3c0,0.5-0.3,1-0.8,1.3C172.2,368.3,171.9,368.3,171.6,368.3z
				 M145.2,349.8l24.9,14.4v-28.8L145.2,321V349.8z"/>
		</g>
	</g>
	<g>
		<g>
			<polygon fill="#FFFFFF" points="171.6,302.3 171.6,334.6 199.6,350.7 199.6,318.4 			"/>
		</g>
		<g>
			<path fill="#4D4D4D" d="M199.6,352.2c-0.3,0-0.5-0.1-0.8-0.2l-27.9-16.1c-0.5-0.3-0.8-0.8-0.8-1.3l0-32.3c0-0.5,0.3-1,0.8-1.3
				s1-0.3,1.5,0l27.9,16.1c0.5,0.3,0.8,0.8,0.8,1.3v32.3c0,0.5-0.3,1-0.8,1.3C200.1,352.1,199.8,352.2,199.6,352.2z M173.1,333.7
				l24.9,14.4v-28.8l-24.9-14.4L173.1,333.7z"/>
		</g>
	</g>
	<g>
		<g>
			<polygon fill="#FFFFFF" points="143.7,318.4 171.6,334.6 199.6,318.4 171.6,302.3 			"/>
		</g>
		<g>
			<path fill="#4D4D4D" d="M171.6,336.1c-0.3,0-0.5-0.1-0.8-0.2L143,319.7c-0.5-0.3-0.8-0.8-0.8-1.3s0.3-1,0.8-1.3l27.9-16.1
				c0.5-0.3,1-0.3,1.5,0l27.9,16.1c0.5,0.3,0.8,0.8,0.8,1.3s-0.3,1-0.8,1.3l-27.9,16.1C172.2,336,171.9,336.1,171.6,336.1z
				 M146.7,318.4l24.9,14.4l24.9-14.4L171.6,304L146.7,318.4z"/>
		</g>
	</g>
	<g>
		<g>
			<polygon fill="#FFFFFF" points="199.6,318.4 199.6,350.7 171.6,366.8 171.6,334.6 			"/>
		</g>
		<g>
			<path fill="#4D4D4D" d="M171.6,368.3c-0.3,0-0.5-0.1-0.8-0.2c-0.5-0.3-0.8-0.8-0.8-1.3v-32.3c0-0.5,0.3-1,0.8-1.3l27.9-16.1
				c0.5-0.3,1-0.3,1.5,0c0.5,0.3,0.8,0.8,0.8,1.3v32.3c0,0.5-0.3,1-0.8,1.3l-27.9,16.1C172.2,368.3,171.9,368.3,171.6,368.3z
				 M173.1,335.4v28.8l24.9-14.4V321L173.1,335.4z"/>
		</g>
	</g>
	<g>
		<g>
			<polygon fill="#FFFFFF" points="192.5,336.2 192.5,353.9 183.7,359 183.7,341.3 			"/>
		</g>
		<g>
			<path fill="#4D4D4D" d="M183.7,360.5c-0.3,0-0.5-0.1-0.8-0.2c-0.5-0.3-0.7-0.8-0.7-1.3l0-17.7c0-0.5,0.3-1,0.8-1.3l8.8-5
				c0.5-0.3,1-0.3,1.5,0c0.5,0.3,0.7,0.8,0.7,1.3l0,17.7c0,0.5-0.3,1-0.8,1.3l-8.8,5C184.2,360.4,183.9,360.5,183.7,360.5z
				 M185.2,342.1l0,14.3l5.8-3.3l0-14.3L185.2,342.1z"/>
		</g>
	</g>
	<g>
		<g>
			<polygon fill="#FFFFFF" points="216.9,322.2 216.9,339.9 208.1,345 208.2,327.2 			"/>
		</g>
		<g>
			<path fill="#4D4D4D" d="M208.1,346.5c-0.3,0-0.5-0.1-0.8-0.2c-0.5-0.3-0.7-0.8-0.7-1.3l0-17.7c0-0.5,0.3-1,0.8-1.3l8.8-5
				c0.5-0.3,1-0.3,1.5,0c0.5,0.3,0.7,0.8,0.7,1.3l0,17.7c0,0.5-0.3,1-0.8,1.3l-8.8,5C208.6,346.4,208.4,346.5,208.1,346.5z
				 M209.7,328.1l0,14.3l5.8-3.3l0-14.3L209.7,328.1z"/>
		</g>
	</g>
	<g>
		<g>
			<polygon fill="#FFFFFF" points="143.7,318.4 160.1,316.7 171.6,334.6 			"/>
		</g>
		<g>
			<path fill="#4D4D4D" d="M171.6,336.1c-0.3,0-0.5-0.1-0.7-0.2L143,319.7c-0.6-0.3-0.9-1-0.7-1.6c0.1-0.6,0.7-1.1,1.3-1.2l16.4-1.7
				c0.6-0.1,1.1,0.2,1.4,0.7l11.5,17.9c0.4,0.6,0.3,1.3-0.2,1.8C172.4,335.9,172,336.1,171.6,336.1z M148.4,319.4l18.5,10.7
				l-7.7-11.9L148.4,319.4z"/>
		</g>
	</g>
	<g>
		<g>
			<polygon fill="#FFFFFF" points="171.6,302.3 187.6,301.2 199.6,318.4 			"/>
		</g>
		<g>
			<path fill="#4D4D4D" d="M199.6,319.9c-0.3,0-0.5-0.1-0.7-0.2l-27.9-16.1c-0.6-0.3-0.9-1-0.7-1.6c0.1-0.6,0.7-1.1,1.4-1.2
				l15.9-1.1c0.5,0,1,0.2,1.3,0.6l12,17.2c0.4,0.6,0.3,1.4-0.1,1.9C200.4,319.8,200,319.9,199.6,319.9z M176.6,303.5l17.9,10.3
				l-7.7-11L176.6,303.5z"/>
		</g>
	</g>
	<g>
		<g>
			<polygon fill="#FFFFFF" points="160.1,316.7 188.5,301.2 199.6,318.4 171.6,334.6 			"/>
		</g>
		<g>
			<path fill="#4D4D4D" d="M171.6,336.1c-0.5,0-1-0.2-1.3-0.7l-11.5-17.9c-0.2-0.4-0.3-0.8-0.2-1.2s0.4-0.7,0.7-0.9l28.4-15.5
				c0.7-0.4,1.6-0.2,2,0.5l11.1,17.2c0.2,0.3,0.3,0.8,0.2,1.2c-0.1,0.4-0.4,0.7-0.7,0.9l-27.9,16.1
				C172.2,336,171.9,336.1,171.6,336.1z M162.2,317.3l9.9,15.3l25.3-14.6l-9.5-14.7L162.2,317.3z"/>
		</g>
	</g>
	<g>
		<g>
			<polygon fill="#FFFFFF" points="188.1,301.4 172.2,301.6 143.7,318.4 160.2,316.7 			"/>
		</g>
		<g>
			<path fill="#4D4D4D" d="M143.7,319.9c-0.6,0-1.2-0.4-1.4-1c-0.2-0.7,0.1-1.4,0.7-1.8l28.4-16.8c0.2-0.1,0.5-0.2,0.7-0.2l15.9-0.2
				c0,0,0,0,0,0c0.7,0,1.3,0.5,1.5,1.1c0.2,0.7-0.1,1.4-0.7,1.7L160.9,318c-0.2,0.1-0.4,0.2-0.6,0.2l-16.5,1.8
				C143.8,319.9,143.8,319.9,143.7,319.9z M172.6,303.1l-22.1,13.1l9.3-1l22.4-12.2L172.6,303.1z"/>
		</g>
	</g>
	<g>
		<g>
			<polygon fill="#FFFFFF" points="315.9,352.6 287.9,336.5 260,352.6 287.9,368.8 			"/>
		</g>
		<g>
			<path fill="#4D4D4D" d="M287.9,370.3c-0.3,0-0.5-0.1-0.8-0.2l-27.9-16.1c-0.5-0.3-0.8-0.8-0.8-1.3s0.3-1,0.8-1.3l27.9-16.1
				c0.5-0.3,1-0.3,1.5,0l27.9,16.1c0.5,0.3,0.8,0.8,0.8,1.3s-0.3,1-0.8,1.3l-27.9,16.1C288.5,370.2,288.2,370.3,287.9,370.3z
				 M263,352.6l24.9,14.4l24.9-14.4l-24.9-14.4L263,352.6z"/>
		</g>
	</g>
	<g>
		<g>
			<polygon fill="#FFFFFF" points="315.9,320.4 287.9,304.3 260,320.4 287.9,336.5 			"/>
		</g>
		<g>
			<path fill="#4D4D4D" d="M287.9,338c-0.3,0-0.5-0.1-0.8-0.2l-27.9-16.1c-0.5-0.3-0.8-0.8-0.8-1.3s0.3-1,0.8-1.3l27.9-16.1
				c0.5-0.3,1-0.3,1.5,0l27.9,16.1c0.5,0.3,0.8,0.8,0.8,1.3s-0.3,1-0.8,1.3l-27.9,16.1C288.5,337.9,288.2,338,287.9,338z M263,320.4
				l24.9,14.4l24.9-14.4L287.9,306L263,320.4z"/>
		</g>
	</g>
	<g>
		<g>
			<polygon fill="#FFFFFF" points="287.9,304.3 287.9,336.5 315.9,352.6 315.9,320.4 			"/>
		</g>
		<g>
			<path fill="#4D4D4D" d="M315.9,354.1c-0.3,0-0.5-0.1-0.8-0.2l-27.9-16.1c-0.5-0.3-0.8-0.8-0.8-1.3l0-32.3c0-0.5,0.3-1,0.8-1.3
				c0.5-0.3,1-0.3,1.5,0l27.9,16.1c0.5,0.3,0.8,0.8,0.8,1.3v32.3c0,0.5-0.3,1-0.8,1.3C316.4,354.1,316.1,354.1,315.9,354.1z
				 M289.4,335.6l24.9,14.4v-28.8l-24.9-14.4L289.4,335.6z"/>
		</g>
	</g>
	<g>
		<g>
			<polygon fill="#FFFFFF" points="315.9,320.4 287.9,336.5 287.9,368.8 315.9,352.6 			"/>
		</g>
		<g>
			<path fill="#4D4D4D" d="M287.9,370.3c-0.3,0-0.5-0.1-0.8-0.2c-0.5-0.3-0.8-0.8-0.8-1.3v-32.3c0-0.5,0.3-1,0.7-1.3l27.9-16.1
				c0.5-0.3,1-0.3,1.5,0s0.8,0.8,0.8,1.3v32.3c0,0.5-0.3,1-0.8,1.3l-27.9,16.1C288.5,370.2,288.2,370.3,287.9,370.3z M289.4,337.4
				v28.8l24.9-14.4V323L289.4,337.4z"/>
		</g>
	</g>
	<g>
		<g>
			<polygon fill="#FFFFFF" points="287.9,304.3 287.9,336.5 260,352.6 260,320.4 			"/>
		</g>
		<g>
			<path fill="#4D4D4D" d="M260,354.1c-0.3,0-0.5-0.1-0.8-0.2c-0.5-0.3-0.8-0.8-0.8-1.3v-32.3c0-0.5,0.3-1,0.8-1.3l27.9-16.1
				c0.5-0.3,1-0.3,1.5,0s0.8,0.8,0.8,1.3l0,32.3c0,0.5-0.3,1-0.8,1.3l-27.9,16.1C260.5,354.1,260.2,354.1,260,354.1z M261.5,321.3
				V350l24.9-14.4l0-28.8L261.5,321.3z"/>
		</g>
	</g>
	<g>
		<g>
			<polygon fill="#FFFFFF" points="315.9,320.4 287.9,336.5 260,320.4 287.9,304.3 			"/>
		</g>
		<g>
			<path fill="#4D4D4D" d="M287.9,338c-0.3,0-0.5-0.1-0.8-0.2l-27.9-16.1c-0.5-0.3-0.8-0.8-0.8-1.3s0.3-1,0.8-1.3l27.9-16.1
				c0.5-0.3,1-0.3,1.5,0l27.9,16.1c0.5,0.3,0.8,0.8,0.8,1.3s-0.3,1-0.8,1.3l-27.9,16.1C288.5,337.9,288.2,338,287.9,338z M263,320.4
				l24.9,14.4l24.9-14.4L287.9,306L263,320.4z"/>
		</g>
	</g>
	<g>
		<g>
			<polygon fill="#FFFFFF" points="260,320.4 260,352.6 287.9,368.8 287.9,336.5 			"/>
		</g>
		<g>
			<path fill="#4D4D4D" d="M287.9,370.3c-0.3,0-0.5-0.1-0.8-0.2l-27.9-16.1c-0.5-0.3-0.8-0.8-0.8-1.3v-32.3c0-0.5,0.3-1,0.8-1.3
				c0.5-0.3,1-0.3,1.5,0l27.9,16.1c0.5,0.3,0.8,0.8,0.8,1.3v32.3c0,0.5-0.3,1-0.8,1.3C288.5,370.2,288.2,370.3,287.9,370.3z
				 M261.5,351.8l24.9,14.4v-28.8L261.5,323V351.8z"/>
		</g>
	</g>
	<g>
		<g>
			<polygon fill="#FFFFFF" points="315.9,320.4 299.5,318.7 287.9,336.5 			"/>
		</g>
		<g>
			<path fill="#4D4D4D" d="M287.9,338c-0.4,0-0.8-0.2-1.1-0.5c-0.5-0.5-0.5-1.3-0.2-1.8l11.5-17.9c0.3-0.5,0.9-0.7,1.4-0.7l16.4,1.7
				c0.6,0.1,1.2,0.5,1.3,1.2c0.1,0.6-0.2,1.3-0.7,1.6l-27.9,16.1C288.4,337.9,288.2,338,287.9,338z M300.2,320.2l-7.7,11.9
				l18.5-10.7L300.2,320.2z"/>
		</g>
	</g>
	<g>
		<g>
			<polygon fill="#FFFFFF" points="287.9,304.2 272,303.2 260,320.4 			"/>
		</g>
		<g>
			<path fill="#4D4D4D" d="M260,321.9c-0.4,0-0.8-0.2-1.1-0.5c-0.5-0.5-0.5-1.3-0.1-1.9l12-17.2c0.3-0.4,0.8-0.7,1.3-0.6l15.9,1.1
				c0.7,0,1.2,0.5,1.4,1.2c0.1,0.6-0.1,1.3-0.7,1.6l-27.9,16.1C260.5,321.8,260.3,321.9,260,321.9z M272.7,304.7l-7.7,11l17.9-10.3
				L272.7,304.7z"/>
		</g>
	</g>
	<g>
		<g>
			<polygon fill="#FFFFFF" points="299.5,318.7 271.1,303.2 260,320.4 287.9,336.5 			"/>
		</g>
		<g>
			<path fill="#4D4D4D" d="M287.9,338c-0.3,0-0.5-0.1-0.7-0.2l-27.9-16.1c-0.4-0.2-0.6-0.5-0.7-0.9c-0.1-0.4,0-0.8,0.2-1.2
				l11.1-17.2c0.4-0.7,1.3-0.9,2-0.5l28.4,15.5c0.4,0.2,0.6,0.5,0.7,0.9s0,0.8-0.2,1.2l-11.5,17.9C288.9,337.8,288.4,338,287.9,338z
				 M262.1,319.9l25.3,14.6l9.9-15.3l-25.7-14.1L262.1,319.9z"/>
		</g>
	</g>
	<g>
		<g>
			<polygon fill="#FFFFFF" points="271.5,303.4 287.4,303.6 315.9,320.4 299.4,318.6 			"/>
		</g>
		<g>
			<path fill="#4D4D4D" d="M315.9,321.9c-0.1,0-0.1,0-0.2,0l-16.5-1.8c-0.2,0-0.4-0.1-0.6-0.2l-27.9-15.3c-0.6-0.3-0.9-1-0.7-1.7
				c0.2-0.7,0.8-1.1,1.5-1.1l15.9,0.2c0.3,0,0.5,0.1,0.7,0.2l28.4,16.8c0.6,0.4,0.9,1.1,0.7,1.8
				C317.1,321.5,316.5,321.9,315.9,321.9z M299.9,317.2l9.3,1L287,305.1l-9.5-0.1L299.9,317.2z"/>
		</g>
	</g>
	<g>
		<g>
			<polygon fill="#FFFFFF" points="395.4,237.5 367.5,221.4 339.6,237.5 367.5,253.6 			"/>
		</g>
		<g>
			<path fill="#4D4D4D" d="M367.5,255.1c-0.3,0-0.5-0.1-0.8-0.2l-27.9-16.1c-0.5-0.3-0.8-0.8-0.8-1.3c0-0.5,0.3-1,0.8-1.3l27.9-16.1
				c0.5-0.3,1-0.3,1.5,0l27.9,16.1c0.5,0.3,0.8,0.8,0.8,1.3c0,0.5-0.3,1-0.8,1.3l-27.9,16.1C368,255.1,367.8,255.1,367.5,255.1z
				 M342.6,237.5l24.9,14.4l24.9-14.4l-24.9-14.4L342.6,237.5z"/>
		</g>
	</g>
	<g>
		<g>
			<polygon fill="#FFFFFF" points="395.4,205.2 367.5,189.1 339.6,205.3 367.5,221.4 			"/>
		</g>
		<g>
			<path fill="#4D4D4D" d="M367.5,222.9c-0.3,0-0.5-0.1-0.8-0.2l-27.9-16.1c-0.5-0.3-0.8-0.8-0.8-1.3c0-0.5,0.3-1,0.8-1.3l27.9-16.1
				c0.5-0.3,1-0.3,1.5,0l27.9,16.1c0.5,0.3,0.8,0.8,0.8,1.3c0,0.5-0.3,1-0.8,1.3l-27.9,16.1C368,222.8,367.8,222.9,367.5,222.9z
				 M342.6,205.3l24.9,14.4l24.9-14.4l-24.9-14.4L342.6,205.3z"/>
		</g>
	</g>
	<g>
		<g>
			<polygon fill="#FFFFFF" points="367.5,189.1 367.5,221.4 395.4,237.5 395.4,205.2 			"/>
		</g>
		<g>
			<path fill="#4D4D4D" d="M395.4,239c-0.3,0-0.5-0.1-0.8-0.2l-27.9-16.1c-0.5-0.3-0.8-0.8-0.8-1.3l0-32.3c0-0.5,0.3-1,0.8-1.3
				c0.5-0.3,1-0.3,1.5,0l27.9,16.1c0.5,0.3,0.8,0.8,0.8,1.3v32.3c0,0.5-0.3,1-0.8,1.3C396,238.9,395.7,239,395.4,239z M369,220.5
				l24.9,14.4v-28.8L369,191.7L369,220.5z"/>
		</g>
	</g>
	<g>
		<g>
			<polygon fill="#FFFFFF" points="395.4,205.2 367.5,221.4 367.5,253.6 395.4,237.5 			"/>
		</g>
		<g>
			<path fill="#4D4D4D" d="M367.5,255.1c-0.3,0-0.5-0.1-0.8-0.2c-0.5-0.3-0.8-0.8-0.8-1.3v-32.3c0-0.5,0.3-1,0.8-1.3l27.9-16.1
				c0.5-0.3,1-0.3,1.5,0c0.5,0.3,0.8,0.8,0.8,1.3v32.3c0,0.5-0.3,1-0.8,1.3l-27.9,16.1C368,255.1,367.8,255.1,367.5,255.1z
				 M369,222.2V251l24.9-14.4v-28.8L369,222.2z"/>
		</g>
	</g>
	<g>
		<g>
			<polygon fill="#FFFFFF" points="367.5,189.1 367.5,221.4 339.6,237.5 339.6,205.3 			"/>
		</g>
		<g>
			<path fill="#4D4D4D" d="M339.6,239c-0.3,0-0.5-0.1-0.8-0.2c-0.5-0.3-0.8-0.8-0.8-1.3v-32.3c0-0.5,0.3-1,0.8-1.3l27.9-16.1
				c0.5-0.3,1-0.3,1.5,0c0.5,0.3,0.8,0.8,0.8,1.3l0,32.3c0,0.5-0.3,1-0.8,1.3l-27.9,16.1C340.1,238.9,339.8,239,339.6,239z
				 M341.1,206.1v28.8l24.9-14.4l0-28.8L341.1,206.1z"/>
		</g>
	</g>
	<g>
		<g>
			<polygon fill="#FFFFFF" points="395.4,205.2 367.5,221.4 339.6,205.3 367.5,189.1 			"/>
		</g>
		<g>
			<path fill="#4D4D4D" d="M367.5,222.9c-0.3,0-0.5-0.1-0.8-0.2l-27.9-16.1c-0.5-0.3-0.8-0.8-0.8-1.3c0-0.5,0.3-1,0.8-1.3l27.9-16.1
				c0.5-0.3,1-0.3,1.5,0l27.9,16.1c0.5,0.3,0.8,0.8,0.8,1.3c0,0.5-0.3,1-0.8,1.3l-27.9,16.1C368,222.8,367.8,222.9,367.5,222.9z
				 M342.6,205.3l24.9,14.4l24.9-14.4l-24.9-14.4L342.6,205.3z"/>
		</g>
	</g>
	<g>
		<g>
			<polygon fill="#FFFFFF" points="339.6,205.3 339.6,237.5 367.5,253.6 367.5,221.4 			"/>
		</g>
		<g>
			<path fill="#4D4D4D" d="M367.5,255.1c-0.3,0-0.5-0.1-0.8-0.2l-27.9-16.1c-0.5-0.3-0.8-0.8-0.8-1.3v-32.3c0-0.5,0.3-1,0.8-1.3
				c0.5-0.3,1-0.3,1.5,0l27.9,16.1c0.5,0.3,0.8,0.8,0.8,1.3v32.3c0,0.5-0.3,1-0.8,1.3C368,255.1,367.8,255.1,367.5,255.1z
				 M341.1,236.6L366,251v-28.8l-24.9-14.4V236.6z"/>
		</g>
	</g>
	<g>
		<g>
			<polygon fill="#FFFFFF" points="395.4,205.2 379,203.5 367.5,221.4 			"/>
		</g>
		<g>
			<path fill="#4D4D4D" d="M367.5,222.9c-0.4,0-0.8-0.2-1.1-0.5c-0.5-0.5-0.5-1.3-0.2-1.8l11.5-17.9c0.3-0.5,0.9-0.7,1.4-0.7
				l16.4,1.7c0.6,0.1,1.2,0.5,1.3,1.2c0.1,0.6-0.2,1.3-0.7,1.6l-27.9,16.1C368,222.8,367.8,222.9,367.5,222.9z M379.8,205.1
				l-7.7,11.9l18.5-10.7L379.8,205.1z"/>
		</g>
	</g>
	<g>
		<g>
			<polygon fill="#FFFFFF" points="367.5,189.1 351.6,188 339.6,205.2 			"/>
		</g>
		<g>
			<path fill="#4D4D4D" d="M339.6,206.8c-0.4,0-0.8-0.2-1.1-0.5c-0.5-0.5-0.5-1.3-0.1-1.9l12-17.2c0.3-0.4,0.8-0.7,1.3-0.6l15.9,1.1
				c0.7,0,1.2,0.5,1.4,1.2c0.1,0.6-0.1,1.3-0.7,1.6l-27.9,16.1C340.1,206.7,339.8,206.8,339.6,206.8z M352.3,189.6l-7.7,11
				l17.9-10.3L352.3,189.6z"/>
		</g>
	</g>
	<g>
		<g>
			<polygon fill="#FFFFFF" points="379,203.5 350.7,188 339.6,205.2 367.5,221.4 			"/>
		</g>
		<g>
			<path fill="#4D4D4D" d="M367.5,222.9c-0.3,0-0.5-0.1-0.7-0.2l-27.9-16.1c-0.4-0.2-0.6-0.5-0.7-0.9c-0.1-0.4,0-0.8,0.2-1.2
				l11.1-17.2c0.4-0.7,1.3-0.9,2-0.5l28.4,15.5c0.4,0.2,0.6,0.5,0.7,0.9c0.1,0.4,0,0.8-0.2,1.2l-11.5,17.9
				C368.5,222.6,368,222.9,367.5,222.9z M341.7,204.7l25.3,14.6l9.9-15.3L351.2,190L341.7,204.7z"/>
		</g>
	</g>
	<g>
		<g>
			<polygon fill="#FFFFFF" points="351,188.2 367,188.5 395.4,205.2 379,203.5 			"/>
		</g>
		<g>
			<path fill="#4D4D4D" d="M395.4,206.8c-0.1,0-0.1,0-0.2,0l-16.5-1.8c-0.2,0-0.4-0.1-0.6-0.2l-27.9-15.3c-0.6-0.3-0.9-1-0.7-1.7
				c0.2-0.7,0.7-1.1,1.5-1.1L367,187c0.3,0,0.5,0.1,0.7,0.2l28.4,16.8c0.6,0.4,0.9,1.1,0.7,1.8C396.7,206.3,396.1,206.8,395.4,206.8
				z M379.4,202l9.3,1l-22.1-13.1l-9.5-0.1L379.4,202z"/>
		</g>
	</g>
	<g>
		<g>
			<polygon fill="#FFFFFF" points="349.1,224.3 349.2,242 357.9,247.1 357.9,229.3 			"/>
		</g>
		<g>
			<path fill="#4D4D4D" d="M357.9,248.6c-0.3,0-0.5-0.1-0.7-0.2l-8.8-5c-0.5-0.3-0.8-0.8-0.8-1.3l0-17.7c0-0.5,0.3-1,0.7-1.3
				c0.5-0.3,1-0.3,1.5,0l8.8,5c0.5,0.3,0.8,0.8,0.8,1.3l0,17.7c0,0.5-0.3,1-0.7,1.3C358.5,248.5,358.2,248.6,357.9,248.6z
				 M350.7,241.2l5.8,3.3l0-14.3l-5.8-3.3L350.7,241.2z"/>
		</g>
	</g>
	<g>
		<g>
			<polygon fill="#20BEC7" points="455.9,193.2 316.2,273.8 316.2,338.4 455.9,257.7 466.2,219.5 			"/>
			<path fill="#4D4D4D" d="M316.2,339.9c-0.3,0-0.5-0.1-0.8-0.2c-0.5-0.3-0.8-0.8-0.8-1.3v-64.5c0-0.5,0.3-1,0.8-1.3l139.7-80.6
				c0.4-0.2,0.8-0.3,1.2-0.1c0.4,0.1,0.7,0.5,0.9,0.9l10.3,26.3c0.1,0.3,0.1,0.6,0.1,0.9l-10.3,38.2c-0.1,0.4-0.4,0.7-0.7,0.9
				l-139.7,80.6C316.7,339.8,316.4,339.9,316.2,339.9z M317.7,274.7v61.1l136.9-79l10-37.1l-9.5-24.2L317.7,274.7z"/>
		</g>
		<g>
			<polygon fill="#FFFFFF" points="394.4,287.5 404.5,293.1 404.8,390 394.7,384.4 			"/>
			<path fill="#4D4D4D" d="M404.8,391.5c-0.3,0-0.5-0.1-0.7-0.2l-10.1-5.6c-0.5-0.3-0.8-0.8-0.8-1.3l-0.3-96.9c0-0.5,0.3-1,0.7-1.3
				c0.5-0.3,1-0.3,1.5,0l10.1,5.6c0.5,0.3,0.8,0.8,0.8,1.3l0.3,96.9c0,0.5-0.3,1-0.7,1.3C405.3,391.4,405,391.5,404.8,391.5z
				 M396.2,383.5l7.1,3.9L403,294l-7.1-3.9L396.2,383.5z"/>
		</g>
		<g>
			<polygon fill="#FFFFFF" points="395.6,298.3 395.9,395.2 404.4,390.3 404.4,293.5 			"/>
			<path fill="#4D4D4D" d="M395.9,396.7c-0.3,0-0.5-0.1-0.7-0.2c-0.5-0.3-0.8-0.8-0.8-1.3l-0.3-96.9c0-0.6,0.3-1.1,0.8-1.3l8.8-4.7
				c0.5-0.3,1-0.2,1.5,0c0.5,0.3,0.7,0.8,0.7,1.3v96.8c0,0.5-0.3,1-0.8,1.3l-8.5,4.9C396.4,396.6,396.1,396.7,395.9,396.7z
				 M397.1,299.1l0.3,93.4l5.5-3.2V296L397.1,299.1z"/>
		</g>
		<g>
			<polygon fill="#FFFFFF" points="385.5,292.6 385.7,389.6 394.2,384.7 394.2,287.9 			"/>
			<path fill="#4D4D4D" d="M385.7,391.1c-0.3,0-0.5-0.1-0.7-0.2c-0.5-0.3-0.8-0.8-0.8-1.3l-0.3-96.9c0-0.6,0.3-1.1,0.8-1.3l8.8-4.7
				c0.5-0.3,1-0.2,1.5,0c0.5,0.3,0.7,0.8,0.7,1.3v96.8c0,0.5-0.3,1-0.8,1.3l-8.5,4.9C386.3,391,386,391.1,385.7,391.1z M387,293.5
				l0.3,93.4l5.5-3.2v-93.4L387,293.5z"/>
		</g>
		<g>
			<polygon fill="#FFFFFF" points="385.5,292.6 395.6,298.3 395.9,395.2 385.7,389.6 			"/>
			<path fill="#4D4D4D" d="M395.9,396.7c-0.3,0-0.5-0.1-0.7-0.2l-10.1-5.6c-0.5-0.3-0.8-0.8-0.8-1.3l-0.3-96.9c0-0.5,0.3-1,0.7-1.3
				c0.5-0.3,1-0.3,1.5,0l10.1,5.6c0.5,0.3,0.8,0.8,0.8,1.3l0.3,96.9c0,0.5-0.3,1-0.7,1.3C396.4,396.6,396.1,396.7,395.9,396.7z
				 M387.2,388.7l7.1,3.9l-0.3-93.5l-7.1-3.9L387.2,388.7z"/>
		</g>
		<g>
			<polygon fill="#FFFFFF" points="385.5,292.6 395.6,298.3 404.4,293.5 394.2,287.9 			"/>
			<path fill="#4D4D4D" d="M395.6,299.8c-0.3,0-0.5-0.1-0.7-0.2l-10.1-5.6c-0.5-0.3-0.8-0.8-0.8-1.3c0-0.5,0.3-1.1,0.8-1.3l8.8-4.7
				c0.5-0.2,1-0.2,1.4,0l10.1,5.6c0.5,0.3,0.8,0.8,0.8,1.3c0,0.5-0.3,1.1-0.8,1.3l-8.8,4.7C396.1,299.7,395.8,299.8,395.6,299.8z
				 M388.6,292.7l7,3.9l5.6-3.1l-7-3.9L388.6,292.7z"/>
		</g>
		<g>
			<polygon fill="#20BEC7" points="462.3,196.2 322.6,276.8 322.6,341.3 462.3,260.7 472.6,222.5 			"/>
			<path fill="#4D4D4D" d="M322.6,342.8c-0.3,0-0.5-0.1-0.8-0.2c-0.5-0.3-0.8-0.8-0.8-1.3v-64.5c0-0.5,0.3-1,0.8-1.3l139.7-80.6
				c0.4-0.2,0.8-0.3,1.2-0.1c0.4,0.1,0.7,0.5,0.9,0.9l10.3,26.3c0.1,0.3,0.1,0.6,0.1,0.9l-10.3,38.2c-0.1,0.4-0.4,0.7-0.7,0.9
				l-139.7,80.6C323.1,342.8,322.9,342.8,322.6,342.8z M324.1,277.7v61.1l136.9-79l10-37.1l-9.5-24.2L324.1,277.7z"/>
		</g>
		<g>
			<g>
				<path fill="#E6E7E8" d="M337.8,290.5l5.5-3.2v2l-1.8,1.1l2.4,10.4c0.1,0.6,0.2,1.2,0.2,1.2l0.1,0c0,0,0.1-0.8,0.2-1.5l3.3-15.6
					l1.9-1.1l3.2,11.9c0.2,0.5,0.2,1.2,0.2,1.2l0.1-0.1c0,0,0-0.7,0.2-1.4l2.4-13.2l-1.8,1.1v-2l5.5-3.2v2l-1.5,0.9l-3.5,18
					l-2.5,1.4l-3-11c-0.2-0.5-0.2-1.3-0.2-1.3l-0.1,0.1c0,0,0,0.8-0.2,1.5l-3,14.5l-2.5,1.4l-3.5-14l-1.5,0.9V290.5z"/>
			</g>
			<g>
				<path fill="#E6E7E8" d="M363,291.9l1.9-1.1v-14l-1.9,1.1v-2l11.2-6.5v4.2l-1.9,1.1v-2.1l-5.2,3v5.8l5.5-3.2v2.1l-5.5,3.2v5.9
					l5.6-3.2v-2.2l1.9-1.1v4.2l-11.6,6.7V291.9z"/>
			</g>
			<g>
				<path fill="#E6E7E8" d="M379.1,282.6l1.9-1.1v-13.9l-1.9,1.1v-2.1l6.1-3.5v2.1l-2,1.1v13.8l5.4-3.1v-2.9l1.9-1.1v5l-11.5,6.6
					V282.6z"/>
			</g>
			<g>
				<path fill="#E6E7E8" d="M394.6,273.7l1.9-1.1v-14l-1.9,1.1v-2l5.8-3.4v2l-1.7,1v5.6l2-1.2l3.4-7.6l-1.4,0.8v-2l5.3-3v2l-1.5,0.9
					l-4,8.8v0.1c0,0,0.4,0,0.9,0.7l2.8,4c0.2,0.3,0.5,0.3,1.1,0l0.7-0.4v2l-1.6,0.9c-1.3,0.7-1.7,0.6-2.2-0.1l-3-4.5
					c-0.3-0.4-0.6-0.4-1.2,0l-1.3,0.7v6.3l1.9-1.1v2l-6.1,3.5V273.7z"/>
			</g>
			<g>
				<path fill="#E6E7E8" d="M419.4,243.1c4.5-2.6,8-0.6,8,4.5c0,5.3-3.5,11.4-8,14c-4.5,2.6-8,0.5-8-4.8
					C411.4,251.7,414.9,245.8,419.4,243.1z M419.4,259.4c3.1-1.8,5.7-6.4,5.7-10.4c0-3.9-2.6-5.4-5.7-3.6c-3.2,1.8-5.7,6.3-5.7,10.2
					C413.7,259.6,416.2,261.3,419.4,259.4z"/>
			</g>
			<g>
				<path fill="#E6E7E8" d="M431.3,252.5l1.9-1.1l1-14.6l-2,1.1v-2l4.4-2.5l4,8.6c0.2,0.6,0.4,1.1,0.4,1.1l0,0c0,0,0.1-0.6,0.4-1.5
					l4-13.2l4.4-2.5v2l-2,1.1l1,13.4l1.9-1.1v2l-6,3.5v-2l1.9-1.1l-0.7-10.3c0-0.5,0.1-1.5,0.1-1.5l-0.1,0c0,0-0.2,1-0.4,1.6
					l-3.6,11.5l-1.9,1.1l-3.6-7.4c-0.2-0.4-0.4-1.2-0.4-1.2l-0.1,0c0,0,0.1,0.9,0.1,1.4l-0.7,11.1l1.9-1.1v2l-6,3.5V252.5z"/>
			</g>
		</g>
		<g>
			<path fill="#FFFFFF" stroke="#4D4D4D" stroke-width="3" stroke-linejoin="round" stroke-miterlimit="10" d="M387.6,303.8"/>
		</g>
		<g>
			<path fill="#FFFFFF" stroke="#4D4D4D" stroke-width="3" stroke-linejoin="round" stroke-miterlimit="10" d="M378.7,315.5"/>
		</g>
		<g>
			<polygon fill="#20BEC7" points="316.2,273.8 322.6,276.8 322.6,341.3 316.2,338.4 			"/>
			<path fill="#4D4D4D" d="M322.6,342.8c-0.2,0-0.4,0-0.6-0.1l-6.4-3c-0.5-0.2-0.9-0.8-0.9-1.4v-64.5c0-0.5,0.3-1,0.7-1.3
				c0.4-0.3,1-0.3,1.4-0.1l6.4,3c0.5,0.2,0.9,0.8,0.9,1.4v64.5c0,0.5-0.3,1-0.7,1.3C323.2,342.7,322.9,342.8,322.6,342.8z
				 M317.7,337.4l3.4,1.6v-61.2l-3.4-1.6V337.4z"/>
		</g>
		<g>
			<polygon fill="#20BEC7" points="322.6,276.8 462.3,196.2 455.9,193.2 316.2,273.8 			"/>
			<path fill="#4D4D4D" d="M322.6,278.3c-0.2,0-0.4,0-0.6-0.1l-6.4-3c-0.5-0.2-0.8-0.7-0.9-1.3c0-0.6,0.3-1.1,0.7-1.4l139.7-80.6
				c0.4-0.2,0.9-0.3,1.4-0.1l6.4,3c0.5,0.2,0.8,0.7,0.9,1.3c0,0.6-0.3,1.1-0.7,1.4l-139.7,80.6C323.1,278.2,322.9,278.3,322.6,278.3
				z M319.4,273.7l3.1,1.4l136.5-78.8l-3.1-1.4L319.4,273.7z"/>
		</g>
		<g>
			<g>
				<path fill="#FFFFFF" d="M338.4,290.5l5.5-3.2v2l-1.8,1.1l2.4,10.4c0.1,0.6,0.2,1.2,0.2,1.2l0.1,0c0,0,0.1-0.8,0.2-1.5l3.3-15.6
					l1.9-1.1l3.2,11.9c0.2,0.5,0.2,1.2,0.2,1.2l0.1-0.1c0,0,0-0.7,0.2-1.4l2.4-13.2l-1.8,1.1v-2l5.5-3.2v2l-1.5,0.9l-3.5,18
					l-2.5,1.4l-3-11c-0.2-0.5-0.2-1.3-0.2-1.3l-0.1,0.1c0,0,0,0.8-0.2,1.5l-3,14.5l-2.5,1.4l-3.5-14l-1.5,0.9V290.5z"/>
			</g>
			<g>
				<path fill="#FFFFFF" d="M363.6,291.9l1.9-1.1v-14l-1.9,1.1v-2l11.2-6.5v4.2l-1.9,1.1v-2.1l-5.2,3v5.8l5.5-3.2v2.1l-5.5,3.2v5.9
					l5.6-3.2v-2.2l1.9-1.1v4.2l-11.6,6.7V291.9z"/>
			</g>
			<g>
				<path fill="#FFFFFF" d="M379.8,282.6l1.9-1.1v-13.9l-1.9,1.1v-2.1l6.1-3.5v2.1l-2,1.1v13.8l5.4-3.1v-2.9l1.9-1.1v5l-11.5,6.6
					V282.6z"/>
			</g>
			<g>
				<path fill="#FFFFFF" d="M395.2,273.7l1.9-1.1v-14l-1.9,1.1v-2l5.8-3.4v2l-1.7,1v5.6l2-1.2l3.4-7.6l-1.4,0.8v-2l5.3-3v2l-1.5,0.9
					l-4,8.8v0.1c0,0,0.4,0,0.9,0.7l2.8,4c0.2,0.3,0.5,0.3,1.1,0l0.7-0.4v2l-1.6,0.9c-1.3,0.7-1.7,0.6-2.2-0.1l-3-4.5
					c-0.3-0.4-0.6-0.4-1.2,0l-1.3,0.7v6.3l1.9-1.1v2l-6.1,3.5V273.7z"/>
			</g>
			<g>
				<path fill="#FFFFFF" d="M420,243.1c4.5-2.6,8-0.6,8,4.5c0,5.3-3.5,11.4-8,14c-4.5,2.6-8,0.5-8-4.8
					C412,251.7,415.5,245.8,420,243.1z M420,259.4c3.1-1.8,5.7-6.4,5.7-10.4c0-3.9-2.6-5.4-5.7-3.6c-3.2,1.8-5.7,6.3-5.7,10.2
					C414.3,259.6,416.8,261.3,420,259.4z"/>
			</g>
			<g>
				<path fill="#FFFFFF" d="M431.9,252.5l1.9-1.1l1-14.6l-2,1.1v-2l4.4-2.5l4,8.6c0.2,0.6,0.4,1.1,0.4,1.1l0,0c0,0,0.1-0.6,0.4-1.5
					l4-13.2l4.4-2.5v2l-2,1.1l1,13.4l1.9-1.1v2l-6,3.5v-2l1.9-1.1l-0.7-10.3c0-0.5,0.1-1.5,0.1-1.5l-0.1,0c0,0-0.2,1-0.4,1.6
					l-3.6,11.5l-1.9,1.1l-3.6-7.4c-0.2-0.4-0.4-1.2-0.4-1.2l-0.1,0c0,0,0.1,0.9,0.1,1.4l-0.7,11.1l1.9-1.1v2l-6,3.5V252.5z"/>
			</g>
		</g>
	</g>
</g>
<g id="Layer_2">
</g>
</svg>
